<svg width="1024" height="1024" viewBox="0 0 1024 1024" fill="currentColor">
<path d="M198.656 419.84h-63.488l-107.52 296.96h59.392l26.624-76.8h105.472l26.624 76.8h61.44l-108.544-296.96zM132.096 587.776l33.792-95.232 34.816 95.232h-68.608zM680.96 523.264c-16.384-17.408-37.888-28.672-64.512-33.792v-2.048c19.456-8.192 33.792-20.48 45.056-35.84 10.24-15.36 15.36-32.768 15.36-53.248 0-16.384-4.096-31.744-11.264-45.056-8.192-14.336-19.456-24.576-34.816-32.768-15.36-7.168-30.72-12.288-47.104-14.336-15.36-3.072-38.912-4.096-72.704-4.096h-160.768v414.72h181.248c29.696 0 54.272-3.072 73.728-8.192s37.888-14.336 54.272-26.624c14.336-10.24 24.576-22.528 32.768-38.912 8.192-15.36 12.288-33.792 12.288-53.248 0-27.648-8.192-50.176-23.552-66.56zM456.704 378.88h10.24c20.48 0 36.864 0 48.128 0s21.504 2.048 29.696 5.12c8.192 3.072 14.336 8.192 17.408 15.36 4.096 6.144 5.12 13.312 5.12 20.48 0 8.192-1.024 16.384-4.096 23.552-3.072 6.144-9.216 12.288-18.432 16.384-7.168 3.072-16.384 5.12-28.672 5.12-11.264 1.024-25.6 1.024-43.008 1.024h-16.384v-87.040zM587.776 614.4c-4.096 8.192-12.288 14.336-23.552 18.432-10.24 5.12-22.528 7.168-35.84 7.168-12.288 0-33.792 0-64.512 0h-7.168v-102.4h23.552c15.36 0 30.72 0 45.056 0 15.36 0 26.624 1.024 34.816 4.096 12.288 3.072 20.48 9.216 25.6 16.384 5.12 6.144 8.192 16.384 8.192 29.696 0 10.24-2.048 19.456-6.144 26.624zM992.256 627.712v60.416l-6.144 2.048c-7.168 3.072-13.312 6.144-18.432 8.192-6.144 3.072-14.336 6.144-22.528 9.216-8.192 2.048-17.408 4.096-26.624 6.144s-19.456 3.072-30.72 3.072c-20.48 0-39.936-3.072-58.368-9.216-17.408-6.144-32.768-16.384-46.080-28.672-13.312-13.312-23.552-29.696-30.72-49.152-6.144-18.432-10.24-40.96-10.24-66.56 0-23.552 3.072-45.056 10.24-64.512 7.168-18.432 17.408-35.84 30.72-49.152 12.288-12.288 27.648-22.528 46.080-29.696 29.696-11.264 68.608-13.312 105.472-4.096 15.36 4.096 32.768 10.24 51.2 19.456l6.144 3.072v60.416h-17.408l-2.048-3.072c-14.336-11.264-28.672-20.48-43.008-25.6-13.312-5.12-28.672-8.192-44.032-8.192-12.288 0-24.576 2.048-33.792 6.144-10.24 4.096-18.432 10.24-26.624 18.432-7.168 8.192-13.312 18.432-17.408 31.744-4.096 12.288-7.168 27.648-7.168 45.056 0 18.432 3.072 33.792 7.168 47.104 5.12 12.288 11.264 22.528 18.432 30.72 8.192 7.168 16.384 13.312 26.624 17.408s21.504 6.144 32.768 6.144c16.384 0 31.744-3.072 46.080-9.216 14.336-5.12 27.648-13.312 40.96-24.576l2.048-3.072h17.408z"></path>
</svg>
