<!-- Generated by IcoMoon.io -->
<svg version="1.1" xmlns="http://www.w3.org/2000/svg" width="1024" height="1024" viewBox="0 0 1024 1024">
<g id="icomoon-ignore">
</g>
<path d="M389.12 229.376c-3.072-4.096-4.096-9.216-4.096-14.336 1.024-4.096 3.072-9.216 7.168-12.288 7.168-6.144 19.456-5.12 25.6 2.048l45.056 46.080c6.144 7.168 6.144 17.408 0 23.552-3.072 4.096-8.192 7.168-14.336 7.168-4.096 0-8.192-2.048-12.288-5.12l-45.056-45.056c0-1.024-1.024-2.048-2.048-2.048zM783.36 284.672c5.12 0 9.216-1.024 12.288-4.096 1.024-1.024 2.048-1.024 2.048-2.048l45.056-45.056c4.096-3.072 6.144-7.168 7.168-12.288s-1.024-10.24-4.096-13.312c-7.168-8.192-19.456-9.216-26.624-3.072-1.024 1.024-1.024 2.048-2.048 2.048l-45.056 45.056c-4.096 3.072-6.144 8.192-7.168 12.288s1.024 10.24 5.12 14.336c3.072 4.096 8.192 6.144 13.312 6.144zM522.24 145.408l16.384 61.44c1.024 9.216 9.216 15.36 17.408 15.36 2.048 0 3.072 0 4.096-1.024 10.24-2.048 16.384-11.264 14.336-21.504 0-1.024 0-1.024 0-1.024l-16.384-62.464c-3.072-9.216-12.288-16.384-22.528-14.336-5.12 1.024-9.216 4.096-11.264 8.192-3.072 4.096-4.096 9.216-3.072 14.336 0 0 0 1.024 1.024 1.024zM778.24 517.12c31.744 31.744 49.152 73.728 49.152 117.76 0 91.136-74.752 165.888-165.888 165.888 0 0 0 0-1.024 0h-1.024c0-1.024-11.264-4.096-11.264-19.456 0-12.288 8.192-17.408 12.288-18.432 11.264 0 21.504-1.024 30.72-3.072 69.632-16.384 112.64-86.016 95.232-155.648-16.384-68.608-86.016-111.616-154.624-95.232-10.24 2.048-19.456 6.144-28.672 10.24-1.024 1.024-3.072 1.024-5.12 2.048-5.12 0-10.24-1.024-13.312-4.096s-7.168-7.168-7.168-12.288c-13.312-76.8-78.848-133.12-156.672-134.144-43.008-1.024-83.968 15.36-114.688 45.056s-48.128 70.656-49.152 113.664v10.24c1.024 3.072 1.024 6.144 1.024 8.192s1.024 3.072 0 5.12c0 5.12-2.048 9.216-6.144 12.288s-8.192 5.12-13.312 5.12h-6.144c0 0 0 0 0 0-25.6 0-48.128 9.216-66.56 25.6l-2.048 2.048c-18.432 18.432-27.648 43.008-28.672 68.608 0 25.6 10.24 50.176 28.672 68.608s43.008 27.648 68.608 27.648c5.12 1.024 14.336 6.144 14.336 19.456 0 7.168-1.024 11.264-4.096 14.336s-7.168 4.096-10.24 4.096c0 0-1.024 0-1.024 0v0c-69.632-1.024-126.976-55.296-132.096-124.928-3.072-35.84 9.216-69.632 32.768-97.28 22.528-25.6 53.248-41.984 88.064-45.056v-4.096c0-18.432 2.048-36.864 7.168-54.272 14.336-51.2 47.104-93.184 93.184-118.784 45.056-25.6 98.304-32.768 147.456-19.456 44.032-73.728 136.192-105.472 216.064-73.728 89.088 36.864 133.12 138.24 97.28 227.328-2.048 6.144-5.12 12.288-8.192 18.432l-1.024 2.048c2.048 2.048 4.096 4.096 6.144 6.144zM669.696 297.984c-32.768-13.312-68.608-13.312-101.376 0-26.624 10.24-49.152 28.672-64.512 52.224 11.264 6.144 22.528 12.288 32.768 20.48 3.072 2.048 48.128 33.792 72.704 106.496 16.384-6.144 34.816-8.192 52.224-8.192 27.648 0 55.296 6.144 79.872 20.48 2.048-4.096 4.096-8.192 5.12-12.288 28.672-70.656-6.144-150.528-76.8-179.2zM827.392 376.832c2.048 8.192 9.216 13.312 18.432 13.312 1.024 0 2.048 0 3.072 0l63.488-16.384c4.096-2.048 8.192-5.12 10.24-9.216s3.072-9.216 2.048-14.336c-3.072-8.192-10.24-13.312-18.432-13.312-1.024 0-2.048 0-3.072 1.024l-62.464 16.384c-10.24 2.048-15.36 12.288-13.312 22.528zM911.36 493.568l-61.44-16.384c-10.24-3.072-20.48 3.072-23.552 12.288-1.024 5.12 0 10.24 2.048 14.336s6.144 7.168 11.264 8.192l61.44 17.408c2.048 0 3.072 1.024 5.12 1.024 8.192 0 15.36-6.144 18.432-14.336 2.048-9.216-3.072-19.456-13.312-22.528zM673.792 221.184c2.048 1.024 3.072 1.024 5.12 1.024 8.192 0 15.36-5.12 18.432-14.336l16.384-61.44c1.024-5.12 1.024-9.216-2.048-14.336s-6.144-7.168-11.264-8.192c-9.216-3.072-19.456 3.072-22.528 12.288l-17.408 62.464c-2.048 9.216 3.072 19.456 13.312 22.528zM351.232 816.128c-8.192-4.096-18.432-1.024-22.528 7.168l-27.648 54.272c-4.096 8.192-1.024 18.432 7.168 22.528 3.072 2.048 5.12 2.048 8.192 2.048 6.144 0 12.288-3.072 14.336-9.216l27.648-54.272c4.096-8.192 1.024-18.432-7.168-22.528zM432.128 816.128c-8.192-4.096-18.432-1.024-22.528 7.168l-27.648 54.272c-4.096 8.192 0 18.432 8.192 22.528 2.048 2.048 5.12 2.048 7.168 2.048 6.144 0 12.288-3.072 15.36-9.216l26.624-54.272c4.096-8.192 1.024-18.432-7.168-22.528zM513.024 816.128c-8.192-4.096-18.432-1.024-22.528 7.168l-26.624 54.272c-4.096 8.192-1.024 18.432 7.168 22.528 3.072 2.048 5.12 2.048 8.192 2.048 6.144 0 11.264-3.072 14.336-9.216l27.648-54.272c4.096-8.192 0-18.432-8.192-22.528zM594.944 816.128c-8.192-4.096-18.432-1.024-22.528 7.168l-27.648 54.272c-4.096 8.192 0 18.432 8.192 22.528 2.048 2.048 5.12 2.048 7.168 2.048 6.144 0 12.288-3.072 15.36-9.216l26.624-54.272c4.096-8.192 1.024-18.432-7.168-22.528zM351.232 707.584c-8.192-4.096-18.432 0-22.528 7.168l-27.648 54.272c-4.096 8.192-1.024 18.432 7.168 22.528 3.072 2.048 5.12 2.048 8.192 2.048 6.144 0 12.288-3.072 14.336-9.216l27.648-54.272c4.096-8.192 1.024-18.432-7.168-22.528zM432.128 707.584c-8.192-4.096-18.432 0-22.528 7.168l-27.648 54.272c-4.096 8.192 0 18.432 8.192 22.528 2.048 2.048 5.12 2.048 7.168 2.048 6.144 0 12.288-3.072 15.36-9.216l26.624-54.272c2.048-4.096 3.072-8.192 1.024-12.288-1.024-5.12-4.096-8.192-8.192-10.24zM513.024 707.584c-8.192-4.096-18.432 0-22.528 7.168l-26.624 54.272c-4.096 8.192-1.024 18.432 7.168 22.528 3.072 2.048 5.12 2.048 8.192 2.048 6.144 0 11.264-3.072 14.336-9.216l27.648-54.272c4.096-8.192 0-18.432-8.192-22.528zM594.944 707.584c-8.192-4.096-18.432 0-22.528 7.168l-27.648 54.272c-4.096 8.192 0 18.432 8.192 22.528 2.048 2.048 4.096 2.048 7.168 2.048 6.144 0 12.288-3.072 15.36-9.216l26.624-54.272c4.096-8.192 1.024-18.432-7.168-22.528z"></path>
</svg>
