<!-- Generated by IcoMoon.io -->
<svg version="1.1" xmlns="http://www.w3.org/2000/svg" width="1024" height="1024" viewBox="0 0 1024 1024">
<g id="icomoon-ignore">
</g>
<path d="M503.808 655.36c-38.912 0-75.776-15.36-101.376-40.96-25.6-26.624-40.96-62.464-40.96-102.4s15.36-75.776 40.96-101.376c25.6-25.6 62.464-41.984 101.376-41.984v-53.248c-53.248 0-103.424 21.504-138.24 57.344-35.84 35.84-58.368 86.016-58.368 139.264s22.528 104.448 58.368 139.264c34.816 34.816 84.992 58.368 138.24 58.368v-54.272zM139.264 539.648h79.872c14.336 0 26.624-13.312 26.624-27.648s-12.288-26.624-26.624-26.624h-79.872c-14.336 0-27.648 12.288-27.648 26.624s11.264 27.648 27.648 27.648zM283.648 695.296l-57.344 56.32c-10.24 10.24-10.24 27.648 0 37.888s26.624 10.24 36.864 0l57.344-57.344c10.24-10.24 10.24-26.624 0-36.864-9.216-11.264-26.624-11.264-36.864 0zM283.648 329.728c10.24 10.24 26.624 10.24 36.864 0s10.24-26.624 0-37.888l-57.344-56.32c-10.24-10.24-26.624-10.24-36.864 0s-10.24 26.624 0 36.864l57.344 57.344zM569.344 904.192c13.312 0 23.552-10.24 23.552-23.552v-97.28l72.704 40.96c3.072 2.048 7.168 2.048 11.264 2.048 9.216 0 16.384-3.072 20.48-11.264 7.168-12.288 3.072-25.6-9.216-32.768l-95.232-53.248v-177.152l151.552 87.040-1.024 111.616c0 13.312 10.24 24.576 23.552 24.576s22.528-10.24 23.552-23.552l1.024-84.992 84.992 49.152c3.072 2.048 7.168 3.072 12.288 3.072 9.216 0 15.36-4.096 20.48-11.264 6.144-11.264 2.048-25.6-9.216-32.768v0l-84.992-48.128 71.68-43.008c12.288-5.12 15.36-21.504 9.216-32.768-7.168-11.264-21.504-13.312-32.768-7.168l-95.232 55.296-151.552-88.064 151.552-87.040 95.232 56.32c3.072 2.048 7.168 3.072 11.264 3.072 8.192 0 15.36-4.096 21.504-11.264 6.144-11.264 3.072-26.624-9.216-32.768l-71.68-41.984 84.992-49.152c11.264-6.144 15.36-20.48 9.216-31.744s-21.504-15.36-32.768-9.216l-84.992 49.152-1.024-84.992c-1.024-13.312-10.24-23.552-23.552-23.552s-23.552 11.264-23.552 23.552l1.024 112.64-151.552 87.040v-177.152l95.232-54.272c11.264-6.144 16.384-20.48 9.216-31.744-6.144-11.264-20.48-15.36-31.744-8.192l-72.704 39.936v-96.256c0-13.312-10.24-23.552-23.552-23.552 0 0-20.48-2.048-24.576 17.408-5.12 19.456 0 746.496 0 746.496s3.072 20.48 24.576 20.48zM451.584 226.304c0 15.36 11.264 26.624 26.624 26.624 14.336 0 25.6-11.264 25.6-26.624v-79.872c0-15.36-11.264-26.624-25.6-26.624-15.36 0-26.624 11.264-26.624 26.624v79.872zM503.808 796.672c0-14.336-11.264-25.6-25.6-25.6-15.36 0-26.624 11.264-26.624 25.6v80.896c0 15.36 11.264 26.624 26.624 26.624 14.336 0 25.6-11.264 25.6-26.624v-80.896z"></path>
</svg>
