<!-- Generated by IcoMoon.io -->
<svg version="1.1" xmlns="http://www.w3.org/2000/svg" width="1024" height="1024" viewBox="0 0 1024 1024">
<g id="icomoon-ignore">
</g>
<path d="M202.752 290.816h-1.024c-3.072 0-7.168-3.072-8.192-7.168l-39.936-82.944c-1.024-3.072 0-9.216 2.048-11.264 4.096-3.072 8.192-4.096 12.288-3.072l83.968 39.936c3.072 2.048 5.12 5.12 6.144 8.192 0 3.072-1.024 7.168-5.12 9.216-15.36 11.264-28.672 24.576-39.936 39.936-4.096 5.12-7.168 7.168-10.24 7.168zM184.32 218.112l20.48 41.984c7.168-8.192 14.336-15.36 21.504-21.504l-41.984-20.48zM168.96 432.128c-1.024 0-2.048 0-3.072-1.024l-87.040-29.696c-4.096-2.048-7.168-6.144-7.168-10.24s3.072-8.192 7.168-9.216l87.040-30.72c3.072-1.024 7.168-1.024 9.216 2.048 3.072 3.072 5.12 6.144 4.096 9.216-2.048 10.24-3.072 20.48-3.072 29.696s1.024 19.456 3.072 29.696c1.024 3.072-1.024 6.144-4.096 9.216-1.024 0-4.096 1.024-6.144 1.024zM113.664 391.168l43.008 15.36c0-5.12-1.024-11.264-1.024-15.36 0-5.12 0-10.24 1.024-15.36l-43.008 15.36zM162.816 595.968c-2.048 0-5.12-1.024-7.168-3.072-3.072-2.048-4.096-7.168-2.048-12.288l39.936-82.944c1.024-3.072 4.096-5.12 7.168-6.144 4.096 0 7.168 1.024 9.216 4.096 11.264 16.384 24.576 29.696 40.96 40.96 2.048 2.048 4.096 5.12 4.096 9.216 0 3.072-2.048 7.168-6.144 7.168l-81.92 40.96c-1.024 1.024-2.048 2.048-4.096 2.048zM204.8 521.216l-20.48 41.984 41.984-20.48c-7.168-6.144-14.336-13.312-21.504-21.504zM510.976 290.816c-3.072 0-6.144-2.048-8.192-5.12-11.264-15.36-24.576-28.672-39.936-40.96-3.072-1.024-5.12-5.12-5.12-8.192s3.072-7.168 6.144-8.192l83.968-39.936c3.072-2.048 8.192-1.024 11.264 2.048 2.048 3.072 4.096 8.192 2.048 11.264l-39.936 82.944c-2.048 4.096-5.12 6.144-8.192 6.144-1.024 0-1.024 0-2.048 0zM488.448 238.592c7.168 7.168 14.336 14.336 20.48 21.504l20.48-41.984-40.96 20.48zM326.656 212.992c-2.048 0-6.144-1.024-8.192-3.072-2.048-3.072-2.048-6.144-1.024-10.24l29.696-87.040c3.072-7.168 17.408-7.168 19.456 0l30.72 87.040c0 4.096 0 7.168-2.048 10.24-3.072 2.048-6.144 4.096-10.24 3.072-19.456-2.048-38.912-2.048-57.344 0h-1.024zM357.376 190.464c5.12 0 10.24 0 14.336 1.024l-14.336-44.032-15.36 44.032c4.096-1.024 9.216-1.024 15.36-1.024zM273.408 507.904c-1.024 0-4.096 0-6.144-1.024-36.864-26.624-56.32-66.56-56.32-116.736 0-79.872 65.536-145.408 146.432-145.408 78.848 0 139.264 53.248 145.408 126.976 0 3.072-1.024 5.12-3.072 8.192-2.048 2.048-4.096 3.072-8.192 3.072-30.72 0-62.464 9.216-80.896 26.624-14.336 13.312-33.792 33.792-35.84 54.272 0 5.12-5.12 10.24-10.24 10.24-25.6 0-55.296 0-83.968 31.744-2.048 2.048-4.096 2.048-7.168 2.048zM357.376 265.216c-69.632 0-125.952 57.344-125.952 125.952 0 38.912 14.336 70.656 40.96 93.184 28.672-28.672 59.392-31.744 82.944-31.744 5.12-23.552 23.552-43.008 39.936-57.344 20.48-19.456 51.2-31.744 83.968-32.768-8.192-58.368-56.32-97.28-121.856-97.28zM395.264 916.48c-1.024 0-3.072 0-4.096-1.024-3.072-1.024-5.12-6.144-3.072-9.216l60.416-150.528-44.032 5.12c-2.048 0-6.144-1.024-7.168-3.072-1.024-3.072-1.024-7.168 0-8.192l134.144-202.752c3.072-3.072 6.144-4.096 10.24-2.048 3.072 2.048 5.12 6.144 3.072 9.216l-61.44 137.216 38.912-3.072c2.048 0 5.12 1.024 6.144 3.072 2.048 3.072 2.048 6.144 0 8.192l-126.976 212.992c-1.024 3.072-4.096 4.096-6.144 4.096zM460.8 738.304c2.048 0 4.096 1.024 6.144 3.072s2.048 5.12 1.024 8.192l-28.672 70.656 69.632-115.712-36.864 3.072c-3.072 0-5.12-1.024-7.168-3.072-2.048-3.072-2.048-6.144-1.024-8.192l28.672-64.512-72.704 110.592 39.936-5.12c0 1.024 0 1.024 1.024 1.024zM509.952 844.8c-1.024 0-2.048 0-4.096-1.024l-3.072-1.024c-1.024-1.024-3.072-3.072-4.096-6.144-1.024-1.024 0-4.096 1.024-6.144l69.632-119.808c3.072-5.12 8.192-6.144 12.288-4.096l2.048 2.048c2.048 1.024 4.096 3.072 4.096 5.12 1.024 3.072 0 4.096 0 6.144v0l-70.656 120.832c-1.024 2.048-3.072 4.096-7.168 4.096zM582.656 716.8v0 0zM578.56 714.752v0 0zM557.056 844.8c-2.048 0-2.048 0-4.096-1.024l-3.072-1.024c-1.024-1.024-3.072-3.072-4.096-6.144s0-4.096 1.024-6.144l69.632-119.808c3.072-5.12 8.192-6.144 11.264-4.096l3.072 2.048c2.048 1.024 3.072 3.072 4.096 5.12 1.024 3.072 0 4.096-1.024 6.144v0l-69.632 120.832c-2.048 2.048-4.096 4.096-7.168 4.096zM629.76 716.8v0 0zM625.664 714.752v0 0zM603.136 844.8c-2.048 0-2.048 0-4.096-1.024l-3.072-1.024c-4.096-3.072-5.12-8.192-3.072-12.288l69.632-119.808c3.072-5.12 8.192-6.144 11.264-4.096l3.072 2.048c4.096 3.072 5.12 8.192 3.072 11.264v0l-69.632 120.832c-1.024 2.048-3.072 4.096-7.168 4.096zM675.84 716.8v0 0zM650.24 844.8c-2.048 0-3.072 0-4.096-1.024l-3.072-1.024c-2.048-1.024-3.072-3.072-4.096-6.144-1.024-1.024 0-4.096 1.024-6.144l69.632-119.808c3.072-5.12 8.192-6.144 11.264-4.096l3.072 2.048c4.096 3.072 5.12 8.192 3.072 11.264v0l-69.632 120.832c-2.048 2.048-4.096 4.096-7.168 4.096zM722.944 716.8v0 0zM718.848 714.752v0 0zM856.064 678.912h-318.464c-5.12 0-10.24-4.096-10.24-10.24s4.096-10.24 10.24-10.24h318.464c40.96 0 75.776-33.792 75.776-76.8 0-33.792-21.504-62.464-54.272-72.704-4.096-1.024-7.168-5.12-7.168-9.216v-12.288c0-77.824-63.488-137.216-147.456-142.336h-44.032c-52.224 0-99.328 25.6-126.976 69.632-3.072 3.072-7.168 5.12-11.264 4.096-37.888-10.24-78.848-2.048-105.472 23.552-16.384 14.336-25.6 33.792-27.648 54.272 0 5.12-5.12 10.24-10.24 10.24h-37.888c-40.96 0-75.776 33.792-75.776 75.776s33.792 75.776 75.776 75.776h60.416c5.12 0 10.24 5.12 10.24 11.264s-4.096 10.24-10.24 10.24h-60.416c-53.248 0-96.256-43.008-96.256-96.256s43.008-96.256 96.256-96.256h28.672c3.072-22.528 15.36-44.032 32.768-59.392 29.696-28.672 74.752-38.912 117.76-29.696 30.72-45.056 82.944-72.704 140.288-72.704h44.032c95.232 4.096 167.936 74.752 167.936 161.792v6.144c36.864 14.336 61.44 50.176 61.44 89.088 0 53.248-43.008 96.256-96.256 96.256z"></path>
</svg>
