<!-- Generated by IcoMoon.io -->
<svg version="1.1" xmlns="http://www.w3.org/2000/svg" width="1024" height="1024" viewBox="0 0 1024 1024">
<g id="icomoon-ignore">
</g>
<path d="M188.416 279.552c-1.024 0-1.024 0-1.024 0-4.096 0-7.168-2.048-9.216-6.144l-41.984-86.016c-2.048-4.096-1.024-9.216 2.048-12.288s9.216-4.096 13.312-3.072l86.016 41.984c4.096 2.048 6.144 5.12 6.144 9.216 1.024 4.096-1.024 7.168-4.096 9.216-16.384 12.288-30.72 26.624-43.008 43.008-2.048 3.072-5.12 4.096-8.192 4.096zM168.96 204.8l21.504 44.032c7.168-8.192 14.336-15.36 22.528-22.528l-44.032-21.504zM152.576 428.032c-1.024 0-2.048 0-3.072 0l-91.136-31.744c-4.096-2.048-7.168-6.144-7.168-10.24s3.072-9.216 7.168-10.24l91.136-31.744c3.072-2.048 7.168-1.024 10.24 1.024 3.072 3.072 4.096 6.144 4.096 10.24-2.048 10.24-3.072 20.48-3.072 30.72s1.024 19.456 3.072 29.696c0 4.096-1.024 8.192-4.096 10.24-2.048 2.048-4.096 2.048-7.168 2.048zM94.208 386.048l46.080 15.36c-1.024-5.12-1.024-10.24-1.024-15.36s0-11.264 1.024-16.384l-46.080 16.384zM146.432 600.064c-3.072 0-5.12-1.024-7.168-3.072-4.096-3.072-5.12-8.192-3.072-12.288l41.984-87.040c2.048-3.072 5.12-6.144 9.216-6.144 3.072 0 7.168 1.024 9.216 4.096 12.288 16.384 26.624 31.744 43.008 43.008 3.072 2.048 5.12 6.144 4.096 10.24 0 3.072-2.048 7.168-6.144 8.192l-86.016 41.984c-2.048 1.024-3.072 1.024-5.12 1.024zM190.464 522.24l-21.504 44.032 44.032-21.504c-8.192-6.144-15.36-14.336-22.528-22.528zM512 279.552c-4.096 0-7.168-1.024-9.216-4.096-12.288-16.384-26.624-30.72-43.008-43.008-3.072-2.048-4.096-6.144-4.096-9.216 0-4.096 2.048-7.168 6.144-9.216l86.016-41.984c5.12-2.048 9.216-1.024 13.312 3.072 3.072 3.072 4.096 8.192 2.048 12.288l-41.984 86.016c-2.048 4.096-5.12 6.144-9.216 6.144 0 0 0 0 0 0zM486.4 226.304c8.192 7.168 16.384 14.336 22.528 22.528l21.504-44.032-44.032 21.504zM317.44 199.68c-3.072 0-6.144-1.024-8.192-4.096s-3.072-7.168-2.048-10.24l31.744-91.136c3.072-8.192 18.432-8.192 21.504 0l31.744 91.136c1.024 3.072 0 7.168-2.048 10.24-3.072 3.072-6.144 4.096-10.24 4.096-20.48-3.072-39.936-3.072-60.416 0-1.024 0-1.024 0-2.048 0zM350.208 175.104c5.12 0 10.24 1.024 15.36 1.024l-15.36-46.080-16.384 46.080c5.12 0 10.24-1.024 16.384-1.024zM262.144 508.928c-2.048 0-4.096-1.024-6.144-2.048-38.912-27.648-59.392-69.632-59.392-120.832 0-84.992 68.608-153.6 153.6-153.6 82.944 0 146.432 56.32 151.552 133.12 0 3.072-1.024 6.144-3.072 8.192s-5.12 4.096-8.192 4.096c-32.768-1.024-65.536 9.216-84.992 27.648-15.36 13.312-35.84 34.816-36.864 56.32-1.024 5.12-5.12 10.24-11.264 10.24-25.6 0-57.344 0-87.040 32.768-2.048 3.072-5.12 4.096-8.192 4.096zM350.208 253.952c-72.704 0-132.096 59.392-132.096 132.096 0 39.936 14.336 73.728 43.008 97.28 30.72-29.696 62.464-32.768 87.040-33.792 6.144-23.552 25.6-44.032 41.984-60.416 21.504-19.456 54.272-31.744 89.088-32.768-10.24-61.44-61.44-102.4-129.024-102.4zM389.12 935.936c-1.024 0-2.048 0-3.072-1.024-4.096-2.048-6.144-6.144-4.096-10.24l63.488-156.672-45.056 5.12c-3.072 0-6.144-1.024-8.192-4.096s-1.024-6.144 0-8.192l140.288-211.968c2.048-4.096 7.168-5.12 10.24-3.072 4.096 2.048 5.12 7.168 4.096 10.24l-64.512 144.384 39.936-3.072c3.072 0 6.144 1.024 7.168 4.096 2.048 2.048 2.048 5.12 1.024 8.192l-134.144 222.208c-1.024 3.072-4.096 4.096-7.168 4.096zM457.728 749.568c3.072 0 5.12 1.024 7.168 3.072 1.024 2.048 2.048 5.12 1.024 8.192l-30.72 74.752 72.704-120.832-37.888 3.072c-3.072 0-5.12-1.024-7.168-3.072-2.048-3.072-2.048-6.144-1.024-8.192l30.72-67.584-76.8 115.712 40.96-5.12c1.024 0 1.024 0 1.024 0zM509.952 860.16c-1.024 0-3.072 0-4.096-1.024l-3.072-1.024c-4.096-3.072-5.12-8.192-3.072-12.288l72.704-126.976c1.024-2.048 3.072-3.072 6.144-4.096 2.048-1.024 4.096 0 6.144 1.024l3.072 2.048c4.096 2.048 6.144 7.168 3.072 12.288l-72.704 125.952c-1.024 2.048-3.072 3.072-5.12 4.096-1.024 0-2.048 0-3.072 0zM581.632 723.968c0 0 0 0 0 0v0zM559.104 860.16c-1.024 0-3.072 0-4.096-1.024l-3.072-1.024c-2.048-2.048-4.096-3.072-4.096-6.144-1.024-2.048-1.024-4.096 1.024-6.144l72.704-126.976c2.048-4.096 8.192-5.12 12.288-3.072l3.072 2.048c4.096 2.048 5.12 7.168 3.072 12.288v0l-72.704 125.952c-2.048 2.048-3.072 3.072-6.144 4.096 0 0-1.024 0-2.048 0zM634.88 727.040v0zM630.784 723.968v0 0zM608.256 860.16c-2.048 0-3.072 0-5.12-1.024l-3.072-1.024c-4.096-3.072-5.12-8.192-3.072-12.288l72.704-126.976c2.048-2.048 3.072-3.072 6.144-4.096 2.048-1.024 4.096 0 6.144 1.024l3.072 2.048c4.096 2.048 6.144 7.168 3.072 12.288v0l-72.704 125.952c-1.024 2.048-3.072 3.072-5.12 4.096-1.024 0-2.048 0-2.048 0zM684.032 727.040v0zM678.912 723.968v0 0zM656.384 860.16c-1.024 0-3.072 0-4.096-1.024l-3.072-1.024c-4.096-3.072-6.144-8.192-3.072-12.288l72.704-126.976c2.048-4.096 8.192-5.12 12.288-3.072l3.072 2.048c2.048 1.024 3.072 3.072 4.096 5.12s0 5.12-1.024 7.168l-72.704 125.952c-2.048 3.072-5.12 4.096-8.192 4.096zM728.064 723.968c0 0 0 0 0 0v0zM871.424 687.104h-332.8c-5.12 0-10.24-4.096-10.24-10.24s5.12-11.264 10.24-11.264h332.8c44.032 0 79.872-34.816 79.872-78.848 0-34.816-23.552-66.56-56.32-75.776-5.12-2.048-8.192-6.144-8.192-11.264v-13.312c0-79.872-66.56-143.36-154.624-147.456h-46.080c-54.272 0-104.448 26.624-132.096 71.68-3.072 4.096-7.168 6.144-12.288 5.12-39.936-11.264-81.92-2.048-110.592 23.552-16.384 15.36-26.624 35.84-28.672 57.344 0 6.144-5.12 10.24-10.24 10.24h-38.912c-44.032 0-79.872 35.84-79.872 79.872s35.84 78.848 79.872 78.848h62.464c6.144 0 11.264 5.12 11.264 11.264s-5.12 10.24-11.264 10.24h-62.464c-56.32 0-101.376-45.056-101.376-100.352 0-56.32 45.056-101.376 101.376-101.376h29.696c3.072-23.552 15.36-45.056 33.792-61.44 31.744-29.696 77.824-40.96 122.88-31.744 32.768-47.104 87.040-74.752 146.432-74.752h46.080c101.376 4.096 176.128 76.8 176.128 168.96v6.144c38.912 14.336 64.512 52.224 64.512 94.208 0 55.296-45.056 100.352-101.376 100.352z"></path>
</svg>
