<!-- Generated by IcoMoon.io -->
<svg version="1.1" xmlns="http://www.w3.org/2000/svg" width="1024" height="1024" viewBox="0 0 1024 1024">
<g id="icomoon-ignore">
</g>
<path d="M824.32 655.36v0 2.048h-1.024l1.024-1.024v-1.024zM829.44 670.72v0h1.024l-1.024-1.024v1.024zM827.392 658.432v1.024l1.024 1.024h1.024v-1.024l-1.024-2.048h-1.024v1.024zM824.32 668.672h2.048v-2.048h-1.024l-4.096-4.096-2.048-1.024-1.024-1.024h-1.024l-1.024-1.024v-1.024l-3.072-2.048-1.024-1.024h-1.024l-1.024-1.024h-1.024l-1.024-1.024v1.024l2.048 2.048v1.024l5.12 5.12 6.144 4.096h1.024v1.024h1.024l1.024 1.024zM833.536 663.552v0-1.024h-2.048l1.024 1.024h1.024zM829.44 611.328h1.024l-1.024 1.024v-1.024zM828.416 625.664v0 0 0h-1.024v1.024h1.024l1.024 1.024v2.048h2.048v-2.048l-2.048-1.024-1.024-1.024zM829.44 615.424h1.024v-1.024h-1.024v1.024zM843.776 653.312v1.024h1.024l-1.024-1.024zM840.704 644.096h-1.024v2.048h2.048l-1.024-1.024v-1.024zM840.704 649.216l1.024 1.024 1.024-1.024h-1.024v-1.024h-1.024v1.024zM827.392 623.616v1.024h1.024v-1.024h-1.024zM832.512 627.712v0h1.024v1.024h1.024v-2.048h-1.024v1.024h-1.024zM835.584 637.952v0h1.024v-1.024h-1.024v-1.024l-2.048 2.048h2.048zM834.56 630.784v0h-1.024l1.024 1.024h1.024v-1.024h-1.024zM833.536 621.568h-2.048v1.024h1.024l1.024-1.024zM824.32 617.472v0 0h-1.024v1.024l1.024 1.024v3.072l1.024 1.024h2.048v-1.024h1.024l-1.024-2.048v-1.024h-1.024v1.024h-1.024v-2.048l-1.024-1.024zM834.56 620.544l-1.024-1.024v2.048l1.024 1.024v-2.048zM833.536 623.616v1.024l1.024 1.024v-2.048l-1.024-1.024v1.024zM920.576 615.424v0 0 0 0 0zM932.864 608.256v0 0 0 0 0 0 0zM889.856 603.136v0 0 0 0 0zM909.312 626.688v0 0 0h-1.024v1.024h1.024v-1.024zM908.288 629.76l1.024-1.024v1.024h-1.024zM908.288 629.76v0 0 0 0 0zM914.432 633.856v0zM914.432 638.976v0 0 0 0 0 0zM919.552 638.976v0 0 0 0 0 0 0 0zM917.504 647.168v0 0 0 0 0 0 0 0 0 0 0zM916.48 641.024v0 0 0 0 0 0 0zM908.288 631.808v0 0 0 0zM909.312 645.12v1.024h1.024v-1.024h-1.024zM909.312 630.784v1.024h-1.024v1.024l1.024-1.024v-1.024zM908.288 631.808v0 0 0zM901.12 636.928v0zM905.216 634.88v0zM908.288 630.784v0-1.024h-1.024l-1.024 1.024v-1.024l2.048-2.048h-3.072l-1.024 1.024-2.048 1.024h-1.024v1.024h-2.048v1.024h1.024v1.024h1.024l1.024-1.024h1.024l1.024-1.024 1.024 1.024h1.024l1.024-1.024h1.024zM904.192 638.976v0 0 0 0 0zM900.096 636.928h-1.024v-1.024h-1.024v-1.024h-3.072l-1.024 1.024-2.048 1.024v3.072h1.024l2.048 1.024h2.048l3.072-1.024v-3.072zM890.88 633.856v0 0 0h1.024v-1.024h-1.024v1.024zM897.024 646.144l-1.024 1.024h1.024l2.048-1.024-1.024-1.024-1.024 1.024zM820.224 591.872h1.024l-1.024 1.024h-1.024v-1.024h1.024zM825.344 596.992v0zM796.672 591.872v-1.024h-1.024v-1.024h-1.024l-2.048-1.024h-2.048v1.024h1.024l1.024 1.024v1.024h2.048l1.024 1.024h2.048l-1.024-1.024zM791.552 583.68v0 0 1.024h1.024v1.024h-1.024v-2.048zM768 579.584v0h-1.024v-1.024l1.024 1.024zM764.928 573.44v2.048h-1.024l-1.024-1.024h1.024v-1.024h1.024zM765.952 578.56v0h-1.024l1.024-1.024v1.024zM769.024 577.536v1.024h-1.024v-1.024h-1.024v-1.024h-2.048v-1.024h1.024v-1.024h1.024v1.024h1.024v1.024h1.024v1.024zM771.072 578.56h-1.024v1.024l-1.024-1.024 1.024-1.024 1.024 1.024zM763.904 570.368l-1.024-1.024-1.024-2.048-1.024-1.024h1.024l2.048 1.024v1.024h1.024v1.024l1.024 1.024h-2.048zM771.072 579.584v0 0 0 0 0zM761.856 572.416h1.024l-1.024 1.024v1.024l-1.024-2.048h1.024zM760.832 574.464v0zM787.456 585.728v1.024h-2.048l-4.096-1.024h-1.024v-3.072h1.024l1.024 1.024h3.072l2.048 2.048zM780.288 577.536v0 0 0zM785.408 598.016l1.024 1.024h-1.024l-1.024-1.024h-1.024l-1.024-1.024h2.048l1.024 1.024zM784.384 581.632h-1.024v-1.024h1.024v1.024zM777.216 580.608v1.024h-1.024l1.024-1.024zM780.288 577.536v0 0 0zM780.288 577.536v0l-5.12-3.072-2.048-2.048v-1.024l1.024 1.024 6.144 3.072 1.024 1.024v2.048l-1.024-1.024zM791.552 584.704h-1.024l-2.048-2.048v-1.024l-1.024-1.024v-1.024l-1.024-1.024v-2.048h1.024l1.024 1.024v2.048l2.048 2.048v2.048l1.024 1.024zM755.712 568.32v0zM956.416 578.56v0 0 0zM964.608 583.68v0zM967.68 614.4h1.024l-1.024 1.024h-1.024l1.024-1.024zM961.536 612.352h-3.072l1.024 1.024h3.072v-1.024h-1.024zM954.368 610.304l2.048 2.048v-1.024h1.024l1.024-1.024h-4.096zM940.032 660.48v0 0 0l-1.024 1.024v-1.024h1.024zM941.056 661.504h-1.024l1.024 1.024v-1.024zM946.176 644.096v0 0zM732.16 541.696v0 0 0 0 0zM694.272 552.96h-1.024v1.024h1.024v-1.024zM676.864 577.536h1.024l1.024 1.024h-1.024l-1.024-1.024zM678.912 577.536v0 0-1.024h-2.048l1.024 1.024h1.024zM723.968 588.8h-3.072l-2.048-1.024v-1.024h-1.024v-1.024h1.024v-1.024h-3.072l-1.024-1.024v-2.048l-1.024-1.024-2.048 1.024h-1.024v-1.024h-1.024v-1.024l-1.024-1.024v-1.024l-1.024-1.024v-2.048h-2.048l-4.096-4.096v-1.024l-1.024-1.024v-1.024l1.024-1.024h4.096v-2.048l-1.024-1.024v-1.024h-1.024l-1.024-1.024h-2.048l-3.072-1.024-4.096-1.024v-1.024h-1.024l1.024-2.048v-1.024l-1.024-1.024v-1.024l-1.024-1.024-3.072-1.024-3.072-3.072h-4.096l-1.024-1.024-2.048-1.024-5.12-1.024-4.096-2.048-3.072-2.048h-3.072v23.552l-1.024 1.024v2.048h1.024v14.336h1.024v1.024l2.048-1.024 5.12 1.024h3.072l2.048-1.024 1.024-1.024h1.024v-2.048h-1.024v-1.024h-2.048v-1.024h-4.096v-1.024l1.024 1.024h6.144l1.024-1.024v-1.024h2.048v-2.048l1.024 1.024 1.024-1.024h4.096l1.024 1.024 5.12 1.024 2.048 2.048 2.048 3.072 2.048 2.048h1.024v1.024l1.024 1.024v1.024h1.024l3.072 3.072h2.048l8.192 1.024 2.048 1.024h1.024l2.048 2.048h1.024l1.024-1.024h1.024l-1.024-1.024 1.024-1.024zM705.536 538.624v0zM701.44 558.080h-1.024v-1.024h1.024l1.024 1.024h-1.024zM705.536 559.104h1.024l1.024 1.024-1.024 1.024-1.024-1.024v-1.024zM720.896 583.68v0l-1.024-1.024h2.048v1.024h-1.024zM721.92 584.704h1.024l-1.024-1.024h2.048l1.024 1.024v1.024l-1.024-1.024h-2.048zM727.040 577.536v0 1.024h-1.024v1.024-2.048h1.024zM724.992 591.872l-1.024-1.024h1.024v1.024zM756.736 565.248v2.048h-3.072v-1.024l-1.024-1.024v-1.024h-1.024l-2.048-3.072v-2.048h2.048l2.048 3.072 2.048 2.048h1.024v1.024zM749.568 556.032v1.024l-1.024 1.024v-2.048h1.024zM746.496 595.968v0 0zM742.4 549.888v0 0 0 0 0 0 0zM742.4 596.992l1.024 1.024h-2.048l-1.024-1.024v-1.024h-1.024l2.048 1.024h1.024zM698.368 536.576h4.096v1.024h-5.12l1.024-1.024zM724.992 540.672v0 0l7.168 4.096h1.024l2.048 3.072 3.072 1.024 1.024 1.024v1.024l-1.024 1.024v2.048h-1.024l-1.024-2.048v-2.048l-1.024-2.048-2.048-2.048h-2.048v-1.024l-3.072-2.048-1.024-1.024h-3.072l1.024-1.024zM711.68 559.104h6.144l1.024-1.024v-1.024l1.024-1.024v2.048l1.024 1.024h1.024v-1.024h1.024v1.024h1.024v-1.024h2.048l1.024-2.048 1.024-1.024h2.048v-2.048l-1.024-2.048h5.12v4.096h-2.048v1.024l1.024 1.024v1.024l-1.024 1.024h-3.072l-3.072 3.072-3.072 1.024h-2.048l-2.048 1.024h-1.024l-2.048-2.048h-2.048l-1.024-1.024h-2.048l-1.024-1.024h-1.024v-1.024h3.072zM720.896 539.648h1.024v1.024h-1.024l-2.048-1.024h2.048zM717.824 533.504v0 0h-1.024v-1.024h1.024v1.024zM728.064 587.776l-1.024 1.024-1.024-1.024h-1.024v-2.048h-1.024l2.048 1.024v1.024h1.024v-1.024l1.024 1.024zM736.256 544.768l-1.024-1.024h1.024v1.024zM737.28 580.608l1.024 1.024v1.024h-1.024l-2.048-2.048h2.048zM732.16 542.72v0zM562.176 616.448h1.024l-1.024 1.024v-1.024zM559.104 622.592v-1.024h-1.024l1.024 1.024zM500.736 658.432v0 0h1.024v-1.024h-1.024v1.024zM741.376 701.44v0 0 1.024h-1.024v-1.024h1.024zM741.376 705.536v0 0 0 0 0zM738.304 688.128v4.096l2.048-3.072v-4.096h-1.024v1.024h1.024l-2.048 2.048zM722.944 667.648v0 0zM726.016 675.84v1.024l1.024 1.024v-1.024l-1.024-1.024zM718.848 666.624v0 0zM712.704 653.312v0 0 0 0 0 0 0zM713.728 654.336v0l-1.024-1.024v1.024h1.024zM695.296 641.024v1.024h1.024v-1.024h-1.024zM670.72 591.872v0-1.024h-1.024v1.024h1.024zM669.696 588.8v0zM670.72 588.8v0 0 0 0zM632.832 611.328v0 0 1.024h-1.024v-1.024h1.024zM634.88 623.616v0 0 0zM634.88 595.968h1.024v-2.048l-1.024 2.048zM637.952 624.64v0 0 0-1.024h-1.024v1.024h1.024zM631.808 598.016h2.048v-1.024h-1.024v1.024h-1.024zM635.904 614.4v-1.024l1.024-1.024v-1.024l-1.024 1.024v-1.024h-1.024l-1.024 1.024v1.024l-1.024 1.024h1.024l2.048 1.024h1.024v-1.024h-1.024zM653.312 632.832v0 0h-1.024v1.024h1.024v-1.024zM636.928 623.616v0 0 0 0 0zM653.312 628.736h-1.024l-1.024 1.024v1.024h1.024l1.024-1.024h1.024l-1.024-1.024zM599.040 599.040v0h2.048l2.048-2.048v-1.024h-1.024l-1.024-1.024-1.024 1.024h-3.072l-1.024-1.024v2.048l1.024 1.024v1.024h2.048zM609.28 593.92v0l1.024 1.024-1.024 1.024v-2.048zM594.944 598.016v-1.024h-1.024l1.024-1.024h1.024v2.048h1.024v1.024h-3.072v-1.024h1.024zM707.584 797.696v0 0 0 0 0zM708.608 793.6l-2.048-2.048-1.024 1.024 1.024 1.024v1.024l1.024 1.024 1.024-1.024v-1.024zM691.2 781.312l-1.024-1.024v1.024h1.024zM742.4 710.656v-1.024l-3.072-6.144v-10.24l-1.024-1.024v-2.048l-3.072-3.072v-1.024l-2.048-2.048-1.024-2.048-2.048-2.048h-2.048l-3.072-3.072v-1.024l-1.024-1.024v-6.144h-1.024v1.024h-1.024v-1.024l-2.048-1.024h-1.024v1.024l1.024 1.024h-1.024l-1.024-1.024h-1.024v-2.048l-1.024-2.048v-1.024l-1.024-1.024v-2.048l-2.048-2.048-1.024-2.048h1.024l-1.024-2.048-2.048-1.024-5.12-2.048v-1.024l-1.024-1.024v-1.024h-1.024l-1.024 1.024v-1.024h-1.024l-1.024-1.024h-2.048v-1.024l-1.024-1.024v-2.048l-2.048-2.048v-1.024l1.024-2.048v-1.024l-1.024-1.024v-1.024l-1.024-1.024v-2.048h-1.024l-1.024-1.024v-2.048l-1.024-6.144v-3.072h-1.024v-1.024h-1.024l-3.072-3.072v-1.024h-1.024l-1.024 1.024h-1.024v1.024l-2.048-1.024v-1.024l-1.024-2.048v-4.096l-1.024-2.048v-2.048l-2.048-2.048v-2.048h-1.024v-3.072l-1.024-1.024v-2.048h-1.024v-2.048h-1.024l-1.024 1.024-1.024 2.048v2.048l-1.024 2.048v1.024l-1.024 1.024v3.072l1.024 1.024h-1.024l-1.024 1.024v3.072l-1.024 2.048v1.024l1.024 1.024v8.192l-2.048 6.144v1.024l-3.072 6.144v1.024l-1.024 1.024h-5.12l-3.072-2.048h-1.024v-2.048h-1.024l-1.024-1.024h-2.048l-2.048-1.024-3.072-3.072h-1.024l-3.072-2.048h-2.048v-1.024l-1.024-1.024h-2.048l-1.024-2.048h-1.024l-2.048-1.024-1.024-1.024v-2.048l1.024-1.024 1.024-2.048 1.024-1.024v-5.12l2.048-1.024v1.024h2.048v-4.096h1.024v-1.024l1.024-1.024h-1.024l-1.024-1.024v-1.024h-2.048v3.072l-1.024-1.024h-1.024v-1.024l-1.024 1.024v-1.024l1.024-1.024h-1.024l1.024-1.024-3.072 2.048h-4.096v-1.024h-4.096l-1.024-1.024h-3.072l-1.024-1.024h-1.024l-2.048-2.048v1.024h-1.024v-1.024l-2.048-1.024h-1.024v1.024l-2.048-1.024v1.024l1.024 1.024h3.072l1.024 1.024v3.072h-2.048l-1.024 1.024h-5.12l-1.024-1.024h-1.024v1.024h-1.024v2.048l-1.024-1.024h-1.024v1.024h-1.024v1.024l-2.048 2.048 1.024 1.024v1.024h-1.024l-1.024 1.024h-1.024v3.072h-1.024v1.024h-1.024v2.048h2.048l-1.024 1.024 1.024 1.024-1.024 1.024h-2.048v1.024l-2.048-2.048h-3.072l-1.024 1.024h-1.024v1.024l1.024 1.024h-1.024v-4.096l-4.096-4.096h-1.024l-2.048-2.048h-1.024l-1.024 2.048-1.024 1.024v-1.024h-1.024l-1.024 1.024v-1.024h-1.024v2.048l-1.024 2.048v-1.024h-1.024v-2.048l-1.024 1.024v1.024h-1.024v1.024h-1.024v1.024l1.024 1.024v1.024h-1.024l-1.024-1.024v1.024h-1.024v1.024h1.024v1.024h-1.024v-1.024h-1.024l-1.024 1.024h-1.024v3.072h1.024v1.024h-1.024v1.024l1.024 1.024h-2.048l-1.024-1.024-1.024 1.024h-1.024v-1.024h-1.024v3.072l2.048 2.048h-1.024v1.024l-1.024-1.024v3.072h-1.024l-3.072-6.144-2.048 1.024v1.024l-2.048 1.024v1.024l-1.024 1.024v4.096h1.024v1.024l-4.096 4.096-1.024 3.072h-1.024l-1.024 2.048-4.096 2.048-5.12 2.048h-4.096l-2.048 1.024h-1.024l-2.048 1.024-3.072 2.048h-6.144l-4.096 2.048-4.096 3.072-1.024 1.024h-1.024l-2.048 1.024-1.024 1.024h-1.024l-1.024 2.048v1.024l-1.024 1.024v-2.048h-1.024v-1.024l1.024-1.024v-1.024l-2.048 2.048-1.024 2.048v7.168l-1.024 3.072-1.024 2.048v2.048l1.024 1.024 4.096 8.192v4.096h-1.024l-1.024-2.048v1.024h-1.024v-3.072l-1.024-1.024h-1.024v1.024l1.024 2.048 2.048 2.048v1.024l-1.024 1.024v-1.024l-1.024-1.024-1.024-2.048v1.024h-1.024l3.072 5.12 2.048 2.048 1.024 3.072v4.096l2.048 1.024v1.024l3.072 6.144v7.168l1.024 1.024v1.024l3.072 5.12 1.024 3.072-1.024 3.072v7.168l-1.024 1.024h-3.072v5.12h2.048l1.024 1.024h1.024v1.024l2.048 2.048h2.048l1.024 1.024h10.24l2.048-1.024 2.048-2.048 2.048-1.024h2.048l2.048-2.048v-1.024h5.12l3.072-1.024h7.168v1.024h1.024l3.072-1.024h1.024l1.024 1.024 2.048-1.024h1.024l1.024-1.024 2.048-4.096 1.024-1.024h1.024l2.048-1.024 3.072-1.024 3.072-2.048h1.024l2.048-1.024h7.168l10.24-4.096h11.264l1.024-1.024h2.048l2.048 1.024 3.072 2.048h5.12l1.024 1.024h1.024l3.072 1.024 2.048 1.024 1.024 1.024h1.024v1.024h-1.024v2.048l1.024 1.024h2.048v1.024h1.024v2.048h1.024l1.024 2.048 1.024 1.024v1.024l1.024 1.024v2.048l-2.048-1.024v1.024h1.024v1.024l2.048 1.024h1.024l1.024 1.024v-3.072l4.096-4.096 3.072-2.048 1.024-2.048 3.072-3.072v-3.072l1.024 1.024v6.144l-2.048 2.048v5.12l-1.024 1.024v1.024h-1.024l-1.024 1.024h-1.024v2.048h1.024l2.048-1.024h2.048v-1.024l1.024-1.024v-2.048l1.024-1.024v-2.048l2.048 2.048v2.048l1.024 1.024v1.024l-1.024 2.048-1.024 1.024v1.024h3.072l1.024-1.024h1.024l1.024-1.024 1.024 1.024v1.024h-2.048v1.024l1.024 1.024h1.024l1.024 1.024v1.024l1.024 1.024 1.024 2.048v6.144l2.048 1.024v1.024l2.048 2.048h1.024l1.024 1.024h2.048l2.048 2.048h1.024v-1.024h2.048v1.024h4.096l4.096 2.048 1.024 1.024h1.024l1.024-1.024 2.048-1.024 3.072-2.048h1.024l-1.024-1.024h-1.024l2.048-1.024h2.048v2.048l-1.024 1.024v1.024h1.024l1.024-1.024v-1.024h2.048v1.024l-1.024 1.024 1.024 1.024h2.048v1.024l1.024 1.024 1.024-1.024v1.024l1.024 1.024h1.024v-2.048l-1.024 1.024-1.024-1.024 1.024-1.024h3.072l4.096-4.096 6.144-2.048h6.144l2.048-2.048h1.024v-1.024l1.024-4.096v-6.144l1.024-1.024v-1.024l3.072-4.096v-1.024h1.024v-4.096l1.024-2.048 1.024-1.024v-1.024h1.024v-2.048l2.048-4.096 1.024-1.024h1.024l1.024-1.024v-1.024h1.024l1.024-1.024v-2.048l1.024-1.024v-1.024h1.024v-1.024l1.024-1.024v-7.168l1.024-3.072 1.024-5.12h1.024v-2.048l1.024-1.024v-3.072zM708.608 795.648v0l-2.048 1.024h2.048v1.024l1.024-1.024v-1.024h-1.024zM686.080 797.696l1.024-1.024h-1.024v1.024zM703.488 818.176v0l-1.024-1.024v2.048h1.024v-1.024zM707.584 814.080v0 0 0zM689.152 782.336v0 0 0 0zM708.608 802.816v-3.072h-4.096l-1.024 1.024h-2.048l-2.048 1.024h-2.048l-1.024 1.024-1.024-1.024h-1.024l-3.072-2.048h-3.072l-1.024-1.024h-1.024v5.12l1.024 1.024v1.024l2.048 2.048v2.048h1.024v1.024h1.024v2.048l-1.024-1.024v-1.024h-1.024v1.024l1.024 2.048 1.024 1.024 1.024 3.072 1.024 1.024h2.048v1.024h-1.024v1.024h4.096l1.024 1.024 1.024-1.024v-3.072l1.024 1.024 1.024-1.024v-2.048h1.024v1.024l1.024-1.024h1.024v1.024h-1.024v1.024h2.048v-4.096l1.024-3.072v-1.024l1.024-1.024h-1.024l1.024 1.024v-7.168zM702.464 819.2l-1.024 1.024v1.024h1.024v-2.048zM681.984 790.528h-1.024v4.096h1.024v-1.024l1.024-1.024-1.024-1.024v-1.024zM643.072 761.856h-2.048v-1.024h-2.048l-3.072 1.024h-1.024v2.048h7.168v-1.024h2.048v-1.024h-1.024zM486.4 692.224v-2.048h-1.024v2.048l2.048 2.048v-1.024l-1.024-1.024zM971.776 646.144l1.024 1.024v-1.024zM832.512 715.776v0 0 0 0 0 0 0 0-1.024zM932.864 823.296v0h-2.048v1.024h1.024v1.024h-1.024v1.024h-1.024v-2.048l-1.024-1.024h4.096zM840.704 900.096v0zM826.368 834.56v0zM824.32 838.656v0h1.024l-1.024 1.024-1.024-1.024h1.024zM834.56 849.92v0l-1.024 1.024-2.048 1.024h-1.024v-1.024l1.024-1.024v-2.048l1.024-1.024v1.024h1.024v2.048h1.024zM872.448 802.816l1.024-1.024v1.024h-1.024l-1.024 1.024v2.048h1.024v1.024l-1.024 1.024-3.072 5.12-1.024 1.024-1.024 2.048v1.024h-1.024l-2.048 2.048h-1.024v1.024h1.024v2.048h2.048v2.048h-2.048l-1.024-1.024h-3.072v1.024l-1.024 1.024h-2.048l-1.024 1.024h-1.024v1.024h-1.024l1.024 1.024-1.024 2.048v1.024l-1.024 1.024 1.024 1.024-1.024 1.024-2.048 4.096v1.024h1.024v1.024h-2.048l-5.12 5.12h-1.024l-1.024 1.024h-2.048l-1.024-1.024h-1.024l-1.024 1.024h-1.024v-1.024h-1.024v-1.024h-3.072v-2.048h-2.048l-3.072 1.024-1.024-1.024 1.024-1.024h-1.024v-1.024h-1.024v1.024h-1.024v-2.048h3.072l-1.024-1.024 1.024-1.024h-1.024v-1.024h1.024v-1.024l1.024 1.024v-3.072l3.072-3.072h2.048v-1.024l1.024-2.048 2.048-2.048h2.048l1.024-1.024h2.048v-1.024l1.024-1.024 2.048-1.024h1.024v-1.024l1.024-1.024h1.024v-1.024h1.024v-1.024h2.048v-1.024h1.024l2.048-2.048v-1.024h1.024v-2.048l1.024-2.048v-1.024l3.072-3.072v-1.024l1.024-3.072 1.024-1.024v-1.024l2.048-1.024h1.024v2.048h1.024v1.024h1.024v2.048h1.024l3.072-2.048h1.024v0h2.048v2.048zM821.248 881.664h1.024v3.072h-1.024v-1.024h-1.024v1.024l-1.024-1.024h1.024l1.024-2.048zM899.072 775.168v3.072l-1.024 2.048v1.024l-1.024 1.024-1.024 2.048v3.072l-1.024-1.024h-3.072l-1.024 1.024h-1.024v6.144l-1.024 1.024-5.12 8.192-2.048 2.048-2.048 1.024h-1.024v-1.024h-2.048v-2.048l-1.024 1.024v-2.048l2.048-2.048v-1.024l1.024-1.024v-3.072l-2.048-2.048h-2.048l-2.048-2.048h-1.024l-2.048-2.048v-1.024l1.024-1.024 3.072-1.024h1.024v-4.096l1.024-1.024v-1.024l1.024-1.024v-2.048l-1.024-1.024v-2.048h-1.024v-1.024h2.048l-1.024-1.024h-2.048v-1.024l-1.024-3.072v1.024h1.024v-3.072h-1.024v1.024l-1.024-1.024v1.024l-1.024-1.024-2.048-3.072-1.024-1.024v-1.024h1.024v-1.024l-1.024 1.024h-1.024v-1.024h-1.024v-3.072l-3.072-3.072h3.072l-1.024 1.024 1.024 1.024 1.024 2.048 1.024-1.024v1.024h3.072l1.024 1.024v1.024h1.024l2.048 2.048v1.024h-1.024l2.048 3.072v5.12h2.048l2.048 2.048v1.024h1.024v-4.096l-1.024-1.024h1.024l1.024 1.024 2.048 4.096v3.072l5.12 2.048h4.096l3.072-3.072h3.072zM870.4 799.744v1.024h-1.024v-1.024l1.024-1.024v1.024zM879.616 765.952v-1.024h1.024v1.024h-1.024zM932.864 827.392v0 0 0 0 0 0 0 0zM961.536 541.696v0zM943.104 552.96v0 0 0zM957.44 551.936v0 0 0zM842.752 529.408v0 0 0zM864.256 512v0 0 0 0 0zM873.472 528.384v0 0h1.024v1.024l-1.024-1.024zM875.52 531.456v0 0 0 0 0 0zM864.256 513.024v0 0 0zM863.232 504.832v0zM864.256 503.808v0 0zM864.256 518.144v0zM865.28 515.072v0zM907.264 581.632v0 0 0 0 0 0 0 0 0 0 0 0zM905.216 577.536v0 0 0 0 0 0 0 0zM904.192 579.584v0 0 0 0 0 0 0zM826.368 527.36v0 0 0 0 0 0 0 0 0 0 0zM852.992 479.232v0 0zM857.088 480.256v0zM843.776 486.4v0h-1.024v1.024h1.024v-1.024zM837.632 478.208h1.024l-1.024-1.024v1.024zM648.192 577.536h1.024v-2.048h-1.024v2.048zM662.528 567.296l-1.024-2.048 1.024-1.024v-23.552h-1.024v-1.024h-1.024l-5.12-1.024h-2.048l-10.24-5.12h-2.048l-2.048 1.024v1.024h-1.024v1.024l-1.024 1.024h-2.048l-1.024 1.024h-1.024v2.048h-1.024v1.024h-1.024l-3.072 3.072h-3.072l-1.024-1.024v-1.024h-1.024v-3.072h-1.024v2.048l-2.048-3.072v-4.096l1.024-1.024v-1.024l-1.024-2.048v-1.024h-1.024v-1.024h-4.096l-3.072-2.048h-4.096l-3.072 2.048-2.048 1.024h-1.024v1.024l-1.024 2.048h2.048l1.024 1.024h2.048v1.024l1.024 1.024v1.024l1.024 1.024h1.024l2.048 1.024h3.072l1.024-1.024h3.072v2.048l-1.024 1.024v-1.024h-4.096l-2.048 2.048-1.024-1.024h-2.048l-1.024 1.024v1.024h2.048l2.048 2.048h1.024v4.096l1.024 1.024h1.024l2.048-2.048v-2.048l1.024-1.024v-1.024l1.024-1.024v1.024l-1.024 1.024v1.024l2.048 2.048h1.024l1.024 1.024h2.048l3.072 3.072h4.096l1.024 1.024 4.096 1.024 3.072 1.024h1.024l2.048 2.048h1.024l3.072 3.072v1.024h1.024v1.024l2.048 4.096 1.024 1.024-1.024 1.024 2.048 1.024h-2.048l2.048 2.048v1.024l-1.024 2.048v1.024l1.024 1.024v-1.024h1.024v-1.024l1.024 1.024h2.048l2.048-1.024v2.048l1.024 1.024 2.048 1.024 3.072 3.072v-14.336zM624.64 530.432v0 0 0 1.024l-1.024-1.024h1.024zM598.016 531.456v-1.024l1.024-1.024h1.024v2.048l-1.024 1.024-1.024-1.024zM599.040 529.408h-1.024v-1.024h1.024v1.024zM632.832 530.432h1.024l-1.024 1.024h-2.048l-1.024-1.024v-1.024h-2.048v-1.024h3.072v1.024l2.048 1.024zM620.544 536.576v0h1.024l-1.024 1.024v-1.024zM627.712 533.504l8.192 1.024 1.024 1.024h-5.12l-2.048-1.024h-1.024l-1.024-1.024zM619.52 565.248v0-2.048h1.024l1.024 1.024v2.048l-1.024 1.024h-1.024l-1.024-1.024 1.024-1.024zM623.616 563.2v0l-1.024 1.024h-1.024l-2.048-2.048h1.024v-2.048l2.048-2.048v1.024l1.024 1.024v3.072zM611.328 562.176l2.048-5.12v1.024l-1.024 2.048v1.024l-1.024 1.024zM614.4 549.888v0zM623.616 564.224v0 0 0 0 0 0zM610.304 560.128h1.024v1.024h-1.024v-1.024zM622.592 566.272v0 0 0zM622.592 565.248v0 0 0 0 0 0zM592.896 536.576l-1.024-1.024h1.024l1.024-1.024h2.048v2.048h-3.072zM648.192 575.488l-1.024 1.024h-1.024l-2.048 1.024h-2.048l2.048-6.144 3.072-1.024 2.048 1.024 1.024 1.024-1.024 2.048-1.024 1.024zM498.688 493.568v-1.024h1.024v1.024l1.024 1.024v2.048h-1.024l-1.024-1.024v-2.048zM494.592 496.64l1.024 1.024h2.048v-4.096l1.024-1.024h-1.024l-3.072 2.048h-2.048l2.048 2.048zM259.072 289.792l-1.024-1.024v-2.048l-1.024-1.024h-1.024v-1.024l-1.024 1.024h-1.024v-1.024l-1.024-1.024v-2.048l-1.024-1.024v-1.024l-1.024-1.024h-2.048v-1.024l-1.024-1.024h-1.024v1.024h-1.024l-1.024-1.024h-1.024l-3.072 1.024h-8.192l-2.048 1.024h-2.048v1.024l-2.048 1.024h-1.024v1.024h-1.024l-2.048 2.048 1.024 1.024h1.024v3.072h1.024v1.024h-1.024l1.024 1.024-2.048 2.048-1.024 2.048-1.024 1.024v1.024h1.024l-1.024 2.048h-1.024l-2.048 1.024h-1.024l-2.048-1.024h-1.024v2.048l2.048 2.048v2.048h-2.048l-1.024 1.024h-1.024v1.024h-1.024v3.072h-1.024v4.096l-1.024 1.024h-2.048l-1.024-1.024h-2.048l-1.024 1.024-2.048 1.024h-1.024v1.024h1.024l-1.024 1.024h-5.12l-3.072 3.072v6.144h-1.024l-1.024 1.024-5.12 1.024h-5.12v1.024h-14.336l-8.192-3.072 2.048 3.072 3.072 3.072v2.048l1.024 1.024h2.048l2.048 1.024 1.024 1.024h1.024v4.096l1.024 1.024-1.024 1.024v1.024h3.072v4.096h-3.072l-1.024 1.024h-2.048v1.024h-1.024l-1.024 1.024v1.024h-1.024v2.048l-1.024 1.024v3.072l1.024 1.024 2.048-1.024h9.216v-1.024h4.096l1.024 1.024h3.072l1.024-1.024h4.096l4.096-1.024h-1.024l1.024-1.024 2.048 2.048v3.072h1.024v1.024h2.048l1.024 1.024v3.072h1.024v1.024l2.048 2.048v-1.024h1.024l1.024 1.024v-1.024h4.096v-3.072h5.12l1.024 1.024h2.048v-1.024h2.048l1.024-1.024v1.024h1.024v1.024h1.024v-1.024h1.024v-3.072l-1.024-1.024v-2.048l-1.024-1.024v-2.048h-3.072v-1.024l-1.024-1.024v-1.024l1.024-1.024v-2.048h-2.048l-1.024-1.024h-1.024v-4.096h1.024l1.024-2.048 2.048-2.048v-1.024h3.072v2.048h1.024l1.024-1.024h4.096l2.048-2.048v-1.024h1.024v-2.048l2.048-2.048h1.024l1.024-1.024h1.024v-1.024l1.024-1.024v-1.024l1.024-1.024v-2.048h1.024v-1.024h2.048v-1.024h1.024v-2.048h1.024v-1.024l3.072-3.072v-5.12l1.024-1.024h2.048v-1.024h2.048v-1.024h-1.024l-1.024-1.024h-2.048l-1.024-1.024v-1.024h-2.048v-2.048h-1.024v-1.024h-1.024l1.024-1.024v-2.048h-1.024v-1.024h1.024v-1.024h1.024v-1.024h-2.048v-2.048h-1.024l1.024-1.024v-1.024l1.024-1.024h4.096l1.024 1.024h3.072l1.024 1.024h1.024l1.024-1.024h2.048l2.048-1.024h1.024v-1.024h2.048v-1.024zM242.688 273.408l-1.024 1.024h-3.072v1.024l-1.024-1.024h1.024v-1.024h-3.072l-1.024 1.024h-1.024l-2.048 2.048h-2.048v1.024h-1.024l-1.024 1.024h-2.048l-1.024-1.024v-5.12l1.024-2.048h-2.048v-3.072l-1.024-1.024h-3.072v1.024h-1.024l-1.024 2.048h-1.024v3.072h-4.096v1.024l-1.024 1.024v1.024h-1.024l-1.024-1.024h-2.048l-3.072 2.048h-2.048l-1.024-1.024h-3.072l-1.024-1.024h-4.096l-1.024-1.024-3.072-1.024-1.024 1.024v1.024h-1.024l-1.024 1.024h-3.072l-1.024 1.024v3.072l-1.024 1.024v1.024l-1.024 1.024-2.048 1.024h-1.024l-3.072 1.024h-1.024v1.024h-1.024v2.048l-1.024 1.024h-1.024v1.024h-3.072v-1.024h-1.024v-1.024h-4.096v-1.024h-1.024v1.024l-1.024 1.024v3.072l-1.024 1.024-1.024 2.048 1.024 1.024h-2.048v1.024h-1.024v3.072l1.024 1.024h1.024v1.024l-1.024 2.048v3.072l1.024 2.048v6.144l1.024 1.024h4.096l2.048 2.048-1.024 2.048-2.048 3.072-2.048 1.024-2.048 2.048 8.192 3.072h14.336v-1.024h5.12l5.12-1.024 1.024-1.024h1.024v-6.144l3.072-3.072h6.144v-1.024h-1.024v-1.024h1.024l2.048-1.024 1.024-1.024h2.048l1.024 1.024h2.048l1.024-1.024v-4.096h1.024v-3.072h1.024v-1.024h1.024l1.024-1.024h2.048v-2.048l-2.048-2.048v-2.048h1.024l2.048 1.024h1.024l2.048-1.024h1.024l1.024-2.048h-1.024v-1.024l1.024-1.024 1.024-2.048 2.048-2.048-1.024-1.024h1.024v-1.024h-1.024v-3.072h-1.024l-1.024-1.024 2.048-2.048h1.024v-1.024h1.024l2.048-1.024v-1.024h2.048l2.048-1.024h8.192l3.072-1.024-1.024-1.024h1.024l1.024-1.024zM596.992 236.544h-1.024l-1.024 1.024v1.024l-2.048 1.024-1.024 1.024v7.168h-1.024l-1.024 1.024h-1.024v1.024l-2.048 1.024-3.072 3.072h-1.024l-4.096 2.048h-1.024v3.072h-1.024v1.024l1.024 1.024h2.048v1.024l2.048 1.024 1.024 1.024v2.048h-1.024l-1.024 1.024h-5.12l-2.048 2.048-1.024 2.048-1.024-1.024h-2.048v1.024l-2.048-2.048h-1.024v1.024h-1.024v1.024h-1.024v-1.024h-2.048l1.024-1.024-1.024-1.024h-2.048l1.024-1.024v-1.024l2.048-2.048h1.024l-1.024-1.024v-1.024l1.024-2.048v-2.048h-1.024l-3.072-1.024h-1.024v-1.024l-1.024-1.024v-2.048l2.048-1.024 7.168-4.096 3.072-3.072v-1.024h1.024v-2.048h1.024v-1.024h2.048v1.024l1.024 1.024h5.12v1.024h1.024l1.024-1.024-1.024-1.024v-1.024l-1.024-1.024 1.024-1.024h5.12l1.024-1.024 1.024-2.048h2.048l1.024-1.024v-3.072h3.072v2.048h1.024v1.024h1.024v2.048zM561.152 258.048v0zM161.792 358.4v1.024h-1.024v1.024h-1.024l-1.024-1.024h-2.048l-1.024-1.024h-9.216l-1.024-1.024h-5.12v-1.024h-2.048l-2.048-1.024h-1.024l-1.024-1.024v-1.024l-1.024-4.096-1.024-2.048-2.048-1.024h-3.072l-2.048 1.024-1.024 1.024h-2.048l-2.048 2.048h-2.048l-2.048-1.024h-3.072l-1.024-1.024h-1.024l-2.048-2.048h-1.024l-2.048-2.048v-1.024h-1.024l-1.024-1.024-2.048-1.024h-2.048l-1.024-1.024h-1.024l-1.024-2.048v-1.024l-1.024-1.024v-1.024l-1.024-1.024v-2.048h-1.024v-1.024l-1.024-1.024-1.024-2.048-1.024-1.024v-1.024h-1.024v-1.024h-1.024l-1.024 1.024h-2.048l-2.048-2.048h1.024v-1.024h-1.024l-1.024 1.024v2.048h-2.048v1.024l-2.048-2.048v-1.024h-1.024v-1.024l-1.024-1.024v-2.048l-1.024-1.024h-1.024v-2.048l1.024-2.048v-1.024l-1.024-2.048-2.048-2.048h-1.024l-1.024-1.024-3.072-2.048h-2.048v-3.072h-1.024v-1.024h-1.024v-1.024h-1.024l-1.024-2.048v-5.12h1.024v-1.024l1.024-1.024v-1.024h1.024l1.024-1.024v-1.024h-1.024v-2.048l1.024-1.024v-1.024h-3.072l-2.048-1.024-4.096-8.192v-2.048h-1.024v-2.048l-1.024-1.024h-1.024v-1.024l1.024-1.024v-1.024l-1.024-1.024v-5.12l-1.024-1.024v-1.024h2.048v-2.048h1.024v-1.024l1.024 1.024h1.024l1.024 2.048 2.048 2.048h1.024l1.024 1.024h1.024l2.048 1.024 1.024-1.024h2.048l5.12-4.096 2.048-1.024h2.048v1.024l1.024 1.024h-1.024v2.048h1.024v1.024h-2.048v1.024l1.024 1.024 2.048 1.024 1.024 1.024h2.048v4.096l2.048 2.048 2.048 1.024h3.072l2.048 2.048v1.024l4.096 2.048 3.072 1.024h4.096l8.192-2.048h1.024l2.048 1.024v-4.096h3.072l2.048-2.048v-1.024l4.096-2.048h4.096l1.024-1.024 2.048-1.024h1.024l3.072 1.024h1.024v1.024l1.024 1.024h3.072l2.048 2.048h5.12l3.072 3.072 2.048 1.024 2.048 2.048v1.024h5.12v1.024l1.024 4.096v3.072l-1.024 1.024v4.096l-2.048 2.048 1.024 1.024h-2.048v1.024h-1.024v3.072l1.024 1.024h1.024v1.024h1.024l-2.048 2.048v3.072l1.024 2.048v6.144l1.024 1.024h4.096l2.048 2.048-1.024 2.048-2.048 3.072-2.048 1.024-2.048 2.048 2.048 3.072 3.072 3.072 1.024 2.048 1.024 1.024h1.024l2.048 1.024 1.024 1.024h1.024v2.048l1.024 2.048v1.024l-1.024 1.024v1.024h3.072v4.096h-3.072l-1.024 1.024h-1.024l-1.024 1.024h-1.024l-1.024 1.024v1.024h-1.024v2.048l-1.024 1.024v2.048zM125.952 347.136h-1.024v1.024l-1.024 1.024h-2.048l1.024 1.024h1.024l1.024-1.024h2.048v-1.024l1.024-1.024h-2.048zM433.152 457.728h-2.048l-2.048-1.024h-2.048v-3.072h-1.024l-1.024 1.024h-1.024v-3.072l-1.024-1.024v-1.024l-1.024-2.048h-1.024v-1.024l1.024-1.024-2.048-2.048v-2.048l-1.024-2.048v-2.048h2.048v-1.024l4.096-4.096h10.24l1.024 1.024 1.024-1.024v2.048h2.048l2.048 1.024h1.024v-3.072h1.024l1.024-1.024h1.024v1.024h3.072l1.024-1.024h2.048l-1.024 2.048v2.048l1.024 2.048v8.192h-2.048v1.024h-1.024l-1.024 1.024h-2.048l-1.024 1.024v1.024h-3.072v3.072l1.024 1.024h1.024v2.048h-1.024l-1.024-1.024h-5.12v1.024h-1.024v1.024h-1.024l-1.024 1.024zM424.96 455.68v0zM422.912 451.584v0 0zM236.544 258.048l1.024 1.024v2.048h1.024v4.096h2.048l1.024-1.024h1.024l2.048 1.024v3.072l1.024 2.048v2.048h1.024v2.048l-1.024 1.024-1.024-1.024-2.048-1.024-1.024 1.024h-3.072v1.024l-1.024-1.024h1.024v-1.024h-3.072l-1.024 1.024h-1.024l-2.048 2.048h-2.048v1.024h-1.024l-1.024 1.024h-2.048l-1.024-1.024v-5.12l1.024-2.048h-2.048v-3.072l-1.024-1.024h-3.072v1.024h-1.024l-1.024 2.048h-1.024v3.072h-4.096v1.024l-1.024 1.024v1.024h-1.024l-1.024-1.024h-2.048l-3.072 2.048h-2.048l-1.024-1.024v-2.048l1.024-1.024v-1.024l2.048-1.024v-2.048l-1.024-2.048v-4.096h-2.048l-2.048-2.048v-2.048l2.048-1.024h1.024l2.048 1.024h1.024l1.024-1.024v-1.024h1.024v-2.048h1.024v-1.024h2.048v-3.072h1.024v-1.024h3.072l1.024-1.024h1.024l1.024-1.024h1.024l1.024 2.048v1.024h-1.024l-1.024 1.024v1.024h1.024v1.024h2.048l-1.024 1.024v1.024h-1.024v-1.024l-3.072-1.024h-2.048l-1.024 1.024v1.024h-2.048v3.072h6.144l1.024-1.024 1.024 1.024h1.024v1.024h2.048v-1.024h3.072l1.024 1.024v1.024h1.024l1.024-1.024h1.024v1.024h1.024l1.024-1.024h6.144v-1.024zM219.136 246.784v0 0 0 0zM219.136 254.976h-1.024v1.024h1.024v-1.024zM132.096 244.736h1.024v-5.12l2.048-2.048h3.072v-2.048h3.072v1.024h1.024l-2.048-2.048v-1.024h2.048l1.024-1.024 1.024 2.048h2.048v1.024h1.024v1.024h4.096v3.072h1.024v4.096h1.024l1.024 1.024h8.192l1.024 2.048 2.048 3.072 1.024 1.024v3.072l2.048 2.048 5.12 3.072 3.072 3.072h2.048l2.048 2.048 5.12 3.072h3.072l2.048 2.048h2.048v1.024l-1.024 1.024v3.072h4.096l1.024 1.024h1.024l1.024-1.024v1.024h1.024v-1.024l1.024-1.024v-2.048l2.048-1.024v-2.048l-1.024-2.048v-4.096h-3.072v-1.024l-1.024-1.024v-2.048l2.048-1.024h1.024l2.048 1.024h1.024l1.024-1.024v-1.024h1.024v-2.048h1.024v-1.024h2.048v-3.072h1.024v-1.024h3.072l1.024-1.024h1.024l1.024-1.024h1.024l1.024 2.048-2.048 2.048v1.024h1.024l1.024 1.024h2.048l1.024-1.024 3.072 1.024h1.024l2.048-2.048h1.024v-1.024h3.072l1.024-1.024h1.024v-1.024h-3.072v-1.024h-2.048v-1.024h-2.048v-1.024h-1.024v-1.024l-1.024-1.024v1.024l-2.048 2.048h-2.048l-2.048-2.048v-1.024l-1.024 1.024h-1.024v-1.024h-1.024v-1.024l2.048-1.024 1.024-1.024h1.024v-1.024h1.024l1.024-1.024v-1.024h-1.024l-2.048 1.024v1.024h-2.048l-2.048 2.048-2.048 1.024h-1.024l-1.024 1.024h-1.024v1.024h-1.024v1.024l-3.072 3.072v2.048h-2.048v-1.024h-1.024v-3.072h-2.048l-1.024-1.024-4.096 1.024-2.048-2.048v-1.024l-1.024-3.072v-1.024h-3.072v-3.072l1.024-4.096h-2.048l-1.024-2.048-4.096-4.096h-1.024l-1.024 1.024h-11.264l-4.096 1.024h-1.024l-5.12-5.12v-1.024h-1.024v-1.024l-1.024-1.024-15.36-9.216h-1.024l-15.36 5.12v28.672l6.144 1.024zM219.136 246.784v0 0 0 0zM222.208 253.952v0 1.024h-1.024v-1.024h1.024zM226.304 253.952v0 1.024zM159.744 286.72v0-2.048l-1.024-4.096v-1.024h-5.12v-1.024l-2.048-2.048-2.048-1.024-3.072-3.072h-5.12l-2.048-2.048h-3.072l-1.024-1.024v-1.024h-1.024l-3.072-1.024h-1.024l-2.048 1.024h-1.024v1.024h-5.12l-1.024 1.024-2.048 1.024v1.024l-2.048 2.048h-3.072l-1.024-3.072v-10.24l-1.024-1.024h-1.024l-1.024-1.024-1.024 1.024v-3.072l1.024 1.024h2.048v-1.024h-1.024v-2.048l-1.024-1.024-1.024 1.024h-1.024v1.024l-1.024-2.048v-5.12l1.024-2.048v1.024h4.096v1.024h1.024v1.024l1.024-1.024h3.072l-1.024-1.024h3.072l-1.024-2.048v-1.024l-2.048-1.024h-1.024v-1.024l-1.024-1.024v-3.072h-1.024v-1.024h-4.096v1.024l-1.024 1.024-1.024 2.048v3.072l-2.048-4.096 1.024-1.024 2.048-1.024 1.024-1.024 2.048-1.024h5.12l1.024 1.024 2.048 1.024 1.024 1.024 2.048 4.096 1.024 1.024h3.072v-1.024l6.144 1.024h1.024v-5.12l2.048-2.048h3.072v-2.048h3.072v1.024h1.024l-2.048-2.048v-1.024h2.048l1.024-1.024 1.024 2.048h2.048v1.024h1.024v1.024h4.096v3.072h1.024v4.096h1.024l1.024 1.024h8.192l1.024 2.048 2.048 3.072 1.024 1.024v3.072l2.048 2.048 5.12 3.072 3.072 3.072h2.048l2.048 2.048 5.12 3.072h3.072l2.048 2.048h2.048v2.048l-1.024 1.024v2.048l-1.024-1.024-3.072-1.024-1.024 1.024v1.024h-1.024l-1.024 1.024h-3.072v1.024l-1.024 3.072-1.024 1.024v1.024l-1.024 1.024-2.048 1.024h-1.024l-3.072 1.024h-1.024v1.024h-1.024v2.048l-1.024 1.024h-1.024v1.024h-3.072v-1.024h-1.024v-1.024h-4.096v-1.024h-1.024zM108.544 263.168v0-2.048h-1.024v2.048h1.024zM428.032 515.072h-1.024l1.024 1.024h1.024v-1.024zM621.568 476.16v0l1.024-1.024v2.048h-1.024v-1.024zM601.088 504.832v0 0 0 0zM447.488 389.12v0 0 0zM451.584 387.072v0 0 0h-1.024v1.024h1.024v-1.024zM451.584 389.12v0-1.024l-1.024 1.024h1.024zM447.488 390.144h1.024v-1.024h-1.024v1.024zM429.056 458.752v0 2.048l1.024-1.024v-1.024l-1.024-1.024h-1.024l1.024 1.024zM453.632 384l1.024 1.024h-2.048l-2.048 2.048v1.024h-4.096v3.072l-5.12 5.12v1.024l-1.024 3.072-1.024 1.024v1.024h1.024v1.024l1.024 2.048h1.024l2.048 2.048v1.024h1.024l-1.024 1.024 1.024 1.024h-1.024v-1.024l4.096 4.096 1.024 2.048 2.048 1.024 1.024 2.048 1.024 1.024h1.024l5.12 6.144 1.024 2.048 2.048 7.168v5.12l1.024 1.024v2.048h-2.048l1.024 1.024v1.024h-1.024l1.024 3.072-1.024-1.024v3.072h-1.024v1.024l-2.048 1.024-2.048 2.048h-2.048v1.024l-1.024 1.024-3.072 1.024h-4.096v-1.024l-1.024 1.024h1.024v1.024h-2.048l2.048 1.024v1.024h-2.048l1.024 1.024v1.024h-2.048v1.024l-1.024 1.024-2.048 1.024-1.024 1.024-2.048 1.024-1.024 1.024h-1.024l-1.024-1.024v-5.12h1.024v-1.024l1.024-1.024-2.048-2.048v1.024h-1.024v-1.024l-1.024-1.024h1.024l1.024-1.024h1.024v-1.024h1.024v-1.024h5.12l1.024 1.024h1.024v-2.048h-1.024l-1.024-1.024v-3.072h3.072v-1.024l1.024-1.024h2.048l1.024-1.024h1.024v-1.024h2.048v-8.192l-1.024-2.048v-2.048l1.024-2.048v-3.072l1.024-1.024-3.072-3.072v-1.024l1.024-1.024v-1.024h-1.024l-2.048-2.048v-1.024l-1.024 1.024-1.024-1.024v-1.024l-1.024-1.024v-1.024l-5.12-5.12v-1.024l-2.048-2.048h-1.024v-2.048l-1.024-1.024-2.048-1.024-3.072-2.048h-1.024v-1.024l1.024-1.024v-1.024h3.072l2.048-2.048v-1.024h-1.024l-2.048-2.048h-1.024l1.024-1.024h1.024v-1.024h-1.024l-1.024-1.024h-2.048l-2.048 1.024h-1.024l-1.024-1.024h-1.024l-1.024-1.024-1.024-2.048 1.024-1.024v-1.024l-1.024-1.024v1.024h-1.024v-1.024l-3.072-3.072v-1.024l1.024-1.024v-1.024h2.048l2.048 2.048 2.048-2.048 1.024 1.024 1.024-1.024h1.024v1.024h1.024l1.024-1.024v-1.024h1.024v1.024h1.024v-1.024h2.048v-2.048h1.024l1.024-1.024h2.048l1.024 2.048h4.096v1.024h3.072v1.024l-1.024 1.024v1.024l1.024 1.024v2.048h1.024l2.048 2.048h4.096zM446.464 468.992v-1.024l-1.024 1.024h1.024zM449.536 457.728v0 0zM389.12 419.84h-1.024v-1.024h1.024v1.024zM370.688 422.912v0h1.024v-1.024l-1.024 1.024zM368.64 421.888v0 0 1.024l1.024-1.024v-1.024l-1.024 1.024zM393.216 443.392v2.048h1.024v-2.048h-1.024zM395.264 449.536v1.024h-1.024v-2.048l1.024 1.024zM393.216 460.8v0 0 0zM395.264 448.512v0h-1.024v-1.024h1.024v1.024zM395.264 453.632v0 1.024h-1.024l1.024-1.024zM393.216 440.32v0 0zM391.168 445.44v0zM392.192 446.464v0 0 0 0zM393.216 449.536v0 0 0 0 0zM392.192 454.656v0zM392.192 449.536v0 0h-1.024v-1.024h1.024v1.024zM396.288 458.752v1.024h-1.024v1.024l-1.024-1.024v-4.096l2.048-2.048v-4.096h-1.024v-10.24h-1.024v-1.024l-1.024-1.024v-2.048l-1.024 2.048v-4.096l-1.024-1.024v-2.048h-1.024v-5.12l-1.024-4.096v-2.048l1.024-1.024h-2.048l-1.024-1.024v-1.024l-1.024-1.024v-1.024h-1.024v-1.024h-1.024v1.024l1.024 1.024-1.024 1.024v1.024l-1.024 1.024h-1.024v1.024l-2.048-2.048v1.024h1.024v1.024h-1.024v1.024h-2.048v1.024h-1.024v1.024l-1.024 1.024h-1.024v-1.024l-1.024 1.024h-2.048v-1.024h-1.024v-2.048l-2.048 2.048h-1.024v-3.072l1.024-3.072 1.024-2.048v-2.048l-1.024-5.12-1.024-1.024v-2.048l-1.024-1.024v-2.048l-1.024 1.024v1.024h-1.024v-1.024l-1.024-1.024v-1.024h1.024v1.024h1.024v-2.048l-2.048-2.048 1.024-1.024h-3.072v1.024h-1.024v-4.096l-1.024 1.024v1.024l-1.024-1.024 1.024-1.024h-1.024v1.024l-3.072-3.072v-4.096h2.048v-5.12h1.024l1.024 1.024v-1.024h1.024v-6.144h1.024l1.024-1.024v-4.096l-1.024-2.048h3.072v1.024h3.072v-2.048l1.024-1.024v-1.024l1.024-1.024v-1.024l1.024-1.024v-2.048h-1.024v-1.024h1.024v-1.024h1.024v-1.024h1.024v-2.048l1.024-1.024h-1.024v-3.072h1.024v-1.024h1.024l1.024-1.024h1.024v-1.024h1.024v-1.024h1.024v-1.024h5.12l1.024 1.024h1.024l-1.024-2.048-1.024-1.024v-1.024h1.024v-1.024h2.048v-3.072l1.024-1.024v-1.024h1.024v1.024h1.024l2.048 2.048 1.024 3.072v1.024h1.024v-1.024l1.024 1.024v1.024l1.024 1.024v5.12l-1.024 2.048v3.072h-1.024v1.024l-1.024 1.024v-1.024l-1.024 1.024v1.024l-1.024 1.024h-1.024v3.072h-1.024l-1.024 1.024 1.024 1.024v4.096h1.024l1.024-1.024h3.072l2.048-1.024v5.12l1.024 2.048h3.072v3.072l-1.024 2.048v2.048h3.072l1.024 1.024v2.048h1.024v1.024h4.096l2.048-2.048 1.024 1.024v1.024h-1.024v1.024h-2.048v1.024l-1.024 1.024v1.024l-1.024 1.024h-1.024v1.024l-1.024 2.048-1.024-1.024h-1.024l-1.024 1.024h-1.024l1.024 1.024h-3.072v1.024h-1.024v1.024h-1.024v1.024h-5.12v1.024l-1.024 1.024v5.12h-1.024v1.024h-1.024v1.024h1.024v3.072l1.024 2.048 3.072 2.048 2.048 4.096v1.024h2.048v1.024h-1.024l-1.024 1.024v5.12h-2.048v1.024l-1.024 1.024 1.024 1.024 1.024 2.048 3.072 3.072 1.024 2.048v5.12l1.024 1.024v1.024h1.024v1.024l1.024 4.096v2.048l-2.048 3.072h-1.024l-2.048 2.048v3.072zM365.568 399.36v0-1.024h-2.048l1.024 1.024h1.024zM359.424 396.288h1.024l-1.024-1.024v1.024zM363.52 396.288v0 0l-1.024-1.024v1.024h1.024zM364.544 403.456v-1.024h-2.048l1.024 1.024h1.024zM236.544 503.808v0 0 0zM236.544 497.664v0 0zM418.816 447.488v0 0zM419.84 449.536v1.024h1.024v-1.024h-1.024zM420.864 447.488v-1.024l1.024-1.024-2.048-2.048v-2.048l-1.024-2.048v-2.048h2.048v-1.024l4.096-4.096h10.24l1.024 1.024 3.072-3.072-1.024-2.048v-2.048h1.024v-3.072h-1.024v-1.024h-1.024v-1.024h-1.024l-2.048-2.048v-6.144l-3.072-3.072-1.024-2.048-2.048-2.048h-3.072v1.024h-1.024v1.024l-1.024 1.024h-1.024l-1.024 1.024-2.048-2.048h-2.048l-1.024 1.024-4.096 3.072h-1.024l-1.024-1.024 1.024-2.048 1.024-1.024-1.024-1.024v-2.048h1.024v-6.144l-1.024-1.024-1.024 1.024h-2.048l-1.024-1.024v-1.024l1.024-1.024v-2.048h-1.024l-1.024-1.024-1.024 1.024-1.024-1.024h-1.024l-1.024 1.024h-1.024l1.024 1.024h-3.072v1.024h-1.024v1.024h-1.024v1.024h-3.072l-1.024-1.024v1.024h-1.024v1.024l-1.024 1.024v5.12h-1.024v1.024h-1.024v1.024h1.024v3.072l1.024 2.048 3.072 2.048 2.048 4.096v1.024h2.048v1.024h-1.024l-1.024 1.024v5.12h-2.048v1.024l-1.024 1.024 1.024 1.024 1.024 2.048 3.072 3.072 1.024 2.048v5.12l1.024 1.024v1.024h1.024v1.024l1.024 4.096v2.048l-2.048 3.072h-1.024l-2.048 2.048v4.096l-3.072 6.144v4.096l1.024 2.048 1.024-1.024 1.024 1.024v1.024h1.024v1.024h1.024v1.024l2.048 2.048h1.024v1.024l1.024 1.024v2.048l2.048 2.048 1.024-1.024v-1.024l2.048 2.048h2.048v1.024h1.024v4.096l1.024-1.024h1.024l1.024-1.024h1.024v1.024h1.024v-1.024h1.024v-1.024l1.024-1.024-2.048-1.024-1.024-1.024v-1.024h-1.024v-1.024h-3.072l-2.048-1.024-3.072-3.072v-1.024h1.024l-1.024 1.024h1.024v2.048h1.024l-1.024-6.144-1.024-2.048-1.024 1.024v-2.048l-1.024-2.048v-1.024l-1.024-1.024h-2.048v1.024l-1.024-1.024v-3.072l-1.024-1.024 1.024-1.024v-3.072l1.024-2.048 1.024-1.024v-2.048l3.072-6.144v-7.168h5.12v5.12h6.144v1.024h1.024l1.024 1.024h1.024l1.024 1.024h1.024v1.024l2.048 2.048-1.024-2.048h-1.024zM403.456 462.848h1.024v1.024h-1.024v-1.024zM404.48 462.848v0 0zM393.216 466.944v0 0 0zM395.264 473.088v0zM393.216 475.136v-3.072l1.024 1.024v1.024l-1.024 1.024zM398.336 476.16v0 0 0 0 0zM402.432 482.304v0 0h-1.024v-1.024l1.024 1.024zM412.672 504.832v0zM405.504 489.472v1.024h1.024l-1.024-1.024zM401.408 483.328h2.048v1.024h-1.024l-1.024-1.024zM516.096 497.664v0 0zM464.896 513.024v1.024h1.024v1.024l3.072 3.072h2.048l2.048-1.024h1.024l3.072 1.024 1.024-1.024h1.024l2.048-2.048v-1.024h4.096l4.096 2.048h2.048v-1.024h4.096v-1.024h1.024v-2.048h1.024v-3.072h1.024l1.024-1.024v-3.072h1.024l1.024-1.024v-4.096l1.024-1.024v-1.024l1.024-1.024h9.216l1.024 1.024h1.024v-1.024h6.144v-1.024l-2.048-2.048v-1.024h4.096l1.024-1.024h1.024v-2.048l-3.072-1.024h-1.024l-1.024-1.024h-2.048v-1.024h-3.072v-3.072l-2.048-2.048v-1.024h-1.024l-2.048 2.048v-2.048l-5.12 7.168-1.024 1.024h-1.024l-1.024 1.024v1.024l1.024 1.024h-1.024v1.024h-2.048v1.024l1.024 1.024v2.048h-1.024l-1.024-1.024v-3.072l-1.024 1.024v4.096h-3.072l-1.024-2.048-1.024-1.024v2.048l-2.048 2.048-4.096 5.12-1.024 1.024h-2.048l-4.096 1.024h-2.048v1.024h-1.024v2.048h-1.024v2.048l-1.024 2.048v2.048l-4.096-2.048h-3.072l-2.048-2.048v2.048zM416.768 485.376l1.024-1.024 1.024 1.024h1.024v2.048h1.024l4.096 4.096v1.024l1.024 1.024v3.072l-1.024 3.072 1.024 1.024v6.144h1.024l1.024 1.024 2.048 5.12 1.024 1.024v1.024h-1.024v-1.024h-1.024v1.024h-3.072l-2.048-2.048h-2.048l-9.216-7.168v-2.048l-1.024-1.024v-1.024l-2.048-1.024v-1.024h-1.024v-2.048l-1.024-2.048-1.024-5.12v-4.096l-1.024-2.048-1.024-1.024 1.024-1.024h1.024l1.024 1.024h2.048v1.024h1.024v4.096l1.024-1.024h1.024l1.024-1.024h1.024v1.024h1.024v-1.024h1.024v-1.024zM430.080 505.856v0h1.024v1.024h-1.024v-1.024zM475.136 507.904v0-1.024h1.024v2.048l-1.024-1.024zM512 477.184h1.024v1.024h-1.024v-1.024zM566.272 480.256v-1.024h1.024l-1.024 1.024zM547.84 477.184v0zM529.408 491.52v0 0l1.024-1.024h1.024l-1.024 1.024h-1.024zM538.624 486.4h-3.072l1.024-1.024h2.048v1.024zM541.696 482.304l1.024-1.024h1.024l1.024 1.024-1.024 1.024h-2.048v-1.024zM512 473.088v1.024h-1.024v-1.024h1.024zM513.024 471.040v0 1.024h1.024l-1.024-1.024zM542.72 392.192v0 0 0 0 0 0zM541.696 390.144v0 0 0 0 0 0zM542.72 430.080v0l-1.024-1.024v-1.024h1.024v2.048zM556.032 437.248v0 0h2.048v-2.048l-1.024-1.024-1.024 1.024v2.048zM529.408 419.84h-1.024l2.048 9.216h1.024v1.024l2.048 2.048v-3.072l1.024 1.024h1.024l1.024 1.024-2.048 2.048v2.048l1.024 1.024h1.024l1.024 1.024h1.024l1.024-1.024v-1.024h2.048l1.024 1.024 3.072 2.048v1.024h1.024l-1.024-3.072 1.024-1.024 1.024 1.024v1.024h1.024l2.048 2.048v1.024l1.024 1.024h2.048l1.024 1.024v1.024l1.024 1.024v-3.072l-1.024-1.024h-1.024v-2.048h-1.024v-1.024l1.024-1.024h1.024l-1.024-1.024h-2.048v-1.024h-1.024v1.024l-1.024 1.024v-1.024l-1.024-1.024v-1.024h-4.096v2.048h-2.048v-1.024h-1.024v-1.024h-1.024v-4.096l-1.024-2.048-1.024-1.024h1.024v-2.048l1.024-1.024v-1.024l1.024-1.024h2.048l1.024-1.024 1.024-5.12v-1.024l-1.024-1.024v-1.024h-1.024v-3.072l1.024-2.048v-1.024h-1.024v1.024h-3.072l-1.024-1.024h-1.024l-1.024-1.024h-3.072v1.024l-1.024 4.096-1.024 1.024v10.24l-1.024 1.024v-1.024l-2.048-1.024zM563.2 444.416h-6.144v1.024l1.024 1.024 2.048 1.024v1.024l1.024 1.024h1.024l-1.024 1.024v1.024h1.024l2.048 2.048h2.048v-1.024h-1.024v-6.144l-1.024-1.024h-1.024v-1.024zM537.6 400.384v0 0zM542.72 434.176h1.024l-1.024-1.024v1.024zM565.248 461.824l-1.024 2.048 1.024 2.048-1.024 1.024h-1.024v1.024h-1.024l-1.024-1.024-1.024 1.024v2.048h-3.072v2.048h-2.048v-1.024l-1.024-1.024v-1.024h-3.072l-1.024 1.024v1.024l-1.024 1.024h-1.024l-1.024 1.024h-2.048l-1.024 1.024v2.048l-1.024 1.024v3.072h1.024v-1.024l2.048-3.072v-1.024h2.048l1.024 1.024 1.024-1.024v1.024h1.024v1.024h1.024v-2.048l1.024-1.024 1.024 1.024h1.024l1.024 2.048v6.144l3.072 3.072h3.072l1.024-1.024v2.048l1.024 1.024 2.048-2.048v-1.024l-2.048-4.096 1.024-2.048 1.024-1.024v-1.024l1.024 1.024 1.024 2.048v2.048l1.024 2.048v-4.096h1.024l1.024-1.024v-7.168l-1.024-1.024v-1.024h-1.024v-2.048h1.024v-1.024l-1.024-1.024v-1.024h-1.024l-3.072-3.072zM568.32 462.848v0 0-1.024l-1.024 1.024h1.024zM539.648 399.36v0 0zM542.72 402.432v0zM513.024 468.992v2.048l1.024-1.024 3.072-2.048 1.024-1.024v-1.024h1.024l1.024-1.024h1.024v-1.024l1.024-2.048 1.024-1.024h1.024l1.024-1.024v-1.024h1.024v-1.024h2.048l-1.024-3.072v-2.048l-2.048 2.048v1.024l1.024 1.024h-1.024v1.024l-2.048 1.024-4.096 5.12-5.12 4.096-1.024 1.024zM550.912 443.392v2.048l-1.024 3.072 2.048-2.048 1.024 1.024 2.048 1.024 1.024 1.024v-1.024l-1.024-1.024-1.024-2.048-2.048-1.024-1.024-1.024zM545.792 445.44h1.024v-1.024h-1.024v1.024zM553.984 445.44v-2.048h-1.024v1.024h1.024v1.024zM544.768 444.416v0 0 0 0 0zM558.080 451.584v3.072h2.048v4.096l2.048 2.048v-1.024l1.024-1.024v-2.048l-1.024-1.024v-3.072l-1.024-1.024h-2.048l-2.048-1.024 1.024 1.024zM568.32 461.824v0 0h1.024l-1.024-2.048v2.048zM559.104 450.56v0 0-1.024h-1.024v1.024h1.024zM542.72 448.512v1.024h1.024v1.024l-1.024 6.144v1.024l1.024-1.024 3.072-1.024 3.072-3.072v-2.048l-1.024 1.024v-1.024h-3.072v-1.024h-1.024l-1.024-1.024h-1.024zM531.456 436.224v0 0 0zM560.128 450.56h1.024l-1.024-1.024v1.024zM550.912 460.8v-2.048l2.048-2.048v-1.024l-2.048-2.048-3.072 3.072v3.072l-2.048 1.024v2.048l1.024 1.024h1.024v1.024l2.048 2.048 1.024-1.024v-2.048l-1.024-1.024v-1.024l1.024-1.024zM552.96 465.92v0-1.024l-1.024 1.024h1.024zM556.032 452.608l-1.024 1.024-1.024 4.096-2.048 3.072-1.024 2.048v1.024h1.024v-1.024l1.024-2.048 3.072-3.072v-5.12zM553.984 453.632v0zM549.888 441.344l-1.024-1.024v1.024l2.048 1.024-1.024-1.024zM546.816 457.728l1.024-1.024-1.024-1.024v1.024h-1.024v1.024h1.024zM562.176 459.776v0zM559.104 465.92l1.024 1.024v-2.048l-1.024 1.024zM558.080 456.704v0-1.024l-1.024 1.024h1.024zM556.032 459.776l-1.024 1.024v1.024h-1.024l1.024 1.024h3.072l1.024-1.024v-1.024l-1.024-1.024h-2.048zM530.432 449.536v-1.024l-1.024-1.024 1.024 2.048zM531.456 446.464v0 0l-2.048-1.024v1.024l1.024 1.024h2.048l-1.024-1.024zM529.408 450.56h-1.024v1.024h1.024v-1.024zM529.408 457.728v0l1.024-1.024h-2.048l1.024 1.024zM542.72 444.416v3.072l1.024-2.048v-2.048l-1.024 1.024zM539.648 443.392v-3.072l-1.024-1.024v-1.024h-6.144l1.024 1.024h1.024v2.048l2.048 3.072v1.024h1.024v1.024l1.024-1.024h1.024v-2.048zM542.72 438.272v-1.024h-1.024v1.024l1.024 1.024h1.024v-1.024h-1.024zM566.272 460.8v0-3.072h-1.024v3.072h1.024zM582.656 265.216v0l3.072 4.096 2.048 4.096 2.048 2.048v8.192h1.024v2.048l-1.024 1.024-1.024 2.048-2.048 2.048h-3.072v1.024h-2.048l-1.024-1.024-1.024 1.024h-1.024v1.024h-1.024v-1.024l-1.024 1.024 1.024 1.024h-1.024v1.024h-1.024v-2.048l-1.024 2.048h-2.048l-1.024 1.024v-1.024h-1.024v-2.048h1.024l-1.024-1.024v-3.072l2.048-2.048h-1.024l1.024-1.024v-1.024l-1.024-1.024v-5.12l-1.024 1.024-1.024-1.024 2.048-2.048h1.024l1.024 1.024v-3.072l-1.024-2.048-1.024-1.024h1.024l1.024-2.048 2.048-2.048h5.12l1.024-1.024h1.024v-1.024zM584.704 291.84l-1.024 1.024h2.048v-2.048l-1.024 1.024zM571.392 272.384v0-1.024h-1.024v1.024h1.024zM570.368 280.576v0 0 0zM572.416 295.936v0zM569.344 303.104v1.024h2.048l2.048-1.024 1.024-1.024h-3.072l-2.048 1.024zM580.608 292.864v0 0 0-1.024h-1.024v1.024h1.024zM579.584 293.888v0 0 0 0zM569.344 291.84h-1.024v1.024h1.024v-1.024zM569.344 294.912v0h-1.024l1.024 1.024 1.024-1.024h-1.024zM599.040 273.408v0 0zM653.312 238.592v0zM655.36 234.496v2.048l1.024 2.048 1.024 1.024-1.024 1.024v2.048l1.024 1.024 3.072-3.072h3.072v-1.024l-2.048-1.024h-1.024l-2.048-2.048v-2.048h2.048l2.048 2.048 1.024-1.024h1.024v-1.024h3.072l2.048 1.024 3.072 2.048 2.048 1.024h2.048l1.024-1.024v-2.048l4.096-4.096h4.096l1.024-1.024h2.048l1.024-1.024h1.024l1.024-1.024h-2.048l-1.024-3.072v-2.048l1.024-2.048v-1.024l-3.072 3.072h-2.048l-2.048-1.024-3.072-1.024-4.096-2.048-1.024-2.048-5.12-6.144h-2.048l-1.024 1.024v2.048l1.024 2.048v3.072l-1.024 3.072v1.024l-1.024 2.048v3.072l-1.024 1.024h-2.048l-2.048-1.024h-2.048v1.024h1.024v1.024l-1.024 2.048-3.072 2.048zM662.528 211.968v0h1.024v-1.024h-1.024v1.024zM664.576 212.992h-1.024v1.024l1.024-1.024zM646.144 270.336v0l1.024-1.024h-1.024l1.024-1.024v-1.024h-1.024v1.024l-1.024 1.024h1.024v1.024zM588.8 338.944v0 0zM594.944 309.248v0 0 0zM608.256 299.008v0zM620.544 294.912v0zM624.64 294.912v1.024l-1.024 1.024h-1.024v-1.024l1.024-1.024h1.024zM609.28 297.984v0 0 0zM607.232 302.080l2.048-1.024 1.024-1.024v-1.024l1.024-1.024h1.024l1.024 1.024 2.048-1.024h1.024v-1.024l2.048-1.024h2.048l1.024 1.024h1.024v2.048l1.024 1.024h-2.048l-1.024 1.024v1.024l-1.024 2.048-1.024-2.048h-4.096v1.024l-3.072 3.072v1.024h-1.024v-1.024h-1.024v-3.072h-1.024v-1.024l-1.024 1.024h-1.024l1.024-1.024zM586.752 340.992v0 0 0zM585.728 307.2l1.024 1.024h-2.048v-1.024h1.024zM553.984 365.568v0 0zM556.032 365.568v-1.024l1.024-1.024v2.048h-1.024zM563.2 362.496v0-1.024l1.024 1.024h-1.024zM587.776 337.92l2.048-1.024h1.024l1.024-1.024v1.024h-1.024l-1.024 1.024v1.024h-1.024v-1.024h-1.024zM591.872 300.032v0 0zM590.848 303.104h1.024l2.048-2.048h1.024l2.048-1.024v-1.024h2.048l2.048 2.048h3.072v1.024l-1.024 1.024 1.024 1.024h1.024v1.024l1.024 1.024-2.048 2.048v1.024l-1.024 1.024v2.048l-1.024 2.048v2.048h-2.048v1.024l-2.048 2.048v-5.12l-1.024 1.024v2.048h-2.048l-1.024-1.024h1.024v-5.12l2.048-2.048v-1.024h-1.024l1.024-1.024-1.024-1.024v-1.024l-1.024-1.024h-1.024v1.024l2.048 2.048-1.024 1.024v-1.024h-2.048l-1.024 1.024v-1.024l-1.024-1.024v-1.024h1.024v1.024h1.024l-2.048-2.048v-1.024zM612.352 287.744h5.12l6.144-1.024 2.048-1.024h1.024v2.048h2.048l1.024-1.024h1.024l1.024-1.024v-3.072l4.096-4.096v-4.096l2.048-1.024 1.024-1.024 1.024 1.024-2.048 2.048h-1.024l1.024 2.048v1.024h2.048v-1.024h1.024v-1.024h2.048l1.024-1.024h2.048l2.048-2.048v-2.048h1.024v-1.024h1.024l2.048-2.048v-1.024l1.024-2.048 2.048-3.072 1.024-3.072v-4.096h-1.024l1.024-1.024v-5.12h1.024v-1.024h1.024v-3.072h1.024l1.024 1.024v2.048h1.024l1.024-1.024 1.024 1.024v-1.024h1.024v-2.048h-2.048l-1.024 1.024v-3.072h2.048v1.024h2.048v6.144h1.024v1.024l1.024 1.024v1.024l1.024 1.024v6.144l-1.024 2.048h-1.024v1.024l-1.024 1.024v2.048h-1.024v1.024h-1.024l-1.024 1.024v8.192l-2.048 3.072v4.096l1.024 2.048-1.024 1.024h-1.024v2.048l-3.072 3.072h-1.024v-3.072h1.024v-2.048h-1.024l-1.024 1.024v2.048l-2.048-1.024-1.024 1.024-1.024 3.072-1.024 1.024-1.024-1.024 1.024-1.024v-1.024l-1.024-1.024-1.024 1.024-1.024 2.048-1.024 1.024h-6.144v-1.024h-2.048v-2.048h-1.024v1.024l-1.024 1.024v1.024l2.048 1.024v1.024h-1.024l-2.048 1.024-1.024 1.024-2.048 3.072-1.024 1.024h-1.024l-3.072-3.072v-3.072h1.024v-1.024h1.024v-1.024h-3.072l-2.048-1.024h-2.048l-2.048 2.048-6.144 1.024h-4.096l-1.024 1.024v2.048l-2.048-1.024h-2.048l-2.048 1.024h-1.024v-1.024h-1.024v-2.048h2.048l1.024-1.024 2.048-1.024 6.144-6.144h2.048zM613.376 282.624v0-1.024h1.024v1.024h-1.024zM588.8 295.936v0 2.048l-1.024-1.024 1.024-1.024zM587.776 306.176v0h-1.024l1.024-1.024v1.024zM589.824 304.128v-1.024h1.024l-1.024 1.024zM589.824 293.888v0 2.048h-1.024v-2.048h1.024zM578.56 352.256l1.024-1.024v-1.024h1.024v-1.024h1.024v-1.024h1.024v1.024l-4.096 4.096v-1.024zM591.872 314.368v0 0 0zM592.896 310.272v0 0 0-1.024l1.024-1.024 1.024 1.024v1.024h-1.024v1.024h-1.024v-1.024zM600.064 322.56h-1.024v1.024-2.048l1.024-1.024v2.048zM596.992 324.608l-1.024-1.024v-1.024h1.024v2.048zM655.36 304.128v0zM652.288 292.864v0zM529.408 356.352v1.024l-1.024 1.024v-2.048h1.024zM543.744 327.68v0 0 0 0zM518.144 364.544v0 0zM472.064 395.264v-1.024h-1.024v1.024h-7.168l-2.048 2.048-2.048 1.024v1.024h-1.024v5.12l1.024 1.024h1.024l1.024 1.024h4.096l1.024-1.024h1.024v-1.024l2.048-1.024v-1.024l1.024-2.048 1.024-1.024v-1.024h1.024v-3.072h-1.024zM483.328 384v0 0 0 0 0zM484.352 384v0 0 0 0l1.024-1.024h-1.024v1.024zM537.6 338.944v0 0 0zM489.472 375.808v0 0zM538.624 313.344h-1.024l2.048 2.048h2.048l-2.048-1.024h-1.024zM543.744 324.608v0h-1.024v1.024h1.024l1.024 1.024v-1.024l-1.024-1.024zM470.016 388.096v0zM544.768 326.656v0 0 0 0zM622.592 190.464v-4.096h-4.096l-1.024 1.024-2.048 1.024h-3.072v1.024h-1.024l-1.024 1.024h-1.024v1.024h-2.048l-1.024 1.024h-3.072l-1.024-1.024h-1.024l-1.024 1.024-1.024-1.024v-1.024l-1.024-1.024v-3.072l-1.024-2.048v-2.048h-2.048v-1.024h-1.024v-1.024h-1.024l-3.072-3.072h-3.072l-1.024-1.024v-1.024h-7.168v-2.048h-1.024v-4.096l-1.024-1.024v-4.096h-1.024l-1.024-2.048v-1.024h-1.024v-3.072l-1.024-1.024v-2.048l-1.024-1.024v-2.048h-1.024v-2.048l-2.048-2.048v-2.048h-1.024v-1.024h-1.024v-1.024h-2.048v-1.024h-5.12l-2.048-2.048h-2.048l-1.024-1.024h-9.216l-6.144 2.048h-3.072l-4.096 4.096h-1.024v1.024l1.024 1.024h3.072v6.144h-1.024v1.024h-1.024l-2.048 2.048v1.024l-1.024 1.024v1.024h-1.024v2.048l-1.024 1.024v2.048l-1.024 1.024h-1.024v2.048h1.024v2.048h-1.024v1.024h-1.024v1.024h-2.048l-2.048 1.024-3.072 3.072h-1.024l-5.12-2.048-1.024-1.024h-1.024l-4.096 9.216v1.024l-1.024 1.024v3.072l-1.024 1.024h-1.024v1.024l3.072 3.072v-1.024h1.024v-1.024h5.12v1.024l2.048 1.024h1.024l1.024-2.048h1.024v-1.024h5.12v1.024l1.024 1.024h1.024l1.024 1.024h1.024v2.048h1.024l3.072 3.072v2.048l-2.048 2.048h-1.024l-1.024-1.024h-7.168l-1.024 1.024h-3.072l-1.024 1.024v1.024h-1.024l-1.024-1.024h-1.024l-3.072 3.072v1.024l-4.096 4.096h-6.144l-3.072 3.072-2.048 1.024v1.024h-1.024l-1.024 1.024-1.024-1.024h-3.072l-3.072-2.048h-3.072l-2.048 2.048-1.024 2.048v3.072h1.024l2.048 4.096-1.024 1.024-4.096 1.024-1.024 2.048-3.072 3.072-2.048 1.024-4.096 1.024-3.072 1.024h-7.168l-5.12 1.024h-2.048l-2.048 1.024-7.168 3.072-1.024 1.024h-4.096v-2.048l-3.072 1.024h-3.072l-2.048-2.048h-2.048l-3.072-1.024h-2.048l-1.024-1.024v-1.024l-2.048-1.024h-2.048l-7.168-1.024-4.096 1.024h-3.072l-10.24-2.048h-3.072l-2.048 1.024-1.024-1.024v-1.024h-1.024v-1.024l-2.048-2.048-1.024-4.096h-1.024v-1.024h-1.024v-3.072h-4.096l-2.048-2.048h-1.024v-1.024h-2.048l-2.048-2.048h-2.048l-11.264-1.024h-1.024l-1.024-1.024h-1.024l-1.024-1.024-1.024-2.048 1.024-1.024 1.024-3.072v-6.144l-1.024-1.024-1.024-2.048-1.024-1.024-1.024-2.048v-1.024h-1.024v-1.024l-1.024-1.024h-2.048l-1.024-1.024h-3.072l-2.048-2.048h-1.024v-1.024l-1.024-1.024h-2.048v-3.072h-2.048v-1.024l1.024-1.024v-1.024h-2.048l-1.024 1.024h-1.024v-1.024h-2.048v1.024h-1.024v3.072l-2.048 2.048h-3.072l-1.024 1.024h-1.024v10.24h-1.024v1.024h-2.048v1.024h-1.024l-1.024 1.024v-1.024h-1.024l-1.024-1.024h-4.096l-3.072-1.024h-2.048v2.048l-4.096 9.216v3.072h2.048v1.024l-1.024 1.024h-4.096l-1.024-1.024h-3.072l-2.048 2.048h-4.096l-1.024 1.024h-1.024v1.024h2.048l1.024 1.024v1.024l-1.024 1.024 1.024 2.048v1.024l1.024 3.072v3.072h1.024v2.048h-2.048v1.024h1.024l-1.024 1.024h-1.024v1.024l-1.024 1.024h1.024v4.096h-3.072l-1.024 1.024-3.072 2.048-3.072 1.024-4.096 4.096h-7.168l-1.024 2.048-1.024 1.024v1.024h-1.024l-1.024 1.024h-3.072v-2.048h-2.048v1.024h-4.096l1.024 1.024h-1.024l-1.024 1.024h-2.048l-2.048 2.048v2.048l-2.048 2.048v2.048h1.024v4.096h2.048l1.024-1.024h1.024l2.048 1.024v3.072l1.024 2.048v2.048h1.024v2.048l-1.024 1.024-1.024-1.024-1.024 1.024h-1.024l1.024 1.024h1.024l1.024 1.024h1.024v-1.024h1.024l1.024 1.024v1.024h2.048l1.024 1.024v1.024l1.024 1.024v2.048l1.024 1.024v1.024h1.024l1.024-1.024v1.024h1.024l1.024 1.024h1.024l3.072 1.024h3.072v2.048h1.024v2.048l1.024 1.024v1.024l2.048 1.024h1.024l1.024 1.024v1.024l-1.024 1.024v4.096l2.048 2.048v3.072h1.024v2.048h-1.024l-1.024 1.024-1.024-1.024v-1.024h-3.072v1.024h1.024v2.048l1.024 1.024h1.024l-1.024 1.024v1.024l1.024 1.024-1.024 1.024h1.024v1.024l1.024-1.024h1.024l1.024 1.024v1.024l1.024 1.024h3.072v1.024h2.048v2.048h2.048l1.024 1.024h1.024v1.024h1.024v1.024h1.024l1.024-2.048h4.096l1.024 1.024v1.024l6.144 4.096 2.048 1.024 1.024 1.024 1.024-1.024h1.024l1.024 1.024v1.024l1.024 1.024h1.024l2.048 2.048h2.048v2.048h4.096l1.024 2.048h1.024v-1.024h1.024v1.024h2.048v-1.024h1.024v1.024h2.048v1.024h6.144v-1.024h3.072v-1.024h1.024v1.024h1.024v2.048l-1.024 1.024v1.024h1.024l4.096-4.096v-1.024h1.024l1.024-1.024h3.072v1.024h2.048l1.024 1.024h5.12v2.048h2.048l1.024-1.024h3.072v-2.048h1.024l1.024-1.024h1.024v-1.024l1.024-1.024v-1.024h3.072l1.024-1.024h1.024v-1.024h1.024v-1.024h2.048v-1.024h1.024v1.024h3.072l1.024 1.024 2.048-2.048 2.048-1.024h1.024v1.024h1.024v1.024h-1.024v2.048l1.024-1.024h1.024v2.048l-1.024 1.024v1.024h3.072l1.024 1.024v-1.024h1.024l1.024 1.024 1.024-1.024v-1.024h1.024v1.024h1.024v1.024h1.024l1.024 1.024 1.024 3.072v1.024h1.024v-1.024l2.048 2.048v6.144l-1.024 2.048v3.072h-1.024v1.024l-1.024 1.024v-1.024l-1.024 1.024v1.024l-1.024 1.024h-1.024v3.072h-1.024l-1.024 1.024 1.024 1.024v4.096h1.024l1.024-1.024h5.12v4.096l1.024 2.048h3.072v3.072l-1.024 2.048v2.048h3.072l1.024 1.024v2.048h1.024v1.024h4.096l2.048-2.048 1.024 1.024v3.072h4.096l-1.024-4.096-1.024-2.048v-2.048h1.024v-1.024h1.024v1.024h2.048l1.024-1.024v-1.024h2.048l2.048 2.048 2.048-2.048 1.024 1.024 1.024-1.024h1.024l1.024 1.024 1.024-1.024v-1.024h1.024v1.024h1.024v-1.024h2.048v-2.048h1.024l1.024-1.024h2.048l1.024 2.048h4.096v1.024h3.072v1.024l-1.024 1.024v1.024l1.024 1.024v2.048h1.024l2.048 2.048h4.096l1.024 1.024h1.024l1.024-1.024h1.024v-2.048l1.024 1.024v1.024h2.048l1.024 1.024h2.048v-1.024h1.024v1.024h2.048v1.024h-1.024v1.024l-1.024 1.024v1.024l1.024 1.024 1.024 2.048v1.024h3.072v-2.048l-1.024-1.024h1.024l-1.024-1.024h-1.024v-1.024l2.048-1.024h1.024l2.048-2.048h3.072l1.024-1.024h1.024v-1.024h6.144l1.024-1.024h1.024v-2.048l1.024 1.024 2.048-1.024v-2.048l-1.024-1.024v-2.048l1.024-1.024h1.024l-1.024 1.024 1.024 2.048 1.024 1.024h4.096v-1.024h1.024l1.024 1.024v-1.024h4.096l1.024-1.024h2.048l2.048-1.024h1.024v-1.024h1.024v-1.024l1.024-1.024h1.024v-1.024h1.024l1.024-1.024 1.024 1.024v-2.048h2.048v-1.024h1.024l1.024-1.024v-1.024h-1.024v-1.024h1.024v-1.024h3.072l3.072-3.072h-1.024l1.024-1.024h1.024v-2.048l1.024 1.024h2.048l-1.024-1.024v-2.048l1.024-1.024h-3.072v-1.024h2.048l2.048-1.024v-1.024l-1.024-1.024v-2.048h1.024v2.048l2.048-2.048v-1.024l2.048-2.048v-1.024l1.024-2.048 1.024-1.024v-1.024l1.024-1.024v-1.024h4.096v-1.024l-1.024-1.024v-1.024l1.024-1.024h-1.024l1.024-1.024h-1.024v-1.024l1.024-1.024h1.024v1.024h1.024v-3.072h-1.024l-1.024 1.024h-1.024l3.072-2.048 1.024-1.024h-2.048l-1.024-1.024h-1.024v-1.024l-1.024-1.024h-1.024l-1.024 1.024h-3.072v-1.024l-1.024 1.024h-1.024l1.024-1.024h3.072l2.048-2.048 4.096-2.048v-1.024l-2.048-2.048-4.096-3.072-1.024-1.024h-2.048l-1.024 1.024-1.024-1.024h4.096l2.048 1.024h3.072l1.024 1.024h1.024v-2.048h-1.024l-2.048-2.048v-1.024h-1.024l-2.048-2.048v-3.072l-4.096-8.192-1.024-1.024-4.096-2.048h-1.024v-2.048h1.024l1.024-2.048 5.12-5.12h-1.024v-1.024h1.024v1.024l1.024-1.024h1.024v-1.024l1.024-1.024v-1.024h1.024l4.096-2.048h2.048v-1.024l1.024 1.024h2.048v-2.048h1.024v-2.048h-3.072v-1.024l-1.024 1.024h-3.072l-1.024-1.024-2.048-1.024h-5.12l1.024 1.024h-1.024l-2.048 2.048v1.024h-4.096l-2.048-2.048 1.024-1.024v-3.072h-1.024v-1.024h-5.12l-3.072-3.072v-1.024l1.024-2.048v-1.024l1.024-1.024h1.024v1.024h6.144v-1.024l1.024-1.024v-1.024l1.024-2.048 1.024-1.024h1.024l4.096-2.048 3.072-3.072 1.024-2.048h5.12v-1.024l3.072 3.072-1.024 2.048-2.048 2.048v1.024l-2.048 1.024v1.024h-1.024v2.048h3.072l-1.024 1.024v1.024h-1.024v1.024h-1.024l-1.024 1.024v1.024h1.024l2.048-2.048h1.024l1.024-1.024h1.024l3.072-3.072 2.048-1.024 4.096-1.024v-1.024l1.024 1.024 2.048-1.024h1.024l1.024-1.024v-1.024l2.048-1.024 7.168-4.096 3.072-3.072v-1.024h1.024v-2.048h1.024v-1.024h2.048v1.024h1.024v1.024h1.024l2.048 1.024 1.024-1.024h1.024v1.024h1.024l1.024-1.024v-1.024l-2.048-2.048 1.024-1.024h5.12l1.024-1.024 1.024-2.048h2.048l1.024-1.024v-3.072h3.072v2.048h1.024v1.024h1.024v-1.024h-1.024v-1.024h3.072l1.024-1.024v-1.024h1.024v-9.216l-1.024-3.072v-1.024l-1.024-1.024h1.024v-1.024h3.072v-1.024l2.048-2.048 1.024 1.024h3.072l1.024 1.024h3.072v-4.096h2.048v-3.072h1.024v-2.048h1.024v-1.024l1.024-1.024h-1.024v-1.024h1.024v-3.072h1.024v-3.072l2.048-2.048h1.024v-1.024h1.024v-1.024l-1.024-1.024zM358.4 442.368v0zM360.448 437.248l-1.024 1.024-1.024 2.048v6.144h-1.024v3.072l1.024 1.024v-3.072l1.024-1.024v-6.144l1.024-1.024v-2.048zM358.4 465.92v0 0 0 0zM360.448 447.488v0 0h-1.024l1.024 1.024v-1.024zM358.4 451.584l-1.024-1.024v1.024h1.024zM356.352 454.656v0 2.048l1.024-1.024-1.024-1.024zM364.544 477.184v0 0 0h-1.024v1.024h1.024v-1.024zM387.072 338.944v0-1.024l-1.024-1.024h-1.024v1.024l-1.024-1.024h-3.072v-1.024l1.024-1.024v-2.048h-1.024l-1.024 1.024v-2.048h1.024v-1.024h-1.024v-1.024h-1.024l-2.048 1.024-2.048 2.048-1.024-1.024h-3.072v-1.024h-1.024v1.024h-2.048v1.024h-1.024v1.024h-1.024l-1.024 1.024h-3.072v1.024l-1.024 1.024v1.024h-1.024l-1.024 1.024h-1.024v2.048h-3.072l-1.024 1.024h-2.048v1.024l1.024 1.024h2.048v1.024h-1.024v1.024h1.024v1.024l-1.024 1.024h-11.264l-1.024 1.024h-2.048v-1.024h-4.096v-1.024h-1.024v-1.024h-1.024v-1.024h1.024v-1.024h-1.024v-1.024l1.024-1.024v-2.048h-1.024v-1.024h-1.024v1.024h-3.072v1.024h1.024v1.024l-1.024 1.024v4.096l1.024 1.024v1.024l-1.024 1.024v1.024h-6.144v-1.024h-1.024l-1.024 1.024-1.024-1.024h-1.024l-2.048-1.024h-1.024l-1.024 1.024v-1.024l-1.024-1.024h-2.048v1.024l-1.024-1.024h-1.024v-1.024h-2.048v-2.048h-1.024l-2.048-1.024v-1.024h-1.024v1.024h-7.168v-1.024h-1.024v-1.024h-2.048l-1.024-1.024h-1.024v-1.024l-1.024 1.024-1.024-1.024h-1.024v-1.024h-2.048v-1.024l-2.048-1.024-2.048-2.048h-2.048l-1.024-1.024v-2.048h1.024v-3.072l4.096-4.096v-1.024h-1.024l-1.024-1.024h-2.048v-2.048h-2.048v-1.024h-3.072v-1.024h-1.024v-1.024l-1.024-1.024h-1.024l-1.024 1.024v-2.048l-1.024-1.024v-1.024h1.024v-1.024h-1.024v-1.024h-1.024v-3.072h2.048v1.024l1.024 1.024 1.024-1.024h1.024v-3.072h-1.024v-2.048l-2.048-2.048v-4.096l1.024-1.024v-1.024l-1.024-1.024h-1.024l-2.048-1.024v-1.024l-1.024-1.024v-2.048h-1.024v-2.048h-3.072l-3.072-1.024h-1.024v2.048l1.024 1.024v2.048h-2.048v1.024h-3.072v1.024h-2.048l-1.024 1.024h-1.024l-1.024-1.024h-3.072l-1.024-1.024h-4.096l-1.024 1.024v1.024l-1.024 1.024h1.024v2.048h2.048v1.024h-1.024v1.024h-1.024v1.024h1.024v2.048l-1.024 1.024h1.024v1.024h1.024v2.048h2.048v1.024l1.024 1.024h2.048l1.024 1.024h1.024v1.024h-2.048v1.024h-2.048l-1.024 1.024v5.12l-3.072 3.072v1.024h-1.024v2.048h-1.024v1.024h-1.024l-1.024 1.024h-1.024v2.048l-1.024 1.024v2.048h-1.024v1.024h-1.024l-1.024 1.024h-1.024l-2.048 2.048v2.048h-1.024v1.024h-1.024v1.024l-1.024 1.024h-4.096l-1.024 1.024h-1.024v-2.048h-3.072v1.024l-2.048 2.048-1.024 2.048h-1.024v4.096h1.024l1.024 1.024h2.048v2.048l-1.024 1.024v1.024l1.024 1.024v1.024h3.072v2.048l1.024 1.024v2.048l1.024 1.024v3.072h-1.024v1.024h-1.024v-1.024h-1.024v-1.024l-1.024 1.024h-2.048v1.024h-2.048l-1.024-1.024h-5.12v3.072h-3.072v2.048h1.024v-1.024h2.048v-1.024l-2.048 2.048v1.024l1.024 1.024v1.024h1.024l1.024 1.024 4.096 2.048h1.024l1.024-1.024h1.024l1.024-1.024h1.024v2.048h-1.024v1.024h-1.024l-4.096 2.048h-1.024v-1.024h-1.024l-1.024 1.024 10.24 10.24h3.072l2.048-1.024 3.072-1.024 2.048-1.024v-2.048l1.024-1.024-2.048-1.024 2.048-2.048v-1.024h2.048l-1.024 1.024v1.024h1.024v1.024l-1.024 1.024h3.072l-2.048 2.048v1.024l2.048 2.048v1.024l-1.024 2.048-1.024 3.072v2.048l1.024 1.024v1.024h1.024v1.024h-1.024v2.048l1.024-1.024v3.072l2.048 14.336 1.024 1.024v2.048l2.048 2.048v1.024l1.024 1.024v2.048h1.024l1.024 2.048v1.024h1.024l3.072 13.312 2.048 2.048 2.048 3.072 1.024 2.048 3.072 7.168 1.024 3.072-1.024-1.024 1.024 3.072v2.048l1.024 1.024 2.048 4.096 4.096 2.048 1.024-1.024h1.024l2.048-2.048v-2.048l2.048-2.048h2.048l2.048-1.024 2.048 1.024-1.024-1.024h-1.024l-1.024-1.024v-1.024l1.024-2.048h1.024v-2.048h3.072v-2.048l1.024-3.072-1.024-1.024v-5.12h1.024l1.024-3.072 1.024-1.024v-5.12h-1.024v-2.048l1.024 1.024-1.024-3.072v-1.024l1.024-1.024-1.024-2.048v-4.096l1.024-2.048 1.024-1.024h1.024v-1.024l1.024 1.024h2.048l1.024-1.024v-2.048h1.024l3.072-1.024h1.024l2.048-2.048v-2.048l2.048-2.048 2.048-1.024 3.072-3.072 3.072-2.048 2.048-1.024 1.024-2.048 2.048-3.072 1.024-1.024h1.024l2.048-2.048h-1.024l-1.024 1.024v-1.024l1.024-1.024h2.048l-1.024 1.024h2.048l1.024-1.024 2.048-1.024 1.024-1.024h1.024l1.024-1.024 1.024-3.072v-4.096l1.024-1.024 2.048-1.024h1.024l2.048-1.024 1.024-1.024v-2.048h-1.024v-1.024l1.024 1.024h1.024v1.024l-1.024 1.024v2.048h1.024v-1.024l1.024 1.024h1.024v-1.024l1.024-2.048v3.072h2.048v-4.096l-1.024-2.048v-4.096l-1.024-1.024v-2.048h-1.024v-1.024l1.024-1.024v-3.072h-2.048v-1.024h-2.048v-1.024l1.024-2.048h1.024v-2.048h3.072v-2.048h-3.072v-2.048h-2.048v-1.024l1.024-1.024v-1.024h1.024v-2.048h1.024l1.024 1.024v1.024h2.048v0h1.024v1.024h1.024v1.024h1.024v-2.048h1.024v1.024l1.024 1.024v5.12h10.24v1.024h1.024v-1.024h2.048l1.024 1.024h1.024l1.024 1.024v1.024l-1.024-1.024v1.024l-1.024 2.048v1.024h-1.024v1.024h-2.048v1.024h-2.048v1.024l-1.024 1.024v1.024l1.024 2.048v1.024h1.024v1.024h2.048v-3.072h1.024v-2.048h1.024l1.024 1.024v3.072l1.024 1.024v3.072h1.024v3.072h3.072v-6.144h1.024l1.024-1.024v-4.096l-1.024-2.048h3.072v1.024h3.072v-2.048l1.024-1.024v-1.024l1.024-1.024v-1.024l1.024-1.024v-2.048h-1.024v-1.024h1.024v-1.024h1.024v-1.024h1.024v-2.048l1.024-1.024h-1.024v-3.072h1.024v-1.024h1.024l1.024-1.024h1.024v-1.024h1.024v-1.024h1.024v-1.024h1.024l3.072-1.024 2.048 2.048h1.024l-1.024-2.048-1.024-1.024 1.024-1.024v-1.024h2.048v-2.048zM360.448 471.040v0 0 0 1.024h1.024l-1.024-1.024zM364.544 478.208v2.048l1.024 1.024v-2.048l-1.024-1.024zM361.472 473.088l1.024 1.024v-1.024h-1.024zM363.52 472.064h-1.024v1.024h1.024v-1.024zM645.12 462.848v1.024h-1.024l1.024-1.024zM771.072 480.256v0 0 1.024h1.024v-1.024h-1.024zM730.112 477.184v0 0 0 0 0zM731.136 477.184v0 0 0 0 0 0 0 0zM801.792 490.496v0zM451.584 425.984l-2.048-2.048v-1.024l1.024-1.024v-1.024h-1.024l-2.048-2.048v-1.024l-1.024 1.024-1.024-1.024v-1.024l-1.024-1.024v-1.024l-5.12-5.12v-1.024l-2.048-2.048h-1.024v-2.048l-1.024-1.024-2.048-1.024-3.072-2.048h-1.024v-1.024l1.024-1.024v-1.024h3.072l2.048-2.048v-1.024h-1.024v-1.024h-1.024v-1.024h-1.024v-1.024h1.024v-1.024h-1.024l-1.024-1.024h-2.048l-2.048 1.024h-1.024l-1.024-1.024h-1.024l-1.024-1.024-1.024-2.048 1.024-1.024v-1.024l-1.024-1.024v1.024h-1.024v-1.024l-3.072-3.072v-1.024h-2.048v-1.024h-1.024v1.024h-1.024v2.048l1.024 2.048 1.024 4.096h-4.096v-2.048h-1.024l-1.024 1.024h-1.024v1.024l-1.024 1.024v1.024l-1.024 1.024h-1.024v1.024l-1.024 2.048 1.024-1.024 1.024 1.024h1.024v2.048l-1.024 1.024v1.024l1.024 1.024h2.048l1.024-1.024 1.024 1.024v6.144h-1.024v2.048l1.024 1.024-1.024 1.024-1.024 2.048 1.024 1.024h1.024l4.096-3.072 1.024-1.024h2.048l2.048 2.048 1.024-1.024h1.024l1.024-1.024v-1.024h1.024v-1.024h2.048l2.048 1.024 1.024 1.024 1.024 2.048 2.048 2.048h1.024v7.168l2.048 2.048h1.024v1.024h1.024v1.024h1.024v3.072h-1.024v2.048l1.024 2.048-2.048 2.048v1.024l1.024 1.024h1.024l2.048 1.024h1.024v-3.072h1.024l1.024-1.024h1.024v1.024h3.072l1.024-1.024h2.048v-3.072l1.024-1.024zM355.328 388.096v2.048l-1.024-2.048v-1.024l-1.024-3.072v-2.048l-1.024-1.024 1.024-2.048-1.024 1.024-1.024-2.048-1.024-1.024v-1.024l-2.048 2.048-1.024-1.024h-1.024l-1.024-2.048v-4.096l-1.024 1.024h-1.024l2.048 2.048h-1.024v4.096l1.024 1.024v1.024h-1.024l-1.024 2.048-1.024 1.024-1.024-1.024 1.024-1.024h-1.024v1.024l-1.024-1.024v-2.048 3.072h-1.024v1.024h-3.072l-1.024-2.048v-3.072l-1.024-1.024v-3.072l-1.024-1.024v-2.048h-1.024v-1.024l1.024-1.024v-3.072h-2.048v-1.024h-2.048v-1.024l1.024-2.048h1.024v-2.048h4.096l-1.024-1.024v-1.024h-3.072v-2.048h-2.048v-1.024l1.024-1.024v-1.024h1.024v-2.048h1.024l1.024 1.024v1.024h2.048v0h1.024v1.024h1.024v1.024h1.024v-2.048h1.024v1.024l1.024 1.024v5.12h10.24v1.024h1.024v-1.024h2.048l1.024 1.024h1.024l1.024 1.024v1.024l-1.024-1.024v1.024l-1.024 2.048v1.024h-1.024v1.024h-2.048v1.024h-2.048v1.024l-1.024 1.024v1.024l1.024 2.048v1.024h1.024v1.024h2.048v-3.072h1.024v-2.048h1.024l1.024 1.024v3.072l1.024 1.024v3.072h1.024v8.192h-2.048v2.048zM353.28 382.976v-1.024h-1.024v1.024h1.024zM345.088 376.832v-1.024h-1.024l1.024 1.024v3.072l-1.024 1.024h2.048v-3.072l-1.024-1.024zM350.208 377.856v0 0 0 0 0zM345.088 375.808v0zM353.28 385.024v0-1.024h-1.024l1.024 1.024zM348.16 377.856l-1.024 3.072 1.024-1.024v-2.048zM276.48 466.944v0 0zM277.504 462.848v0 0 0 0 0zM286.72 473.088v-3.072h-1.024l-2.048-4.096-4.096-4.096h-2.048v1.024h2.048l1.024 1.024h-1.024l-1.024-1.024v3.072l-1.024 2.048-1.024 4.096v7.168l2.048 6.144 2.048 1.024 6.144-2.048 2.048-2.048 1.024-2.048v-3.072l-3.072-4.096zM384 601.088v0 0 0 0 0 0 0zM385.024 601.088v0 0 0 0 0zM230.4 569.344v1.024zM493.568 377.856v0l1.024 1.024h-2.048v-1.024h1.024zM492.544 379.904v0 0 0zM493.568 379.904v0 0 0 0 0zM536.576 360.448h1.024l2.048-1.024h1.024l2.048 2.048h-1.024v4.096l-1.024 1.024v1.024l-1.024 4.096-1.024 2.048v1.024l-2.048 2.048v2.048l-1.024 3.072h-1.024v-2.048l-2.048-2.048-1.024-3.072v-3.072l1.024-3.072 2.048-4.096 2.048-3.072v-1.024zM520.192 364.544v0 0 0zM440.32 589.824h-1.024v1.024h1.024v-1.024zM693.248 407.552l-1.024 1.024v-1.024h1.024zM692.224 428.032h-1.024l1.024 1.024v-1.024zM692.224 427.008v0 0zM692.224 419.84v0 0 0zM689.152 433.152v0 0 0 0 0zM692.224 403.456v0 0 0 0 0 0 0 0zM686.080 439.296l1.024-2.048h-1.024v2.048zM277.504 235.52h-3.072v-1.024h-1.024l-1.024-1.024-6.144-1.024-7.168-1.024h-7.168l-1.024 1.024h-3.072l-1.024-1.024-4.096-2.048h-3.072l-3.072 3.072v3.072h-1.024v-1.024h-2.048l-5.12-2.048h-4.096l-1.024 1.024h-1.024l-2.048 2.048 1.024 1.024h1.024v1.024l-1.024 1.024h-1.024v1.024h-1.024l-1.024 1.024-2.048 1.024v1.024h1.024v1.024h1.024l1.024-1.024v2.048h1.024l1.024 1.024h2.048l2.048-2.048v-1.024l1.024 1.024v1.024h1.024v1.024h1.024l1.024 1.024h2.048v1.024h3.072v1.024h-1.024l-1.024 1.024h-3.072v1.024h-1.024l-2.048 2.048h-1.024l-3.072-1.024-1.024 1.024h-1.024l-1.024 1.024v1.024h-1.024v-1.024l-3.072-1.024h-2.048l-1.024 1.024v1.024h-2.048v3.072h6.144l1.024-1.024 1.024 1.024h1.024v1.024h2.048v-1.024h3.072l1.024 1.024v1.024h1.024l1.024-1.024h1.024v1.024h1.024l1.024-1.024h6.144v-1.024l1.024 1.024 2.048-2.048v-2.048l2.048-2.048h2.048l1.024-1.024h1.024l-1.024-1.024h4.096v-1.024h1.024l1.024 2.048h3.072l1.024-1.024h1.024v-1.024l1.024-1.024v-2.048h8.192l4.096-4.096 3.072-1.024 3.072-2.048 1.024-1.024h3.072v-1.024l-2.048-2.048zM219.136 256h-1.024v-1.024h1.024v1.024zM222.208 254.976v0 0h-1.024v-1.024h1.024v1.024zM226.304 254.976v0 0 0zM556.032 583.68v-1.024h2.048l-1.024 1.024h-1.024zM565.248 582.656l7.168-3.072 4.096-2.048-1.024-1.024h-1.024l-4.096 1.024h-5.12l-1.024 1.024h-1.024l-2.048 2.048v1.024h1.024v1.024h-1.024l1.024 1.024v1.024l2.048-2.048h1.024zM565.248 575.488v0 0 0zM489.472 379.904v0 0 0 0 0 0 0 0zM529.408 197.632l-3.072-3.072h-1.024v-2.048h-1.024l-1.024-1.024h-1.024l-1.024-1.024v-1.024h-5.12v1.024h-1.024l-1.024 2.048h-1.024l-2.048-1.024v-1.024h-5.12v1.024h-1.024v1.024l-3.072-3.072v-1.024h1.024l1.024-1.024v-3.072l1.024-1.024v-1.024l4.096-9.216v-1.024h-2.048v-1.024h-1.024v1.024h-3.072v1.024l-1.024-1.024h-2.048v-1.024l-1.024-1.024h-1.024l-1.024-1.024h-3.072l-1.024 1.024h-1.024v1.024h-2.048l-3.072 3.072v1.024h-1.024l-1.024 1.024h-2.048l-2.048 1.024h-5.12v1.024h-1.024l-2.048 1.024h-4.096l-2.048-1.024h-3.072v-1.024h-4.096v1.024l-1.024-1.024-2.048-1.024-1.024-1.024v-1.024l-1.024-1.024 1.024-1.024h-5.12v-1.024h-1.024l-1.024-1.024v-1.024h-1.024l-1.024-1.024h-1.024l-1.024 1.024-2.048-1.024h-1.024l-1.024-1.024h-2.048l-1.024 1.024h-3.072v1.024h-2.048v1.024h-6.144v-1.024h-2.048l-1.024-1.024h-1.024l-2.048-2.048v-2.048h-1.024v-5.12h-1.024l-1.024-1.024h-3.072l-1.024-1.024h-1.024l-2.048-1.024h-2.048l-1.024-1.024h-2.048l-1.024-1.024h-2.048l-1.024-1.024h-1.024l-1.024-1.024-1.024 1.024v1.024l-2.048 1.024-1.024 1.024v1.024l-1.024 1.024h-1.024v3.072h-1.024v2.048h1.024v2.048l2.048 2.048v2.048l-1.024 1.024v1.024h-1.024v1.024h-2.048v1.024h-1.024l-1.024 1.024h-1.024v-1.024h-1.024l-2.048-1.024v1.024l-1.024-1.024h-4.096v-1.024l-1.024 1.024h-4.096v-1.024h-3.072v-1.024h-1.024v-3.072h-1.024v-1.024h-7.168v-1.024h-1.024v-1.024h-1.024v1.024h-1.024l-1.024-1.024v-1.024l-1.024 1.024v1.024h-4.096v1.024h-1.024v1.024h-2.048v1.024h-2.048v1.024h-2.048v1.024h-2.048l-1.024 1.024v1.024h-2.048v2.048h-1.024v1.024h-2.048v1.024h-6.144v2.048h-1.024v1.024h-1.024v1.024l-1.024 1.024v1.024h2.048v3.072h2.048l1.024 1.024v1.024h1.024l2.048 2.048h3.072l1.024 1.024h2.048l1.024 1.024v1.024h1.024v1.024l1.024 2.048 1.024 1.024 1.024 2.048 1.024 1.024v6.144l-1.024 3.072-1.024 1.024 1.024 2.048 1.024 1.024h1.024l1.024 1.024h1.024l11.264 1.024h2.048l2.048 2.048h2.048v1.024h1.024l2.048 2.048h4.096v3.072h1.024v1.024h1.024l1.024 4.096 2.048 2.048v1.024h1.024v1.024l1.024 1.024 2.048-1.024h3.072l10.24 1.024 3.072 1.024 4.096-1.024 7.168 1.024h2.048l2.048 1.024v1.024h1.024l1.024 1.024h1.024l3.072 1.024h2.048l2.048 2.048h3.072l3.072-1.024v2.048h4.096l1.024-1.024 7.168-3.072 2.048-1.024h2.048l5.12-1.024h7.168l3.072-1.024 4.096-1.024 2.048-1.024 4.096-4.096 4.096-2.048 1.024-1.024-2.048-4.096h-1.024v-3.072l1.024-2.048 2.048-2.048h2.048l4.096 2.048h1.024l2.048 1.024h1.024l1.024-1.024h1.024l5.12-5.12h6.144l4.096-4.096v-1.024l3.072-3.072h1.024l1.024 1.024h1.024v-1.024l1.024-1.024h3.072l1.024-1.024h7.168l1.024 1.024h1.024l2.048-2.048zM283.648 324.608v0 0 0l-4.096 4.096v3.072l-1.024 1.024v2.048h3.072v1.024h1.024l1.024 1.024 2.048 1.024v1.024h1.024l1.024 1.024h1.024v1.024h1.024l1.024-1.024v1.024h1.024v1.024h3.072v1.024h1.024v1.024h7.168v-1.024h1.024v1.024l2.048 1.024h1.024v2.048h2.048v1.024h1.024l1.024 1.024v-1.024h2.048l1.024 1.024v1.024l1.024-1.024h1.024l2.048 1.024h1.024v1.024h1.024l1.024-1.024h1.024v1.024h6.144v-1.024l1.024-1.024v-1.024l-1.024-1.024v-4.096l1.024-1.024v-1.024h-7.168v-1.024h-2.048v-1.024h-1.024v1.024h-2.048v-1.024h-1.024v1.024h-1.024l-1.024-2.048h-4.096v-2.048h-2.048l-2.048-2.048h-1.024l-1.024-1.024v-1.024l-1.024-1.024h-1.024l-1.024 1.024-1.024-1.024-2.048-1.024-6.144-4.096v-1.024l-1.024-1.024h-4.096l-1.024 2.048h-1.024v-1.024h-1.024zM333.824 345.088v0h-1.024v1.024h1.024v1.024h1.024v1.024h4.096v1.024h2.048l1.024-1.024h11.264l1.024-1.024-1.024-1.024 1.024-1.024v-1.024h-2.048l-1.024-1.024v-3.072h-5.12l-1.024-1.024h-2.048v-1.024h-3.072l-1.024 1.024h-1.024v1.024l-4.096 4.096v1.024zM89.088 215.040l1.024 1.024h-1.024v-1.024zM91.136 215.040v-1.024h-1.024v1.024h1.024zM105.472 209.92l-1.024 1.024h1.024v-1.024zM323.584 179.2v0 0 0-1.024h-1.024l-2.048-2.048v-1.024h-1.024l1.024-1.024v-1.024l-1.024 1.024h-1.024v1.024h-1.024v1.024h-2.048l-1.024-1.024h-3.072v-1.024h-1.024v-1.024h-1.024v-2.048h-1.024v-1.024h-1.024l-1.024-1.024h-1.024v-1.024h-1.024v-2.048h-1.024l-1.024-2.048-1.024-1.024h-1.024l-1.024-1.024h-1.024l-1.024 1.024h-2.048v1.024h-1.024v1.024h-3.072l-1.024-1.024h-1.024l-1.024 1.024-1.024-1.024v-2.048h-1.024v1.024h-1.024v-3.072h-2.048v-1.024l-1.024 1.024h-1.024v3.072h-2.048v1.024h-1.024v-1.024l-2.048-4.096-1.024-1.024-1.024-2.048v-1.024l-1.024-2.048-2.048-2.048-1.024-2.048-2.048-3.072-1.024-1.024-2.048-3.072-1.024-1.024-5.12-4.096h-1.024l-2.048-2.048h2.048v-1.024l1.024-1.024v-1.024h-1.024v1.024h-3.072v1.024l-2.048 1.024h-3.072v1.024l-1.024 1.024h-2.048l-2.048 2.048h-1.024v1.024h-1.024v-1.024h-3.072l-1.024 1.024h-1.024v1.024l-1.024-1.024v-2.048h1.024v-1.024h1.024l1.024-1.024h-4.096l-1.024-1.024h-2.048v1.024h-1.024l-1.024-1.024v-1.024h-3.072l-1.024 1.024h-2.048l-1.024-1.024v-4.096l-1.024-1.024v-2.048h-1.024v-1.024l-1.024-1.024-1.024 1.024h-1.024l-1.024 1.024h-1.024v-1.024h-2.048v-1.024h-6.144v1.024h-3.072v2.048h-3.072v1.024h-3.072l-1.024 1.024h-2.048l-3.072 1.024h-1.024l-1.024-1.024h-1.024l-1.024 1.024h-2.048v1.024h-1.024v1.024h-6.144l-1.024 1.024h-4.096l-1.024 1.024h-4.096v1.024h-9.216v4.096h1.024l1.024-1.024v2.048l-1.024-1.024v1.024h-1.024v1.024h2.048l1.024 1.024v-1.024l1.024 1.024h2.048v2.048h-4.096v-1.024l-2.048 1.024h-1.024v1.024l-1.024 1.024v1.024l1.024 1.024v2.048h-1.024v1.024h-3.072v1.024h-2.048v1.024h2.048v1.024h1.024v1.024h1.024l1.024 1.024h1.024v1.024h3.072v1.024h1.024v1.024l-1.024 1.024v1.024l-1.024 2.048h-1.024l-1.024 1.024h-4.096v-1.024h-2.048v1.024h-1.024v1.024l-1.024 1.024h-1.024v-1.024l-1.024-1.024h-2.048l-3.072-3.072-2.048-1.024h-2.048l-1.024 1.024v1.024h-2.048l-1.024-1.024h-5.12l-1.024 1.024v1.024h-1.024v1.024h-1.024l-1.024 1.024 1.024 3.072v8.192l-6.144 5.12-2.048 7.168v5.12l-4.096 5.12-5.12 1.024v4.096l-1.024 1.024-1.024 3.072v2.048h1.024l1.024 1.024h-4.096l-2.048-1.024h-2.048l-2.048 1.024h-1.024l-1.024 2.048-1.024 1.024v1.024l2.048 2.048-1.024 1.024-1.024-1.024h-1.024l-1.024-1.024-2.048 1.024h-1.024v1.024l1.024 1.024h2.048v1.024l1.024 1.024 1.024 2.048v1.024l1.024 1.024v1.024l1.024 1.024v1.024h2.048v1.024l1.024 1.024h1.024l2.048 1.024h1.024l1.024 1.024v2.048l-1.024 2.048v3.072l1.024-1.024 2.048-1.024 1.024-1.024 2.048-1.024h5.12l1.024 1.024 2.048 1.024 1.024 1.024 2.048 4.096 1.024 1.024h3.072v-29.696l15.36-5.12h1.024l15.36 9.216 1.024 1.024v1.024h1.024v1.024l5.12 5.12h1.024l4.096-1.024h11.264l1.024-1.024h1.024l4.096 4.096v2.048h3.072l-1.024 4.096v3.072h3.072v1.024l1.024 3.072v1.024l2.048 2.048 4.096-1.024 1.024 1.024h2.048v3.072h1.024v1.024h2.048v-2.048l3.072-3.072v-1.024h1.024v-1.024l2.048-1.024h1.024l2.048-1.024 2.048-2.048h2.048v-1.024l2.048-1.024-1.024-1.024 2.048-2.048h1.024l1.024-1.024h4.096l5.12 2.048h2.048v1.024h1.024v-3.072l3.072-3.072h3.072l4.096 2.048 1.024 1.024h3.072l1.024-1.024h7.168l7.168 1.024 6.144 1.024 1.024 1.024h1.024v1.024h3.072l2.048 2.048v-3.072h-1.024l1.024-1.024v-1.024h1.024l1.024-1.024h-1.024v-1.024h2.048v-2.048h-1.024v-3.072l-1.024-3.072v-1.024l-1.024-2.048 1.024-1.024v-1.024l-1.024-1.024h-2.048v-1.024h1.024l1.024-1.024h4.096l2.048-2.048h3.072l1.024 1.024h5.12v-2.048h-2.048v-3.072l4.096-9.216v-2.048h2.048l3.072 1.024h4.096l1.024 1.024h1.024v1.024l1.024-1.024h1.024v-1.024h2.048l1.024-1.024v-10.24h1.024l1.024-1.024h3.072l2.048-2.048v-3.072h1.024l1.024-1.024h1.024zM373.76 487.424v-1.024h1.024v1.024h-1.024zM508.928 577.536v3.072h-4.096l-1.024-1.024h2.048v-3.072h1.024v-1.024h1.024l1.024 1.024v1.024zM501.76 579.584v0 0 0h1.024v-1.024h-1.024v1.024zM562.176 582.656v0-1.024h-1.024v-1.024l-1.024 1.024h-1.024l-2.048 2.048h-1.024v-1.024l-3.072 3.072v3.072l1.024 1.024h1.024l1.024-1.024 2.048-1.024h1.024l3.072-3.072v-2.048zM551.936 588.8l-1.024 1.024v-1.024h1.024zM555.008 576.512v0h2.048l-1.024 1.024h-1.024v-1.024zM576.512 518.144v0zM583.68 507.904h1.024v2.048l-1.024 1.024h-1.024v-2.048l1.024-1.024zM572.416 497.664v1.024h1.024v-3.072h-1.024v1.024h1.024v1.024h-1.024zM573.44 499.712v0 0 0 0 0 0zM572.416 498.688v0 0 0zM564.224 505.856v0zM565.248 501.76h1.024l-1.024-1.024v1.024zM515.072 497.664l1.024 1.024h1.024v-1.024h-2.048zM515.072 502.784v0 0zM418.816 515.072v1.024h1.024v1.024l-1.024 1.024v-1.024l-1.024-1.024v-1.024h1.024zM425.984 517.12v0h-1.024l1.024 1.024v-1.024zM418.816 514.048h-1.024v1.024h2.048l-1.024-1.024zM424.96 518.144v1.024l1.024 1.024v-1.024l-1.024-1.024zM429.056 517.12v0 0 0h1.024v-1.024l-1.024 1.024zM424.96 520.192l-1.024-1.024v1.024h1.024zM414.72 513.024v0l1.024-1.024-1.024-1.024h-2.048v1.024l1.024 1.024h1.024zM419.84 517.12v0 1.024l1.024 1.024h2.048v-1.024l-2.048-1.024h-1.024zM430.080 518.144v0 0 1.024h1.024v-1.024h-1.024zM432.128 516.096l-1.024 1.024h1.024v1.024h1.024v-2.048h-1.024zM440.32 505.856l1.024-1.024h-1.024v1.024zM443.392 503.808v0 0 0 0zM433.152 523.264v0 0-1.024h-1.024l1.024 1.024zM428.032 518.144v0 0 0zM427.008 525.312h-1.024v1.024h2.048l-1.024-1.024zM432.128 526.336h-1.024v2.048l1.024-1.024h1.024v-1.024h-1.024zM433.152 525.312h1.024v-1.024h-2.048v1.024h1.024zM422.912 517.12h-1.024l1.024 1.024h1.024l-1.024-1.024zM455.68 500.736v0 0 0h1.024v-2.048l-1.024-1.024-1.024 1.024v1.024h1.024v1.024zM381.952 508.928v-1.024h-1.024l-2.048-2.048h-2.048l1.024 1.024 2.048 1.024 1.024 1.024h1.024zM393.216 524.288l1.024 1.024-1.024 2.048h1.024l1.024-1.024-1.024-2.048h-1.024zM389.12 516.096l-1.024-1.024v-1.024h-1.024v1.024h-1.024l1.024 2.048v1.024h2.048l1.024 2.048 1.024-1.024v-1.024l-2.048-2.048zM387.072 510.976v-1.024h-1.024l1.024 1.024zM459.776 504.832v0 0zM561.152 575.488h1.024v1.024l-2.048 1.024h-2.048v-2.048h3.072zM583.68 545.792l1.024 1.024h-1.024v-1.024zM588.8 524.288v-1.024l2.048 2.048h-1.024v-1.024h-1.024zM591.872 573.44v0 1.024h-1.024v-1.024h1.024zM584.704 569.344h-1.024l1.024-1.024v1.024zM603.136 572.416l-1.024 1.024v1.024h-2.048v-1.024l2.048-2.048v-1.024l1.024-1.024h1.024v2.048l-1.024 1.024zM598.016 576.512h1.024v-1.024h1.024l-2.048 1.024zM596.992 526.336l1.024 1.024h-2.048l1.024-1.024zM580.608 534.528h-3.072l-1.024-1.024h1.024v-1.024h2.048l2.048 2.048h-1.024zM580.608 576.512l-1.024-1.024h1.024v1.024zM577.536 544.768v0zM584.704 546.816v0 0 0 0zM581.632 547.84v0h-1.024v-1.024h1.024l1.024-1.024v1.024l-1.024 1.024zM579.584 542.72v0zM577.536 513.024l1.024-2.048 2.048-1.024v6.144l-1.024 1.024h-1.024v1.024l1.024 1.024 1.024-1.024v-1.024l3.072-3.072h1.024l1.024 1.024v1.024l-2.048 2.048h-1.024v1.024l2.048 1.024v1.024l1.024 1.024h1.024l-5.12-1.024h-1.024l-1.024 1.024 1.024 2.048v2.048l1.024 2.048 2.048 1.024h-2.048l-1.024-2.048-1.024-1.024-1.024-2.048v-3.072l-1.024-1.024v-7.168zM576.512 572.416v-1.024h1.024v1.024h-1.024zM576.512 526.336v0 0 0h2.048v2.048h1.024v1.024l-1.024-1.024-1.024 1.024v-1.024l-1.024-1.024v-1.024zM584.704 541.696h3.072v1.024h1.024v-1.024h2.048l2.048 1.024h3.072l1.024 1.024 1.024 2.048 1.024 1.024-1.024 1.024-6.144-3.072h-1.024v1.024h-2.048l-2.048-1.024h-2.048v1.024h-1.024l-2.048-2.048-1.024 1.024v-1.024l2.048-2.048h2.048zM576.512 519.168h1.024v1.024h-1.024v-1.024zM577.536 523.264v0 0 0 1.024h-1.024v-1.024h1.024zM594.944 525.312l1.024-1.024h5.12l1.024 1.024-1.024 1.024h-3.072v-1.024l-1.024 1.024-2.048-1.024zM605.184 569.344v0h-1.024l1.024-1.024v1.024zM575.488 525.312h1.024v1.024l-1.024 1.024v-2.048zM576.512 528.384v0 0zM574.464 543.744l1.024 1.024v2.048l-1.024 1.024h-3.072l-1.024-1.024h-1.024l-1.024-1.024v-2.048h6.144zM568.32 539.648v-1.024h-1.024v-2.048l1.024 1.024v2.048zM567.296 572.416v0h4.096v-1.024l1.024 1.024h1.024l-1.024 1.024h-1.024l-1.024 1.024h-3.072v-2.048zM544.768 556.032l1.024-1.024h-1.024v-1.024h1.024v-1.024h1.024l1.024 1.024v1.024h-1.024v3.072h-2.048v-2.048zM542.72 558.080l-1.024-1.024v-1.024h1.024l1.024 1.024-1.024 1.024zM552.96 533.504v1.024h-1.024v-1.024h1.024zM552.96 557.056v0 0 0 0zM551.936 532.48v0 1.024h-1.024l-1.024 1.024v-2.048l-1.024 1.024h-1.024v-1.024l1.024-1.024h2.048v1.024l1.024-1.024v1.024zM564.224 535.552h5.12l-2.048 1.024h-2.048l-1.024-1.024zM533.504 563.2v0 0zM553.984 536.576v0 0 0zM562.176 535.552v1.024l-1.024-1.024h-1.024l-1.024 1.024h-1.024v-1.024h-1.024l1.024-1.024h4.096l1.024 1.024h-1.024zM555.008 561.152v0 0 0h1.024v1.024l-1.024-1.024zM549.888 548.864v0l1.024 1.024-1.024 1.024-1.024-1.024v-1.024h1.024zM549.888 535.552v0 0 0 0 0zM547.84 552.96l1.024-1.024h1.024v2.048l-1.024 1.024v2.048h1.024v1.024h-1.024v1.024h-1.024v1.024h-1.024v-2.048l1.024-1.024v-4.096zM541.696 526.336v0h1.024l-1.024 1.024h-1.024v-1.024h1.024zM552.96 577.536v1.024h-1.024l-1.024-1.024 1.024-1.024h2.048v-1.024h1.024v1.024h-1.024l-1.024 1.024zM541.696 590.848h1.024v-1.024l-2.048 1.024h1.024zM545.792 578.56h2.048v-1.024h1.024v-2.048l-2.048 2.048h-1.024v1.024h-2.048l-1.024-1.024h-1.024l-1.024 1.024h-1.024l-1.024-1.024-3.072-1.024h-4.096l-1.024 1.024h-1.024v2.048h5.12l2.048 1.024h1.024l2.048-1.024h1.024v1.024l3.072-1.024 2.048-1.024zM528.384 528.384v0 0l-2.048 2.048v5.12l-1.024 1.024v1.024l-1.024 1.024v1.024l-1.024 1.024v1.024h-1.024l1.024 1.024v3.072h3.072l1.024 1.024v3.072l1.024 1.024-1.024 1.024-1.024 5.12v1.024l2.048 2.048 1.024-1.024h3.072v-15.36l-1.024-1.024h1.024v-1.024h1.024v-1.024h3.072v6.144l1.024 1.024 2.048 1.024 1.024 1.024v1.024l-1.024 1.024v1.024l1.024 1.024h1.024l1.024 1.024v-1.024l2.048-2.048h2.048l1.024-1.024v1.024l1.024-1.024-1.024-1.024h-1.024v-1.024h-1.024v-1.024l-1.024-1.024v-5.12l-2.048-1.024-1.024-1.024v-1.024l-1.024-1.024h-1.024v-1.024h-1.024v-1.024h2.048l3.072-2.048h1.024l4.096-4.096 1.024 1.024h2.048v-2.048h-1.024v-1.024h-2.048l-1.024 1.024h-3.072l-1.024 1.024h-4.096l-1.024 1.024-1.024 2.048h-3.072l-1.024-1.024v-1.024l-1.024-1.024h-1.024v-1.024h-1.024v-5.12l2.048-2.048h17.408l2.048 1.024h3.072l1.024-1.024h2.048l4.096-4.096v-2.048l1.024-1.024-1.024-1.024h-1.024l-1.024 1.024-1.024 2.048-2.048 1.024-1.024 1.024h-9.216l-1.024-1.024h-6.144v-1.024h-4.096l-1.024 2.048h-3.072l-2.048 3.072v3.072h-1.024v1.024l1.024 3.072v1.024l-1.024-1.024zM524.288 579.584v0-2.048l-1.024-1.024h-1.024v1.024l-1.024-1.024h-2.048l-1.024-1.024h-2.048v1.024h1.024v1.024h2.048v1.024h-1.024l-1.024 1.024v-1.024h-1.024l-1.024-1.024h-4.096l-1.024 1.024v2.048l2.048 1.024 6.144-2.048 2.048-1.024v1.024h2.048l1.024-1.024 1.024 1.024zM515.072 575.488v0l-1.024 1.024h1.024v-1.024zM550.912 576.512v0h-1.024l-1.024 1.024h2.048v-1.024zM534.528 569.344v0l1.024-1.024h-1.024v1.024zM524.288 585.728h4.096v1.024h1.024l2.048 2.048h3.072l1.024-1.024-1.024-1.024v-1.024l-2.048-1.024-1.024-1.024h-1.024v-1.024h-1.024v1.024h-5.12l-1.024 1.024h1.024v1.024zM527.36 579.584v-2.048h-1.024v2.048h1.024zM524.288 575.488v0 0 0 0zM548.864 577.536v0 0 1.024l1.024-1.024h-1.024zM549.888 592.896l2.048-2.048h-1.024l-2.048 1.024-1.024 1.024h2.048zM460.8 517.12l1.024-1.024h-1.024l1.024-2.048v-1.024l2.048-1.024 1.024-1.024v3.072h1.024v1.024l3.072 3.072h2.048l2.048-1.024h1.024l3.072 1.024 1.024-1.024h1.024l2.048-2.048v-1.024h4.096l4.096 2.048h2.048v-1.024h4.096v-1.024h1.024v-2.048h1.024v-3.072h1.024l1.024-1.024v-3.072h1.024l1.024-1.024v-4.096l1.024-1.024v-1.024l1.024-1.024h9.216l2.048 2.048v1.024h1.024v1.024h-4.096l1.024 1.024v2.048h1.024l1.024 1.024v1.024l1.024 1.024h1.024v1.024l1.024 1.024v1.024h-1.024v1.024h-1.024l3.072 3.072 3.072 2.048 1.024 1.024v1.024h-1.024l-1.024 1.024-1.024-1.024h-1.024l-1.024-1.024h-1.024v2.048h-1.024l-1.024 1.024v1.024l-1.024 2.048v3.072l1.024 2.048h-1.024l-3.072 3.072h-1.024v1.024h-1.024l-2.048 2.048v1.024h1.024v1.024l-1.024 1.024h1.024l1.024 1.024-1.024 1.024h-1.024v3.072h-1.024v2.048l-1.024 1.024v1.024h-1.024l-1.024 1.024-4.096 2.048h-2.048v-1.024l-1.024-4.096v1.024h-1.024v-1.024h-2.048l-1.024 1.024h-1.024v-1.024l-1.024-1.024h-2.048l-1.024-1.024v1.024h-1.024v1.024h-4.096l-1.024 1.024h-1.024l-1.024-1.024v-2.048h-7.168v-1.024l-1.024 1.024h-1.024l-1.024-1.024v-5.12l-1.024-1.024v-4.096l-1.024-1.024h-1.024l-3.072-3.072v-3.072l1.024-1.024-2.048-1.024v-2.048l-1.024-1.024v-1.024l1.024-1.024zM439.296 533.504h-1.024v1.024l-1.024 1.024v1.024l2.048 1.024h1.024l1.024 1.024v3.072h1.024l1.024 1.024h1.024l1.024 1.024h1.024l-1.024-1.024 1.024-1.024v-1.024h1.024l-2.048-1.024h-1.024v-1.024h-1.024v-3.072l-1.024-1.024v-1.024h-2.048v1.024h-1.024v-1.024zM418.816 557.056h-1.024v1.024h1.024v-1.024zM437.248 560.128v-1.024h1.024l1.024 1.024h1.024l1.024-1.024v-14.336l1.024-1.024v-1.024l-2.048-2.048-2.048-1.024-1.024-1.024h-2.048v1.024h-1.024v1.024h-1.024v-1.024l1.024-1.024v-2.048h-1.024v-1.024l-1.024-1.024v-4.096h-3.072l-1.024-1.024h-1.024l-1.024-1.024v-4.096h1.024l1.024-1.024v-1.024l-2.048-1.024h-1.024l-3.072 1.024h-2.048l3.072-1.024v-1.024l-1.024-1.024h-1.024l-2.048-1.024v-1.024l-3.072-3.072-2.048-1.024-1.024-1.024v-1.024h-1.024l-1.024-1.024h-1.024v2.048l-3.072-3.072-3.072-4.096-2.048-2.048-2.048-1.024h-1.024l-2.048-2.048h-1.024v-1.024h-1.024l-1.024-1.024v-2.048l-1.024-1.024h-1.024v-1.024l-2.048-2.048h-1.024l-6.144-1.024h-2.048l-2.048-2.048h-3.072l-1.024 1.024v1.024l1.024 2.048 7.168 7.168h1.024l2.048 2.048 2.048 3.072 1.024 1.024h1.024v2.048l2.048 2.048 4.096 2.048 2.048 4.096 1.024 4.096v1.024l1.024 1.024 2.048 1.024 1.024 1.024 1.024 2.048 2.048 2.048 4.096 7.168v2.048l1.024 1.024v1.024l4.096 4.096v1.024l2.048 2.048h1.024l1.024 2.048 3.072 3.072 4.096 3.072 2.048 1.024 5.12 5.12v-2.048l2.048 1.024h2.048zM446.464 542.72v0zM453.632 539.648l-1.024 1.024-1.024 2.048v1.024h4.096v-3.072h-1.024l-1.024-1.024zM451.584 542.72v-1.024h-1.024l1.024 1.024zM437.248 565.248h-1.024l1.024 1.024v-1.024zM487.424 576.512h2.048l2.048 2.048h3.072l1.024 1.024 1.024-1.024h-1.024l-1.024-1.024v-1.024l1.024-2.048v-1.024l-1.024-1.024h-9.216v-1.024l-2.048-2.048v-2.048h-3.072l-2.048-1.024h-4.096v-1.024h-1.024v-1.024l-2.048 2.048v1.024h-1.024l-1.024 1.024-4.096-1.024h-6.144v-1.024l-1.024-2.048h-1.024l-1.024-1.024h-4.096v-1.024h-1.024l-1.024-1.024h-1.024l-1.024 1.024h-1.024l-3.072-1.024h-1.024l-1.024 1.024v1.024l-1.024 1.024v1.024h-1.024v1.024l-1.024 1.024v-1.024h-1.024v1.024h5.12l3.072 1.024-1.024 2.048h1.024l1.024 1.024h3.072l5.12 2.048h3.072l2.048-1.024h2.048l3.072 1.024h1.024l5.12 2.048h2.048l10.24 1.024h4.096zM398.336 532.48l-1.024-2.048v-1.024h-1.024l-1.024 1.024v2.048h1.024v1.024l2.048 2.048 1.024-1.024v-1.024l-1.024-1.024zM402.432 537.6l-1.024-1.024v1.024l1.024 1.024h1.024l-1.024-1.024zM405.504 540.672v0l-1.024-1.024-1.024 1.024h1.024v1.024h1.024v-1.024zM407.552 542.72h-1.024l-1.024-1.024v2.048l1.024 1.024v-1.024l1.024-1.024zM505.856 545.792l-1.024 1.024v1.024l1.024 2.048 1.024-1.024v-4.096l-1.024 1.024zM502.784 576.512l-1.024-1.024h-6.144v1.024h1.024l1.024 1.024h1.024l1.024 1.024v1.024h1.024v-1.024l2.048-1.024v-1.024zM507.904 545.792v0h-1.024v1.024h1.024v-1.024zM459.776 533.504v1.024h1.024v-1.024h-1.024zM464.896 530.432h-1.024v1.024h2.048v-1.024h-1.024zM494.592 568.32v0zM484.352 561.152v-1.024h-1.024l1.024 1.024zM490.496 567.296h-4.096l-1.024 1.024h-1.024l2.048 1.024h2.048l4.096-1.024v-1.024h-2.048zM501.76 567.296v0h-2.048v1.024h1.024l1.024-1.024z"></path>
</svg>
