<!-- Generated by IcoMoon.io -->
<svg version="1.1" xmlns="http://www.w3.org/2000/svg" width="1462" height="1024" viewBox="0 0 1462 1024">
<g id="icomoon-ignore">
</g>
<path d="M273.408 520.192c-59.392 0-107.52 48.128-107.52 107.52s48.128 106.496 107.52 106.496 107.52-48.128 107.52-106.496-48.128-107.52-107.52-107.52zM273.408 720.896c-52.224 0-94.208-41.984-94.208-93.184s41.984-94.208 94.208-94.208 94.208 41.984 94.208 94.208-41.984 93.184-94.208 93.184zM273.408 545.792c-45.056 0-81.92 36.864-81.92 81.92s36.864 80.896 81.92 80.896c45.056 0 81.92-36.864 81.92-80.896s-36.864-81.92-81.92-81.92zM273.408 695.296c-37.888 0-68.608-30.72-68.608-67.584s30.72-68.608 68.608-68.608 68.608 30.72 68.608 68.608-30.72 67.584-68.608 67.584zM1104.896 520.192c-59.392 0-107.52 48.128-107.52 107.52s48.128 106.496 107.52 106.496c58.368 0 106.496-48.128 106.496-106.496s-48.128-107.52-106.496-107.52zM1104.896 720.896c-52.224 0-94.208-41.984-94.208-93.184s41.984-94.208 94.208-94.208c51.2 0 94.208 41.984 94.208 94.208s-43.008 93.184-94.208 93.184zM1104.896 545.792c-45.056 0-81.92 36.864-81.92 81.92s36.864 80.896 81.92 80.896c44.032 0 80.896-36.864 80.896-80.896s-36.864-81.92-80.896-81.92zM1104.896 695.296c-37.888 0-68.608-30.72-68.608-67.584s30.72-68.608 68.608-68.608c36.864 0 67.584 30.72 67.584 68.608s-30.72 67.584-67.584 67.584zM1369.088 498.688c2.048-39.936-5.12-69.632-21.504-87.040-15.36-17.408-33.792-17.408-34.816-17.408l-68.608 2.048c-21.504-13.312-45.056-26.624-68.608-37.888-46.080-21.504-94.208-38.912-145.408-52.224-61.44-16.384-125.952-16.384-189.44-16.384h-5.12c-9.216 0-17.408 0-26.624 0-37.888-1.024-76.8-1.024-115.712 6.144-35.84 7.168-72.704 20.48-110.592 37.888-39.936 19.456-78.848 44.032-117.76 72.704-6.144 5.12-13.312 11.264-19.456 16.384l-233.472 18.432c-80.896 8.192-107.52 58.368-115.712 91.136-13.312 5.12-23.552 17.408-23.552 31.744v67.584c0 18.432 15.36 32.768 33.792 32.768h61.44l-2.048-10.24c-3.072-9.216-4.096-18.432-4.096-26.624 0-61.44 49.152-110.592 110.592-110.592 60.416 0 109.568 49.152 109.568 110.592 0 8.192-1.024 17.408-4.096 26.624l-2.048 10.24h625.664l-3.072-10.24c-2.048-9.216-3.072-18.432-3.072-26.624 0-61.44 49.152-110.592 109.568-110.592s109.568 49.152 109.568 110.592c0 8.192-1.024 17.408-3.072 26.624l-3.072 12.288 141.312-26.624c13.312-3.072 39.936-15.36 39.936-43.008v-53.248c1.024-12.288-2.048-36.864-20.48-45.056zM1373.184 543.744v53.248c0 20.48-26.624 26.624-26.624 26.624l-116.736 21.504c1.024-6.144 2.048-12.288 2.048-17.408 0-70.656-57.344-126.976-126.976-126.976s-125.952 56.32-125.952 126.976c0 6.144 0 13.312 1.024 20.48h-583.68c2.048-7.168 2.048-14.336 2.048-20.48 0-70.656-56.32-126.976-125.952-126.976-70.656 0-126.976 56.32-126.976 126.976 0 6.144 0 13.312 2.048 20.48h-40.96c-9.216 0-16.384-7.168-16.384-16.384v-1.024h21.504c14.336 0 25.6-12.288 25.6-25.6s-11.264-26.624-25.6-26.624h-21.504v-14.336c0-8.192 6.144-15.36 14.336-15.36l6.144-1.024 1.024-6.144c7.168-33.792 30.72-75.776 101.376-83.968l238.592-18.432 2.048-2.048c7.168-6.144 14.336-11.264 21.504-16.384 37.888-28.672 76.8-53.248 114.688-71.68 36.864-17.408 72.704-29.696 106.496-36.864 36.864-7.168 75.776-6.144 112.64-6.144 9.216 0 17.408 0 26.624 1.024h5.12c61.44 0 125.952 0 185.344 15.36 49.152 12.288 97.28 29.696 141.312 51.2 25.6 11.264 49.152 24.576 70.656 37.888l2.048 2.048 72.704-2.048c0 0 11.264 0 22.528 11.264 4.096 5.12 9.216 12.288 12.288 23.552h-33.792c-17.408 0-32.768 14.336-32.768 33.792 0 18.432 15.36 32.768 32.768 32.768h44.032c17.408 3.072 15.36 28.672 15.36 30.72zM100.352 613.376v-17.408h11.264c5.12 0 9.216 4.096 9.216 9.216s-4.096 8.192-9.216 8.192h-11.264zM1340.416 496.64h-26.624c-8.192 0-16.384-7.168-16.384-17.408 0-9.216 8.192-16.384 16.384-16.384h25.6c2.048 10.24 2.048 21.504 1.024 33.792zM113.664 540.672l-1.024 12.288 11.264-3.072c80.896-20.48 132.096-72.704 134.144-74.752l12.288-13.312-17.408-1.024c-126.976-8.192-139.264 78.848-139.264 79.872zM134.144 529.408c8.192-18.432 30.72-50.176 96.256-52.224-18.432 15.36-52.224 38.912-96.256 52.224zM824.32 314.368h-15.36c-10.24 0-19.456 0-29.696 0-24.576 0-53.248 0-80.896 6.144-33.792 6.144-68.608 18.432-104.448 35.84-38.912 18.432-76.8 41.984-113.664 70.656l-20.48 15.36 327.68-10.24 36.864-117.76zM512 423.936c29.696-20.48 59.392-37.888 89.088-52.224 33.792-16.384 68.608-28.672 100.352-34.816 26.624-5.12 54.272-6.144 77.824-6.144 7.168 0 14.336 0 21.504 0l-25.6 84.992-263.168 8.192zM1030.144 436.224h-50.176c-10.24 0-18.432 8.192-18.432 18.432s8.192 18.432 18.432 18.432h50.176c10.24 0 19.456-8.192 19.456-18.432s-9.216-18.432-19.456-18.432zM1030.144 456.704h-50.176c-1.024 0-2.048-1.024-2.048-2.048s1.024-2.048 2.048-2.048h50.176c1.024 0 2.048 1.024 2.048 2.048s-1.024 2.048-2.048 2.048zM1089.536 350.208c-21.504-8.192-43.008-14.336-65.536-20.48-54.272-13.312-110.592-15.36-174.080-15.36h-7.168l-19.456 116.736 228.352-7.168c33.792-2.048 46.080-21.504 48.128-24.576 7.168-11.264 9.216-21.504 7.168-30.72-4.096-12.288-15.36-18.432-17.408-18.432zM1085.44 390.144v0c0 1.024-9.216 15.36-34.816 16.384l-207.872 7.168 14.336-81.92c59.392 0 112.64 2.048 162.816 14.336 21.504 5.12 43.008 12.288 63.488 19.456 0 0 6.144 3.072 7.168 8.192 2.048 5.12-2.048 11.264-5.12 16.384zM770.048 444.416h-50.176c-10.24 0-18.432 8.192-18.432 18.432s8.192 18.432 18.432 18.432h50.176c10.24 0 19.456-8.192 19.456-18.432s-9.216-18.432-19.456-18.432zM770.048 463.872h-50.176c-1.024 0-2.048 0-2.048-1.024s1.024-2.048 2.048-2.048h50.176c1.024 0 2.048 1.024 2.048 2.048s-1.024 1.024-2.048 1.024z"></path>
</svg>
