<!-- Generated by IcoMoon.io -->
<svg version="1.1" xmlns="http://www.w3.org/2000/svg" width="1024" height="1024" viewBox="0 0 1024 1024">
<g id="icomoon-ignore">
</g>
<path d="M158.72 524.288c-43.008 0-77.824 34.816-77.824 77.824s34.816 77.824 77.824 77.824 77.824-34.816 77.824-77.824c0-43.008-35.84-77.824-77.824-77.824zM158.72 660.48c-32.768 0-58.368-26.624-58.368-58.368s25.6-57.344 58.368-57.344c31.744 0 57.344 25.6 57.344 57.344s-25.6 58.368-57.344 58.368zM799.744 524.288c-43.008 0-77.824 34.816-77.824 77.824s34.816 77.824 77.824 77.824c43.008 0 77.824-34.816 77.824-77.824s-34.816-77.824-77.824-77.824zM799.744 660.48c-31.744 0-57.344-26.624-57.344-58.368s25.6-57.344 57.344-57.344c31.744 0 58.368 25.6 58.368 57.344s-26.624 58.368-58.368 58.368zM997.376 507.904c6.144-78.848-36.864-78.848-36.864-78.848l-54.272 2.048c-17.408-11.264-35.84-21.504-54.272-30.72-35.84-16.384-72.704-29.696-111.616-39.936-47.104-12.288-98.304-12.288-147.456-12.288-36.864 0-73.728-2.048-108.544 5.12-29.696 5.12-57.344 15.36-83.968 28.672-31.744 15.36-62.464 33.792-90.112 55.296-5.12 4.096-11.264 9.216-16.384 13.312l-182.272 14.336c-61.44 7.168-78.848 45.056-83.968 69.632-10.24 1.024-17.408 9.216-17.408 19.456v52.224c0 10.24 8.192 18.432 19.456 18.432h38.912c-2.048-7.168-3.072-14.336-3.072-22.528 0-50.176 40.96-91.136 92.16-91.136 50.176 0 91.136 40.96 91.136 91.136 0 8.192-1.024 15.36-3.072 22.528h465.92c-1.024-7.168-2.048-14.336-2.048-22.528 0-50.176 40.96-91.136 91.136-91.136s91.136 40.96 91.136 91.136c0 8.192-1.024 15.36-3.072 22.528l99.328-18.432c0 0 25.6-6.144 25.6-27.648v-40.96c0 0 2.048-26.624-16.384-29.696zM32.768 598.016h-14.336v-26.624h14.336c8.192 0 14.336 6.144 14.336 13.312s-6.144 13.312-14.336 13.312zM41.984 536.576c0 0 7.168-62.464 100.352-56.32 0 0-39.936 40.96-100.352 56.32zM408.576 399.36c26.624-13.312 53.248-22.528 78.848-27.648 21.504-4.096 43.008-5.12 61.44-5.12 8.192 0 15.36 1.024 22.528 1.024 1.024 0 2.048 0 3.072 0l-23.552 77.824-229.376 7.168c28.672-21.504 57.344-39.936 87.040-53.248zM549.888 475.136c0 4.096-3.072 8.192-7.168 8.192h-39.936c-4.096 0-7.168-4.096-7.168-8.192s3.072-8.192 7.168-8.192h39.936c4.096 0 7.168 4.096 7.168 8.192zM743.424 477.184h-39.936c-4.096 0-7.168-4.096-7.168-8.192s3.072-8.192 7.168-8.192h39.936c4.096 0 7.168 4.096 7.168 8.192s-3.072 8.192-7.168 8.192zM790.528 422.912c0 0-7.168 14.336-31.744 15.36l-167.936 6.144 13.312-76.8c44.032 0 90.112 1.024 132.096 11.264 17.408 4.096 33.792 9.216 50.176 15.36 0 0 18.432 8.192 4.096 28.672zM988.16 507.904h-26.624c-10.24 0-18.432-9.216-18.432-19.456v0c0-11.264 8.192-19.456 18.432-19.456h25.6c2.048 10.24 3.072 22.528 1.024 38.912z"></path>
</svg>
