<!-- Generated by IcoMoon.io -->
<svg version="1.1" xmlns="http://www.w3.org/2000/svg" width="1024" height="1024" viewBox="0 0 1024 1024">
<g id="icomoon-ignore">
</g>
<path d="M822.272 625.664c0 13.312-10.24 23.552-23.552 23.552s-24.576-10.24-24.576-23.552c0-13.312 11.264-23.552 24.576-23.552s23.552 10.24 23.552 23.552zM220.16 602.112c-13.312 0-23.552 10.24-23.552 23.552s10.24 23.552 23.552 23.552c13.312 0 23.552-10.24 23.552-23.552s-10.24-23.552-23.552-23.552zM579.584 512h-137.216c-9.216 0-17.408 7.168-17.408 17.408 0 9.216 8.192 16.384 17.408 16.384h137.216c9.216 0 17.408-7.168 17.408-16.384 0-10.24-8.192-17.408-17.408-17.408zM1013.76 627.712c0 10.24-8.192 17.408-17.408 17.408h-96.256l-1.024 3.072c-4.096 19.456-14.336 36.864-28.672 51.2-19.456 19.456-45.056 29.696-71.68 29.696-27.648 0-53.248-10.24-72.704-29.696-14.336-14.336-23.552-31.744-28.672-51.2v-3.072h-375.808l-1.024 3.072c-4.096 19.456-14.336 36.864-28.672 51.2-19.456 19.456-45.056 29.696-71.68 29.696s-52.224-10.24-71.68-29.696c-14.336-14.336-24.576-31.744-28.672-51.2l-1.024-3.072h-91.136c-9.216 0-17.408-7.168-17.408-17.408v-73.728c0-29.696 11.264-58.368 30.72-80.896s46.080-37.888 75.776-41.984l124.928-18.432 175.104-89.088c37.888-18.432 78.848-28.672 120.832-28.672h117.76c34.816 0 67.584 7.168 99.328 19.456l192.512 76.8c40.96 16.384 66.56 55.296 66.56 98.304v138.24zM718.848 337.92l56.32 74.752h132.096l-164.864-66.56c-5.12-2.048-9.216-3.072-13.312-4.096l-10.24-4.096zM553.984 412.672h178.176l-63.488-82.944h-1.024c-4.096 0-8.192 0-12.288 0h-101.376v82.944zM319.488 412.672h199.68v-81.92h-4.096c-28.672 3.072-56.32 11.264-81.92 24.576l-113.664 57.344zM49.152 526.336h5.12c31.744-3.072 59.392-25.6 67.584-56.32l2.048-5.12-6.144 1.024c-29.696 6.144-55.296 26.624-66.56 55.296l-2.048 5.12zM288.768 625.664c0-37.888-30.72-68.608-68.608-68.608s-68.608 30.72-68.608 68.608c0 37.888 30.72 68.608 68.608 68.608s68.608-30.72 68.608-68.608zM867.328 625.664c0-37.888-30.72-68.608-68.608-68.608s-68.608 30.72-68.608 68.608c0 37.888 30.72 68.608 68.608 68.608s68.608-30.72 68.608-68.608zM978.944 542.72h-12.288c-35.84 0-65.536-29.696-65.536-65.536v-30.72h-652.288l-90.112 13.312v3.072c-7.168 55.296-54.272 97.28-110.592 98.304h-3.072v50.176h72.704l1.024-3.072c8.192-50.176 51.2-86.016 101.376-86.016s93.184 35.84 101.376 86.016l1.024 3.072h373.76l1.024-3.072c8.192-50.176 51.2-86.016 101.376-86.016s92.16 35.84 101.376 86.016v3.072h78.848v-68.608zM978.944 489.472c0-14.336-4.096-28.672-12.288-40.96l-1.024-2.048h-29.696v30.72c0 17.408 13.312 30.72 30.72 30.72h12.288v-18.432z"></path>
</svg>
