<!-- Generated by IcoMoon.io -->
<svg version="1.1" xmlns="http://www.w3.org/2000/svg" width="1024" height="1024" viewBox="0 0 1024 1024">
<g id="icomoon-ignore">
</g>
<path d="M611.328 430.080c-4.096 0-105.472 0-151.552 0h-50.176c-4.096 0-5.12-2.048-4.096-7.168 26.624-98.304 194.56-68.608 194.56-64.512v45.056c82.944 7.168 128 4.096 217.088 18.432-120.832-107.52-212.992-106.496-378.88-81.92 0 0-54.272 54.272-61.44 87.040h-220.16c-101.376 0-195.584 194.56-61.44 194.56-4.096-54.272 39.936-97.28 93.184-97.28 54.272 0 98.304 43.008 94.208 97.28h433.152c-3.072-54.272 39.936-97.28 94.208-97.28s97.28 43.008 94.208 97.28h71.68c4.096 0 11.264-3.072 11.264-10.24 0 0 0-4.096 0-7.168 14.336 0 10.24-61.44-14.336-61.44-18.432-32.768-54.272-72.704-122.88-94.208-36.864-3.072-81.92-13.312-231.424-18.432h-7.168zM892.928 618.496c0-47.104-35.84-82.944-82.944-82.944-43.008 0-79.872 35.84-79.872 82.944 0 43.008 36.864 78.848 79.872 78.848 47.104 0 82.944-35.84 82.944-78.848zM878.592 618.496c0 35.84-32.768 64.512-68.608 64.512s-65.536-28.672-65.536-64.512 29.696-68.608 65.536-68.608 68.608 32.768 68.608 68.608zM809.984 578.56c21.504 0 39.936 18.432 39.936 39.936 0 17.408-18.432 35.84-39.936 35.84-18.432 0-35.84-18.432-35.84-35.84 0-21.504 17.408-39.936 35.84-39.936zM268.288 618.496c0-47.104-35.84-82.944-79.872-82.944s-78.848 35.84-78.848 82.944c0 43.008 35.84 78.848 78.848 78.848s79.872-35.84 79.872-78.848zM253.952 618.496c0 35.84-28.672 64.512-65.536 64.512-35.84 0-64.512-28.672-64.512-64.512s28.672-65.536 64.512-65.536c36.864 0 65.536 29.696 65.536 65.536zM188.416 578.56c22.528 0 39.936 18.432 39.936 39.936 0 17.408-17.408 35.84-39.936 35.84-21.504 0-35.84-18.432-35.84-35.84 0-21.504 14.336-39.936 35.84-39.936z"></path>
</svg>
