<!-- Generated by IcoMoon.io -->
<svg version="1.1" xmlns="http://www.w3.org/2000/svg" width="1024" height="1024" viewBox="0 0 1024 1024">
<g id="icomoon-ignore">
</g>
<path d="M1013.76 634.88l-2.048-4.096c1.024-147.456-130.048-273.408-199.68-299.008-112.64-40.96-364.544-28.672-401.408-17.408-34.816 10.24-72.704 65.536-88.064 90.112l-191.488 10.24c-35.84 2.048-64.512 27.648-70.656 62.464l-6.144 34.816c-27.648 14.336-44.032 40.96-44.032 71.68v69.632h89.088c7.168 37.888 40.96 66.56 79.872 66.56s72.704-28.672 79.872-66.56h449.536c7.168 37.888 40.96 66.56 79.872 66.56 39.936 0 72.704-28.672 79.872-66.56h144.384v-15.36l1.024-3.072zM788.48 585.728c29.696 0 53.248 23.552 53.248 53.248 0 28.672-23.552 53.248-53.248 53.248-28.672 0-53.248-24.576-53.248-53.248 0-29.696 24.576-53.248 53.248-53.248zM837.632 574.464l-1.024-1.024c-1.024-1.024-3.072-2.048-4.096-3.072-2.048-2.048-5.12-3.072-8.192-4.096l-1.024-1.024c-1.024-1.024-3.072-1.024-4.096-2.048-3.072-1.024-6.144-2.048-9.216-3.072h-2.048c-1.024-1.024-2.048-1.024-3.072-1.024-11.264-2.048-21.504-2.048-31.744 0-1.024 0-2.048 0-4.096 1.024h-1.024c-4.096 1.024-7.168 2.048-10.24 3.072-1.024 1.024-2.048 1.024-3.072 2.048l-2.048 1.024c-3.072 1.024-5.12 2.048-8.192 4.096-1.024 1.024-2.048 2.048-4.096 3.072l-1.024 1.024c-2.048 2.048-4.096 3.072-6.144 5.12-2.048 1.024-3.072 3.072-5.12 5.12s-3.072 4.096-5.12 6.144c-1.024 2.048-2.048 4.096-3.072 6.144-2.048 2.048-3.072 4.096-4.096 7.168-1.024 2.048-2.048 4.096-3.072 6.144-1.024 3.072-2.048 5.12-3.072 8.192 0 2.048 0 4.096-1.024 6.144h-11.264c3.072-23.552 13.312-45.056 30.72-61.44 20.48-20.48 47.104-31.744 75.776-31.744h72.704c54.272 0 99.328 39.936 106.496 93.184h-114.688c0-2.048-1.024-4.096-1.024-6.144-1.024-3.072-2.048-5.12-3.072-8.192 0-2.048-1.024-4.096-2.048-6.144-1.024-3.072-3.072-5.12-4.096-7.168s-2.048-4.096-4.096-6.144c-1.024-2.048-3.072-4.096-6.144-7.168-1.024-1.024-2.048-3.072-3.072-4.096-2.048-2.048-5.12-4.096-7.168-5.12zM238.592 502.784h-147.456c-2.048 0-5.12 0-7.168 1.024l4.096-21.504c4.096-21.504 22.528-37.888 44.032-38.912l199.68-10.24c4.096-1.024 9.216-3.072 11.264-7.168 17.408-28.672 52.224-77.824 75.776-84.992 33.792-10.24 278.528-20.48 382.976 18.432 38.912 13.312 124.928 80.896 162.816 176.128-23.552-20.48-55.296-32.768-88.064-32.768h-72.704c-36.864 0-70.656 14.336-96.256 39.936-21.504 22.528-35.84 51.2-38.912 81.92h-350.208v-40.96c0-44.032-35.84-80.896-79.872-80.896zM179.2 585.728c28.672 0 53.248 23.552 53.248 53.248 0 28.672-24.576 53.248-53.248 53.248-29.696 0-53.248-24.576-53.248-53.248 0-29.696 23.552-53.248 53.248-53.248zM228.352 574.464l-1.024-1.024c-1.024-1.024-3.072-2.048-4.096-3.072-2.048-1.024-5.12-3.072-8.192-4.096l-1.024-1.024c-2.048-1.024-3.072-1.024-4.096-2.048-3.072-1.024-6.144-2.048-10.24-3.072h-1.024c-1.024-1.024-3.072-1.024-4.096-1.024-10.24-2.048-20.48-2.048-31.744 0-1.024 0-2.048 0-3.072 1.024h-2.048c-3.072 1.024-6.144 2.048-9.216 3.072-1.024 1.024-2.048 1.024-4.096 2.048l-2.048 1.024c-2.048 1.024-5.12 3.072-7.168 4.096-1.024 1.024-3.072 2.048-4.096 3.072l-1.024 1.024c-2.048 2.048-4.096 3.072-7.168 5.12-1.024 1.024-2.048 3.072-4.096 5.12s-4.096 4.096-5.12 6.144c-1.024 2.048-3.072 4.096-4.096 6.144s-3.072 4.096-4.096 7.168c-1.024 2.048-1.024 4.096-2.048 6.144-1.024 3.072-2.048 5.12-3.072 8.192 0 2.048-1.024 4.096-1.024 6.144h-60.416v-40.96c0-21.504 13.312-40.96 32.768-48.128 6.144-3.072 12.288-4.096 19.456-4.096h147.456c28.672 0 52.224 23.552 52.224 52.224v40.96h-31.744c0-2.048-1.024-4.096-1.024-6.144-1.024-3.072-2.048-5.12-3.072-8.192-1.024-2.048-1.024-4.096-2.048-6.144-2.048-3.072-3.072-5.12-4.096-7.168-2.048-2.048-3.072-4.096-4.096-6.144-2.048-2.048-3.072-4.096-6.144-7.168-1.024-1.024-2.048-3.072-4.096-4.096-2.048-2.048-4.096-3.072-6.144-5.12zM788.48 667.648c15.36 0 28.672-13.312 28.672-28.672s-13.312-28.672-28.672-28.672c-15.36 0-28.672 13.312-28.672 28.672s13.312 28.672 28.672 28.672zM179.2 667.648c15.36 0 28.672-13.312 28.672-28.672s-13.312-28.672-28.672-28.672c-15.36 0-28.672 13.312-28.672 28.672s13.312 28.672 28.672 28.672zM602.112 431.104h240.64c6.144 0 12.288-4.096 14.336-9.216 1.024-5.12 0-12.288-4.096-15.36-26.624-23.552-49.152-37.888-53.248-39.936-20.48-12.288-98.304-21.504-197.632-22.528-3.072 0-7.168 1.024-10.24 4.096-3.072 2.048-4.096 6.144-4.096 10.24v58.368c0 8.192 6.144 14.336 14.336 14.336zM616.448 402.432v-29.696c118.784 2.048 162.816 14.336 167.936 18.432 2.048 1.024 8.192 5.12 17.408 11.264h-185.344zM377.856 431.104h171.008c7.168 0 14.336-6.144 14.336-14.336v-59.392c0-3.072-2.048-7.168-5.12-9.216-2.048-3.072-6.144-4.096-9.216-4.096v0c-58.368 0-112.64 4.096-126.976 7.168-19.456 7.168-49.152 49.152-55.296 57.344-3.072 4.096-4.096 10.24-1.024 15.36 2.048 4.096 7.168 7.168 12.288 7.168zM406.528 402.432c12.288-14.336 21.504-22.528 23.552-23.552 7.168-2.048 48.128-5.12 104.448-6.144v29.696h-128z"></path>
</svg>
