<!-- Generated by IcoMoon.io -->
<svg version="1.1" xmlns="http://www.w3.org/2000/svg" width="1669" height="1024" viewBox="0 0 1669 1024">
<g id="icomoon-ignore">
</g>
<path d="M1572.864 697.344h-124.928l1.024-11.264c2.048-36.864-10.24-72.704-35.84-100.352-26.624-27.648-64.512-44.032-104.448-44.032s-77.824 16.384-103.424 44.032c-25.6 27.648-37.888 63.488-35.84 100.352l1.024 11.264h-711.68l1.024-11.264c3.072-36.864-10.24-72.704-35.84-100.352s-63.488-44.032-103.424-44.032c-39.936 0-77.824 16.384-104.448 44.032-25.6 27.648-37.888 63.488-34.816 100.352v11.264h-10.24c-73.728 0-115.712-36.864-115.712-99.328 0-99.328 105.472-231.424 212.992-231.424h343.040c18.432-54.272 95.232-131.072 98.304-135.168l3.072-2.048 3.072-1.024c76.8-11.264 157.696-22.528 230.4-22.528 147.456 0 258.048 45.056 380.928 154.624l25.6 22.528-33.792-5.12c-90.112-14.336-153.6-17.408-220.16-20.48-37.888-2.048-76.8-4.096-123.904-8.192l-9.216-1.024v-73.728c-12.288-3.072-45.056-8.192-86.016-8.192-65.536 0-179.2 13.312-204.8 106.496h329.728c188.416 5.12 273.408 16.384 328.704 23.552 15.36 2.048 27.648 4.096 39.936 5.12 114.688 35.84 172.032 100.352 200.704 149.504 25.6 5.12 39.936 40.96 39.936 74.752 0 20.48-5.12 33.792-13.312 39.936v4.096c0 16.384-15.36 27.648-27.648 27.648zM1468.416 676.864h104.448c2.048 0 8.192-2.048 8.192-7.168v-21.504h9.216c3.072-3.072 7.168-29.696-1.024-55.296-3.072-8.192-10.24-22.528-21.504-22.528h-6.144l-3.072-5.12c-25.6-47.104-79.872-110.592-189.44-144.384-10.24-1.024-23.552-3.072-37.888-5.12-56.32-7.168-140.288-18.432-327.68-23.552h-332.8c-7.168 0-11.264-3.072-13.312-6.144-3.072-4.096-4.096-10.24-2.048-17.408 28.672-106.496 152.576-122.88 224.256-122.88 4.096 0 105.472 1.024 105.472 21.504v62.464c43.008 4.096 79.872 5.12 114.688 7.168 58.368 3.072 114.688 6.144 188.416 16.384-109.568-91.136-207.872-126.976-342.016-126.976-70.656 0-149.504 10.24-224.256 21.504-13.312 14.336-82.944 87.040-93.184 131.072l-1.024 7.168h-359.424c-95.232 0-192.512 122.88-192.512 211.968 0 48.128 28.672 75.776 84.992 78.848 0-38.912 14.336-75.776 40.96-104.448 30.72-31.744 73.728-50.176 118.784-50.176s88.064 18.432 118.784 50.176c26.624 28.672 40.96 65.536 40.96 104.448h668.672c0-38.912 14.336-75.776 41.984-104.448 29.696-31.744 72.704-50.176 117.76-50.176s89.088 18.432 118.784 50.176c26.624 28.672 40.96 65.536 40.96 104.448zM1308.672 817.152c-73.728 0-136.192-62.464-136.192-136.192 0-77.824 61.44-142.336 136.192-142.336 79.872 0 142.336 62.464 142.336 142.336 0 75.776-63.488 136.192-142.336 136.192zM1308.672 559.104c-63.488 0-115.712 54.272-115.712 121.856 0 63.488 53.248 116.736 115.712 116.736 67.584 0 122.88-52.224 122.88-116.736 0-69.632-53.248-121.856-122.88-121.856zM1308.672 794.624c-62.464 0-112.64-51.2-112.64-113.664 0-64.512 51.2-118.784 112.64-118.784 63.488 0 119.808 55.296 119.808 118.784 0 61.44-55.296 113.664-119.808 113.664zM1308.672 581.632c-50.176 0-93.184 46.080-93.184 99.328 0 52.224 41.984 94.208 93.184 94.208 54.272 0 99.328-43.008 99.328-94.208 0-52.224-47.104-99.328-99.328-99.328zM1308.672 748.544c-33.792 0-67.584-33.792-67.584-67.584 0-37.888 32.768-72.704 67.584-72.704 39.936 0 73.728 32.768 73.728 72.704 0 35.84-34.816 67.584-73.728 67.584zM1308.672 627.712c-21.504 0-47.104 23.552-47.104 53.248 0 23.552 24.576 48.128 47.104 48.128 30.72 0 53.248-25.6 53.248-48.128 0-28.672-24.576-53.248-53.248-53.248zM320.512 817.152c-73.728 0-136.192-62.464-136.192-136.192 0-77.824 60.416-142.336 136.192-142.336s136.192 64.512 136.192 142.336c0 73.728-62.464 136.192-136.192 136.192zM320.512 559.104c-64.512 0-116.736 54.272-116.736 121.856 0 63.488 53.248 116.736 116.736 116.736s116.736-53.248 116.736-116.736c0-67.584-52.224-121.856-116.736-121.856zM320.512 794.624c-62.464 0-113.664-51.2-113.664-113.664s51.2-112.64 113.664-112.64 113.664 50.176 113.664 112.64c0 62.464-51.2 113.664-113.664 113.664zM320.512 587.776c-51.2 0-93.184 41.984-93.184 93.184 0 52.224 41.984 93.184 93.184 93.184s93.184-40.96 93.184-93.184c0-51.2-41.984-93.184-93.184-93.184zM320.512 748.544c-41.984 0-67.584-34.816-67.584-67.584 0-40.96 28.672-72.704 67.584-72.704 39.936 0 72.704 32.768 72.704 72.704 0 35.84-34.816 67.584-72.704 67.584zM320.512 627.712c-31.744 0-48.128 26.624-48.128 53.248 0 23.552 18.432 48.128 48.128 48.128s53.248-25.6 53.248-48.128c0-28.672-24.576-53.248-53.248-53.248zM985.088 381.952h-20.48l1.024-43.008h19.456v43.008zM1366.016 418.816l-61.44-51.2 12.288-15.36 61.44 51.2-12.288 15.36z"></path>
</svg>
