<!-- Generated by IcoMoon.io -->
<svg version="1.1" xmlns="http://www.w3.org/2000/svg" width="1024" height="1024" viewBox="0 0 1024 1024">
<g id="icomoon-ignore">
</g>
<path d="M317.44 704.512c1.024 6.144 0 12.288-4.096 17.408l-46.080 66.56c-4.096 6.144-11.264 10.24-19.456 10.24-5.12 0-9.216-2.048-13.312-4.096-11.264-8.192-13.312-22.528-6.144-33.792l47.104-65.536c7.168-10.24 22.528-13.312 32.768-6.144 5.12 4.096 8.192 9.216 9.216 15.36zM468.992 704.512c-2.048-6.144-5.12-11.264-10.24-15.36-10.24-7.168-25.6-4.096-32.768 6.144l-47.104 65.536c-4.096 5.12-5.12 11.264-4.096 17.408s4.096 12.288 9.216 15.36c4.096 3.072 9.216 4.096 14.336 4.096 7.168 0 14.336-3.072 19.456-9.216l47.104-66.56c3.072-5.12 5.12-11.264 4.096-17.408zM613.376 688.128c-10.24-6.144-25.6-4.096-32.768 7.168l-44.032 65.536c-7.168 11.264-4.096 25.6 6.144 32.768 4.096 3.072 8.192 4.096 13.312 4.096 8.192 0 15.36-3.072 19.456-10.24l45.056-65.536c3.072-6.144 4.096-12.288 3.072-18.432s-4.096-11.264-10.24-15.36zM959.488 432.128c-2.048 98.304-82.944 178.176-181.248 178.176h-74.752l-45.056 65.536c-4.096 6.144-12.288 10.24-19.456 10.24-5.12 0-9.216-2.048-13.312-4.096-11.264-8.192-13.312-22.528-6.144-33.792l26.624-37.888h-97.28l-46.080 64.512c-7.168 10.24-22.528 13.312-32.768 6.144-5.12-4.096-8.192-9.216-9.216-15.36s0-12.288 4.096-18.432l25.6-36.864h-93.184l-45.056 64.512c-7.168 10.24-22.528 13.312-32.768 6.144-5.12-4.096-8.192-9.216-10.24-15.36-1.024-6.144 1.024-12.288 4.096-18.432l26.624-36.864h-88.064c-2.048 0-5.12 0-8.192 0-62.464 0-121.856-32.768-153.6-86.016-33.792-57.344-33.792-128 0-184.32s96.256-90.112 162.816-87.040c6.144 0 13.312 1.024 20.48 2.048 16.384-49.152 61.44-81.92 112.64-81.92h2.048c20.48 0 39.936 5.12 58.368 15.36 33.792-47.104 88.064-75.776 147.456-75.776h2.048c84.992 0 157.696 58.368 177.152 140.288 1.024 0 2.048 0 3.072 0 96.256 0 175.104 74.752 181.248 169.984 2.048 3.072 2.048 6.144 2.048 9.216zM910.336 432.128c-1.024-72.704-61.44-132.096-133.12-132.096-6.144 1.024-13.312 1.024-19.456 2.048s-13.312 0-18.432-4.096c-5.12-4.096-9.216-10.24-9.216-16.384-7.168-69.632-64.512-120.832-134.144-120.832h-2.048c-50.176 0-96.256 27.648-119.808 72.704-3.072 6.144-9.216 11.264-16.384 12.288s-14.336-1.024-20.48-6.144c-13.312-12.288-30.72-18.432-49.152-18.432-37.888 0-69.632 27.648-73.728 63.488-1.024 7.168-4.096 13.312-10.24 17.408-5.12 3.072-12.288 5.12-19.456 3.072-11.264-3.072-22.528-4.096-33.792-5.12-3.072 0-5.12 0-7.168 0-46.080 0-89.088 24.576-112.64 64.512-25.6 40.96-25.6 93.184 0 135.168 24.576 40.96 70.656 65.536 118.784 63.488h528.384c70.656 0 129.024-54.272 134.144-123.904-1.024-2.048-2.048-5.12-2.048-7.168zM530.432 801.792c-10.24-7.168-25.6-5.12-32.768 5.12l-47.104 66.56c-3.072 5.12-5.12 11.264-4.096 17.408s5.12 12.288 10.24 15.36c4.096 3.072 8.192 5.12 13.312 5.12 8.192 0 15.36-4.096 19.456-10.24l46.080-66.56c4.096-5.12 5.12-11.264 4.096-17.408s-4.096-12.288-9.216-15.36z"></path>
</svg>
