<!-- Generated by IcoMoon.io -->
<svg version="1.1" xmlns="http://www.w3.org/2000/svg" width="1024" height="1024" viewBox="0 0 1024 1024">
<g id="icomoon-ignore">
</g>
<path d="M711.68 231.424c-4.096 0-9.216 0-13.312 0-34.816-82.944-119.808-139.264-212.992-139.264-126.976 0-230.4 101.376-230.4 225.28 0 1.024 0 1.024 0 2.048-84.992 6.144-152.576 75.776-152.576 161.792 0 89.088 74.752 161.792 165.888 161.792h443.392c115.712 0 209.92-92.16 209.92-205.824s-94.208-205.824-209.92-205.824v0zM711.68 588.8h-443.392c-61.44 0-111.616-48.128-111.616-107.52 0-60.416 50.176-108.544 111.616-108.544 3.072 0 7.168 0 13.312 1.024 8.192 1.024 16.384-2.048 21.504-8.192 6.144-6.144 9.216-14.336 8.192-22.528-2.048-9.216-2.048-17.408-2.048-25.6 0-94.208 78.848-172.032 176.128-172.032 77.824 0 147.456 51.2 168.96 122.88 4.096 13.312 17.408 21.504 30.72 19.456 9.216-2.048 17.408-3.072 26.624-3.072 86.016 0 155.648 68.608 155.648 152.576s-69.632 151.552-155.648 151.552v0zM234.496 799.744l76.8-77.824c11.264-10.24 11.264-27.648 0-37.888-10.24-10.24-27.648-10.24-37.888 0l-76.8 77.824c-11.264 10.24-11.264 27.648 0 37.888 5.12 5.12 12.288 8.192 18.432 8.192 7.168 0 14.336-3.072 19.456-8.192v0zM399.36 799.744l76.8-77.824c11.264-10.24 11.264-27.648 0-37.888-10.24-10.24-27.648-10.24-37.888 0l-76.8 77.824c-11.264 10.24-11.264 27.648 0 37.888 5.12 5.12 12.288 8.192 18.432 8.192 7.168 0 14.336-3.072 19.456-8.192v0zM564.224 799.744l76.8-77.824c11.264-10.24 11.264-27.648 0-37.888-10.24-10.24-27.648-10.24-37.888 0l-76.8 77.824c-11.264 10.24-11.264 27.648 0 37.888 5.12 5.12 12.288 8.192 18.432 8.192 7.168 0 14.336-3.072 19.456-8.192v0zM768 684.032l-76.8 77.824c-11.264 10.24-11.264 27.648 0 37.888 5.12 5.12 12.288 8.192 18.432 8.192s14.336-3.072 19.456-8.192l76.8-77.824c11.264-10.24 11.264-27.648 0-37.888-10.24-10.24-27.648-10.24-37.888 0v0zM284.672 808.96l-76.8 76.8c-11.264 11.264-11.264 27.648 0 38.912 5.12 5.12 12.288 7.168 18.432 7.168s14.336-2.048 19.456-7.168l76.8-77.824c11.264-10.24 11.264-27.648 0-37.888-10.24-10.24-27.648-10.24-37.888 0v0zM450.56 808.96l-77.824 76.8c-10.24 11.264-10.24 27.648 0 38.912 5.12 5.12 12.288 7.168 19.456 7.168s13.312-2.048 18.432-7.168l77.824-77.824c10.24-10.24 10.24-27.648 0-37.888-10.24-11.264-27.648-10.24-37.888 0v0zM615.424 808.96l-76.8 76.8c-11.264 11.264-11.264 27.648 0 38.912 5.12 5.12 12.288 7.168 18.432 7.168s14.336-2.048 19.456-7.168l76.8-77.824c11.264-10.24 11.264-27.648 0-37.888-10.24-10.24-27.648-10.24-37.888 0v0z"></path>
</svg>
