<!-- Generated by IcoMoon.io -->
<svg version="1.1" xmlns="http://www.w3.org/2000/svg" width="2275" height="1024" viewBox="0 0 2275 1024">
<g id="icomoon-ignore">
</g>
<path d="M822.272 278.528c-113.664 3.072-206.848 27.648-299.008 97.28 133.12-86.016 253.952-80.896 299.008-81.92v-15.36zM417.792 479.232h-4.096c-6.144 0-11.264 5.12-11.264 12.288v55.296c0 5.12 3.072 10.24 8.192 11.264v34.816h10.24v-34.816c5.12-1.024 8.192-6.144 8.192-11.264v-55.296c0-7.168-5.12-12.288-11.264-12.288zM520.192 555.008l31.744-24.576c1.024-1.024 2.048-3.072 2.048-4.096v-70.656c0-2.048-2.048-5.12-5.12-5.12h-102.4l-13.312 28.672c2.048 3.072 4.096 7.168 4.096 12.288v55.296c0 3.072-1.024 6.144-3.072 9.216h82.944c1.024 0 2.048 0 3.072-1.024zM539.648 624.64h10.24v39.936h-10.24v-39.936zM792.576 467.968h-54.272c-3.072 0-5.12 2.048-5.12 5.12v102.4c0 2.048 2.048 5.12 5.12 5.12h54.272c3.072 0 5.12-3.072 5.12-5.12v-102.4c0-3.072-2.048-5.12-5.12-5.12zM540.672 732.16h10.24v71.68h-10.24v-71.68zM728.064 732.16h10.24v71.68h-10.24v-71.68zM916.48 732.16h10.24v71.68h-10.24v-71.68zM2178.048 784.384v11.264l-20.48-18.432h8.192v-52.224h-119.808c-2.048-2.048-5.12-4.096-8.192-5.12h83.968v-384h-1186.816v368.64h-34.816v-477.184h-32.768c-1.024 0-1.024 0-2.048 0v-52.224c0 0 0-11.264 15.36-10.24v-28.672c0 0-45.056-2.048-45.056 33.792v57.344c-184.32 3.072-300.032 53.248-422.912 180.224-1.024 1.024-2.048 2.048-3.072 4.096l-77.824 132.096-225.28 56.32c-9.216 2.048-16.384 9.216-17.408 19.456-3.072 25.6-9.216 87.040-9.216 111.616v89.088l79.872 11.264h32.768c4.096 13.312 11.264 24.576 19.456 32.768 15.36 15.36 34.816 23.552 57.344 23.552 21.504 0 41.984-8.192 56.32-23.552v0c9.216-8.192 15.36-19.456 19.456-32.768h723.968v-7.168h3.072c3.072 15.36 10.24 29.696 21.504 39.936 14.336 15.36 34.816 23.552 56.32 23.552 22.528 0 41.984-8.192 56.32-23.552h1.024c10.24-10.24 18.432-24.576 21.504-39.936h15.36c3.072 15.36 10.24 29.696 21.504 39.936 14.336 15.36 34.816 23.552 56.32 23.552s41.984-8.192 56.32-23.552v0c11.264-10.24 19.456-24.576 22.528-39.936h8.192l6.144 27.648h31.744v-74.752h281.6c-1.024 6.144-2.048 12.288-2.048 18.432v27.648h14.336c3.072 16.384 10.24 29.696 21.504 40.96 14.336 14.336 34.816 23.552 56.32 23.552s41.984-9.216 56.32-23.552v0c11.264-11.264 18.432-24.576 22.528-40.96h15.36c3.072 16.384 10.24 29.696 21.504 40.96 14.336 14.336 34.816 23.552 56.32 23.552 22.528 0 41.984-9.216 56.32-23.552v0c11.264-11.264 18.432-24.576 22.528-40.96h12.288c0-22.528-2.048-41.984-7.168-59.392l9.216 4.096 5.12 26.624h55.296l33.792 22.528v12.288h17.408v-45.056h-17.408zM865.28 416.768v-174.080c8.192 0 17.408 0 18.432 0l1.024 175.104v286.72h-19.456v-287.744zM152.576 816.128l-57.344-9.216v-68.608h27.648c39.936 0 20.48-76.8 84.992-91.136 95.232-20.48 211.968-20.48 266.24-20.48-80.896-13.312-280.576-15.36-374.784 45.056 2.048-19.456 4.096-38.912 5.12-50.176 1.024-4.096 3.072-6.144 6.144-7.168l231.424-57.344 21.504-1.024c0 0 51.2-101.376 56.32-120.832 1.024-3.072 1.024-6.144 0-10.24l3.072-5.12c0-1.024 0-1.024 1.024-2.048 118.784-122.88 233.472-172.032 411.648-175.104v461.824h-474.112c0 0 0-1.024-1.024-1.024-20.48-22.528-52.224-34.816-87.040-34.816-33.792 0-65.536 11.264-86.016 32.768-22.528 23.552-33.792 60.416-34.816 114.688zM268.288 875.52c-37.888 0-69.632-30.72-69.632-69.632 0-37.888 31.744-68.608 69.632-68.608s69.632 30.72 69.632 68.608c0 38.912-31.744 69.632-69.632 69.632zM364.544 816.128c-1.024-36.864-11.264-66.56-29.696-86.016-16.384-18.432-40.96-28.672-67.584-28.672s-51.2 10.24-67.584 27.648c-18.432 19.456-27.648 49.152-27.648 87.040h-10.24c1.024-51.2 12.288-84.992 32.768-107.52 19.456-19.456 47.104-29.696 78.848-29.696s61.44 11.264 79.872 31.744c7.168 8.192 14.336 18.432 19.456 29.696 8.192 19.456 12.288 45.056 13.312 75.776h-21.504zM1064.96 757.76c-8.192 14.336-11.264 31.744-11.264 50.176v8.192h-652.288c-1.024-41.984-7.168-72.704-21.504-96.256h713.728v6.144c-12.288 8.192-22.528 18.432-28.672 31.744zM1149.952 875.52c-38.912 0-69.632-30.72-69.632-69.632 0-37.888 30.72-68.608 69.632-68.608s68.608 30.72 68.608 68.608c0 38.912-30.72 69.632-68.608 69.632zM1234.944 769.024c-3.072-13.312-9.216-23.552-16.384-32.768h35.84c-8.192 9.216-15.36 20.48-19.456 32.768zM1321.984 875.52c-38.912 0-69.632-30.72-69.632-69.632 0-37.888 30.72-68.608 69.632-68.608 37.888 0 68.608 30.72 68.608 68.608 0 38.912-30.72 69.632-68.608 69.632zM950.272 704.512v-353.28h1156.096v353.28h-1156.096zM1944.576 719.872c-3.072 1.024-6.144 3.072-8.192 5.12h-62.464c-2.048-2.048-5.12-4.096-8.192-5.12h78.848zM1451.008 724.992v-5.12h321.536c-3.072 1.024-6.144 3.072-8.192 5.12h-313.344zM1818.624 875.52c-38.912 0-69.632-31.744-69.632-69.632s30.72-69.632 69.632-69.632c37.888 0 68.608 31.744 68.608 69.632s-30.72 69.632-68.608 69.632zM1903.616 769.024c-3.072-11.264-8.192-22.528-14.336-30.72h31.744c-8.192 9.216-14.336 19.456-17.408 30.72zM1990.656 875.52c-38.912 0-69.632-31.744-69.632-69.632s30.72-69.632 69.632-69.632c37.888 0 68.608 31.744 68.608 69.632s-30.72 69.632-68.608 69.632zM268.288 743.424c-34.816 0-62.464 28.672-62.464 62.464s27.648 62.464 62.464 62.464c34.816 0 62.464-27.648 62.464-62.464s-27.648-62.464-62.464-62.464zM268.288 856.064c-27.648 0-50.176-22.528-50.176-50.176s22.528-49.152 50.176-49.152c27.648 0 50.176 22.528 50.176 49.152s-22.528 50.176-50.176 50.176zM1149.952 743.424c-34.816 0-62.464 28.672-62.464 62.464 0 34.816 27.648 62.464 62.464 62.464 33.792 0 62.464-27.648 62.464-62.464 0-33.792-28.672-62.464-62.464-62.464zM1149.952 856.064c-27.648 0-50.176-22.528-50.176-50.176s22.528-49.152 50.176-49.152c27.648 0 49.152 21.504 49.152 49.152s-21.504 50.176-49.152 50.176zM1321.984 743.424c-34.816 0-62.464 28.672-62.464 62.464 0 34.816 27.648 62.464 62.464 62.464 33.792 0 62.464-27.648 62.464-62.464 0-33.792-28.672-62.464-62.464-62.464zM1321.984 856.064c-27.648 0-50.176-22.528-50.176-50.176s22.528-49.152 50.176-49.152c27.648 0 49.152 21.504 49.152 49.152s-21.504 50.176-49.152 50.176zM1818.624 743.424c-34.816 0-62.464 27.648-62.464 62.464s27.648 62.464 62.464 62.464c33.792 0 62.464-27.648 62.464-62.464s-28.672-62.464-62.464-62.464zM1818.624 856.064c-27.648 0-50.176-22.528-50.176-50.176s22.528-50.176 50.176-50.176c26.624 0 49.152 22.528 49.152 50.176s-22.528 50.176-49.152 50.176zM1990.656 743.424c-34.816 0-62.464 27.648-62.464 62.464s27.648 62.464 62.464 62.464c33.792 0 62.464-27.648 62.464-62.464s-28.672-62.464-62.464-62.464zM1990.656 856.064c-27.648 0-50.176-22.528-50.176-50.176s22.528-50.176 50.176-50.176 49.152 22.528 49.152 50.176-22.528 50.176-49.152 50.176z"></path>
</svg>
