<svg x="0px" y="0px" width="1462px" height="1024px" viewBox="0 0 1462 1024" enable-background="new 0 0 1462 1024" xml:space="preserve">
<path fill-rule="evenodd" clip-rule="evenodd" d="M179.598,486.882c22.691,0.109,45.382,0.032,68.073,0.035
	c22.209,0.001,44.418,0.045,66.625-0.017c11.104-0.029,14.9-3.723,14.916-14.749c0.063-43.451,0.061-86.902-0.004-130.353
	c-0.018-11.314-3.633-14.867-14.636-14.871c-20.032-0.009-40.067,0.036-60.099,0.032c-7.049-0.001-13.936,1.185-20.765,2.735
	c-18.337,4.161-30.915,14.958-37.765,32.556c-8.529,21.91-12.998,44.941-18.925,67.567c-3.547,13.538-6.899,27.127-10.16,40.737
	C164.271,481.36,168.511,486.83,179.598,486.882z M193.617,451.691c7.113-26.8,12.169-54.152,21.672-80.312
	c5.004-13.772,14.984-20.482,29.279-22.23c18.784-2.297,37.604-0.725,56.396-1.343c5.952-0.195,6.548,3.212,6.537,7.85
	c-0.067,34.27-0.117,68.541,0.045,102.809c0.025,5.576-1.827,7.71-7.543,7.622c-17.133-0.262-34.269-0.095-51.404-0.088
	c-14.48,0-28.96,0.001-43.44,0C190.094,465.999,189.838,465.929,193.617,451.691z M959.953,689.406
	c-50.073,0.095-91.232,41.397-90.991,91.313c0.237,49.569,42.462,91.503,91.801,91.16c49.907-0.349,90.831-41.88,90.646-91.983
	C1051.221,729.192,1010.913,689.312,959.953,689.406z M959.852,827.677c-27.031-0.137-47.462-20.149-47.73-46.757
	c-0.265-26.487,21.713-48.898,48.024-48.977c26.081-0.076,48.471,22.287,48.611,48.561
	C1008.899,807.236,987.573,827.814,959.852,827.677z M310.261,689.406c-50.075,0.095-91.234,41.397-90.992,91.313
	c0.236,49.569,42.461,91.503,91.8,91.16c49.907-0.349,90.833-41.88,90.646-91.983C401.527,729.192,361.219,689.312,310.261,689.406z
	 M310.158,827.677c-27.031-0.137-47.462-20.149-47.73-46.757c-0.266-26.487,21.712-48.898,48.025-48.977
	c26.081-0.076,48.47,22.287,48.609,48.561C359.205,807.236,337.879,827.814,310.158,827.677z M1222.875,689.406
	c-50.073,0.095-91.232,41.397-90.99,91.313c0.237,49.569,42.461,91.503,91.8,91.16c49.905-0.349,90.833-41.88,90.646-91.983
	C1314.142,729.192,1273.834,689.312,1222.875,689.406z M1222.773,827.677c-27.031-0.137-47.462-20.149-47.729-46.757
	c-0.266-26.487,21.712-48.898,48.023-48.977c26.082-0.076,48.473,22.287,48.611,48.561
	C1271.821,807.236,1250.494,827.814,1222.773,827.677z M1376.531,747.337c-1.102-37.645-1.008-75.297-1.166-112.948
	c-0.04-9.417,0.073-18.837-0.204-28.246c-0.297-10.093-4.242-13.769-14.412-13.934c-5.793-0.093-11.592-0.114-17.384-0.032
	c-3.971,0.056-5.759-1.771-5.638-5.699c0.077-2.412-0.017-4.829-0.017-7.243c-0.003-135.686-0.003-271.372-0.006-407.058
	c0-2.896,0.1-5.806-0.107-8.689c-0.438-6.139-3.688-9.897-9.93-10.435c-5.765-0.497-11.561-0.877-17.342-0.88
	c-146.068-0.047-292.135-0.037-438.202-0.037c-146.311,0-292.62,0-438.93,0.004c-2.896,0-5.804-0.095-8.686,0.116
	c-9.215,0.672-12.944,4.558-13.006,13.854c-0.107,16.176-0.036,32.352-0.036,48.528c-0.001,122.166,0,244.331-0.003,366.497
	c0,10.115-7.297,14.748-16.877,10.701c-3.941-1.664-2.777-5.277-2.791-8.198c-0.113-27.041-0.143-54.081-0.108-81.122
	c0.037-28.488-0.315-56.989,0.36-85.463c1.475-62.033,1.07-124.068,1.222-186.105c0.005-1.688-0.052-3.38,0.007-5.068
	c0.203-5.753-1.549-10.414-6.975-13.235c-5.454-2.837-9.844-0.257-14.023,2.772c-10.037,7.273-18.34,16.413-26.562,25.564
	c-11.935,13.283-23.663,26.757-35.292,40.31c-3.261,3.801-6.882,5.323-11.908,5.379c-22.916,0.252-45.875-1.329-68.739,1.278
	c-18.408,2.103-36.283,5.884-51.153,17.997c-7.066,5.754-11.926,13.033-15.232,21.624c-13.292,34.534-23.434,70.025-32.31,105.882
	c-1.729,6.987-4.879,12.235-10.297,16.788c-12.065,10.141-22.992,21.349-30.428,35.513c-3.319,6.326-4.882,12.938-4.854,20.159
	c0.149,37.18-0.318,74.366,0.21,111.54c0.334,23.433,8.802,44.794,19.739,65.203c2.647,4.939,7.366,5.63,12.442,5.68
	c9.826,0.096,9.844,0.188,9.854,10.173c0.018,16.176-0.042,32.353,0.021,48.529c0.047,11.678,3.971,15.94,15.492,16.151
	c13.756,0.25,27.523,0.212,41.283,0.022c10.165-0.14,13.314-2.865,16.258-12.983c12.788-43.941,52.221-75.929,99.7-78.943
	c45.283-2.873,89.749,19.125,109.991,60.813c2.861,5.892,4.864,12.082,6.639,18.359c2.82,9.971,5.979,12.623,16.383,12.76
	c14.001,0.184,28.01,0.267,42.007-0.024c6.056-0.126,8.569,1.601,8.622,8.154c0.133,16.189,11.363,27.052,27.611,27.071
	c67.844,0.084,135.688,0.096,203.531-0.01c15.955-0.023,27.032-10.845,26.98-26.803c-0.022-7.096,2.883-8.458,9.081-8.41
	c27.28,0.214,54.564,0.114,81.847,0.075c13.818-0.021,15.725-1.499,20.68-14.332c15.582-40.361,41.995-68.8,85.854-78.271
	c55.202-11.921,114.014,23.52,129.261,78.105c3.483,12.47,5.929,14.395,18.598,14.501c5.068,0.042,10.143,0.102,15.211-0.036
	c10.377-0.28,13.359-2.896,16.232-12.912c11.005-38.385,34.917-65.613,73.576-75.912c43.358-11.551,94.958-1.565,121.782,48.445
	c5.032,9.381,9.995,18.784,13.451,28.833c2.765,8.039,8.059,11.621,16.282,11.562c5.796-0.042,11.595,0.161,17.381-0.055
	C1372.545,762.783,1376.856,758.546,1376.531,747.337z M443.965,173.973c286.775-0.001,573.551-0.001,860.325,0
	c11.614,0,11.628,0.013,11.628,11.455c0.006,131.561,0.006,263.117,0.003,394.676c0,12.076-0.012,12.082-12.46,12.082
	c-143.146,0.002-286.291,0.002-429.437,0.002c-143.63,0-287.26,0.001-430.887-0.003c-10.668,0-10.68-0.019-10.68-10.736
	c-0.004-132.042-0.004-264.082-0.002-396.126C432.455,173.982,432.463,173.973,443.965,173.973z M372.207,244.936
	c0,13.591-0.016,25.091,0.01,36.592c0.008,3.22-1.414,4.968-4.73,4.968c-10.523,0-21.048,0-33.68,0
	C346.845,271.723,357.91,258.117,372.207,244.936z M106.496,539.555c0-7.475-0.01-14.954,0.003-22.43
	c0.017-9.792,5.241-12.861,14.13-8.204c4.988,2.617,7.074,7.008,7.074,12.512c0.002,12.06,0.193,24.122-0.059,36.176
	c-0.193,9.214-5.639,14.026-14.7,14.217c-4.575,0.097-6.618-1.435-6.496-6.224C106.668,556.926,106.51,548.239,106.496,539.555z
	 M127.594,667.332c-4.884,0.217-7.398-1.801-9.259-6.182c-8.224-19.362-13.016-39.281-11.988-60.522
	c0.281-5.815,1.8-7.929,7.872-7.988c20.146-0.196,34.539-14.383,35.219-34.59c0.406-12.057,0.285-24.14,0-36.202
	c-0.256-10.837-4.207-20.202-12.504-27.516c-5.756-5.072-12.699-7.437-21.004-8.597c7.076-9.196,14.992-16.193,22.817-23.25
	c6.48-5.846,10.619-12.839,12.634-21.42c8.447-35.976,18.881-71.371,31.868-105.988c2.833-7.547,7.825-13.1,15.004-16.916
	c11.806-6.276,24.648-9.034,37.664-9.208c43.2-0.577,86.414-0.334,129.62-0.568c4.979-0.027,6.13,2.03,5.92,6.55
	c-0.348,7.468-0.199,14.961-0.228,22.444c-0.161,42.483,0.237,84.978-0.631,127.447c-0.815,39.813-1.339,79.603,0.12,119.397
	c0.197,5.349-1.996,6.66-6.793,6.559c-15.685-0.331-31.363-0.219-47.002,1.383c-23.773,2.434-47.592,4.685-70.224,13.079
	C216.62,616.4,193.717,637.4,172.43,660.4c-3.759,4.061-7.526,5.763-13.007,6.203C148.799,667.458,138.191,666.859,127.594,667.332z
	 M527.418,770.88c-0.003,1.887,0.521,4.483-1.323,5.356c-5.21,2.461-10.86,1.693-16.225,0.626c-4.331-0.862-4.894-4.742-4.884-8.594
	c0.033-12.294,0.014-24.587,0.012-36.88c0-12.534,0.125-25.071-0.054-37.603c-0.086-6.14,2.632-8.93,8.674-8.75
	c2.167,0.063,4.345,0.124,6.505-0.028c5.119-0.365,7.421,1.608,7.387,7.05C527.347,718.332,527.447,744.605,527.418,770.88z
	 M570.635,731.533c0,10.6,0.072,21.2-0.016,31.798c-0.133,15.701,2.115,13.836-14.336,14.329c-6.614,0.199-8.111-2.41-8.036-8.482
	c0.282-22.641,0.041-45.286,0.138-67.93c0.077-18.464-2.237-15.698,16.109-16.395c4.973-0.189,6.258,1.661,6.197,6.211
	C570.516,704.552,570.63,718.043,570.635,731.533z M721.474,767.586c-0.027,7.959-1.911,9.885-9.883,9.901
	c-37.614,0.082-75.23-0.031-112.846,0.123c-5.357,0.022-7.166-1.916-7.131-7.196c0.17-26.279,0.225-52.566-0.046-78.846
	c-0.058-5.674,2.002-6.762,7.194-6.679c18.804,0.299,37.615,0.118,56.422,0.137c18.809,0,37.616-0.047,56.424,0.021
	c8.565,0.031,9.851,1.238,9.875,9.478C721.552,718.878,721.562,743.231,721.474,767.586z M1351.65,741.095
	c-3.902,0.898-5.586-1.548-7.012-4.683c-3.198-7.025-6.3-14.119-9.964-20.904c-18.023-33.363-44.157-56.136-82.397-63.541
	c-36.729-7.113-71.083-2.601-102.22,19.27c-23.004,16.161-39.4,37.444-48.762,64.009c-1.318,3.741-2.799,6.336-7.474,6.235
	c-4.454-0.094-5.713-2.8-6.74-6.196c-0.28-0.921-0.69-1.802-1.039-2.703c-30.273-78.452-123.487-109.714-194.503-64.973
	c-25.511,16.072-43.13,38.985-54.651,66.688c-1.768,4.246-3.614,7.3-9.244,7.237c-26.068-0.286-52.14-0.229-78.21-0.05
	c-5.428,0.037-7.142-2.06-7.055-7.286c0.231-14.24,0.119-28.485,0.06-42.729c-0.072-16.962-10.996-28.247-28.029-28.278
	c-67.591-0.122-135.182-0.135-202.773,0.011c-16.361,0.036-27.539,11.723-27.625,28.091c-0.072,14.002-0.288,28.012,0.102,42.001
	c0.182,6.459-2.178,8.562-8.418,8.218c-7.459-0.412-15.064-0.88-22.421,0.083c-11.835,1.551-16.993-2.965-22.102-14.129
	c-23.315-50.962-65.15-75.783-120.11-77.219c-56.074-1.464-97.457,24.895-122.475,74.427c-6.855,13.569-13.554,19.345-27.84,16.775
	c-1.404-0.252-2.898-0.143-4.338-0.029c-4.959,0.389-6.941-1.859-6.883-6.801c0.154-13.034,0.182-26.072-0.018-39.105
	c-0.078-5.188,1.802-8.101,7.133-7.199c14.329,2.424,24.609-3.688,32.794-14.783c1.71-2.317,3.81-4.362,5.833-6.43
	c18.732-19.159,38.923-36.244,65.256-44.07c20.47-6.083,41.418-9.025,62.818-9.019c167.771,0.052,335.542,0.029,503.314,0.028
	c60.832,0,121.663,0.001,182.496,0c112.248-0.003,224.5,0,336.749-0.037c3.981-0.001,7.587-0.684,7.621,5.488
	c0.212,38.369,0.729,76.734,1.081,115.104C1354.627,737.097,1355.328,740.249,1351.65,741.095z M327,512.958v9.082c0,2.2-1.8,4-4,4
	h-42.833c-2.2,0-4-1.8-4-4v-9.082c0-2.2,1.8-4,4-4H323C325.2,508.958,327,510.758,327,512.958z"/>
</svg>
