<svg x="0px" y="0px" width="500px" height="500px" viewBox="0 0 500 500" enable-background="new 0 0 500 500" xml:space="preserve" fill="currentColor">
<path d="M473.959,244.505c-7.563,0-13.614,6.052-13.614,13.614v123.826c0,33.678-27.424,61.01-61.004,61.01H100.659
	c-33.679,0-61.005-27.43-61.005-61.01V256.101c0-7.563-6.051-13.614-13.613-13.614c-7.563,0-13.614,6.051-13.614,13.614v125.844
	c0,48.706,39.63,88.233,88.233,88.233h298.682c48.706,0,88.232-39.625,88.232-88.233V258.119
	C487.573,250.655,481.522,244.505,473.959,244.505L473.959,244.505z M240.419,362.084c2.624,2.619,6.155,4.032,9.581,4.032
	c3.427,0,6.958-1.31,9.577-4.032l86.52-86.52c5.347-5.347,5.347-13.914,0-19.261c-5.343-5.344-13.914-5.344-19.258,0l-63.226,63.327
	V43.436c0-7.563-6.052-13.614-13.613-13.614c-7.563,0-13.613,6.052-13.613,13.614v276.194l-63.325-63.327
	c-5.347-5.344-13.919-5.344-19.261,0c-5.342,5.347-5.342,13.914,0,19.261L240.419,362.084z"/>
</svg>
