<!-- Generated by IcoMoon.io -->
<svg version="1.1" xmlns="http://www.w3.org/2000/svg" width="1024" height="1024" viewBox="0 0 1024 1024">
<g id="icomoon-ignore">
</g>
<path d="M157.696 416.768v0-2.048h-1.024v-1.024l1.024-1.024v-3.072h-1.024l-1.024-1.024h-1.024l-2.048-1.024h-1.024l-2.048 1.024 1.024-1.024v-2.048l-1.024-1.024h-2.048l-1.024 1.024v-1.024l1.024-2.048v-3.072h-1.024l-2.048-1.024-1.024-1.024v-1.024l2.048-2.048 3.072-2.048h-3.072l-1.024 1.024-3.072 1.024-1.024 1.024-1.024-1.024h-2.048v-1.024l-1.024-2.048v-1.024l-1.024-1.024h-4.096l-2.048 2.048 1.024 2.048v2.048l-1.024 1.024h-5.12v-1.024h-1.024l-1.024 1.024v1.024l-3.072 3.072-3.072-3.072-2.048-1.024h-2.048v2.048l2.048 5.12v2.048l-3.072-5.12-2.048-3.072-2.048-2.048-1.024 1.024-3.072 1.024-2.048 2.048 1.024 4.096-1.024 1.024h-2.048l-4.096-6.144h-2.048l-1.024 3.072v6.144l-2.048 1.024v-1.024h-2.048l-1.024 1.024v1.024l-1.024 2.048-1.024 4.096-1.024-3.072-1.024-1.024h-1.024l1.024-2.048v-1.024h-1.024v-1.024h-1.024l-1.024-1.024v-1.024h2.048l1.024-1.024v-2.048l-2.048-2.048 1.024-1.024-1.024-1.024-4.096-3.072-4.096-4.096h-1.024l-1.024-1.024-3.072 1.024h-2.048v2.048h2.048l2.048-1.024v1.024l2.048 1.024-4.096 1.024 2.048 2.048 2.048 1.024 1.024 2.048-2.048 2.048v-3.072h-1.024l-2.048 1.024h-1.024l-1.024-3.072-3.072-1.024h-1.024l1.024 3.072h-1.024l-1.024-1.024h-1.024v2.048l2.048 2.048h-2.048l-1.024 1.024 1.024 1.024h1.024l1.024 1.024h2.048l-1.024 1.024h-3.072l-2.048-2.048h-1.024v3.072l2.048 2.048h-2.048l-1.024-1.024h-2.048l-1.024 2.048h1.024l2.048 1.024h1.024l2.048 1.024 6.144-2.048 2.048-1.024h5.12l1.024 1.024h3.072l2.048 1.024-1.024 1.024-4.096 3.072h-1.024v1.024l1.024 1.024h4.096l2.048-1.024-1.024 2.048-1.024 1.024h-8.192l-1.024 1.024h-4.096l-2.048 1.024h-3.072l-2.048 1.024 1.024 2.048 1.024 1.024 2.048-1.024h1.024l2.048-1.024h6.144l4.096 2.048v2.048l1.024 1.024h1.024l3.072-1.024h2.048l-2.048 1.024-1.024 1.024-2.048 1.024 2.048 1.024h-1.024v1.024h1.024l1.024-1.024h3.072l-2.048 1.024-3.072 3.072-1.024 2.048h-1.024l-1.024 1.024h-2.048l-2.048-2.048v1.024l-1.024 1.024 1.024 1.024v1.024l1.024 1.024 4.096-1.024h8.192l1.024-1.024h1.024v1.024h1.024l3.072 1.024v1.024h2.048v-1.024h1.024v1.024h-1.024v1.024l2.048 2.048h2.048l3.072 1.024 8.192 1.024h3.072l4.096-1.024h2.048l2.048-2.048v-1.024l1.024-1.024 3.072-1.024 7.168-1.024 3.072-2.048 4.096-2.048 1.024-1.024 2.048-1.024 5.12-1.024 4.096-2.048 2.048-2.048v-2.048l1.024-1.024v-1.024h3.072l2.048-2.048v-3.072l1.024-1.024h1.024l1.024-1.024v-1.024zM625.664 824.32l-2.048 1.024h-4.096l-2.048-1.024v2.048h-1.024l-1.024 1.024-2.048 1.024h-2.048v1.024l1.024 2.048 1.024 1.024h1.024l3.072 1.024h1.024l1.024-1.024h1.024l1.024-1.024h2.048l1.024-2.048h4.096l-1.024-2.048v-2.048l1.024-1.024 3.072-2.048zM379.904 751.616v0 1.024l2.048 2.048h1.024l1.024-1.024v-1.024l1.024-1.024v-3.072l1.024-1.024v-1.024l1.024-1.024-1.024-9.216v-1.024h-1.024l-1.024 1.024v2.048h-2.048l-1.024 1.024-2.048 1.024-2.048 2.048 1.024 1.024-1.024 1.024 1.024 1.024v3.072h1.024v2.048h1.024v1.024zM547.84 827.392h-1.024v-2.048h-5.12l-4.096-1.024h-2.048l-2.048 1.024h-1.024l-1.024-1.024v-1.024l-1.024-1.024-1.024 1.024h-2.048l-1.024-2.048v2.048l-1.024-1.024v4.096h2.048l4.096 1.024h4.096v1.024l1.024 1.024 2.048 1.024 8.192-2.048 3.072 1.024 1.024-1.024h1.024v-3.072l-2.048 1.024zM373.76 758.784v0 1.024zM375.808 782.336h-1.024v1.024h1.024v-1.024zM387.072 760.832v-2.048l-2.048-2.048h-2.048l-3.072 3.072-4.096 2.048-2.048-1.024v1.024h-1.024l2.048 4.096 1.024 1.024v5.12l1.024 1.024v1.024h-1.024v6.144l2.048 4.096h2.048l1.024-1.024 1.024-3.072 1.024 1.024h4.096l1.024-2.048v-12.288l1.024-1.024v-2.048zM444.416 794.624l2.048-3.072h-1.024l-4.096 1.024-2.048 1.024h-1.024l-2.048 1.024h-5.12l-2.048 1.024h-1.024l-1.024-1.024-2.048-1.024h-2.048l-3.072 1.024-2.048-2.048-2.048 3.072v2.048l2.048 2.048h2.048l1.024 1.024 6.144 3.072 1.024 1.024h2.048l2.048 1.024h1.024l4.096 4.096h4.096l1.024-2.048v-1.024l1.024-1.024-1.024-2.048-1.024-3.072 1.024-3.072zM970.752 192.512l-4.096-2.048h-8.192l-5.12 1.024-4.096 1.024-3.072 2.048h-1.024l-2.048 3.072-2.048 1.024h-2.048l-4.096 1.024-6.144 3.072h-3.072l-12.288 3.072h-5.12l-8.192-2.048h-2.048l-2.048 1.024-1.024 1.024v2.048l-1.024 1.024v1.024h-1.024l-1.024-1.024h-4.096l-1.024 1.024h-1.024v1.024l-1.024 1.024-2.048 1.024h-2.048l-4.096 1.024-2.048 1.024-5.12 3.072-3.072 1.024-1.024 1.024v3.072l-1.024 1.024-2.048 1.024v2.048l-1.024 1.024v1.024h-2.048l-2.048-1.024h-2.048l-2.048 2.048 1.024 1.024v1.024l-2.048 3.072h-2.048l-2.048-1.024h-4.096v3.072h1.024v1.024h4.096l1.024 1.024-2.048 1.024-2.048 2.048-2.048 1.024-2.048 3.072v2.048l1.024 1.024h3.072l1.024 1.024h-2.048l-4.096 1.024h-2.048l-2.048 2.048-2.048 4.096-2.048 1.024-1.024 2.048-8.192 3.072v1.024l2.048 2.048 2.048 1.024v2.048l1.024 1.024 3.072-1.024h1.024l1.024-1.024h1.024l2.048 1.024 3.072 1.024h6.144l2.048 1.024h4.096l3.072-1.024v-1.024l1.024-1.024v-1.024h1.024l2.048-1.024 1.024-1.024v-1.024l-2.048-2.048h1.024l1.024 1.024h3.072l1.024-2.048-1.024-1.024v-1.024l2.048-1.024 3.072-1.024 2.048-1.024 1.024-2.048v-2.048l-1.024-1.024v-1.024h4.096l2.048-2.048v-2.048h1.024l3.072 1.024h1.024l1.024-1.024-1.024-1.024 1.024-1.024h2.048l1.024-1.024 2.048-1.024 1.024-1.024v-2.048h-2.048l1.024-1.024v-1.024h2.048l1.024-1.024h1.024l5.12-5.12h1.024v-1.024h2.048l2.048-1.024 6.144-4.096 55.296-20.48 2.048-1.024 6.144-5.12h1.024v-3.072zM773.12 352.256h3.072l3.072-1.024h2.048l4.096-4.096h2.048v1.024h1.024v-2.048l-8.192-4.096h-5.12l-3.072 1.024-2.048 2.048-1.024 3.072 1.024 3.072zM801.792 311.296l2.048 1.024h2.048l2.048-1.024h10.24l-1.024 1.024 2.048 2.048h1.024l2.048 2.048 4.096 2.048h-5.12v1.024h-1.024v2.048l-2.048 1.024 12.288 3.072v-1.024l2.048 1.024h9.216v1.024h4.096l2.048 1.024h2.048l-1.024-1.024-2.048-1.024 1.024-1.024 4.096 2.048h5.12l1.024-1.024 2.048-1.024-8.192-4.096-3.072-2.048-7.168-7.168-4.096-6.144v-2.048l1.024-2.048 1.024-1.024-1.024-1.024-1.024-2.048v-2.048l1.024-2.048h1.024v-1.024l1.024-1.024v-1.024l1.024-1.024h1.024l1.024-1.024h2.048v-1.024l1.024-3.072v-1.024l1.024-1.024v-2.048l-2.048-1.024-4.096-1.024-3.072-1.024-2.048-1.024-3.072-1.024h-2.048l-1.024 1.024-3.072 1.024-1.024 1.024h-4.096l-3.072 1.024h-1.024l-2.048 2.048v1.024l1.024 2.048v1.024l1.024 1.024h-4.096l-1.024 1.024-2.048 1.024-1.024 1.024 2.048 2.048h2.048l-1.024 1.024v2.048l-1.024 1.024-2.048 4.096-1.024 1.024-2.048 1.024h-5.12l-2.048 3.072v4.096zM872.448 333.824l2.048 2.048h3.072l2.048 1.024 1.024 2.048h2.048l1.024 1.024h4.096l1.024-1.024v-3.072l-2.048-2.048-7.168-4.096-4.096-4.096h-2.048l-2.048 1.024-1.024 1.024-1.024 2.048 2.048 3.072zM965.632 358.4l-6.144-3.072-6.144-4.096-1.024-1.024-3.072-1.024-10.24-3.072-3.072-1.024h-3.072l-2.048-2.048-7.168-2.048-28.672-3.072h-2.048l-2.048 1.024-3.072 1.024-1.024 1.024 1.024 1.024 1.024 3.072 1.024 1.024h1.024l1.024 1.024h2.048v1.024l-2.048 3.072-2.048 1.024h-6.144v3.072l-1.024 2.048h-5.12l-1.024-1.024h-1.024v-2.048l1.024-1.024h1.024l1.024-1.024-4.096-4.096h-2.048l-4.096 2.048-1.024 1.024h-2.048l-8.192 3.072h-17.408l-1.024 1.024h-2.048l-2.048 2.048v2.048l-1.024 1.024h-1.024l-2.048-2.048h-1.024l-4.096 1.024h-7.168l1.024-2.048h4.096l1.024-1.024v-1.024l-1.024-1.024v-1.024l1.024-1.024v-1.024h1.024l-1.024-1.024h-1.024l1.024-1.024-10.24 2.048-5.12 3.072h2.048l2.048 2.048-1.024 1.024h-2.048l-1.024 1.024-1.024-1.024v-1.024h1.024l-2.048-1.024h-2.048l-12.288 3.072-14.336 6.144-1.024 1.024h-4.096l2.048 2.048h-1.024v1.024h-1.024l-6.144 1.024h-1.024l-1.024 1.024v3.072l-1.024 4.096-1.024 1.024-1.024 2.048-3.072 1.024-5.12 1.024-3.072 1.024-6.144-3.072-2.048-3.072-2.048-2.048h-2.048l-2.048-2.048v-2.048l2.048-2.048 3.072-2.048 2.048-1.024h6.144l2.048-1.024h2.048v-2.048l-1.024-1.024-3.072-2.048-3.072-4.096h-1.024l-6.144-2.048-11.264 1.024-1.024-1.024-4.096-1.024h-3.072l2.048 2.048 3.072 2.048 3.072 1.024 1.024 3.072v2.048l-1.024 2.048-1.024 3.072-2.048 3.072v4.096l1.024 1.024 3.072 1.024 1.024 1.024 1.024 2.048v7.168l-2.048 3.072-1.024 2.048v6.144l-3.072-2.048-1.024-1.024-2.048 1.024v-1.024l1.024-1.024v-1.024l-3.072-3.072h-6.144l-1.024-1.024-2.048-1.024h-1.024l-1.024 1.024h-1.024l-4.096 5.12-3.072 2.048-2.048 2.048-3.072 1.024h-1.024l-1.024 1.024-2.048 3.072-1.024 1.024-3.072 2.048-2.048 2.048v4.096l1.024 2.048 3.072 4.096 2.048 3.072v2.048h-4.096l-1.024 1.024-1.024 2.048-1.024 1.024h-1.024l-2.048-1.024-2.048-2.048h-2.048l-2.048-1.024h-2.048v-1.024h-1.024l-1.024-1.024-2.048 1.024-4.096-4.096-2.048-1.024-1.024-1.024-2.048-1.024h-2.048l-2.048 2.048v2.048l-1.024 1.024h-1.024v2.048l1.024 2.048 4.096 5.12 2.048 1.024h3.072l2.048 1.024 1.024 1.024 1.024 2.048v3.072l-1.024 1.024h-2.048l-2.048 2.048h-2.048l-3.072-2.048-4.096-1.024-2.048-1.024-5.12-5.12h-2.048l-3.072-1.024h-2.048l-1.024-2.048-1.024-1.024-1.024-2.048 1.024-2.048-1.024-1.024v-4.096l-1.024-3.072-2.048-3.072v-1.024l1.024-1.024v-1.024l1.024-4.096 1.024-3.072-2.048-4.096-4.096-4.096-3.072-1.024-5.12-1.024 1.024-1.024h1.024l1.024-1.024v-1.024h-2.048l-1.024-1.024h-1.024v-3.072h-2.048l-2.048-1.024-2.048-2.048v-1.024h-2.048v-1.024h1.024v-1.024l-1.024-1.024-2.048-1.024h-2.048l-1.024-1.024 10.24 2.048-1.024 1.024 2.048 2.048 3.072 2.048h3.072l2.048 1.024 4.096 1.024 2.048 1.024h-1.024v1.024h5.12l4.096 2.048 3.072 1.024 2.048 1.024 4.096 1.024 7.168 1.024h2.048l5.12 2.048 2.048 1.024 3.072 1.024h5.12l5.12-1.024 5.12-2.048 5.12-3.072 9.216-9.216v-1.024l1.024-1.024v-4.096l-1.024-1.024h-1.024v-1.024l-2.048-6.144v-1.024h-1.024l-3.072-1.024-2.048-2.048-3.072-2.048-2.048-2.048v2.048l-8.192-4.096h-4.096l-2.048-2.048-8.192-4.096-14.336-5.12-5.12-2.048h-7.168l-7.168-1.024h-2.048l-2.048 1.024-3.072 2.048-2.048 1.024 2.048-2.048 1.024-2.048v-1.024h-4.096l-1.024-1.024h-6.144l-2.048-2.048h2.048l3.072 1.024 3.072-1.024 1.024-1.024h-2.048l-2.048-1.024h-1.024l-5.12-3.072v3.072h-1.024l-4.096 2.048-2.048-1.024h-2.048l-2.048-1.024h-3.072l-1.024 1.024-1.024-1.024v-1.024h-1.024v1.024l-1.024 1.024h-4.096l-1.024-1.024v-3.072h-1.024l-2.048-1.024h-2.048l-2.048-1.024-1.024-1.024 10.24 1.024 2.048-1.024h3.072l1.024-1.024 4.096-1.024 1.024-1.024-1.024-2.048-2.048-2.048h-2.048l-1.024-1.024h-1.024v-1.024h-1.024v-1.024h-6.144l-3.072-2.048-1.024-1.024h-2.048l-2.048 1.024-1.024 1.024-3.072 7.168-1.024 2.048v-3.072l1.024-4.096-1.024-1.024-1.024 1.024-2.048-1.024 4.096-2.048 1.024-2.048-1.024-1.024-2.048-1.024-3.072-1.024-4.096 2.048-1.024 1.024h1.024l2.048 2.048h-2.048l-1.024 1.024v1.024l-1.024 2.048-1.024 1.024h-1.024l-2.048 2.048h-1.024v-5.12l1.024-1.024v-2.048l-1.024-1.024-1.024 1.024-3.072 2.048-5.12 6.144-2.048 2.048-1.024 2.048-1.024 1.024h-2.048v-2.048l1.024-1.024v-3.072h1.024l1.024-2.048 4.096-4.096v-1.024h-6.144l-3.072-2.048h-2.048l-3.072 2.048v2.048l1.024 1.024h-1.024v1.024l-2.048 1.024v1.024h-1.024l-1.024 1.024-4.096 2.048-2.048 4.096v1.024l1.024 1.024v1.024h-1.024l-2.048-2.048-1.024-4.096-2.048-1.024h-3.072v1.024h-5.12l-1.024 1.024h-4.096v1.024l1.024 2.048h2.048l1.024 1.024 1.024 2.048v2.048l-2.048-1.024-1.024-2.048h-1.024l-2.048-1.024v1.024l-1.024 1.024v1.024h-1.024l-3.072-1.024h-1.024l-1.024 1.024v3.072l2.048 2.048h-2.048l-2.048 1.024h-1.024l-2.048 1.024 3.072-4.096 1.024-3.072-1.024-1.024h-2.048l-2.048 2.048-3.072 5.12v-1.024l1.024-2.048v-1.024l-1.024-1.024h-3.072l-2.048 1.024-1.024 1.024v1.024h-1.024l-1.024 1.024h-2.048l1.024 1.024v1.024l-3.072-1.024h-2.048l-1.024 1.024v3.072h-4.096l-1.024 1.024-1.024 2.048-2.048 2.048-4.096 1.024h-2.048l-1.024 1.024v1.024l1.024 1.024h9.216l-2.048 1.024h-10.24l-1.024 1.024v2.048l1.024 1.024h1.024l-1.024 1.024v1.024l-1.024 1.024 1.024 1.024-1.024-2.048-1.024-3.072-1.024-1.024-1.024 1.024h-3.072l-2.048 1.024-1.024 1.024v1.024h3.072v1.024h-1.024l-2.048-1.024h-2.048l-2.048 2.048v1.024l-1.024 1.024v1.024h2.048l3.072-1.024h1.024l-1.024 1.024h-1.024l1.024 1.024v1.024h4.096l-1.024 1.024v2.048h-1.024v-2.048h-1.024l-2.048-1.024h-3.072l-2.048 1.024-1.024 1.024-1.024 2.048 1.024 1.024h8.192l-1.024 1.024-10.24 1.024h-1.024l-3.072 3.072h-1.024v1.024h-1.024l1.024 1.024 2.048 1.024h-3.072l-1.024 1.024-2.048 1.024-1.024 1.024v1.024l-1.024 1.024v5.12h3.072l3.072-1.024h3.072l-1.024 1.024-2.048 1.024h-1.024l-5.12 1.024h-2.048l-1.024 1.024v1.024l2.048 2.048v1.024h-3.072v2.048h-1.024l-3.072 5.12-1.024 3.072v3.072l2.048 2.048h2.048l3.072-3.072-2.048 3.072-2.048 2.048h-2.048l-1.024-1.024h-2.048l-2.048 1.024-3.072 2.048v1.024l-1.024 1.024v2.048h1.024l1.024-1.024h1.024l-3.072 3.072h-2.048l-2.048 1.024-4.096 4.096-4.096 5.12-4.096 4.096-1.024 2.048v1.024h2.048v1.024l2.048 2.048h1.024l1.024-1.024 3.072-1.024 3.072-2.048 2.048-1.024-1.024-2.048 2.048-2.048h2.048l1.024 1.024-1.024 1.024-2.048 1.024h2.048v1.024l-1.024 1.024-2.048 1.024h-1.024l-2.048 1.024v3.072h-7.168l-2.048-2.048h-1.024v-1.024h-1.024l-2.048 1.024h-1.024v1.024h-1.024v1.024l-1.024-1.024 1.024-1.024-2.048-1.024h-3.072l-2.048 1.024-1.024 1.024 1.024 1.024h1.024l1.024 1.024-1.024 1.024h-1.024l-2.048 1.024-1.024 1.024 1.024 2.048 3.072 2.048 1.024 1.024-6.144-3.072-3.072-1.024-2.048 1.024h-2.048l-2.048 1.024-3.072 3.072v1.024l1.024 1.024 1.024-1.024h8.192l2.048-1.024 1.024 1.024h-4.096l-1.024 1.024h-1.024v1.024h2.048l-1.024 1.024h-2.048l-2.048-1.024h-2.048l-1.024-1.024-2.048 1.024h-4.096l-1.024 1.024v2.048l2.048-1.024h3.072l-1.024 1.024h-8.192l-3.072 3.072h-2.048l-1.024 2.048 1.024 1.024h2.048l2.048 1.024 4.096 1.024h3.072l2.048-1.024h2.048l-4.096 2.048h-3.072l-2.048-1.024-3.072-1.024h-5.12l-1.024 1.024v2.048l4.096 4.096h-2.048l-1.024 1.024v2.048l2.048 2.048h1.024l1.024 1.024 2.048-1.024h8.192l1.024-1.024v-1.024l1.024 1.024h1.024l2.048 1.024h1.024l2.048-1.024v-2.048l1.024-2.048v4.096h2.048l-2.048 1.024h-2.048l-1.024 1.024v2.048h-1.024l-1.024-2.048h-17.408l-1.024 1.024v5.12l1.024 1.024v1.024h2.048l2.048-2.048h1.024l-2.048 2.048h-1.024l-1.024 2.048v2.048l2.048 2.048h1.024l1.024 1.024h-4.096v1.024l-1.024 3.072v2.048l1.024 1.024 3.072-3.072 6.144-7.168 3.072-2.048 5.12-1.024h-1.024l-3.072 3.072v-1.024h-2.048l-2.048 2.048-1.024 2.048-3.072 3.072v1.024l1.024 1.024h1.024l3.072-1.024-1.024 1.024h-1.024l-2.048 1.024h-1.024v1.024h-1.024l-1.024-1.024-2.048 1.024-1.024 1.024-1.024 2.048v2.048l1.024 2.048h1.024l7.168-4.096 2.048-1.024 1.024-1.024v1.024l-1.024 1.024-2.048 1.024v1.024h-1.024v5.12h3.072l-1.024 1.024h-2.048l-2.048-2.048-1.024 1.024h-1.024v4.096l4.096 4.096 2.048 1.024 1.024 1.024h4.096v1.024l-1.024 1.024v1.024h2.048v-1.024h1.024l1.024 1.024h4.096l5.12-1.024h3.072l2.048-2.048 5.12-4.096 3.072-2.048 1.024-1.024-1.024-1.024 2.048-1.024 2.048-2.048-1.024-1.024h1.024l2.048 2.048h2.048l1.024-1.024v-1.024l2.048-2.048v-4.096h1.024v-3.072l1.024-1.024v5.12l1.024 2.048 2.048 2.048h2.048l2.048 1.024v1.024l-1.024-1.024v11.264h2.048v4.096h1.024v1.024h1.024v1.024h1.024v3.072h1.024v1.024l1.024 3.072h1.024l1.024 2.048 1.024 3.072 3.072 3.072 1.024 2.048 2.048 1.024v1.024l-2.048 1.024 1.024 2.048h-3.072l2.048 2.048 2.048 3.072 1.024 3.072-1.024 3.072h11.264l2.048-1.024 1.024-1.024-1.024-1.024v-3.072l2.048-2.048h3.072v-1.024l1.024-1.024h7.168l1.024 1.024h1.024l4.096-4.096 2.048-6.144v-3.072l1.024-1.024v-1.024l1.024-1.024v-2.048l-1.024-2.048v-3.072l1.024-1.024h1.024v-6.144l-1.024-1.024h1.024v-1.024h2.048l-2.048-1.024-1.024-1.024h-4.096l2.048-1.024 3.072 1.024h2.048l2.048-1.024 4.096-3.072 5.12-2.048 1.024-1.024h1.024l1.024-1.024v-1.024l1.024-1.024h1.024l-1.024-1.024h-1.024l-2.048 1.024h-8.192l-4.096-2.048h-9.216l2.048-1.024h3.072v-1.024h5.12l1.024 1.024h2.048v-1.024h1.024l1.024 1.024h1.024v-2.048l1.024 1.024v3.072h3.072l2.048-1.024 3.072-2.048 3.072-3.072v-3.072l-2.048-2.048h-1.024l-1.024-1.024v-1.024l-2.048-2.048h-1.024l-1.024-1.024-1.024-2.048h-3.072l-2.048-1.024h-1.024l-1.024-1.024v-1.024l-1.024-4.096v-9.216l1.024-1.024-1.024-1.024h2.048l1.024 1.024-1.024-2.048v-3.072l1.024-2.048 2.048-2.048h-1.024l-2.048-2.048v-1.024h3.072v-1.024h1.024l2.048-1.024v-1.024h-1.024l1.024-1.024v-1.024l-1.024-1.024h1.024v1.024l1.024-1.024v1.024h1.024l1.024-1.024 2.048-1.024v-1.024h-2.048l1.024-1.024 2.048-1.024v-1.024h2.048v-1.024h3.072l1.024-1.024 1.024-2.048h2.048v-1.024l1.024 1.024 3.072-3.072h2.048l2.048-2.048 4.096-2.048v-2.048l2.048-3.072 5.12-5.12h-1.024l-2.048-6.144v-2.048l2.048-3.072 1.024-1.024v-2.048l-1.024-2.048h1.024v1.024h1.024v-2.048h-1.024v-1.024h3.072l1.024-1.024v-2.048h2.048v-1.024h1.024v-1.024l1.024-2.048v-2.048h2.048l1.024 1.024 1.024-2.048 1.024 2.048 1.024 1.024h2.048l1.024-1.024h1.024l2.048-1.024 3.072 1.024h6.144l1.024-2.048v4.096h1.024l1.024 1.024h2.048l1.024 1.024 1.024 2.048 1.024 1.024v2.048l-1.024 3.072v1.024l1.024 1.024v2.048l-1.024 1.024v2.048l-4.096-1.024-3.072 3.072-2.048 3.072-4.096 5.12v1.024l-2.048 1.024v1.024l-1.024 1.024h-1.024l-6.144 5.12h-1.024l-3.072 3.072v1.024h-1.024v1.024h-1.024l1.024 1.024v1.024h-1.024v1.024h-2.048l-4.096 1.024-1.024 1.024 1.024 1.024-1.024 1.024-2.048 1.024-2.048 4.096v2.048l2.048 3.072v5.12l2.048 2.048v5.12l1.024 1.024-1.024 1.024v3.072l-1.024 3.072v6.144l1.024 1.024h3.072v1.024l2.048 1.024h2.048l2.048 1.024h1.024v3.072h-1.024v2.048l1.024 1.024 2.048-1.024v-1.024h1.024v-1.024l1.024 1.024 2.048 1.024v1.024l-2.048 2.048h2.048l2.048-2.048h7.168l2.048-1.024h2.048l4.096-2.048 3.072-1.024h1.024l3.072-1.024h4.096v-1.024l-1.024-1.024v-1.024l1.024 1.024h3.072l1.024-1.024v-1.024l1.024-1.024v2.048l-1.024 1.024h4.096l1.024-1.024h1.024l1.024-1.024 1.024 1.024h4.096l1.024-1.024v1.024l1.024-1.024 4.096-1.024h2.048l1.024 1.024v1.024h-1.024l-1.024-1.024 1.024 2.048 1.024 1.024 2.048 1.024 1.024 1.024 2.048 1.024h6.144l3.072 3.072v1.024h-1.024l-3.072-1.024h-5.12l-1.024 1.024h-1.024v1.024h-1.024v1.024h-1.024l-1.024-1.024h-2.048v1.024l-1.024 1.024h-1.024l-1.024-1.024h-1.024v4.096l-2.048 1.024h-7.168l-6.144-1.024-9.216-2.048-1.024 2.048h-6.144l-1.024 1.024h-4.096l-1.024 1.024h-2.048l1.024 1.024h-2.048l-2.048 1.024-1.024 1.024-1.024 2.048v4.096h2.048l-1.024 1.024v1.024l1.024 2.048 1.024 1.024v1.024h1.024l1.024 1.024h2.048l1.024-1.024h2.048v2.048l-2.048 5.12v2.048l1.024 4.096v2.048l-1.024 1.024-1.024 2.048h-1.024l-2.048 1.024h-4.096l-1.024-1.024h-1.024l-2.048-4.096-5.12-5.12h-1.024l-5.12 2.048-2.048 1.024-2.048 2.048-1.024 2.048v2.048l-1.024 1.024v1.024l-2.048 1.024v1.024l-1.024 2.048v6.144l1.024 3.072v1.024l1.024 2.048v8.192l-1.024 1.024h-3.072l-2.048-1.024 4.096-4.096h-1.024l-1.024 2.048-1.024 1.024h-1.024l-1.024 1.024h-4.096l-1.024 1.024v2.048l-1.024 1.024v1.024l-2.048 1.024v1.024h-2.048l-3.072 1.024h-2.048l-2.048-1.024-2.048-2.048-1.024-2.048h1.024l2.048 1.024h1.024l-2.048-2.048h-7.168l-12.288 3.072-1.024 1.024h-1.024l-2.048 2.048h-1.024l-1.024 1.024-6.144 1.024-9.216 3.072h-2.048l-4.096-2.048v1.024l2.048 2.048h4.096l1.024 1.024v2.048l-3.072-1.024-2.048-1.024h-1.024l-1.024-1.024v-2.048l-1.024-1.024h-3.072l-4.096-4.096h-2.048l-1.024-1.024-2.048 1.024h-1.024l-3.072 3.072h-2.048l-1.024 1.024-2.048 1.024-1.024 1.024h-1.024l-2.048-1.024h-3.072v-1.024l2.048-1.024v-2.048h-5.12v-1.024l-5.12-1.024h-1.024l1.024-1.024v-1.024l-3.072-3.072v-1.024l-1.024-1.024h-1.024v-1.024h1.024v-1.024l1.024-1.024v-1.024l-1.024-1.024 4.096-4.096-1.024-1.024h2.048l1.024-1.024v-1.024l1.024-1.024v-2.048h1.024v1.024h2.048l1.024-1.024h1.024l1.024-1.024v-2.048h-4.096l-2.048-1.024v-4.096l1.024-2.048 1.024-1.024v-7.168l1.024-1.024h-1.024l-6.144 3.072-1.024 1.024-1.024 2.048-3.072 2.048h-4.096l-3.072 1.024h-1.024l-1.024 1.024-1.024 2.048-1.024 1.024 1.024 1.024h3.072l1.024-1.024 1.024-2.048 1.024-1.024h2.048l1.024 1.024-1.024 3.072-1.024-1.024-2.048 1.024-2.048 2.048h-1.024l-2.048-1.024h-1.024l-1.024 1.024v3.072l1.024 3.072v1.024l-1.024 3.072v1.024l1.024 1.024 2.048 1.024h1.024l1.024 1.024v2.048l-1.024 1.024 1.024 1.024v2.048l1.024 2.048 2.048 2.048-1.024 2.048h-2.048v2.048l1.024-1.024 2.048 2.048v3.072l1.024 1.024h2.048v0h-7.168v5.12l-1.024-1.024h-2.048v2.048l-1.024-1.024v-1.024l-4.096-2.048h-2.048l-3.072 1.024-1.024 1.024v2.048l1.024 2.048-1.024-1.024-2.048-1.024h-8.192l-3.072 1.024-5.12 4.096-3.072 2.048h-2.048v1.024l-1.024 1.024v1.024l-1.024 3.072v2.048l-5.12 5.12v3.072h1.024l1.024 2.048h-1.024l1.024 1.024h-1.024l-4.096-2.048-2.048 1.024 1.024 1.024 2.048 1.024 4.096 1.024h-8.192l-10.24 5.12h-3.072l-2.048 1.024-2.048 2.048v8.192h-1.024v1.024l-2.048 2.048-2.048 1.024-5.12 2.048h-1.024l-1.024 1.024-2.048 1.024v3.072h3.072l-1.024 1.024-3.072 1.024h-10.24l-2.048-2.048-1.024-2.048v-1.024h-5.12l-1.024 1.024 1.024 1.024 2.048 4.096v3.072l1.024 3.072v1.024l1.024 2.048h-4.096l-1.024-1.024-1.024 1.024h-1.024l-1.024-1.024-1.024 1.024h-3.072v1.024l-3.072-3.072h-1.024l-1.024-1.024h-2.048l-1.024 1.024-2.048 1.024h-6.144l-3.072 1.024-1.024 2.048v1.024h2.048l1.024 1.024h-1.024v1.024h1.024l1.024 1.024-1.024 1.024h-2.048v1.024h1.024l3.072 3.072h1.024l1.024-1.024h1.024l1.024 1.024 6.144 1.024v1.024h2.048v1.024l2.048-1.024v2.048l1.024-1.024 1.024 1.024h1.024v1.024h-1.024v1.024h1.024l1.024 1.024h5.12l1.024 1.024-2.048-1.024h-2.048v2.048h1.024v4.096l2.048 2.048v1.024l1.024 1.024h1.024l1.024 1.024h1.024l2.048 1.024h1.024v6.144l1.024 1.024h-2.048l5.12 5.12 1.024 3.072v2.048l-1.024-1.024v-2.048l-1.024-1.024v-1.024l-1.024-1.024h-1.024l-1.024-1.024-1.024 5.12v5.12h1.024v1.024l-2.048 3.072v5.12l-1.024 5.12-4.096 3.072h-5.12l-3.072-1.024h-3.072l-1.024 1.024h-1.024l-2.048-1.024h-4.096l-6.144 1.024-2.048-1.024-9.216-1.024-2.048-1.024-12.288 1.024h-1.024l-1.024-1.024h-1.024l-1.024-1.024h-1.024l-1.024-1.024-1.024 1.024h-3.072l-1.024 1.024h-1.024v2.048l-1.024 1.024h-2.048l-1.024 1.024h-3.072l-1.024 2.048-1.024 1.024v2.048l3.072 1.024-1.024 1.024v2.048l2.048-1.024v4.096h1.024l-1.024 2.048-1.024 1.024v1.024l1.024 1.024h-1.024v2.048h1.024v3.072l1.024 4.096v4.096l-2.048 9.216-1.024 3.072-1.024 1.024-2.048 4.096-1.024 1.024-1.024 5.12 1.024 1.024v1.024l1.024-1.024h2.048l1.024-3.072 2.048-1.024-2.048 2.048v2.048h-1.024l-1.024 1.024v2.048h4.096l1.024 1.024h-1.024v9.216l-1.024 2.048v2.048l-1.024 2.048h3.072v-1.024h2.048l2.048 1.024h5.12l2.048-1.024h4.096l2.048-1.024h1.024v1.024l1.024 1.024 2.048 1.024 1.024 1.024h1.024l-1.024 1.024v1.024h1.024v1.024l1.024 1.024v2.048l3.072 3.072h3.072l1.024-1.024h1.024l1.024-1.024v-2.048h2.048l1.024-1.024h3.072v-1.024h1.024l1.024-1.024h1.024l1.024-1.024 13.312 1.024 1.024-1.024h6.144l1.024-1.024h1.024v-1.024l1.024-2.048 1.024-1.024 1.024-2.048 1.024-1.024 2.048-1.024h6.144l-1.024-2.048 1.024-3.072 2.048-3.072 2.048-2.048 3.072-1.024 1.024-2.048v-1.024l-2.048-1.024h-1.024v-2.048l-1.024-1.024v-3.072l1.024-3.072 4.096-6.144 3.072-4.096 1.024-1.024 2.048-1.024v-1.024h-1.024l3.072-3.072 2.048-1.024 3.072-1.024h4.096l1.024-1.024h1.024l1.024-2.048h1.024l5.12-3.072 2.048-2.048 1.024-2.048v-1.024l-1.024-1.024h1.024v-2.048l-2.048-4.096v-2.048l1.024-2.048 4.096-4.096 3.072-2.048h3.072l4.096 2.048h2.048l1.024-1.024h1.024l1.024 1.024h1.024l2.048 2.048 2.048 1.024h5.12l4.096-1.024 5.12-5.12 3.072-1.024v-1.024h3.072l1.024-1.024 2.048-1.024 5.12-5.12 2.048-1.024h2.048l1.024 1.024 8.192 3.072 2.048 1.024 1.024 2.048 1.024 1.024v4.096h1.024l1.024 2.048v4.096h2.048v1.024l1.024 1.024 3.072 2.048v3.072h3.072l11.264 11.264 4.096 2.048h4.096l4.096 2.048 2.048 4.096h3.072l1.024 1.024-1.024 1.024h5.12v1.024l1.024 1.024v2.048l1.024 2.048h2.048l4.096 2.048 2.048 2.048 2.048 9.216 1.024 1.024v2.048h-2.048v1.024h-1.024v3.072l-3.072 3.072v1.024l1.024 1.024h3.072l1.024-1.024 1.024-2.048h1.024l1.024-1.024v-1.024l1.024-1.024v-2.048l1.024-1.024v-1.024h1.024v-1.024h3.072l1.024-1.024v-4.096l-1.024-1.024-2.048-1.024-1.024-1.024h-1.024l-1.024-1.024v-3.072l2.048-4.096 2.048-2.048h2.048l1.024 1.024h1.024l3.072 1.024 2.048 1.024v1.024l2.048 2.048 2.048 1.024 1.024-1.024v-3.072l-1.024-2.048-2.048-2.048-10.24-6.144-9.216-4.096h-1.024l-1.024-1.024v-1.024l3.072-3.072v-1.024h-2.048l-1.024-1.024-3.072 1.024h-3.072l-2.048-1.024h-1.024l-3.072-2.048-6.144-6.144-3.072-9.216-2.048-3.072-3.072-2.048-5.12-3.072-3.072-2.048v-1.024l-1.024-2.048v-5.12h1.024l1.024-1.024v-1.024l-2.048-2.048v-4.096l1.024-1.024h2.048l-1.024 1.024h1.024v-1.024l2.048-1.024h1.024l2.048-1.024 1.024-1.024h4.096l1.024 1.024v2.048h-2.048v2.048l1.024 2.048 1.024 3.072 1.024 2.048 2.048-1.024 2.048-4.096v-1.024l1.024-1.024 1.024 1.024 3.072 2.048 1.024 1.024v2.048l1.024 3.072 1.024 2.048 4.096 3.072h-4.096l9.216 9.216h4.096l4.096 2.048h1.024l4.096 4.096 2.048 1.024 1.024 1.024-3.072-1.024-1.024-1.024h-2.048l4.096 2.048 3.072 1.024 7.168 5.12v-1.024h1.024l1.024 2.048 5.12 4.096 2.048 2.048h1.024v1.024l-1.024 4.096v4.096l-1.024 4.096v1.024l1.024 2.048v1.024h-1.024l2.048 2.048 2.048 1.024 2.048 2.048v3.072l7.168 7.168v1.024h4.096v1.024h-3.072l1.024 2.048 1.024 3.072h1.024l1.024 1.024h1.024v-1.024l2.048 2.048h1.024l2.048-1.024h7.168l2.048 2.048h3.072l1.024 1.024-2.048 1.024v1.024l-3.072-1.024-4.096-2.048-3.072-1.024h-2.048v1.024l-1.024 1.024h-1.024l-1.024-1.024v1.024l-1.024 2.048-1.024 1.024 1.024 2.048 2.048 1.024 1.024 1.024v5.12l1.024 2.048 2.048 2.048 1.024-3.072 2.048 1.024 1.024 1.024v3.072h1.024v1.024-2.048l2.048-2.048h1.024l4.096 4.096-2.048-6.144-1.024-4.096-1.024-2.048 1.024-1.024 2.048 1.024v1.024h1.024l1.024 1.024v-1.024h2.048v-1.024l-1.024-1.024h-1.024l-1.024-1.024v-1.024l-1.024-1.024 1.024-1.024 2.048-1.024 4.096 2.048 2.048 2.048 1.024-1.024v-1.024l-3.072-6.144-4.096-1.024-1.024-1.024v-1.024h-1.024l-1.024-1.024-4.096-1.024h-1.024l1.024-1.024h2.048l1.024-1.024h1.024l-1.024-1.024h-1.024v-2.048l1.024-1.024 1.024 1.024h1.024v2.048l1.024-1.024v-1.024l-1.024-1.024-2.048-3.072-3.072-4.096-1.024-1.024v-2.048l2.048-4.096h2.048l-1.024 1.024 1.024 1.024 2.048 1.024 1.024 1.024 1.024 3.072 1.024 1.024 2.048-1.024-1.024-1.024-2.048-1.024v-1.024h3.072l1.024 2.048 1.024 1.024 1.024-1.024v-1.024l-3.072-2.048 1.024-1.024h1.024l2.048 1.024 2.048 2.048v-1.024l-2.048-2.048h-2.048l-1.024-1.024 1.024-1.024-1.024-1.024v-1.024h4.096v-1.024h1.024v-1.024h5.12l2.048-1.024h2.048l6.144 2.048h1.024l2.048 2.048h6.144l-1.024 1.024-3.072 1.024-1.024 1.024v3.072l-1.024 1.024 2.048-1.024 5.12-5.12 2.048-1.024h1.024l1.024-1.024 1.024-2.048 1.024-1.024h5.12v-1.024h2.048l5.12 1.024 2.048-1.024 1.024-2.048-3.072-1.024-4.096-2.048-3.072-3.072v-3.072l-1.024-2.048-4.096-4.096 2.048-3.072h1.024l1.024-1.024v-5.12l2.048-2.048h1.024l1.024-1.024 1.024 1.024 1.024-1.024v-3.072l1.024-6.144v-2.048l2.048-2.048v-1.024h-1.024l1.024-2.048v-2.048l1.024-1.024h1.024v3.072l3.072-1.024h1.024l1.024-1.024v-1.024l1.024-1.024v-5.12l-1.024-1.024v-2.048l1.024-1.024 4.096-1.024 4.096-4.096 2.048-3.072v-1.024l1.024-1.024h1.024l3.072-1.024h1.024v-1.024l2.048-1.024v1.024l1.024 1.024h1.024l1.024-1.024v-3.072l-1.024-2.048v-1.024l1.024 1.024v1.024l1.024 2.048v2.048l2.048 2.048h2.048l2.048-1.024-3.072 2.048h-2.048l-2.048-1.024h-3.072l1.024 1.024h2.048l1.024 1.024v1.024h-1.024l3.072 2.048h2.048l1.024 1.024h1.024l4.096-1.024h2.048l1.024 1.024h3.072v2.048h-1.024l-1.024 1.024h-1.024l-4.096 2.048-3.072 3.072v2.048h1.024l1.024-1.024h1.024l2.048 2.048h1.024v1.024l1.024-1.024 1.024 1.024h1.024v1.024l1.024 1.024v1.024l-1.024 1.024-1.024 2.048v1.024l1.024 2.048h5.12l2.048-1.024 4.096-4.096h4.096l3.072-3.072h5.12l1.024 1.024h2.048l1.024-1.024v-1.024l1.024-1.024 1.024-2.048-3.072-1.024-4.096 1.024h-3.072l-3.072-1.024-1.024-2.048-1.024-1.024-1.024-2.048v-4.096l2.048-2.048 1.024-2.048 1.024 2.048-2.048 2.048h1.024l3.072-4.096h1.024l2.048-2.048h4.096l1.024-1.024h2.048l1.024-1.024h1.024v1.024l2.048-2.048h3.072v-1.024h1.024l1.024-1.024 2.048-1.024h5.12l4.096-2.048h1.024l-1.024 1.024h-1.024l5.12-1.024h2.048v2.048l20.48 1.024 6.144 1.024 9.216 7.168 15.36 7.168 13.312 11.264 8.192 2.048h3.072l1.024-1.024v1.024l1.024-1.024 3.072-8.192 1.024-1.024-1.024-1.024h1.024v1.024h1.024v-1.024h3.072l2.048-1.024h1.024l1.024-2.048h3.072v-2.048l5.12-3.072v-1.024h1.024v-1.024l2.048-1.024h3.072l1.024-1.024 5.12-3.072 5.12-2.048 1.024-1.024h4.096l1.024 1.024 2.048 1.024 3.072 1.024h1.024l2.048-1.024h5.12l2.048 2.048v1.024l8.192-2.048 6.144-6.144v-9.216l3.072-10.24 10.24-8.192v-14.336l-2.048-4.096 2.048-1.024h1.024v-2.048h1.024v-1.024l2.048-1.024 1.024-1.024h1.024v1.024l3.072-1.024 1.024-1.024 1.024 1.024h1.024l2.048 2.048h1.024l3.072-3.072h3.072l3.072 1.024 3.072 4.096 2.048 1.024h3.072l1.024 1.024h1.024v2.048l1.024-1.024h1.024l2.048-2.048v-2.048h1.024v-1.024l3.072 3.072h6.144l2.048-1.024 3.072-3.072v-2.048l1.024-2.048v-2.048h-1.024l-1.024-1.024-3.072-1.024-1.024-1.024h-1.024l-3.072-1.024h-1.024v-1.024l-2.048-2.048h-1.024l-1.024-1.024-1.024-4.096v-6.144l-2.048-17.408 10.24-23.552 5.12-40.96-3.072-14.336-1.024-13.312 4.096-23.552 1.024-22.528 16.384-20.48 21.504-19.456 11.264-17.408 14.336-12.288 7.168-12.288-2.048-7.168h-1.024zM596.992 342.016v0 0zM506.88 570.368h1.024v0h-1.024zM517.12 580.608v0 0zM517.12 575.488v1.024l1.024-2.048v0l-1.024 1.024zM515.072 580.608v0zM569.344 513.024v0 0 0 0 0zM502.784 568.32v0 0zM504.832 579.584v0 0zM669.696 678.912v0 0 0 0 0zM202.752 619.52l2.048-1.024h1.024l4.096-2.048 1.024-1.024-1.024-1.024h5.12v-1.024h2.048v-1.024h1.024l2.048-2.048h4.096v-1.024h1.024l2.048 1.024 2.048-1.024h1.024v-1.024h-1.024v-1.024l2.048-2.048 2.048-6.144v-1.024l-1.024-4.096v-4.096l-1.024-1.024v-2.048l-1.024-1.024v-1.024h3.072v-1.024l2.048-2.048h2.048v-1.024l-1.024-1.024v-2.048l2.048 2.048v-2.048l-1.024-1.024h-3.072l1.024-1.024v-1.024l-2.048-3.072v-1.024l-1.024-1.024h-8.192v1.024h-1.024v1.024h-2.048l2.048-2.048h1.024l-1.024-1.024h-1.024l-1.024-1.024h-1.024l1.024 1.024h-2.048v3.072l-2.048 1.024 1.024-1.024v-2.048h-5.12l-3.072 3.072v1.024l-2.048 2.048h-1.024v1.024h6.144l-1.024 1.024v1.024l-3.072 1.024v1.024h-1.024l1.024 1.024h-7.168l-2.048-1.024h-3.072l-2.048 1.024-1.024 1.024h1.024v1.024h1.024v3.072h3.072v1.024h-2.048l-1.024 1.024v1.024h2.048l-2.048 1.024h-2.048v2.048h3.072l-1.024 1.024h2.048l1.024 1.024h5.12l1.024 1.024h-1.024v1.024h-2.048l-2.048 2.048v1.024l-1.024 2.048-2.048 1.024-1.024 1.024h1.024l3.072-1.024h4.096l1.024-1.024h1.024v1.024h1.024l-8.192 2.048h-1.024l-2.048 2.048 1.024 1.024v1.024h-2.048l-1.024-1.024-2.048 1.024-1.024 1.024h5.12l-2.048 1.024-1.024 1.024-1.024 2.048v1.024h3.072l4.096-1.024h-2.048l-1.024 1.024-1.024 2.048h4.096l-1.024 1.024h-1.024l-1.024 1.024h5.12zM235.52 541.696h1.024v1.024l1.024 1.024v2.048l-1.024 1.024-2.048 1.024 1.024 1.024h-1.024l-2.048 1.024v1.024h1.024l1.024 1.024 2.048 1.024 1.024-1.024h1.024l1.024-1.024 2.048-1.024-2.048 3.072-1.024 1.024-1.024 2.048v1.024l-1.024 3.072 2.048 2.048-3.072 3.072v2.048h2.048l1.024-1.024v-1.024l1.024-2.048v-1.024l-1.024-2.048 3.072-3.072v1.024l-1.024 1.024v2.048l4.096-4.096v1.024l1.024 1.024v1.024h-1.024v3.072l1.024 1.024v2.048l-3.072 6.144h-1.024v1.024l1.024 2.048 1.024 1.024 1.024-2.048h9.216l4.096-2.048h4.096l-3.072 2.048-1.024 3.072v2.048l2.048 3.072h4.096v2.048l-1.024 2.048-1.024 1.024 1.024 1.024-1.024 2.048v1.024l1.024 1.024 2.048 1.024-1.024 1.024v-1.024l-1.024-1.024h-2.048v1.024l1.024 1.024-2.048-1.024h-3.072l-2.048 1.024h-3.072l-6.144 6.144h2.048l3.072-1.024h1.024v2.048l1.024 2.048v1.024l-2.048 3.072-1.024 1.024-2.048 1.024-4.096 1.024-2.048 1.024-1.024 2.048h1.024v2.048l1.024 1.024h3.072l1.024-1.024h3.072l1.024 1.024h1.024l-1.024 1.024h4.096l3.072 3.072h2.048l2.048-2.048 6.144-3.072-3.072 4.096-3.072 2.048-2.048 1.024h-8.192v1.024h-1.024l-1.024 2.048-2.048 1.024v2.048l-1.024 1.024v1.024l-3.072 2.048-4.096 4.096-2.048 1.024-1.024 1.024v1.024l2.048-1.024 1.024 1.024h3.072l1.024-2.048 1.024-1.024h1.024l1.024-1.024h2.048l1.024-1.024h1.024l2.048 1.024 1.024 1.024h3.072v-1.024l1.024-3.072 1.024-2.048h2.048l1.024-1.024h2.048l1.024 1.024h1.024l1.024 1.024h6.144l-1.024-2.048h5.12l2.048-1.024-1.024-1.024 3.072 1.024h9.216l3.072 1.024h2.048l1.024-1.024 2.048-1.024 1.024-1.024h2.048l5.12-5.12-1.024-1.024h-6.144l-2.048-2.048h2.048l1.024-1.024v-2.048h-1.024l1.024-1.024h3.072l1.024-1.024v-1.024l1.024-1.024h1.024v-1.024l1.024-1.024v-1.024l1.024-3.072v-3.072l-2.048-2.048-3.072-1.024-4.096-1.024h-2.048l-2.048 2.048h-1.024l-1.024-1.024h-1.024l3.072-3.072v-2.048l-1.024-1.024v-1.024l-1.024-1.024-2.048-1.024-1.024-1.024h-1.024l-1.024-1.024h1.024l2.048 1.024h2.048l-3.072-3.072v-2.048l1.024-1.024-1.024-1.024-4.096-3.072-1.024-1.024-3.072-1.024-3.072-3.072-3.072-9.216-4.096-4.096-3.072-1.024-2.048-1.024h-3.072l-1.024 1.024h-5.12l-1.024-1.024-2.048-1.024 1.024 1.024h4.096l2.048-1.024 1.024-1.024h1.024l2.048-1.024-2.048-1.024h-4.096l3.072-1.024 2.048-1.024 5.12-5.12 2.048-4.096 1.024-1.024v-1.024l1.024-1.024v-1.024l-1.024-2.048-3.072-1.024-7.168 1.024-4.096-1.024-1.024 1.024-5.12 1.024h-1.024v-1.024l2.048-2.048-1.024-1.024 1.024-2.048 2.048-2.048 3.072-2.048 2.048-2.048h1.024v-3.072h-3.072l-7.168 1.024h-4.096l-1.024 1.024h-1.024l-1.024-1.024h-2.048v4.096h-1.024l-2.048 2.048v2.048l1.024 1.024-2.048 1.024h-1.024l-2.048 2.048v1.024l2.048 2.048h-2.048v2.048z"></path>
</svg>
