<!-- Generated by IcoMoon.io -->
<svg version="1.1" xmlns="http://www.w3.org/2000/svg" width="1462" height="1024" viewBox="0 0 1462 1024">
<g id="icomoon-ignore">
</g>
<path fill="#000" d="M186.562 690.92c-1.491 0-3.063-0.204-4.671-0.607-0.895-0.227-1.754-0.433-2.583-0.632l-6.458-1.562c-8.508-2.049-14.656-3.529-24.378-6.42-2.53-0.754-5.31-1.543-8.246-2.379-30.076-8.556-53.527-16.313-59.135-31.573-2.232-6.072-2.894-15.694 6.64-27.033 0.229-0.272 0.463-0.577 0.691-0.891 0.577-0.793 0.999-1.406 1.306-1.878-0.202-0.263-0.41-0.531-0.604-0.78-0.565-0.728-1.191-1.533-1.869-2.446l-0.92-1.235c-1.365-1.818-2.483-3.274-3.419-4.493-5.694-7.414-7.131-9.693-5.869-17.929 0.508-3.319 1.36-8.874 1.163-20.869-0.195-11.889-2.191-19.586-3.796-25.769-3.24-12.488-4.171-21.409 11.77-31.256 2.954-1.824 6.466-4.261 10.533-7.080 21.366-14.812 57.125-39.603 119.723-52.123 18.52-3.702 35.068-6.895 47.416-9.26 20.027-3.841 42.468-7.078 64.17-10.209 30.415-4.389 61.858-8.925 88.309-15.287 12.788-5.322 29.868-13.529 49.597-23.007 71.847-34.517 180.422-86.68 281.327-97.562 39.092-4.216 78.56-6.354 117.311-6.354 111.731 0 215.868 17.13 309.522 50.91 31.045 11.198 66.026 24.891 103.974 40.702 19.493 8.121 37.079 15.317 52.285 21.393 22.399 4.815 32.070 9.257 35.593 16.304 2.944 5.89 0.534 11.090-0.762 13.885-0.035 0.074-0.074 0.153-0.11 0.236 0.347 0.166 0.709 0.335 1.058 0.498 0.716 0.338 1.511 0.711 2.396 1.138 7.478 3.6 8.823 8.827 9.559 13.872 0.948 6.507 0.026 10.003-1.041 14.052-0.225 0.844-0.472 1.779-0.73 2.858-5.637 23.402 4.99 67.938 10.169 81.717 6.968 18.533 0.173 32.122-2.729 37.926-0.289 0.581-0.544 1.063-0.705 1.451-1.459 3.551-3.237 6.902-4.955 10.145-2.903 5.475-5.646 10.646-6.454 15.955-0.114 0.748-0.326 1.479-0.632 2.171-5.209 11.824-21.199 21.568-33.695 27.659-2.598 1.266-5.109 2.365-7.123 3.25-2.687 1.176-5.125 1.746-7.461 1.746-3.831 0.003-7.188-1.564-9.451-4.408-2.507-3.15-3.35-7.541-2.312-12.047 0.534-2.31 0.962-4.876 1.317-7.85 3.918-32.958-12.301-71.67-39.438-94.141-18.122-15.72-43.886-24.662-70.84-24.662-31.81 0-62.037 12.322-82.981 33.817-25.502 29.577-36.5 68.984-29.424 105.466 0.514 2.654 1.072 5.336 1.631 7.918 1.512 7.013 2.308 14.268-2.103 19.825-4.666 5.881-12.563 6.499-19.597 6.615-1.802 0.030-3.641 0.047-5.512 0.063l-2.259 0.020c-54.413 0.543-135.943 0.586-222.262 0.631-142.726 0.075-304.496 0.158-409.545 2.398l-1.056 0.021c-0.616 0.011-1.233 0.021-1.845 0.043-5.989 0.241-10.294-1.429-13.114-4.976-2.745-3.451-3.47-8.083-2.155-13.769 0.195-0.849 0.359-1.766 0.538-2.738l0.188-1.019c2.344-12.537 5.893-36.511 3.331-56.258-8.75-67.477-63.732-98.21-111.114-98.21-13.432 0-26.254 2.379-38.109 7.071-43.68 17.225-66.764 47.541-72.656 95.411-1.791 14.543 0.977 32.388 3.652 49.646 0.545 3.517 1.091 7.033 1.602 10.533l0.158 1.070c0.164 1.103 0.326 2.204 0.462 3.305 0.647 5.28-0.433 9.551-3.214 12.692-2.455 2.773-6.026 4.299-10.059 4.299zM93.838 594.924c0.576 0.836 1.651 2.236 2.7 3.603 0.97 1.262 2.128 2.771 3.503 4.603l1.025 1.375c0.576 0.778 1.125 1.481 1.619 2.117 5.807 7.47 7.231 12.861-0.375 23.312-0.461 0.634-0.937 1.247-1.422 1.824-2.346 2.791-4.878 6.79-3.674 10.064 3.039 8.269 33.212 16.851 47.712 20.977 3.006 0.854 5.852 1.665 8.441 2.435 9.288 2.762 14.944 4.123 23.503 6.187l5.443 1.315-0.103-0.699c-0.503-3.445-1.041-6.911-1.579-10.379-2.855-18.418-5.808-37.463-3.726-54.378 6.651-54.034 33.931-89.782 83.395-109.289 13.866-5.488 28.815-8.272 44.421-8.272 29.947 0 59.133 10.266 82.183 28.906 25.608 20.71 41.503 49.852 45.967 84.271 2.722 20.987-0.391 45.094-3.481 61.62l-0.176 0.96c-0.072 0.396-0.144 0.783-0.215 1.164l0.578-0.010c105.234-2.245 267.099-2.33 409.908-2.406 86.275-0.045 167.769-0.088 222.101-0.628l2.279-0.022c1.822-0.014 3.613-0.030 5.375-0.061 3.174-0.051 4.988-0.259 6-0.447-0.045-0.943-0.237-2.548-0.808-5.188-0.583-2.701-1.162-5.5-1.702-8.274-8.085-41.692 4.422-86.614 33.459-120.165 0.105-0.122 0.216-0.242 0.328-0.358 24.167-24.919 58.969-39.21 95.483-39.21 31.029 0 60.896 10.475 81.946 28.738 26.379 21.836 50.748 64.184 45.391 109.268-0.090 0.749-0.184 1.479-0.281 2.191 0.242-0.115 0.484-0.232 0.729-0.35 12.545-6.118 22.212-13.213 25.103-18.357 1.434-7.605 4.925-14.188 8.023-20.035 1.599-3.011 3.105-5.854 4.249-8.631 0.283-0.691 0.705-1.564 1.223-2.598 2.373-4.746 6.342-12.686 2.015-24.201-5.138-13.673-17.769-62.807-10.791-91.78 0.292-1.213 0.569-2.267 0.822-3.219 0.885-3.357 1.095-4.156 0.652-7.194-0.058-0.387-0.106-0.693-0.146-0.938-0.779-0.373-1.48-0.703-2.116-1.001-2.948-1.386-5.080-2.39-6.964-4.114-4.15-3.793-5.044-10.086-4.114-14.326 0.39-1.773 1.030-3.276 1.603-4.523-2.532-1.338-8.678-3.749-23.29-6.858-0.478-0.102-0.944-0.242-1.398-0.424-15.438-6.164-33.337-13.485-53.196-21.762-37.693-15.702-72.414-29.296-103.198-40.399-91.777-33.104-193.954-49.89-303.693-49.89-38.138 0-76.988 2.104-115.468 6.254-97.97 10.565-204.944 61.958-275.73 95.967-20.277 9.74-37.789 18.153-51.083 23.651-0.409 0.167-0.829 0.306-1.259 0.41-27.375 6.636-59.491 11.269-90.55 15.75-22.499 3.245-43.75 6.311-63.389 10.078-12.317 2.361-28.822 5.543-47.281 9.234-59.106 11.822-93.034 35.343-113.304 49.396-4.268 2.958-7.952 5.513-11.294 7.577-5.164 3.188-5.581 4.581-5.596 4.64-0.286 1.083 0.624 4.59 1.427 7.684 1.737 6.697 4.116 15.866 4.345 29.804 0.22 13.444-0.769 19.896-1.359 23.751-0.064 0.408-0.136 0.875-0.19 1.26zM304.708 731.713c-59.166 0-107.301-48.134-107.301-107.301 0-59.165 48.135-107.299 107.301-107.299s107.3 48.134 107.3 107.299c0.001 59.167-48.134 107.301-107.3 107.301zM304.708 534.289c-49.694 0-90.123 40.43-90.123 90.123s40.429 90.125 90.123 90.125c49.693 0 90.122-40.432 90.122-90.125s-40.429-90.123-90.122-90.123zM304.708 694.298c-38.535 0-69.886-31.351-69.886-69.886s31.351-69.884 69.886-69.884 69.886 31.349 69.886 69.884-31.351 69.886-69.886 69.886zM304.708 571.705c-29.063 0-52.707 23.646-52.707 52.707 0 29.063 23.645 52.709 52.707 52.709s52.707-23.646 52.707-52.709c0-29.062-23.644-52.707-52.707-52.707zM1200.534 694.298c-38.534 0-69.886-31.351-69.886-69.886s31.352-69.884 69.886-69.884c38.537 0 69.886 31.349 69.886 69.884s-31.348 69.886-69.886 69.886zM1200.534 571.705c-29.062 0-52.707 23.646-52.707 52.707 0 29.063 23.646 52.709 52.707 52.709 29.064 0 52.709-23.646 52.709-52.709 0-29.062-23.644-52.707-52.709-52.707zM1200.534 731.713c-59.165 0-107.301-48.134-107.301-107.301 0-59.165 48.136-107.299 107.301-107.299 59.167 0 107.302 48.134 107.302 107.299 0 59.167-48.135 107.301-107.302 107.301zM1200.534 534.289c-49.691 0-90.12 40.43-90.12 90.123s40.429 90.125 90.12 90.125c49.694 0 90.123-40.432 90.123-90.125s-40.428-90.123-90.123-90.123zM778.006 430.72l-141.43 2.816c-3.499 0.146-7.127 0.677-10.449 2.012-0.853 0.343-1.382 0.637-2.024 0.779-1.037 0.234-2.614 0.165-3.231-0.843-0.935-1.521-0.718-0.558-0.737-4.482-0.047-9.993-4.343-18.894-14.521-22.332-6.722-2.273-15.777-3.355-22.813-3.91-5.327-0.418-8.809-0.581-13.539 2.613-6.564 4.432-13.539 12.902-18.192 19.141-0.753 1.009-1.445 1.959-2.064 2.823-0.634 0.885-1.108 1.749-1.663 2.36-1.66 1.837-39.008 2.506-53.602 3.247-14.606 0.742-11.793 14.344-3.952 14.203 13.115-0.236 32.959-0.86 37.733-1.136 2.022-0.116 10.902-1.61 15.688-0.889 1.39 0.208 2.852 0.442 4.358 0.691 12.265 2.030 27.466 5.139 31.235 5.52 5.827 0.59 28.44-3.377 35.65-4.945 4.816-1.048 86.334-3.736 151.592-5.969l11.961-11.699zM1206.023 378.14c0 0-8.925-5.545-16.886 4.58-4.984 6.342-15.604 11.652-22.785 14.664-29.021 12.166-79.075 16.822-113.314 19.8-40.853 3.554-124.868 8.020-173.485 10.47l-5.467 10.358c53.014-2.646 140.317-7.343 209.069-13.367 40.025-4.256 84.429-10.35 107.893-28.4 4.941-3.802 11.004-9.157 14.364-14.425 1.033-1.623 1.087-2.761 0.611-3.68zM911.198 325.252l-159.61 156.155 76.241 16.908-105.499 154.478 196.038-183.179-73.125-19.425 65.955-124.937z"></path>
</svg>
