<!-- Generated by IcoMoon.io -->
<svg version="1.1" xmlns="http://www.w3.org/2000/svg" width="1024" height="1024" viewBox="0 0 1024 1024">
<g id="icomoon-ignore">
</g>
<path d="M918.528 463.872v0c-7.168-79.872-61.44-158.72-84.992-192.512l-5.12-8.192c-22.528-33.792-23.552-68.608-22.528-72.704v-30.72l-52.224-1.024 1.024 33.792c0 44.032 47.104 90.112 47.104 90.112 107.52 126.976 98.304 230.4 79.872 325.632-12.288 64.512-60.416 113.664-93.184 145.408-6.144 6.144-11.264 11.264-15.36 16.384-11.264 12.288-28.672 19.456-46.080 19.456h-430.080c-17.408 0-34.816-7.168-46.080-19.456-4.096-5.12-9.216-10.24-15.36-16.384-32.768-31.744-80.896-80.896-93.184-145.408-18.432-95.232-27.648-198.656 77.824-323.584 6.144-6.144 50.176-50.176 50.176-92.16v-33.792l-52.224 1.024 1.024 31.744c0 1.024 0 37.888-23.552 71.68l-5.12 8.192c-23.552 33.792-77.824 112.64-84.992 193.536s-5.12 187.392 78.848 294.912c0 0 0 0 0 0s6.144 6.144 12.288 12.288 19.456 28.672 21.504 45.056l6.144 48.128h47.104v-41.984h86.016v41.984h46.080v-41.984h84.992v41.984h47.104v-41.984h84.992v41.984h46.080l1.024-41.984h84.992v41.984h47.104l6.144-48.128c2.048-16.384 10.24-32.768 21.504-45.056 6.144-6.144 12.288-12.288 12.288-13.312 83.968-106.496 87.040-212.992 78.848-293.888zM373.76 658.432l12.288 11.264-24.576 25.6h276.48l-41.984-45.056c-32.768 22.528-72.704 31.744-112.64 26.624-44.032-6.144-82.944-28.672-109.568-63.488-27.648-34.816-38.912-78.848-33.792-122.88 6.144-44.032 28.672-82.944 63.488-110.592 34.816-26.624 78.848-38.912 122.88-32.768 44.032 5.12 82.944 27.648 109.568 63.488 6.144 7.168 11.264 15.36 16.384 24.576l9.216 18.432-21.504 16.384 63.488 8.192 8.192-63.488-23.552 18.432-15.36-23.552c-3.072-6.144-8.192-12.288-12.288-18.432-30.72-39.936-75.776-66.56-126.976-73.728l-4.096-1.024c-52.224-6.144-103.424 7.168-145.408 39.936-40.96 31.744-67.584 77.824-74.752 130.048-6.144 52.224 7.168 104.448 39.936 145.408 7.168 9.216 15.36 18.432 24.576 26.624z"></path>
</svg>
