<!-- Generated by IcoMoon.io -->
<svg version="1.1" xmlns="http://www.w3.org/2000/svg" width="1024" height="1024" viewBox="0 0 1024 1024">
<g id="icomoon-ignore">
</g>
<path d="M837.632 187.392h-1.024c-86.016-87.040-204.8-136.192-324.608-136.192-122.88 0-240.64 49.152-324.608 135.168-86.016 87.040-136.192 205.824-136.192 325.632s49.152 238.592 136.192 324.608c86.016 87.040 204.8 136.192 324.608 136.192 122.88 0 240.64-49.152 324.608-135.168 87.040-87.040 136.192-205.824 136.192-325.632 0-122.88-49.152-240.64-135.168-324.608zM818.176 818.176c-79.872 80.896-189.44 125.952-306.176 125.952s-225.28-45.056-306.176-125.952c-80.896-80.896-125.952-189.44-125.952-306.176s45.056-226.304 125.952-306.176c80.896-80.896 189.44-125.952 306.176-125.952s226.304 45.056 306.176 125.952c80.896 79.872 125.952 189.44 125.952 306.176s-45.056 225.28-125.952 306.176zM289.792 614.4h33.792v-80.896h84.992v-28.672h-84.992v-53.248h90.112v-29.696h-123.904zM579.584 510.976c7.168-8.192 11.264-19.456 11.264-33.792 0-10.24-2.048-18.432-6.144-25.6s-9.216-13.312-15.36-17.408c-7.168-4.096-14.336-7.168-22.528-9.216-9.216-2.048-17.408-3.072-26.624-3.072h-66.56v192.512h33.792v-81.92h25.6l44.032 81.92h40.96l-51.2-84.992c14.336-3.072 24.576-9.216 32.768-18.432zM530.432 503.808c-5.12 1.024-10.24 1.024-15.36 1.024h-27.648v-54.272h30.72c5.12 0 9.216 1.024 14.336 1.024 4.096 1.024 8.192 2.048 12.288 4.096 3.072 2.048 6.144 5.12 8.192 8.192 3.072 3.072 4.096 8.192 4.096 13.312s-1.024 10.24-4.096 14.336c-2.048 3.072-6.144 6.144-9.216 8.192-4.096 2.048-8.192 3.072-13.312 4.096zM609.28 451.584h58.368v162.816h34.816v-162.816h58.368v-29.696h-151.552z"></path>
</svg>
