<!-- Generated by IcoMoon.io -->
<svg version="1.1" xmlns="http://www.w3.org/2000/svg" width="1024" height="1024" viewBox="0 0 1024 1024">
<g id="icomoon-ignore">
</g>
<path d="M887.808 770.048h-2.048v-603.136c0-23.552-19.456-43.008-43.008-43.008h-329.728c-23.552 0-43.008 19.456-43.008 43.008v243.712c-30.72 9.216-57.344 28.672-75.776 55.296-24.576 33.792-31.744 77.824-20.48 117.76 14.336 52.224 14.336 118.784-10.24 144.384-9.216 8.192-21.504 13.312-33.792 13.312-6.144 0-12.288-1.024-19.456-4.096-19.456-3.072-35.84-15.36-44.032-32.768-26.624-61.44 32.768-175.104 46.080-197.632 4.096-7.168 114.688-179.2 0-281.6-16.384-17.408-107.52-108.544-185.344-108.544-4.096 0-8.192 1.024-12.288 1.024-6.144 1.024-12.288 4.096-16.384 9.216s-5.12 11.264-5.12 18.432c2.048 11.264 12.288 20.48 24.576 20.48 1.024 0 2.048 0 2.048 0 14.336-1.024 28.672 1.024 41.984 6.144l-14.336 17.408c-7.168 9.216-11.264 20.48-9.216 31.744s6.144 21.504 15.36 28.672l72.704 58.368c8.192 6.144 17.408 9.216 27.648 9.216h3.072c11.264-1.024 21.504-7.168 28.672-15.36l13.312-17.408c49.152 78.848-26.624 196.608-27.648 197.632l-1.024 1.024c-3.072 6.144-87.040 151.552-48.128 240.64 14.336 31.744 44.032 54.272 77.824 59.392 10.24 2.048 21.504 4.096 31.744 4.096h3.072c22.528 0 45.056-9.216 61.44-25.6 41.984-44.032 37.888-130.048 22.528-190.464-13.312-44.032 9.216-91.136 50.176-110.592v309.248h-1.024c-23.552 0-41.984 19.456-43.008 43.008v51.2c0 23.552 19.456 43.008 43.008 43.008h419.84c23.552 0 43.008-19.456 43.008-43.008v-51.2c0-23.552-19.456-43.008-43.008-43.008zM516.096 770.048v-599.040h322.56v599.040h-322.56zM884.736 817.152v43.008h-411.648v-43.008h411.648zM268.288 248.832l-14.336 22.528-67.584-54.272 16.384-20.48 65.536 52.224zM777.216 198.656h-199.68c-23.552 0-43.008 19.456-43.008 43.008v199.68c0 23.552 19.456 43.008 43.008 43.008h199.68c23.552 0 43.008-19.456 43.008-43.008v-199.68c0-23.552-19.456-43.008-43.008-43.008zM773.12 245.76v191.488h-191.488v-191.488h191.488zM754.688 521.216h-153.6c-13.312 0-23.552 10.24-23.552 23.552 0 12.288 10.24 23.552 23.552 23.552h153.6c13.312 0 23.552-11.264 23.552-23.552 0-13.312-10.24-23.552-23.552-23.552z"></path>
</svg>
