<!-- Generated by IcoMoon.io -->
<svg version="1.1" xmlns="http://www.w3.org/2000/svg" width="1024" height="1024" viewBox="0 0 1024 1024">
<g id="icomoon-ignore">
</g>
<path d="M289.792 362.496c2.048 3.072 5.12 5.12 8.192 5.12 0 0 1.024 0 1.024 0 3.072 0 6.144-1.024 8.192-3.072 15.36-22.528 34.816-41.984 57.344-58.368 2.048-1.024 4.096-5.12 4.096-8.192-1.024-3.072-3.072-6.144-6.144-8.192l-113.664-54.272c-4.096-2.048-9.216-1.024-12.288 2.048-2.048 2.048-3.072 7.168-1.024 10.24l54.272 114.688zM339.968 301.056c-14.336 11.264-27.648 24.576-38.912 38.912l-36.864-75.776 75.776 36.864zM252.928 564.224c2.048 0 4.096-1.024 6.144-3.072s4.096-5.12 3.072-8.192c-2.048-14.336-3.072-27.648-3.072-40.96s1.024-26.624 3.072-40.96c1.024-3.072-1.024-6.144-3.072-8.192-3.072-3.072-6.144-3.072-9.216-2.048l-119.808 41.984c-4.096 1.024-7.168 5.12-7.168 9.216s3.072 8.192 7.168 9.216l119.808 41.984c1.024 0 2.048 1.024 3.072 1.024zM240.64 539.648l-78.848-27.648 78.848-27.648c-1.024 9.216-1.024 18.432-1.024 27.648s0 18.432 1.024 27.648zM364.544 716.8c-22.528-15.36-41.984-34.816-57.344-57.344-2.048-2.048-6.144-4.096-9.216-4.096-3.072 1.024-6.144 3.072-8.192 6.144l-54.272 113.664c-2.048 4.096-1.024 9.216 2.048 12.288 2.048 1.024 4.096 2.048 6.144 2.048s3.072 0 5.12-1.024l113.664-54.272c3.072-2.048 5.12-5.12 6.144-8.192 0-3.072-2.048-7.168-4.096-9.216zM264.192 759.808l36.864-75.776c11.264 14.336 24.576 27.648 38.912 38.912l-75.776 36.864zM552.96 761.856c-27.648 4.096-54.272 4.096-81.92 0-3.072-1.024-6.144 1.024-8.192 3.072s-3.072 6.144-2.048 9.216l41.984 119.808c1.024 4.096 5.12 7.168 9.216 7.168s8.192-3.072 9.216-7.168l41.984-119.808c1.024-3.072 1.024-6.144-2.048-9.216-2.048-2.048-5.12-4.096-8.192-3.072zM512 862.208l-27.648-78.848c18.432 2.048 36.864 2.048 55.296 0l-27.648 78.848zM734.208 661.504c-2.048-3.072-5.12-5.12-8.192-6.144-3.072 0-7.168 2.048-8.192 4.096-16.384 22.528-35.84 41.984-58.368 57.344-2.048 2.048-4.096 6.144-3.072 9.216 0 3.072 2.048 6.144 5.12 8.192l114.688 54.272c1.024 1.024 2.048 1.024 3.072 1.024 3.072 0 6.144-1.024 8.192-3.072 2.048-3.072 3.072-7.168 1.024-11.264l-54.272-113.664zM684.032 722.944c14.336-11.264 27.648-24.576 38.912-38.912l36.864 75.776-75.776-36.864zM893.952 502.784l-119.808-41.984c-3.072-1.024-6.144-1.024-9.216 2.048s-4.096 5.12-3.072 8.192c2.048 14.336 3.072 27.648 3.072 40.96s-1.024 26.624-3.072 40.96c-1.024 3.072 1.024 6.144 3.072 8.192s4.096 3.072 6.144 3.072c1.024 0 2.048-1.024 3.072-1.024l119.808-41.984c4.096-1.024 7.168-5.12 7.168-9.216s-3.072-8.192-7.168-9.216zM783.36 539.648c1.024-9.216 1.024-18.432 1.024-27.648s0-18.432-1.024-27.648l78.848 27.648-78.848 27.648zM659.456 306.176c22.528 16.384 41.984 35.84 58.368 58.368 1.024 2.048 4.096 3.072 7.168 3.072 0 0 1.024 0 1.024 0 3.072 0 6.144-2.048 8.192-5.12l54.272-114.688c2.048-3.072 1.024-8.192-2.048-11.264s-7.168-3.072-10.24-1.024l-114.688 54.272c-3.072 2.048-5.12 5.12-5.12 8.192-1.024 3.072 1.024 7.168 3.072 8.192zM759.808 264.192l-36.864 75.776c-11.264-14.336-24.576-27.648-38.912-38.912l75.776-36.864zM471.040 262.144c27.648-4.096 54.272-4.096 81.92 0 0 0 1.024 0 1.024 0 3.072 0 6.144-1.024 7.168-3.072 3.072-3.072 3.072-6.144 2.048-9.216l-41.984-119.808c-1.024-4.096-5.12-7.168-9.216-7.168s-8.192 3.072-9.216 7.168l-41.984 119.808c-1.024 3.072 0 6.144 2.048 9.216 2.048 2.048 5.12 4.096 8.192 3.072zM512 161.792l27.648 78.848c-9.216-1.024-18.432-1.024-27.648-1.024s-18.432 0-27.648 1.024l27.648-78.848zM512 314.368c-108.544 0-197.632 89.088-197.632 197.632s89.088 197.632 197.632 197.632 197.632-89.088 197.632-197.632c0-108.544-89.088-197.632-197.632-197.632zM512 690.176c-98.304 0-178.176-79.872-178.176-178.176s79.872-178.176 178.176-178.176c98.304 0 178.176 79.872 178.176 178.176s-79.872 178.176-178.176 178.176z"></path>
</svg>
