<!-- Generated by IcoMoon.io -->
<svg version="1.1" xmlns="http://www.w3.org/2000/svg" width="1024" height="1024" viewBox="0 0 1024 1024">
<g id="icomoon-ignore">
</g>
<path d="M354.304 435.2c-6.144-4.096-13.312-7.168-22.528-9.216-8.192-2.048-18.432-3.072-29.696-3.072h-62.464v190.464h34.816v-78.848h25.6c10.24 0 19.456-1.024 28.672-3.072s17.408-5.12 23.552-9.216c7.168-5.12 12.288-10.24 16.384-17.408s6.144-16.384 6.144-26.624c0-10.24-2.048-18.432-5.12-25.6-4.096-7.168-8.192-13.312-15.36-17.408zM336.896 491.52c-2.048 4.096-6.144 7.168-9.216 9.216-4.096 2.048-9.216 3.072-14.336 4.096-4.096 1.024-10.24 1.024-15.36 1.024h-23.552v-54.272h24.576c5.12 0 10.24 0 15.36 1.024 5.12 0 9.216 1.024 13.312 3.072s7.168 5.12 9.216 8.192c2.048 4.096 3.072 8.192 3.072 14.336 0 5.12-1.024 10.24-3.072 13.312zM579.584 444.416c-9.216-8.192-19.456-15.36-32.768-19.456s-25.6-7.168-40.96-7.168c-14.336 0-28.672 2.048-40.96 7.168s-23.552 11.264-31.744 19.456c-9.216 9.216-16.384 19.456-21.504 31.744s-8.192 26.624-8.192 40.96c0 15.36 3.072 28.672 8.192 40.96s12.288 23.552 21.504 31.744c8.192 9.216 19.456 16.384 31.744 21.504s26.624 7.168 40.96 7.168c15.36 0 28.672-2.048 40.96-7.168 13.312-5.12 23.552-12.288 32.768-21.504 9.216-8.192 16.384-19.456 21.504-31.744s8.192-25.6 8.192-40.96c0-14.336-3.072-28.672-8.192-40.96s-12.288-22.528-21.504-31.744zM567.296 545.792c-3.072 8.192-7.168 16.384-13.312 22.528s-13.312 11.264-21.504 14.336c-8.192 4.096-16.384 5.12-26.624 5.12s-18.432-1.024-26.624-5.12c-7.168-3.072-14.336-8.192-20.48-14.336s-10.24-14.336-13.312-22.528c-3.072-8.192-5.12-18.432-5.12-28.672 0-9.216 2.048-18.432 5.12-26.624 3.072-9.216 7.168-16.384 13.312-22.528s12.288-11.264 20.48-15.36 17.408-5.12 26.624-5.12c10.24 0 19.456 2.048 27.648 5.12 8.192 4.096 14.336 9.216 20.48 15.36s10.24 13.312 13.312 22.528 5.12 17.408 5.12 26.624c0 10.24-2.048 20.48-5.12 28.672zM775.168 510.976c8.192-8.192 11.264-19.456 11.264-33.792 0-10.24-2.048-18.432-5.12-25.6s-9.216-12.288-16.384-16.384c-6.144-5.12-14.336-8.192-22.528-10.24-8.192-1.024-17.408-2.048-25.6-2.048h-66.56v190.464h33.792v-80.896h24.576l44.032 80.896h40.96l-50.176-83.968c13.312-3.072 23.552-9.216 31.744-18.432zM726.016 503.808c-4.096 1.024-9.216 1.024-14.336 1.024h-27.648v-53.248h30.72c4.096 0 9.216 0 13.312 1.024s9.216 2.048 12.288 4.096c4.096 2.048 6.144 4.096 9.216 7.168 2.048 4.096 3.072 8.192 3.072 13.312 0 6.144-1.024 10.24-4.096 14.336-2.048 3.072-5.12 6.144-9.216 8.192s-8.192 3.072-13.312 4.096zM865.28 159.744v-1.024c-94.208-93.184-223.232-147.456-353.28-147.456-133.12 0-261.12 54.272-352.256 147.456-94.208 94.208-148.48 223.232-148.48 353.28s54.272 259.072 147.456 353.28c94.208 93.184 223.232 147.456 353.28 147.456 133.12 0 261.12-54.272 352.256-147.456 94.208-94.208 148.48-223.232 148.48-353.28 0-133.12-54.272-261.12-147.456-352.256zM844.8 844.8c-88.064 88.064-205.824 136.192-332.8 136.192s-244.736-48.128-332.8-136.192c-88.064-88.064-136.192-205.824-136.192-332.8s48.128-244.736 136.192-332.8c88.064-88.064 205.824-136.192 332.8-136.192s244.736 48.128 332.8 136.192c88.064 88.064 136.192 205.824 136.192 332.8s-48.128 244.736-136.192 332.8z"></path>
</svg>
