<!-- Generated by IcoMoon.io -->
<svg version="1.1" xmlns="http://www.w3.org/2000/svg" width="1024" height="1024" viewBox="0 0 1024 1024">
<g id="icomoon-ignore">
</g>
<path d="M1018.88 568.32c-2.048-28.672-19.456-54.272-51.2-72.704-113.664-66.56-278.528-100.352-376.832-119.808-27.648-6.144-50.176-10.24-62.464-14.336-2.048 0-3.072-1.024-5.12-2.048 23.552-12.288 143.36-27.648 240.64-32.768 5.12 0 8.192-4.096 8.192-8.192s-3.072-8.192-7.168-8.192c-121.856-7.168-286.72-7.168-379.904 28.672-15.36 7.168-23.552 16.384-23.552 26.624 0 27.648 55.296 53.248 146.432 91.136 41.984 18.432 119.808 51.2 120.832 64.512-21.504 49.152-274.432 103.424-477.184 148.48-48.128 10.24-96.256 20.48-140.288 30.72-4.096 1.024-7.168 5.12-6.144 9.216s4.096 8.192 8.192 8.192v0l507.904-1.024c1.024 0 1.024 0 2.048 0h400.384c2.048 0 4.096-1.024 5.12-2.048 62.464-52.224 94.208-102.4 90.112-146.432zM920.576 699.392h-246.784l92.16-56.32h-90.112l-134.144 56.32h-20.48c0 0 0 0-1.024 0l-429.056 1.024c20.48-5.12 41.984-9.216 63.488-14.336 283.648-61.44 471.040-106.496 490.496-159.744 0-1.024 1.024-1.024 1.024-2.048 3.072-24.576-45.056-46.080-132.096-82.944-54.272-22.528-135.168-57.344-135.168-75.776 0-3.072 4.096-7.168 12.288-10.24 30.72-12.288 69.632-19.456 112.64-24.576-10.24 2.048-20.48 4.096-29.696 6.144-14.336 3.072-34.816 6.144-46.080 16.384-5.12 5.12-7.168 10.24-2.048 16.384 5.12 4.096 9.216 9.216 14.336 12.288 11.264 8.192 26.624 14.336 46.080 22.528 22.528 8.192 48.128 16.384 76.8 24.576l33.792-6.144c-39.936-11.264-77.824-21.504-105.472-31.744-19.456-7.168-34.816-14.336-43.008-20.48-4.096-3.072-9.216-5.12-9.216-7.168-5.12-5.12 6.144-10.24 9.216-11.264 7.168-3.072 15.36-6.144 25.6-8.192 22.528-5.12 49.152-11.264 80.896-15.36 10.24-2.048 22.528-3.072 34.816-4.096 6.144 0 13.312 0 19.456-1.024-94.208 13.312-103.424 23.552-105.472 33.792-2.048 12.288 14.336 18.432 19.456 20.48 13.312 4.096 35.84 8.192 64.512 14.336 97.28 20.48 260.096 53.248 371.712 117.76 26.624 16.384 40.96 35.84 43.008 59.392 3.072 37.888-25.6 82.944-81.92 130.048zM795.648 487.424l-36.864 6.144c6.144 2.048 11.264 5.12 16.384 7.168 14.336 6.144 49.152 23.552 47.104 39.936l31.744 1.024c-2.048-32.768-43.008-49.152-58.368-54.272zM642.048 436.224c-10.24-3.072-20.48-6.144-29.696-9.216l-33.792 7.168c18.432 5.12 36.864 10.24 55.296 16.384 3.072 1.024 5.12 1.024 8.192 2.048l34.816-6.144c-12.288-4.096-23.552-7.168-34.816-10.24zM775.168 479.232c-23.552-9.216-50.176-18.432-78.848-26.624l-34.816 6.144c27.648 9.216 53.248 17.408 76.8 26.624l36.864-6.144zM722.944 619.52h75.776c24.576-20.48 45.056-41.984 53.248-62.464h-37.888c-15.36 18.432-49.152 39.936-91.136 62.464z"></path>
</svg>
