<!-- Generated by IcoMoon.io -->
<svg version="1.1" xmlns="http://www.w3.org/2000/svg" width="1024" height="1024" viewBox="0 0 1024 1024">
<g id="icomoon-ignore">
</g>
<path d="M403.456 260.096l-101.376 247.808c-35.84-28.672-69.632-56.32-92.16-74.752-2.048-2.048-5.12-2.048-8.192-2.048s-4.096 3.072-5.12 6.144l-111.616 324.608h-25.6c-5.12 0-8.192 4.096-8.192 8.192s3.072 8.192 8.192 8.192h906.24c4.096 0 7.168-4.096 7.168-8.192s-3.072-8.192-7.168-8.192h-22.528l-226.304-321.536c0-1.024-3.072-4.096-7.168-4.096v0c0 0-1.024 0-1.024 0-1.024 1.024-3.072 1.024-4.096 3.072l-115.712 112.64c-67.584-132.096-149.504-284.672-155.648-294.912 0 0-16.384-23.552-27.648-1.024l-2.048 4.096zM707.584 457.728l6.144 7.168 197.632 282.624 11.264 14.336h-506.88l185.344-198.656 93.184-90.112 13.312-15.36zM199.68 480.256l8.192-26.624c136.192 110.592 198.656 161.792 235.52 192.512l43.008 30.72c4.096 1.024 8.192-2.048 8.192-6.144 1.024-4.096-1.024-7.168-3.072-9.216-7.168-4.096-91.136-73.728-175.104-142.336l101.376-249.856c2.048-3.072 3.072-2.048 4.096 0 6.144 7.168 78.848 146.432 144.384 274.432l12.288 22.528-183.296 195.584h-292.864l97.28-281.6zM509.952 350.208l5.12 27.648c1.024 2.048 2.048 3.072 4.096 3.072 0 1.024 1.024 1.024 1.024 1.024l28.672 1.024c1.024 0 3.072-1.024 4.096-2.048l13.312-14.336c1.024-2.048 1.024-3.072 1.024-5.12l-8.192-26.624c0-1.024-2.048-3.072-4.096-3.072l-24.576-3.072c-2.048 0-3.072 0-4.096 1.024l-14.336 16.384c-1.024 1.024-2.048 3.072-2.048 4.096zM531.456 338.944l19.456 2.048 6.144 20.48-10.24 11.264-22.528-1.024-4.096-20.48 11.264-12.288zM549.888 433.152c0 1.024 1.024 2.048 2.048 2.048l13.312 3.072c0 0 0 0 0 0 2.048 1.024 3.072 0 4.096-2.048l6.144-12.288c1.024-1.024 1.024-2.048 0-3.072l-4.096-8.192c0-2.048-1.024-3.072-3.072-3.072l-12.288-1.024c-2.048-1.024-3.072 0-4.096 1.024l-6.144 10.24c-1.024 1.024-1.024 3.072 0 4.096l4.096 9.216zM557.056 416.768l8.192 1.024 2.048 5.12-4.096 7.168-7.168-2.048-2.048-5.12 3.072-6.144zM579.584 448.512c5.12 1.024 6.144-7.168 1.024-8.192s-6.144 7.168-1.024 8.192zM137.216 567.296c5.12 0 5.12-8.192 0-8.192s-5.12 8.192 0 8.192zM915.456 678.912l3.072 14.336c1.024 2.048 2.048 3.072 3.072 3.072l17.408 8.192c0 0 0 0 1.024 0 1.024 1.024 3.072 0 4.096-1.024l12.288-15.36c1.024-1.024 1.024-3.072 1.024-4.096l-3.072-13.312c-1.024-2.048-2.048-3.072-3.072-3.072l-18.432-6.144c-1.024-1.024-3.072 0-4.096 1.024l-12.288 12.288c-1.024 1.024-1.024 3.072-1.024 4.096zM932.864 670.72l13.312 4.096 2.048 9.216-9.216 11.264-12.288-6.144-2.048-9.216 8.192-9.216zM935.936 649.216c5.12 1.024 7.168-7.168 1.024-9.216-5.12-1.024-7.168 8.192-1.024 9.216zM536.576 405.504c5.12 1.024 7.168-7.168 2.048-8.192s-7.168 7.168-2.048 8.192zM862.208 596.992c6.144 2.048 7.168-7.168 2.048-8.192s-7.168 7.168-2.048 8.192zM498.688 343.040c5.12 1.024 7.168-7.168 2.048-8.192s-7.168 7.168-2.048 8.192zM893.952 644.096c1.024 1.024 3.072 1.024 5.12 0l20.48-10.24c2.048-1.024 3.072-2.048 3.072-3.072l3.072-16.384c1.024-1.024 0-3.072-1.024-4.096l-15.36-15.36c-2.048-2.048-4.096-2.048-6.144-1.024l-18.432 7.168c-2.048 0-3.072 2.048-3.072 3.072l-4.096 17.408c0 1.024 0 3.072 1.024 4.096l14.336 17.408c0 0 1.024 0 1.024 1.024zM890.88 609.28l13.312-5.12 11.264 11.264-2.048 10.24-15.36 7.168-10.24-11.264 3.072-12.288zM112.64 589.824c1.024 0 2.048 0 3.072-1.024l9.216-10.24c0-1.024 1.024-2.048 1.024-2.048l-2.048-9.216c0-1.024-1.024-2.048-2.048-3.072l-11.264-4.096c-1.024-1.024-3.072-1.024-3.072 0l-9.216 8.192c0 1.024-1.024 2.048-1.024 3.072l2.048 9.216c0 1.024 1.024 2.048 1.024 2.048l12.288 6.144c0 1.024 0 1.024 0 1.024zM103.424 571.392l6.144-5.12 9.216 3.072 1.024 6.144-7.168 7.168-8.192-4.096-1.024-7.168zM129.024 546.816c0 0 0 0 0 0 2.048 0 3.072-1.024 4.096-2.048l6.144-10.24c0-1.024 1.024-3.072 0-4.096l-3.072-7.168c0-1.024-1.024-2.048-3.072-3.072l-11.264-1.024c-1.024-1.024-3.072 0-4.096 1.024l-5.12 9.216c-1.024 1.024-1.024 2.048-1.024 3.072l4.096 8.192c0 1.024 1.024 2.048 2.048 3.072l11.264 3.072zM119.808 531.456l3.072-5.12 7.168 1.024 2.048 5.12-4.096 6.144-6.144-2.048-2.048-5.12zM150.528 503.808c-6.144-1.024-8.192 9.216-2.048 10.24 6.144 2.048 8.192-8.192 2.048-10.24z"></path>
</svg>
