<!-- Generated by IcoMoon.io -->
<svg version="1.1" xmlns="http://www.w3.org/2000/svg" width="1024" height="1024" viewBox="0 0 1024 1024">
<g id="icomoon-ignore">
</g>
<path d="M837.632 187.392h-1.024c-86.016-87.040-204.8-136.192-324.608-136.192-122.88 0-240.64 49.152-324.608 135.168-86.016 87.040-136.192 205.824-136.192 325.632s49.152 238.592 136.192 324.608 204.8 136.192 324.608 136.192c122.88 0 240.64-49.152 324.608-135.168 87.040-87.040 136.192-205.824 136.192-325.632 0-122.88-49.152-240.64-135.168-324.608zM818.176 818.176c-79.872 80.896-189.44 125.952-306.176 125.952s-225.28-45.056-306.176-125.952c-80.896-80.896-125.952-189.44-125.952-306.176s45.056-226.304 125.952-306.176c80.896-80.896 189.44-125.952 306.176-125.952s226.304 45.056 306.176 125.952c80.896 80.896 125.952 189.44 125.952 306.176s-45.056 225.28-125.952 306.176zM336.896 558.080h-1.024l-49.152-136.192h-53.248v191.488h31.744v-153.6h1.024l57.344 153.6h23.552l58.368-153.6v153.6h33.792v-191.488h-53.248zM572.416 458.752h-27.648v59.392h-59.392v27.648h59.392v59.392h27.648v-59.392h59.392v-27.648h-59.392zM780.288 518.144c-5.12-4.096-11.264-7.168-18.432-10.24s-12.288-4.096-18.432-6.144c-5.12-2.048-10.24-3.072-15.36-5.12-4.096-1.024-8.192-3.072-11.264-5.12-3.072-3.072-5.12-5.12-7.168-8.192s-3.072-7.168-3.072-11.264c0-5.12 1.024-8.192 3.072-12.288 2.048-3.072 5.12-6.144 8.192-8.192s7.168-3.072 11.264-4.096 7.168-2.048 11.264-2.048c7.168 0 13.312 2.048 20.48 5.12s11.264 7.168 15.36 12.288l21.504-24.576c-7.168-7.168-16.384-12.288-25.6-15.36-10.24-4.096-20.48-5.12-29.696-5.12s-17.408 1.024-25.6 3.072c-8.192 2.048-16.384 6.144-22.528 10.24-7.168 5.12-12.288 10.24-16.384 17.408s-6.144 15.36-6.144 25.6c0 8.192 2.048 16.384 5.12 22.528 2.048 6.144 6.144 11.264 11.264 15.36 4.096 4.096 9.216 7.168 15.36 9.216 5.12 3.072 11.264 5.12 17.408 7.168 5.12 2.048 11.264 4.096 16.384 5.12 6.144 2.048 10.24 4.096 14.336 7.168 4.096 2.048 7.168 5.12 9.216 8.192 3.072 3.072 4.096 7.168 4.096 12.288s-1.024 10.24-3.072 13.312c-2.048 3.072-5.12 6.144-8.192 9.216-3.072 2.048-7.168 4.096-11.264 5.12s-8.192 1.024-12.288 1.024c-7.168 0-15.36-2.048-23.552-6.144-7.168-3.072-13.312-8.192-18.432-15.36l-24.576 23.552c8.192 8.192 17.408 15.36 29.696 19.456 11.264 5.12 23.552 7.168 35.84 7.168 10.24 0 18.432-1.024 27.648-3.072 8.192-3.072 15.36-7.168 21.504-12.288s11.264-11.264 15.36-18.432c4.096-8.192 6.144-16.384 6.144-26.624s-2.048-17.408-6.144-23.552c-3.072-7.168-7.168-12.288-13.312-16.384z"></path>
</svg>
