<!-- Generated by IcoMoon.io -->
<svg version="1.1" xmlns="http://www.w3.org/2000/svg" width="1024" height="1024" viewBox="0 0 1024 1024">
<g id="icomoon-ignore">
</g>
<path d="M223.232 317.44c2.048 4.096 6.144 7.168 10.24 7.168 0 0 1.024 0 1.024 0 4.096 0 8.192-2.048 10.24-5.12 20.48-28.672 46.080-54.272 74.752-74.752 4.096-3.072 5.12-7.168 5.12-11.264s-3.072-8.192-7.168-10.24l-148.48-71.68c-5.12-2.048-11.264-1.024-15.36 3.072-3.072 3.072-4.096 9.216-2.048 14.336l71.68 148.48zM287.744 236.544c-18.432 15.36-35.84 32.768-51.2 51.2l-47.104-98.304 98.304 47.104zM174.080 579.584c3.072 0 6.144-1.024 8.192-3.072 4.096-3.072 5.12-7.168 4.096-11.264-2.048-18.432-4.096-35.84-4.096-53.248s2.048-34.816 4.096-53.248c1.024-4.096 0-8.192-4.096-11.264-3.072-3.072-8.192-4.096-12.288-2.048l-155.648 54.272c-5.12 2.048-8.192 7.168-8.192 12.288s3.072 10.24 8.192 12.288l155.648 54.272c2.048 1.024 3.072 1.024 4.096 1.024zM158.72 547.84l-102.4-35.84 102.4-35.84c-1.024 11.264-1.024 23.552-1.024 35.84s0 23.552 1.024 35.84zM319.488 779.264c-28.672-20.48-54.272-46.080-74.752-74.752-3.072-4.096-7.168-5.12-11.264-5.12s-8.192 3.072-10.24 7.168l-71.68 148.48c-2.048 5.12-1.024 11.264 3.072 15.36 2.048 2.048 5.12 3.072 8.192 3.072 2.048 0 4.096 0 6.144-1.024l148.48-71.68c4.096-2.048 7.168-6.144 7.168-10.24s-1.024-8.192-5.12-11.264zM189.44 834.56l47.104-98.304c15.36 18.432 32.768 35.84 51.2 51.2l-98.304 47.104zM565.248 837.632c-35.84 5.12-70.656 5.12-106.496 0-4.096-1.024-8.192 0-11.264 4.096s-4.096 8.192-2.048 12.288l54.272 155.648c2.048 5.12 7.168 8.192 12.288 8.192s10.24-3.072 12.288-8.192l54.272-155.648c2.048-4.096 1.024-9.216-2.048-12.288-3.072-4.096-7.168-5.12-11.264-4.096zM512 967.68l-35.84-102.4c23.552 2.048 48.128 2.048 71.68 0l-35.84 102.4zM800.768 706.56c-2.048-4.096-6.144-7.168-10.24-7.168s-8.192 1.024-11.264 5.12c-20.48 28.672-46.080 54.272-74.752 74.752-3.072 3.072-5.12 7.168-5.12 11.264s3.072 8.192 7.168 10.24l148.48 71.68c2.048 1.024 4.096 1.024 5.12 1.024 4.096 0 7.168-1.024 10.24-4.096s4.096-9.216 2.048-14.336l-71.68-148.48zM736.256 787.456c18.432-15.36 35.84-32.768 51.2-51.2l47.104 98.304-98.304-47.104zM1009.664 499.712l-155.648-54.272c-4.096-2.048-9.216-1.024-12.288 2.048s-5.12 7.168-4.096 11.264c2.048 18.432 4.096 35.84 4.096 53.248s-2.048 34.816-4.096 53.248c-1.024 4.096 1.024 8.192 4.096 11.264 2.048 2.048 5.12 3.072 8.192 3.072 1.024 0 3.072 0 4.096-1.024l155.648-54.272c5.12-2.048 8.192-7.168 8.192-12.288 0-6.144-3.072-10.24-8.192-12.288zM865.28 547.84c1.024-12.288 1.024-23.552 1.024-35.84s0-24.576-1.024-35.84l102.4 35.84-102.4 35.84zM704.512 244.736c28.672 20.48 54.272 46.080 74.752 74.752 2.048 3.072 6.144 5.12 10.24 5.12 0 0 1.024 0 1.024 0 4.096 0 8.192-3.072 10.24-7.168l71.68-148.48c2.048-5.12 1.024-11.264-3.072-15.36-3.072-3.072-9.216-4.096-14.336-2.048l-148.48 71.68c-4.096 2.048-7.168 6.144-7.168 10.24s2.048 8.192 5.12 11.264zM834.56 189.44l-47.104 98.304c-15.36-18.432-32.768-35.84-51.2-51.2l98.304-47.104zM458.752 186.368c35.84-5.12 70.656-5.12 106.496 0 0 0 1.024 1.024 2.048 1.024 3.072 0 7.168-2.048 9.216-5.12 3.072-3.072 4.096-8.192 2.048-12.288l-54.272-155.648c-2.048-5.12-7.168-8.192-12.288-8.192s-10.24 3.072-12.288 8.192l-54.272 155.648c-2.048 4.096-1.024 9.216 2.048 12.288s7.168 5.12 11.264 4.096zM512 56.32l35.84 102.4c-11.264-1.024-23.552-1.024-35.84-1.024s-23.552 0-35.84 1.024l35.84-102.4zM512 254.976c-141.312 0-257.024 115.712-257.024 257.024s115.712 257.024 257.024 257.024c141.312 0 257.024-115.712 257.024-257.024s-115.712-257.024-257.024-257.024zM512 743.424c-128 0-231.424-103.424-231.424-231.424s103.424-231.424 231.424-231.424c128 0 231.424 103.424 231.424 231.424s-103.424 231.424-231.424 231.424z"></path>
</svg>
