<!-- Generated by IcoMoon.io -->
<svg version="1.1" xmlns="http://www.w3.org/2000/svg" width="1024" height="1024" viewBox="0 0 1024 1024">
<g id="icomoon-ignore">
</g>
<path d="M793.6 370.688l7.168 36.864c1.024 3.072 3.072 5.12 5.12 6.144 1.024 0 1.024 0 1.024 0l39.936 1.024c2.048 1.024 4.096 0 5.12-2.048l18.432-20.48c2.048-1.024 2.048-4.096 2.048-6.144l-11.264-35.84c-1.024-3.072-3.072-5.12-6.144-5.12l-33.792-5.12c-2.048 0-4.096 1.024-6.144 3.072l-19.456 21.504c-2.048 2.048-2.048 4.096-2.048 6.144zM823.296 354.304l25.6 4.096 9.216 27.648-14.336 15.36-30.72-1.024-5.12-29.696 15.36-16.384zM862.208 495.616l5.12 22.528c0 2.048 2.048 4.096 4.096 4.096l26.624 13.312c1.024 0 1.024 0 2.048 0 2.048 1.024 5.12 0 7.168-2.048l18.432-24.576c1.024-2.048 2.048-4.096 2.048-6.144l-5.12-20.48c-1.024-3.072-2.048-5.12-4.096-5.12l-28.672-10.24c-2.048-1.024-5.12 0-7.168 2.048l-18.432 20.48c-2.048 1.024-2.048 3.072-2.048 6.144zM889.856 481.28l20.48 7.168 3.072 14.336-14.336 17.408-19.456-8.192-3.072-16.384 13.312-14.336zM893.952 441.344c1.024 2.048 3.072 3.072 5.12 4.096l21.504 5.12c0 0 0 0 0 0 3.072 0 6.144-1.024 7.168-4.096l11.264-20.48c0-2.048 1.024-4.096 0-6.144l-7.168-14.336c-1.024-2.048-2.048-3.072-5.12-4.096l-21.504-3.072c-3.072 0-5.12 1.024-7.168 4.096l-10.24 16.384c-1.024 2.048-1.024 4.096 0 6.144l6.144 16.384zM908.288 412.672l13.312 2.048 3.072 8.192-6.144 12.288-13.312-3.072-4.096-9.216 7.168-10.24zM949.248 488.448c8.192 2.048 11.264-11.264 3.072-13.312-9.216-2.048-12.288 11.264-3.072 13.312zM831.488 446.464c9.216 2.048 11.264-11.264 3.072-13.312-9.216-2.048-11.264 11.264-3.072 13.312zM796.672 340.992c8.192 1.024 11.264-12.288 2.048-14.336-8.192-1.024-11.264 12.288-2.048 14.336zM927.744 377.856c8.192 2.048 11.264-12.288 2.048-13.312-8.192-2.048-11.264 11.264-2.048 13.312zM28.672 716.8c2.048 1.024 5.12 2.048 8.192 0l32.768-15.36c2.048-1.024 3.072-3.072 4.096-6.144l5.12-24.576c1.024-2.048 0-5.12-2.048-7.168l-24.576-24.576c-2.048-2.048-6.144-3.072-8.192-2.048l-29.696 12.288c-3.072 1.024-5.12 3.072-5.12 5.12l-6.144 26.624c-1.024 3.072 0 5.12 1.024 7.168l22.528 26.624c1.024 1.024 1.024 1.024 2.048 2.048zM23.552 662.528l21.504-8.192 17.408 17.408-4.096 16.384-23.552 12.288-15.36-19.456 4.096-18.432zM93.184 636.928c0 0 0 0 0 0 3.072 2.048 7.168 2.048 9.216 0l21.504-16.384c2.048-2.048 3.072-4.096 3.072-6.144l1.024-18.432c0-3.072-2.048-6.144-4.096-7.168l-21.504-14.336c-2.048-2.048-6.144-2.048-8.192 0l-20.48 13.312c-2.048 1.024-3.072 3.072-3.072 6.144l-1.024 19.456c0 3.072 1.024 5.12 3.072 7.168l20.48 16.384zM86.016 598.016l12.288-7.168 13.312 9.216-1.024 10.24-12.288 9.216-12.288-9.216v-12.288zM146.432 550.912c-8.192-6.144-18.432 6.144-10.24 12.288s18.432-6.144 10.24-12.288zM1009.664 757.76h-26.624l-221.184-367.616c-10.24-18.432-33.792-25.6-52.224-15.36l-31.744 15.36-130.048-130.048c-8.192-8.192-19.456-12.288-30.72-11.264-11.264 0-22.528 6.144-29.696 14.336l-179.2 221.184-4.096-2.048c-17.408-7.168-36.864-2.048-48.128 12.288l-204.8 263.168h-27.648c-5.12 0-9.216 4.096-9.216 9.216s4.096 8.192 9.216 8.192h986.112c5.12 0 9.216-4.096 9.216-8.192 0-5.12-4.096-9.216-9.216-9.216zM197.632 757.76l71.68-130.048c1.024-2.048 2.048-4.096 1.024-6.144s-2.048-4.096-4.096-6.144c-4.096-2.048-9.216 0-12.288 4.096l-76.8 138.24h-104.448l196.608-252.928c7.168-8.192 18.432-11.264 27.648-7.168l86.016 36.864 104.448 223.232h-289.792zM505.856 757.76l-105.472-227.328 69.632-58.368c8.192-7.168 20.48-7.168 29.696 1.024l327.68 284.672h-321.536zM854.016 757.76l-218.112-189.44 20.48-69.632c0-3.072 0-5.12-1.024-7.168s-3.072-3.072-5.12-4.096-4.096 0-6.144 1.024c-2.048 1.024-4.096 3.072-4.096 5.12l-18.432 62.464-110.592-96.256c-15.36-13.312-36.864-13.312-52.224-1.024l-70.656 59.392-63.488-26.624 176.128-217.088c4.096-5.12 10.24-8.192 17.408-8.192s12.288 2.048 17.408 6.144l130.048 131.072-8.192 27.648c0 2.048 0 4.096 1.024 6.144s3.072 4.096 5.12 4.096c2.048 1.024 5.12 1.024 7.168 0 2.048-2.048 3.072-3.072 4.096-5.12l8.192-29.696 33.792-16.384c11.264-6.144 24.576-2.048 30.72 8.192l215.040 359.424h-108.544z"></path>
</svg>
