<!-- Generated by IcoMoon.io -->
<svg version="1.1" xmlns="http://www.w3.org/2000/svg" width="1024" height="1024" viewBox="0 0 1024 1024">
<g id="icomoon-ignore">
</g>
<path d="M940.032 538.624h54.272c6.144 0 11.264-5.12 11.264-10.24v-112.64c0-6.144-5.12-11.264-11.264-11.264h-293.888l-67.584-313.344c-1.024-4.096-5.12-8.192-10.24-8.192h-221.184c-5.12 0-9.216 4.096-10.24 8.192l-67.584 313.344h-293.888c-6.144 0-10.24 5.12-10.24 11.264v112.64c0 5.12 4.096 10.24 10.24 10.24h55.296l12.288 103.424c1.024 5.12 5.12 9.216 10.24 9.216h84.992c5.12 0 10.24-4.096 10.24-9.216l13.312-103.424h79.872l-83.968 389.12c0 3.072 0 6.144 2.048 9.216 2.048 2.048 5.12 4.096 8.192 4.096h579.584c3.072 0 6.144-2.048 8.192-4.096 2.048-3.072 2.048-6.144 2.048-9.216l-82.944-389.12h78.848l13.312 103.424c0 5.12 5.12 9.216 10.24 9.216h84.992c5.12 0 9.216-4.096 10.24-9.216l13.312-103.424zM409.6 104.448h204.8l64.512 300.032h-156.672v-275.456c0-4.096-4.096-8.192-10.24-8.192s-10.24 4.096-10.24 8.192v275.456h-155.648l63.488-300.032zM788.48 919.552h-552.96l81.92-380.928h184.32v351.232c0 5.12 4.096 9.216 10.24 9.216s10.24-4.096 10.24-9.216v-351.232h184.32l81.92 380.928zM919.552 526.336l-12.288 103.424h-66.56l-12.288-103.424c-1.024-5.12-5.12-9.216-11.264-9.216h-305.152c0 0 0 0 0 0h-305.152c-6.144 0-10.24 4.096-11.264 9.216l-12.288 103.424h-66.56l-12.288-103.424c-1.024-5.12-5.12-9.216-10.24-9.216h-54.272v-91.136h944.128v91.136h-54.272c-5.12 0-9.216 4.096-10.24 9.216z"></path>
</svg>
