<!-- Generated by IcoMoon.io -->
<svg version="1.1" xmlns="http://www.w3.org/2000/svg" width="1024" height="1024" viewBox="0 0 1024 1024">
<g id="icomoon-ignore">
</g>
<path d="M869.376 534.528h46.080c5.12 0 9.216-4.096 9.216-9.216v-94.208c0-5.12-4.096-9.216-9.216-9.216h-245.76l-56.32-262.144c-1.024-4.096-4.096-6.144-8.192-6.144h-185.344c-4.096 0-8.192 2.048-9.216 6.144l-56.32 262.144h-245.76c-5.12 0-9.216 4.096-9.216 9.216v94.208c0 5.12 4.096 9.216 9.216 9.216h46.080l10.24 86.016c1.024 4.096 4.096 8.192 9.216 8.192h70.656c4.096 0 8.192-4.096 8.192-8.192l11.264-86.016h66.56l-69.632 325.632c-1.024 2.048 0 5.12 2.048 7.168 1.024 2.048 4.096 3.072 6.144 3.072h485.376c2.048 0 5.12-1.024 6.144-3.072 2.048-2.048 3.072-5.12 2.048-7.168l-69.632-325.632h66.56l11.264 86.016c0 4.096 4.096 8.192 8.192 8.192h70.656c5.12 0 8.192-4.096 9.216-8.192l10.24-86.016zM427.008 171.008h171.008l53.248 250.88h-130.048v-230.4c0-4.096-4.096-7.168-9.216-7.168s-9.216 3.072-9.216 7.168v230.4h-130.048l54.272-250.88zM743.424 852.992h-462.848l68.608-318.464h153.6v292.864c0 5.12 4.096 8.192 9.216 8.192s9.216-3.072 9.216-8.192v-292.864h153.6l68.608 318.464zM852.992 524.288l-10.24 86.016h-55.296l-11.264-86.016c0-4.096-4.096-8.192-8.192-8.192h-256c0 0 0 0 0 0h-256c-4.096 0-8.192 4.096-8.192 8.192l-11.264 86.016h-55.296l-10.24-86.016c-1.024-4.096-4.096-8.192-9.216-8.192h-45.056v-75.776h790.528v75.776h-45.056c-5.12 0-8.192 4.096-9.216 8.192z"></path>
</svg>
