<!-- Generated by IcoMoon.io -->
<svg version="1.1" xmlns="http://www.w3.org/2000/svg" width="1024" height="1024" viewBox="0 0 1024 1024">
<g id="icomoon-ignore">
</g>
<path d="M803.84 524.288c-50.176 0-90.112 40.96-90.112 90.112s39.936 90.112 90.112 90.112c49.152 0 90.112-39.936 90.112-90.112 0-49.152-40.96-90.112-90.112-90.112zM803.84 681.984c-36.864 0-67.584-30.72-67.584-67.584s30.72-66.56 67.584-66.56c36.864 0 66.56 29.696 66.56 66.56s-29.696 67.584-66.56 67.584zM176.128 524.288c-50.176 0-90.112 40.96-90.112 90.112s39.936 90.112 90.112 90.112c49.152 0 90.112-39.936 90.112-90.112 0-49.152-40.96-90.112-90.112-90.112zM176.128 681.984c-36.864 0-67.584-30.72-67.584-67.584s30.72-66.56 67.584-66.56c36.864 0 66.56 29.696 66.56 66.56s-29.696 67.584-66.56 67.584zM1013.76 528.384v-5.12c0-4.096 0-7.168-1.024-9.216-2.048-11.264-13.312-14.336-13.312-14.336v-61.44c0-17.408-16.384-21.504-16.384-21.504h-360.448v111.616h-6.144v-187.392c0-19.456-25.6-17.408-25.6-17.408h-178.176c-30.72 0-65.536 22.528-65.536 22.528l-102.4 74.752-151.552 12.288c-50.176 5.12-65.536 36.864-69.632 58.368v27.648c0 0-10.24-1.024-13.312 9.216v0 33.792c13.312 9.216 24.576 22.528 29.696 37.888h27.648c7.168-53.248 52.224-94.208 107.52-94.208s101.376 40.96 108.544 94.208h410.624c7.168-53.248 53.248-94.208 107.52-94.208 53.248 0 97.28 37.888 107.52 87.040l59.392-13.312 45.056-35.84v-15.36zM90.112 498.688c0 8.192-7.168 15.36-15.36 15.36h-43.008v-22.528c1.024-9.216 5.12-19.456 12.288-28.672h30.72c8.192 0 15.36 7.168 15.36 15.36v20.48zM464.896 409.6c0 6.144-5.12 11.264-11.264 11.264h-166.912l76.8-62.464c18.432-9.216 22.528-12.288 35.84-12.288h54.272c6.144 0 11.264 5.12 11.264 11.264v52.224zM592.896 412.672c0 4.096-3.072 8.192-8.192 8.192h-88.064c-4.096 0-8.192-4.096-8.192-8.192v-58.368c0-5.12 4.096-8.192 8.192-8.192h88.064c5.12 0 8.192 3.072 8.192 8.192v58.368zM946.176 441.344c0 3.072-2.048 5.12-4.096 5.12h-299.008c-2.048 0-4.096-2.048-4.096-5.12v0c0-2.048 2.048-4.096 4.096-4.096h299.008c2.048 0 4.096 2.048 4.096 4.096v0zM991.232 498.688h-9.216c-9.216 0-16.384-7.168-16.384-16.384v-29.696c0-9.216 7.168-16.384 16.384-16.384h9.216c0 1.024 0 1.024 0 2.048v60.416z"></path>
</svg>
