<!-- Generated by IcoMoon.io -->
<svg version="1.1" xmlns="http://www.w3.org/2000/svg" width="1462" height="1024" viewBox="0 0 1462 1024">
<g id="icomoon-ignore">
</g>
<path d="M260.096 548.864c-57.344 0-104.448 47.104-104.448 104.448s47.104 103.424 104.448 103.424c57.344 0 104.448-46.080 104.448-103.424s-47.104-104.448-104.448-104.448zM260.096 736.256c-46.080 0-83.968-36.864-83.968-82.944s37.888-83.968 83.968-83.968c46.080 0 83.968 37.888 83.968 83.968s-37.888 82.944-83.968 82.944zM1139.712 548.864c-57.344 0-103.424 47.104-103.424 104.448s46.080 103.424 103.424 103.424 104.448-46.080 104.448-103.424c0-57.344-46.080-104.448-104.448-104.448zM1139.712 736.256c-46.080 0-82.944-36.864-82.944-82.944s36.864-83.968 82.944-83.968 83.968 37.888 83.968 83.968c0 46.080-36.864 82.944-83.968 82.944zM260.096 516.096c-75.776 0-136.192 61.44-136.192 137.216 0 74.752 60.416 136.192 136.192 136.192s136.192-61.44 136.192-136.192c0-75.776-61.44-137.216-136.192-137.216zM260.096 769.024c-64.512 0-115.712-52.224-115.712-115.712 0-64.512 51.2-116.736 115.712-116.736 63.488 0 115.712 52.224 115.712 116.736 0 63.488-52.224 115.712-115.712 115.712zM67.584 522.24h50.176c17.408 0 32.768-14.336 32.768-31.744v-28.672c0-17.408-15.36-32.768-32.768-32.768l-27.648 2.048c-3.072 0-5.12 2.048-7.168 4.096-11.264 14.336-21.504 29.696-24.576 46.080l-1.024 30.72c0 3.072 2.048 5.12 3.072 7.168 2.048 2.048 5.12 3.072 7.168 3.072zM130.048 490.496c0 6.144-6.144 11.264-12.288 11.264h-39.936v-18.432c2.048-9.216 10.24-20.48 18.432-31.744l21.504-2.048c6.144 1.024 12.288 6.144 12.288 12.288v28.672zM414.72 391.168h246.784c7.168 0 13.312-2.048 18.432-7.168s8.192-12.288 8.192-19.456v-71.68c0-15.36-12.288-26.624-26.624-26.624h-80.896c-21.504 0-41.984 7.168-58.368 19.456l-113.664 88.064c-3.072 2.048-4.096 7.168-3.072 11.264s5.12 6.144 9.216 6.144zM580.608 286.72h80.896c3.072 0 6.144 2.048 6.144 6.144v71.68c0 4.096-3.072 7.168-6.144 7.168h-216.064l89.088-69.632c13.312-10.24 29.696-15.36 46.080-15.36zM1444.864 531.456v-6.144c0-6.144 0-11.264-1.024-15.36-2.048-10.24-8.192-18.432-18.432-20.48v-83.968c0-26.624-21.504-36.864-33.792-39.936h-503.808v-96.256c0-25.6-22.528-34.816-44.032-34.816h-250.88c-46.080 0-97.28 32.768-99.328 33.792l-140.288 103.424-209.92 16.384c-78.848 8.192-101.376 60.416-107.52 92.16v30.72c-6.144 2.048-11.264 6.144-14.336 13.312-2.048 1.024-4.096 4.096-4.096 7.168v48.128c0 3.072 2.048 6.144 5.12 8.192 17.408 11.264 30.72 28.672 36.864 48.128 2.048 4.096 5.12 7.168 10.24 7.168h38.912c5.12 0 9.216-4.096 10.24-8.192 9.216-70.656 69.632-123.904 140.288-123.904 71.68 0 132.096 53.248 141.312 123.904 1.024 4.096 5.12 8.192 10.24 8.192h576.512c5.12 0 9.216-4.096 10.24-8.192 9.216-70.656 69.632-123.904 141.312-123.904 67.584 0 125.952 48.128 139.264 113.664 0 3.072 2.048 5.12 4.096 7.168 3.072 1.024 5.12 2.048 8.192 1.024l83.968-18.432c1.024 0 3.072-1.024 4.096-2.048l63.488-51.2c2.048-2.048 3.072-5.12 3.072-8.192v-21.504c0 0 0 0 0 0zM56.32 482.304c6.144-29.696 26.624-66.56 89.088-73.728l211.968-16.384c2.048-1.024 4.096-1.024 5.12-2.048l142.336-105.472c1.024 0 48.128-29.696 88.064-29.696h248.832c0 0 2.048 0 2.048 0 7.168 0 23.552 1.024 23.552 14.336v262.144c0 6.144 5.12 10.24 11.264 10.24s10.24-4.096 10.24-10.24v-145.408h500.736c2.048 0 15.36 4.096 15.36 19.456v93.184c0 2.048 1.024 5.12 3.072 7.168s5.12 3.072 7.168 3.072c1.024 0 1.024 0 1.024 0 6.144 0 7.168 3.072 7.168 5.12 1.024 3.072 1.024 7.168 1.024 11.264v6.144c0 1.024 1.024 1.024 1.024 1.024v16.384l-58.368 46.080-71.68 15.36c-18.432-70.656-82.944-119.808-156.672-119.808-78.848 0-145.408 55.296-159.744 132.096h-560.128c-14.336-76.8-80.896-132.096-159.744-132.096-77.824 0-145.408 55.296-159.744 132.096h-22.528c-8.192-19.456-21.504-35.84-38.912-48.128v-37.888c1.024 0 1.024-1.024 1.024-2.048 1.024-3.072 3.072-5.12 6.144-5.12s6.144-1.024 8.192-3.072c2.048-1.024 3.072-4.096 3.072-7.168v-36.864zM1139.712 516.096c-74.752 0-136.192 61.44-136.192 137.216 0 74.752 61.44 136.192 136.192 136.192s137.216-61.44 137.216-136.192c0-75.776-61.44-137.216-137.216-137.216zM1139.712 769.024c-63.488 0-115.712-52.224-115.712-115.712 0-64.512 52.224-116.736 115.712-116.736 64.512 0 116.736 52.224 116.736 116.736 0 63.488-52.224 115.712-116.736 115.712zM1391.616 499.712c6.144 0 10.24-4.096 10.24-10.24v-83.968c0 0 0-2.048 0-2.048 0-6.144-5.12-10.24-10.24-10.24h-1.024c-18.432 0-32.768 14.336-32.768 32.768v41.984c0 17.408 14.336 31.744 33.792 31.744zM1381.376 417.792v58.368c-2.048-3.072-3.072-5.12-3.072-8.192v-41.984c0-3.072 1.024-6.144 3.072-8.192zM915.456 427.008h418.816c9.216 0 16.384-7.168 16.384-16.384s-7.168-16.384-16.384-16.384h-418.816c-9.216 0-16.384 7.168-16.384 16.384s7.168 16.384 16.384 16.384zM718.848 391.168h114.688c12.288 0 21.504-9.216 21.504-21.504v-81.92c0-12.288-9.216-21.504-21.504-21.504h-114.688c-12.288 0-22.528 9.216-22.528 21.504v81.92c0 12.288 10.24 21.504 22.528 21.504zM834.56 369.664c0 1.024 0 2.048-1.024 2.048h-114.688c-1.024 0-2.048-1.024-2.048-2.048v-81.92c0-1.024 1.024-1.024 2.048-1.024h114.688c1.024 0 1.024 0 1.024 1.024v81.92z"></path>
</svg>
