<svg x="0px" y="0px"
	 width="1024px" height="1024px" viewBox="0 0 1024 1024" fill="currentColor">
<path d="M512.001,54.191c-177.948,0-321.922,143.976-321.922,321.922c0,59.854,16.177,118.092,48.53,169.859l255.596,410.895
	c4.854,8.089,12.942,12.942,22.648,12.942l0,0c9.707,0,17.796-4.854,22.647-12.942l249.126-415.748
	c29.118-50.149,45.295-106.768,45.295-165.005C833.921,198.167,689.947,54.191,512.001,54.191z M741.712,513.618L516.853,890.541
	L283.904,516.853c-25.883-42.061-40.442-90.591-40.442-140.74c0-147.211,121.327-268.539,268.539-268.539
	c147.209,0,268.537,121.327,268.537,268.539C780.537,424.644,767.595,471.558,741.712,513.618L741.712,513.618z M512.001,214.343
	c-88.974,0-160.154,72.796-160.154,161.771c0,87.355,69.562,160.152,160.154,160.152c90.59,0,161.769-72.796,161.769-160.152
	C673.77,287.139,600.973,214.343,512.001,214.343L512.001,214.343z M512.001,482.882c-59.856,0-106.768-46.914-106.768-106.768
	s48.53-108.386,106.768-108.386c59.854,0,106.768,48.532,106.768,108.386C618.769,434.351,571.855,482.882,512.001,482.882z"/>
</svg>
