<!-- Generated by IcoMoon.io -->
<svg version="1.1" xmlns="http://www.w3.org/2000/svg" width="1024" height="1024" viewBox="0 0 1024 1024">
<g id="icomoon-ignore">
</g>
<path d="M326.656 660.48v-227.328l-101.376 150.528-99.328-149.504v226.304h-45.056v-296.96h51.2l94.208 147.456 94.208-147.456h51.2v296.96h-45.056zM658.432 491.52h-83.968v-83.968h-40.96v82.944h-83.968v40.96h83.968v82.944h40.96v-82.944h83.968v-39.936zM848.896 491.52c-59.392-14.336-75.776-25.6-75.776-52.224 0-23.552 21.504-39.936 54.272-39.936 26.624 0 53.248 9.216 80.896 29.696l24.576-34.816c-30.72-23.552-64.512-34.816-105.472-34.816-58.368 0-99.328 34.816-99.328 84.992 0 53.248 33.792 71.68 98.304 87.040 54.272 13.312 71.68 24.576 71.68 51.2 0 25.6-23.552 41.984-58.368 41.984s-64.512-11.264-95.232-37.888l-27.648 32.768c34.816 29.696 76.8 45.056 121.856 45.056 63.488 0 104.448-34.816 104.448-87.040 0-45.056-26.624-69.632-94.208-86.016z"></path>
</svg>
