<!-- Generated by IcoMoon.io -->
<svg version="1.1" xmlns="http://www.w3.org/2000/svg" width="1024" height="1024" viewBox="0 0 1024 1024">
<g id="icomoon-ignore">
</g>
<path d="M266.24 453.632v-5.12h1.024v-1.024l1.024-2.048v-1.024l1.024-1.024-1.024-1.024v-2.048l2.048-2.048 4.096-1.024 3.072-3.072-1.024-3.072 2.048-1.024 1.024-1.024v-4.096l2.048-2.048h1.024l4.096 2.048h2.048v-1.024l1.024-3.072 1.024-1.024h3.072v-3.072l3.072-3.072 2.048-1.024 3.072 1.024 1.024-1.024h1.024v-2.048h2.048l7.168-4.096 2.048-1.024 3.072-1.024h6.144l3.072 1.024 1.024-1.024h3.072l2.048 1.024 2.048-1.024h1.024l3.072-3.072h1.024l18.432-1.024h4.096v-1.024l1.024-1.024h1.024l2.048-2.048v-1.024l2.048-7.168 1.024-3.072v-3.072l1.024-24.576-7.168 2.048h-3.072l-2.048-1.024v-2.048l1.024-1.024v-4.096l-2.048-2.048-2.048-1.024h-2.048l-2.048-1.024h-1.024l-2.048-2.048h-1.024l-2.048-1.024h-1.024l-2.048-1.024v-2.048h-1.024l-2.048-1.024h-1.024v-1.024l-1.024-1.024v-3.072l-1.024-1.024-63.488-44.032h-19.456l10.24 95.232v1.024l1.024 1.024v1.024l2.048 2.048v2.048l-1.024 5.12-1.024 2.048h-39.936l-1.024-2.048h-1.024v2.048h-1.024l-1.024 1.024h-5.12l-4.096-1.024-1.024 1.024h-1.024l-3.072 3.072-4.096-4.096-2.048-1.024-2.048 1.024-1.024 2.048-1.024 4.096-1.024 2.048-3.072-1.024 1.024 2.048v3.072l1.024 2.048 1.024 1.024v7.168l1.024 1.024h3.072l1.024 1.024 1.024 4.096v9.216h4.096v-1.024h1.024l1.024 1.024h1.024v2.048h2.048l1.024-2.048v-1.024h3.072l3.072 1.024h3.072l2.048-2.048h1.024v-2.048h1.024l2.048 1.024 1.024 2.048 2.048 5.12v1.024l1.024 1.024 2.048 1.024h1.024l-1.024 2.048-1.024 1.024v2.048h1.024l1.024-1.024 1.024 1.024v4.096l4.096 4.096-1.024 1.024 2.048-1.024 2.048-2.048h2.048l1.024 1.024 2.048 1.024 1.024 1.024 3.072-3.072v1.024h1.024v-3.072h3.072v-1.024h2.048v5.12h2.048l3.072-2.048h2.048l1.024-1.024zM349.184 436.224l-1.024-1.024v-1.024l1.024-1.024v-2.048l-1.024-1.024h-2.048l-2.048 1.024h-2.048l-1.024-1.024-4.096-3.072-1.024-2.048v-2.048h3.072l-2.048-1.024-1.024-1.024-4.096-2.048-1.024-1.024v-1.024l-1.024-1.024v-2.048h-1.024v-2.048h-1.024v-6.144l-3.072-1.024h-6.144l-3.072 1.024-2.048 1.024-7.168 4.096h-2.048v2.048h-1.024l-1.024 1.024-3.072-1.024-1.024 1.024h-1.024l-3.072 3.072v3.072h-3.072l-1.024 1.024-1.024 3.072v1.024h-2.048l-4.096-2.048h-1.024l-2.048 2.048v4.096l-1.024 1.024-2.048 1.024 1.024 3.072-3.072 3.072-4.096 1.024-2.048 2.048v2.048l1.024 1.024-1.024 1.024v1.024l-1.024 2.048v1.024h-1.024v6.144l-1.024 1.024 1.024 1.024h3.072l1.024 1.024 1.024 2.048v1.024h1.024l2.048 2.048h1.024l1.024 1.024h2.048l1.024-1.024h1.024l1.024-1.024h2.048l3.072-1.024h2.048l4.096 2.048 1.024 2.048 1.024 1.024h1.024v-8.192l-1.024-2.048-1.024-3.072v-2.048l2.048-2.048 6.144 1.024 11.264-1.024 3.072 1.024h3.072l2.048-1.024 1.024-1.024h2.048l6.144 2.048h4.096l1.024-1.024h1.024v-1.024h1.024l2.048-2.048v-1.024h5.12l4.096-2.048 1.024-1.024 1.024-2.048-1.024-1.024zM653.312 593.92l-1.024 1.024h-1.024l-1.024-1.024h-1.024v4.096l-1.024 1.024h-5.12l-2.048-2.048h-1.024l-1.024 1.024 1.024 1.024v1.024l1.024 1.024v1.024l1.024 1.024v6.144l2.048 8.192 3.072-1.024 2.048-1.024 1.024-1.024 7.168-9.216 1.024-2.048h1.024l-1.024-1.024v-1.024h-2.048l-2.048-2.048 1.024-1.024v-2.048l1.024-1.024-2.048-1.024zM665.6 858.112h-1.024l-2.048 1.024-2.048 2.048-1.024 3.072-1.024 1.024v3.072l2.048 4.096 3.072 3.072 2.048 1.024h6.144l-1.024-2.048v-2.048l1.024-2.048h1.024v-9.216l-2.048-1.024h-1.024zM641.024 814.080h-1.024v-3.072l-4.096-2.048h-4.096l-2.048-1.024-1.024-1.024-3.072-4.096-1.024-1.024v-2.048l1.024-2.048-1.024-2.048h-3.072l-1.024-1.024v-2.048l-1.024-1.024v-1.024h-1.024l-3.072-1.024-4.096-3.072-1.024-1.024-2.048-1.024-1.024-2.048-2.048-5.12-6.144-9.216v-3.072h-4.096l-1.024 1.024h-1.024l-1.024 1.024h-2.048l-2.048 1.024h-1.024l-2.048 1.024-2.048 2.048-2.048 1.024v-1.024l-1.024-2.048-4.096-2.048h-2.048l-15.36 3.072h-5.12l-1.024 1.024 1.024 41.984h-11.264v32.768l3.072 3.072 4.096 6.144 2.048 4.096v2.048l-1.024 2.048v1.024l-1.024 2.048v4.096h3.072l6.144 1.024 2.048-1.024h1.024v-1.024l1.024-1.024h2.048v-1.024l2.048-3.072h1.024l2.048-2.048h1.024l1.024-2.048 1.024-4.096 1.024-2.048 2.048-2.048h4.096l3.072 3.072h1.024l6.144 2.048 2.048 1.024h5.12l3.072-1.024h1.024l2.048-4.096 2.048-6.144 2.048-2.048 4.096-1.024 4.096-4.096 1.024-2.048 1.024-4.096 1.024-2.048 1.024-1.024 6.144-3.072 1.024-2.048 3.072-3.072 2.048-1.024 1.024-1.024 3.072-1.024 2.048-1.024 1.024-1.024 4.096-2.048h-1.024zM646.144 740.352l-5.12 1.024-3.072 3.072v2.048l-1.024 2.048v1.024l-8.192 4.096-4.096 4.096-6.144 8.192-3.072 1.024h-4.096l-1.024-1.024h-1.024l-2.048 1.024-1.024-1.024h-2.048l-1.024-1.024h-4.096v3.072l6.144 9.216 2.048 5.12 1.024 2.048 2.048 1.024 1.024 1.024 4.096 3.072 3.072 1.024h1.024v1.024l1.024 1.024v2.048l1.024 1.024h3.072l1.024 2.048-1.024 2.048v2.048l1.024 1.024 3.072 4.096 1.024 1.024 2.048 1.024h4.096l4.096 2.048v3.072h1.024l1.024 1.024h4.096l8.192 2.048 5.12-1.024 4.096 2.048 3.072-2.048 6.144-7.168 3.072-3.072v-4.096l1.024-1.024v-2.048l1.024-1.024 2.048-3.072 1.024-1.024v-1.024l1.024-2.048v-3.072l-1.024-1.024v-7.168l-2.048-2.048 1.024-1.024h1.024v-1.024l1.024-2.048v-14.336l-1.024-2.048v-2.048l1.024-1.024v-1.024h-1.024l-2.048-2.048h-3.072l-1.024-1.024h-3.072v-1.024h-1.024l-1.024-1.024-3.072-1.024-3.072-2.048h-8.192l-1.024-1.024v-3.072h-4.096zM637.952 661.504v3.072l-1.024 2.048-2.048 1.024-1.024 1.024h-1.024v2.048l2.048 2.048v13.312l-2.048 6.144v3.072l1.024 2.048 1.024 1.024 1.024 2.048 3.072 2.048 1.024 1.024 2.048 1.024h3.072v-3.072h3.072v13.312l-1.024 1.024h-1.024v-2.048h-2.048l-2.048 1.024h-3.072v-1.024l-2.048-3.072h-1.024l-2.048-2.048v-1.024l-1.024-1.024v-1.024l-1.024-1.024h-1.024l-6.144-2.048h-1.024v-1.024l-3.072-3.072v-1.024l-1.024-1.024v-1.024h-1.024l-1.024 1.024v2.048l-1.024 1.024h-3.072l-6.144-1.024h-3.072l-3.072-1.024-1.024-1.024v-1.024l-1.024-1.024v-3.072h-1.024l-2.048 1.024-3.072 1.024h-2.048l-2.048-1.024v-3.072h-1.024l-2.048-2.048h-1.024v3.072l1.024 2.048-1.024 6.144v5.12l-1.024 3.072v1.024l1.024 1.024v2.048h-21.504v34.816l1.024 2.048v2.048l1.024 1.024 13.312 12.288 10.24-2.048 5.12 1.024 5.12 3.072h4.096l1.024 1.024h2.048l1.024 1.024 2.048-1.024h1.024l1.024 1.024h4.096l3.072-1.024 6.144-8.192 4.096-4.096 8.192-4.096v-1.024l1.024-2.048v-2.048l3.072-3.072 5.12-1.024h8.192v-1.024l-1.024-4.096-1.024-1.024v-1.024h1.024l1.024-1.024 30.72-10.24h-3.072l-1.024-2.048-1.024-1.024v-1.024h-1.024l2.048-2.048 1.024-2.048v-5.12l1.024-1.024v-1.024h1.024l2.048-1.024 2.048-2.048h-2.048v-6.144l-1.024-3.072v-1.024l1.024-2.048v-2.048l-1.024-1.024 1.024-1.024 2.048-1.024 1.024-1.024v-4.096l-1.024-1.024-2.048-1.024v-3.072l-1.024-2.048h-2.048v-1.024h-1.024v-2.048h-2.048l-4.096-2.048-3.072-1.024-1.024-1.024-3.072-1.024-1.024-1.024h-1.024v-1.024l-1.024-1.024h-2.048l-2.048-1.024h-1.024l-1.024-1.024-1.024-2.048-15.36 2.048zM505.856 889.856h1.024l1.024-3.072 1.024-1.024h2.048l1.024 2.048 2.048 2.048v3.072h1.024l1.024 1.024 3.072 1.024 13.312 1.024h1.024l1.024-1.024v-1.024l3.072-3.072h4.096v-77.824h11.264l-1.024-41.984 1.024-1.024h5.12l15.36-3.072h2.048l4.096 2.048 1.024 2.048v1.024l2.048-1.024 2.048-2.048 2.048-1.024h1.024l2.048-1.024h2.048l1.024-1.024h1.024l1.024-1.024h4.096l-5.12-3.072-5.12-1.024-10.24 2.048-19.456 4.096h-9.216l-5.12-1.024-14.336-1.024-2.048-1.024-1.024-1.024-1.024-2.048h-1.024l-1.024-1.024h-47.104l-2.048-1.024-3.072-2.048-2.048-1.024h-3.072l-3.072 1.024-1.024 1.024h-8.192l-1.024 1.024h-1.024v4.096l1.024 4.096 2.048 4.096 5.12 7.168 8.192 15.36 1.024 4.096 1.024 3.072 9.216 14.336 2.048 4.096v5.12l-1.024-1.024v2.048l1.024 7.168v7.168l3.072 7.168v2.048l1.024 5.12 1.024 9.216v1.024l1.024 2.048v1.024l1.024 3.072 1.024 5.12 3.072 6.144 3.072 4.096 3.072 3.072 4.096 3.072h1.024zM446.464 609.28h1.024v-1.024l2.048-1.024h1.024l2.048 2.048h1.024v-2.048l1.024-2.048v-1.024h-2.048v-3.072l-1.024-1.024h-1.024v-5.12h1.024l3.072-1.024 3.072 1.024h1.024l2.048-2.048v-1.024l-1.024-1.024 2.048-2.048 2.048 1.024 2.048 3.072 1.024 2.048h3.072l1.024-1.024h2.048l1.024-1.024h1.024l1.024 1.024v2.048h2.048v-1.024l1.024-1.024v-2.048l2.048-3.072v-8.192l1.024-4.096v-1.024l-2.048-2.048h-1.024l-3.072-2.048v-7.168l1.024-1.024h2.048l1.024-1.024h1.024v-4.096l-1.024-1.024v-1.024l-3.072-2.048h-3.072l-3.072 2.048-3.072-1.024 1.024-1.024v-1.024l-1.024-1.024v-2.048l1.024-3.072v-1.024l-3.072-1.024-6.144-1.024h-11.264v14.336h-17.408v-1.024h-1.024l-1.024 1.024v1.024l1.024 1.024v2.048h-3.072v2.048l1.024 1.024 2.048 1.024h2.048l2.048 1.024h-2.048l-1.024 1.024h-1.024l-1.024-1.024-2.048-1.024v-1.024l-1.024 2.048v5.12l-1.024 2.048-1.024 1.024-2.048 1.024h-1.024l-1.024-1.024 2.048 5.12 2.048 3.072h3.072l-1.024 1.024v1.024h2.048v1.024h-1.024l-4.096-4.096 2.048 4.096 1.024 1.024v1.024h1.024l1.024 1.024h-2.048l2.048 3.072 2.048 2.048 3.072 1.024 1.024 1.024h-2.048v-1.024h-1.024l2.048 2.048 4.096 3.072 6.144 7.168 2.048 2.048v1.024l1.024-1.024zM453.632 758.784h-1.024l1.024-10.24-1.024-4.096v-1.024l2.048-2.048v-1.024l1.024-3.072 5.12-19.456 1.024-2.048v-1.024l3.072-3.072v-1.024l2.048-2.048v-1.024l4.096-2.048 1.024-1.024 1.024-2.048 2.048-8.192v-5.12l-1.024-5.12-4.096-7.168-1.024-2.048-2.048-5.12v-1.024l-1.024-1.024v-1.024l1.024-1.024v1.024l3.072-3.072v-5.12l-4.096-8.192-2.048-5.12v-1.024l-4.096-5.12v-1.024l-1.024-2.048v-1.024h1.024l3.072-1.024h1.024l2.048-1.024h1.024l5.12-1.024h26.624l5.12 2.048 2.048 4.096 1.024 4.096 2.048 4.096 5.12 8.192 1.024 2.048h2.048l1.024 1.024h2.048l2.048-1.024h2.048l2.048-1.024h5.12v1.024l1.024-1.024h2.048v-1.024l1.024-2.048 1.024-4.096 1.024-2.048 4.096-2.048h6.144v3.072l1.024 1.024h12.288l1.024 2.048v1.024l-1.024 3.072v3.072l1.024 2.048v4.096l-1.024 5.12v3.072l1.024 2.048 3.072 4.096 1.024 2.048v7.168h-1.024v3.072h1.024l3.072-1.024h4.096l1.024 1.024 1.024-1.024h2.048l1.024-1.024h2.048l2.048 1.024 2.048-2.048v3.072l1.024 2.048-1.024 6.144v5.12l-1.024 3.072v2.048l1.024 1.024v1.024h-21.504v34.816l1.024 2.048v2.048l1.024 1.024 13.312 12.288-19.456 4.096h-9.216l-5.12-1.024-14.336-1.024-2.048-1.024-1.024-1.024-1.024-2.048h-1.024l-1.024-1.024h-47.104l-2.048-1.024-3.072-2.048-2.048-1.024h-3.072l-3.072 1.024-1.024 1.024h-8.192l-1.024 1.024zM460.8 630.784v-7.168h1.024l2.048-2.048 3.072-2.048-2.048-2.048h-2.048l-2.048 1.024-5.12 5.12 1.024 1.024v1.024l1.024 1.024v1.024l-1.024 2.048v1.024l1.024 1.024 2.048-1.024zM462.848 617.472h2.048l2.048 2.048h1.024l1.024 1.024h1.024l1.024 1.024 3.072-3.072v-1.024h2.048l4.096-2.048h1.024v6.144h4.096l1.024-1.024 2.048-3.072 3.072-2.048 2.048-2.048 2.048-1.024 1.024-1.024h1.024l2.048-4.096 1.024-1.024v-12.288l1.024-1.024 1.024-2.048 2.048-2.048 1.024-2.048 1.024-3.072 3.072-3.072 3.072-1.024 4.096-4.096v-5.12l2.048-4.096v-10.24l1.024-3.072 1.024-1.024v-4.096l1.024-4.096 4.096-8.192 1.024-4.096-1.024-1.024h-5.12l-5.12-1.024h-2.048l-7.168 1.024-2.048 1.024-1.024 3.072v4.096l-1.024 1.024-2.048 5.12-1.024 1.024v4.096h-2.048l-3.072-2.048h-1.024l-7.168-1.024-2.048-1.024h-15.36v1.024l-1.024 3.072v2.048l1.024 1.024v1.024l-1.024 1.024 3.072 1.024 3.072-2.048h3.072l3.072 2.048v1.024l1.024 1.024v4.096h-1.024l-1.024 1.024h-2.048l-1.024 1.024v7.168l3.072 2.048h1.024l2.048 2.048v1.024l-1.024 4.096v8.192l-2.048 3.072v2.048l-1.024 1.024v1.024h-2.048v-2.048l-1.024-1.024h-1.024l-1.024 1.024h-2.048l-1.024 1.024h-3.072l-1.024-2.048-2.048-3.072-2.048-1.024-2.048 2.048 1.024 1.024v1.024l-2.048 2.048h-1.024l-3.072-1.024-3.072 1.024h-1.024v5.12h1.024l1.024 1.024v3.072h2.048v1.024l-1.024 2.048v2.048h-1.024l-2.048-2.048h-1.024l-2.048 1.024v1.024h-1.024v1.024l-1.024 1.024 5.12 5.12 2.048 1.024v2.048l2.048 2.048 1.024 2.048 5.12-5.12zM755.712 688.128l-4.096 1.024-5.12 2.048-2.048 1.024h-2.048v1.024l-4.096-1.024-1.024-1.024-1.024 1.024h-1.024v1.024l-3.072 3.072h-3.072l-3.072-1.024h-2.048l-3.072 1.024h-3.072l-2.048-2.048h-4.096l-1.024 1.024h-10.24v1.024l-3.072 5.12v1.024l2.048 12.288 1.024 1.024 3.072 1.024 2.048 2.048 3.072 4.096 3.072 3.072 1.024 3.072 1.024 1.024v2.048l-1.024 3.072v7.168l-1.024 2.048-1.024 1.024h-1.024l-2.048 1.024v1.024l-1.024 1.024v2.048l1.024 4.096v1.024l-1.024 1.024h-2.048l1.024-2.048-5.12-5.12-1.024-2.048-3.072-3.072v-2.048l1.024-2.048 1.024-3.072 1.024-2.048v-6.144l-1.024-2.048h-3.072l-4.096 1.024h-2.048l-1.024-1.024-2.048-3.072-1.024-2.048-30.72 10.24-1.024 1.024h-1.024v1.024l1.024 1.024 1.024 4.096v4.096l1.024 1.024h8.192l3.072 2.048 3.072 1.024 1.024 1.024h1.024v1.024h3.072l1.024 1.024h3.072l2.048 2.048h1.024v1.024l-1.024 1.024v2.048l1.024 2.048v14.336l-1.024 2.048v1.024h-1.024l-1.024 1.024 2.048 2.048v7.168l1.024 1.024v3.072l-1.024 2.048v1.024l-1.024 1.024-2.048 3.072-1.024 1.024v2.048l-1.024 1.024v4.096l-3.072 3.072-6.144 7.168-3.072 2.048 1.024 2.048 3.072 11.264 3.072 6.144v3.072l1.024 2.048v11.264l-1.024 4.096v2.048l1.024 1.024 1.024 4.096v5.12h8.192l1.024-9.216v1.024h-1.024v2.048l-1.024-2.048h-1.024v-3.072l1.024-2.048 1.024-1.024 1.024-2.048 6.144-3.072 12.288-4.096 3.072-2.048 6.144-6.144v-4.096h-1.024v-4.096l1.024-4.096 1.024-2.048v-1.024l-1.024-2.048v-6.144h-1.024v3.072l-1.024-1.024v-7.168l-3.072-8.192-1.024-2.048-2.048-3.072v-8.192l-1.024-2.048h1.024l1.024 1.024h2.048l1.024-1.024 2.048-1.024 4.096-6.144 1.024-1.024 2.048-1.024h2.048l1.024-1.024v-1.024h1.024l2.048-1.024 5.12-8.192 2.048-1.024 3.072-3.072 8.192-4.096 7.168-2.048 1.024-1.024 7.168-4.096 2.048-1.024v-1.024h-1.024v-1.024h2.048v-1.024l2.048-2.048 4.096-5.12 1.024-2.048v-3.072l2.048-2.048v-4.096l-1.024-1.024-1.024 1.024v-1.024l1.024-1.024v-1.024l-1.024-1.024v-2.048l-1.024-5.12 1.024-4.096v-1.024l-1.024-1.024h-1.024v-1.024h1.024v-1.024l1.024-1.024-1.024-4.096-1.024-9.216v-3.072l1.024-2.048v-1.024l1.024-1.024-1.024-1.024 1.024-1.024h-1.024v-2.048h-1.024l-3.072 2.048-4.096 3.072zM699.392 700.416v0-1.024l1.024 1.024h-1.024zM700.416 700.416v0 0 0zM498.688 631.808l5.12 2.048 2.048 4.096 1.024 4.096 2.048 4.096 5.12 8.192 1.024 2.048h2.048l1.024 1.024h2.048l2.048-1.024h2.048l2.048-1.024h5.12v1.024l1.024-1.024h2.048v-1.024l1.024-2.048 1.024-4.096 1.024-2.048 4.096-2.048h6.144v3.072l1.024 1.024h12.288l1.024 2.048v1.024l-1.024 3.072v3.072l1.024 2.048v4.096l-1.024 5.12v3.072l1.024 2.048 3.072 4.096 1.024 2.048v7.168h-1.024v3.072h1.024l3.072-1.024h4.096l1.024 1.024 1.024-1.024h2.048l1.024-1.024h2.048l2.048 1.024 2.048-2.048h1.024l2.048 2.048h1.024v3.072l2.048 1.024h2.048l3.072-1.024 2.048-1.024h1.024v3.072l1.024 1.024v1.024l1.024 1.024 3.072 1.024h3.072l6.144 1.024h3.072l1.024-1.024v-2.048l1.024-1.024h1.024v1.024l1.024 1.024v1.024l1.024 1.024h1.024l1.024 2.048v1.024h1.024l6.144 2.048h1.024l1.024 1.024v1.024l1.024 1.024v1.024l2.048 2.048h1.024l2.048 3.072v1.024h3.072l2.048-1.024h2.048v2.048h1.024l1.024-1.024v-13.312h-3.072v3.072h-3.072l-2.048-1.024-1.024-1.024-3.072-2.048-1.024-2.048-1.024-1.024-1.024-2.048v-3.072l2.048-6.144v-13.312l-2.048-2.048v-2.048h1.024l1.024-1.024 2.048-1.024 1.024-2.048v-3.072l5.12-1.024 15.36-2.048-2.048-6.144-3.072-5.12-2.048-3.072-4.096-3.072-2.048-3.072v-10.24l-2.048-4.096v-5.12l1.024-1.024-2.048-8.192v-6.144l-1.024-1.024v-1.024l-1.024-1.024v-1.024l-2.048-2.048v-2.048l3.072-3.072v-4.096l4.096-4.096 2.048-14.336v-1.024l1.024-3.072 1.024-1.024v-4.096h1.024l11.264-10.24 2.048-3.072v-1.024l-1.024-1.024v-1.024h-1.024l-3.072-1.024v-1.024l-1.024-1.024 2.048-2.048v-1.024l-1.024-1.024 1.024-4.096v-1.024l-1.024-1.024v-1.024h-2.048v-1.024l-1.024-1.024h-1.024l-4.096-4.096-2.048-1.024v-1.024l-2.048-2.048h-2.048l-2.048 2.048h-2.048l-1.024-1.024h-3.072l-3.072 2.048h-2.048l-1.024-1.024h-1.024v-1.024l-1.024-1.024h-1.024l-1.024-1.024v-1.024l-2.048-2.048h-1.024v-1.024h-1.024l-1.024-1.024h-3.072l-2.048 1.024h-2.048l-7.168-2.048-3.072-1.024-2.048 1.024-2.048 2.048h-1.024l-1.024 1.024h-9.216l-5.12 2.048-3.072 1.024h-7.168l-2.048 3.072-1.024 1.024v1.024l-1.024 1.024h-2.048l-3.072-1.024-2.048-1.024h-2.048l-9.216-2.048h-2.048l-4.096-4.096-3.072-1.024-4.096-1.024-2.048 1.024-3.072 2.048-2.048 3.072-2.048 2.048v1.024l-1.024 6.144v6.144l-4.096 8.192-1.024 4.096v4.096l-1.024 1.024-1.024 3.072v10.24l-2.048 4.096v5.12l-1.024 1.024-2.048 1.024-1.024 2.048-3.072 1.024-3.072 3.072-1.024 3.072-1.024 2.048-2.048 2.048-1.024 2.048-1.024 1.024v12.288l-1.024 1.024-2.048 4.096h-1.024l-1.024 1.024-2.048 1.024-2.048 2.048-3.072 2.048-2.048 3.072-1.024 1.024h-4.096v-6.144h-1.024l-4.096 2.048h-2.048v1.024l-3.072 3.072-1.024-1.024h-1.024l-1.024-1.024h-1.024l-3.072 2.048-2.048 2.048h-1.024v6.144l-1.024 1.024-2.048 1.024 2.048 2.048 2.048-1.024h5.12l5.12-1.024h26.624zM672.768 870.4h-1.024l-1.024 2.048v2.048l1.024 2.048h-6.144l-2.048-1.024-3.072-3.072-2.048-4.096v-3.072l1.024-1.024 1.024-3.072 2.048-2.048 2.048-1.024h1.024l4.096 2.048h1.024v-2.048l1.024-4.096v-11.264l-1.024-3.072v-2.048l-3.072-6.144-3.072-11.264-1.024-2.048-4.096-2.048-5.12 1.024-8.192-2.048h-3.072l-4.096 2.048-1.024 1.024-2.048 1.024-3.072 1.024-1.024 1.024-2.048 1.024-3.072 3.072-1.024 2.048-6.144 3.072-1.024 1.024-1.024 2.048-1.024 4.096-1.024 2.048-4.096 4.096-4.096 1.024-2.048 2.048-2.048 6.144-2.048 4.096h-1.024l-3.072 1.024h-5.12l-2.048-1.024-6.144-2.048h-1.024l-3.072-3.072h-4.096l-2.048 2.048-1.024 2.048-1.024 4.096-1.024 2.048h-1.024l-2.048 2.048h-1.024l-2.048 3.072-2.048 1.024h-1.024v2.048h-1.024l-2.048 1.024-6.144-1.024h-3.072v-4.096l1.024-2.048v-1.024l1.024-2.048v-2.048l-2.048-4.096-4.096-6.144-3.072-3.072v45.056h-4.096l-3.072 3.072v1.024l-1.024 1.024h-1.024l-13.312-1.024-3.072-1.024-1.024-1.024h-1.024v-3.072l-2.048-2.048-1.024-2.048h-2.048l-1.024 1.024-1.024 3.072h-1.024l-1.024 2.048h-1.024l2.048 4.096 2.048 3.072 6.144 15.36 8.192 14.336 1.024 4.096v6.144l-1.024 1.024h-3.072v3.072l4.096 7.168 1.024 1.024 1.024 2.048v1.024l-1.024 1.024v4.096l1.024 1.024v-3.072h3.072v1.024l1.024 1.024v1.024h3.072l1.024 1.024h1.024v2.048h2.048l3.072 2.048h3.072l1.024-1.024 2.048-1.024 2.048-2.048h2.048l1.024-1.024h8.192l3.072-1.024 3.072-2.048 3.072-1.024h2.048l4.096 1.024h3.072l1.024-1.024h1.024l1.024-1.024h2.048l3.072 1.024 2.048 1.024h2.048l1.024 1.024h2.048l2.048-2.048h1.024l1.024-1.024h2.048l2.048 1.024h2.048v-2.048l2.048-2.048h3.072l1.024 1.024h1.024l2.048-1.024h2.048l4.096-2.048 4.096-3.072 15.36-12.288 15.36-14.336 12.288-19.456 1.024-2.048 2.048-2.048 4.096-3.072 2.048-1.024 2.048-3.072 1.024-3.072 1.024-6.144 2.048-7.168v-3.072h-8.192zM643.072 901.12v2.048l-3.072 4.096-1.024 1.024-2.048 1.024-3.072 1.024-1.024 1.024-2.048 1.024-1.024 3.072-2.048 1.024-2.048-1.024-4.096-4.096-2.048-3.072-1.024-3.072v-1.024l1.024-1.024h1.024l1.024-1.024 2.048-3.072 3.072-3.072 6.144-3.072 1.024-1.024 2.048 1.024 5.12 4.096 2.048 1.024v3.072zM700.416 227.328l-1.024-3.072v-1.024l-1.024-1.024v-1.024l-2.048-6.144-1.024-1.024-1.024 1.024h-2.048l-1.024 1.024h-8.192l-3.072 1.024h-2.048l-1.024-1.024-2.048-1.024v1.024h-2.048l-1.024-1.024h-1.024l-1.024-1.024v-1.024h1.024v-1.024l1.024 1.024h1.024v1.024l-1.024-1.024v-1.024h-5.12l-3.072-1.024h-2.048l-3.072 2.048h-2.048l2.048-1.024h1.024l1.024-1.024-4.096 1.024h-1.024l-2.048 2.048-5.12 2.048-3.072 2.048-2.048 1.024h-4.096l-6.144-2.048-6.144-1.024-8.192-3.072-10.24-2.048-3.072-1.024-4.096 2.048h-2.048l-1.024-2.048-3.072 3.072v7.168l1.024 1.024-1.024 1.024v1.024l-2.048 3.072v2.048l1.024 3.072 1.024 6.144 1.024 1.024v86.016h67.584l1.024-1.024v-1.024h1.024l1.024 1.024-1.024 1.024h58.368v-1.024l-2.048-2.048-5.12-4.096-3.072-2.048-1.024-1.024-2.048-3.072-1.024-4.096v-4.096l3.072-1.024-6.144-6.144-13.312-26.624-1.024-1.024v-4.096l-1.024-2.048-2.048-3.072v-3.072l-1.024-1.024-1.024-2.048-2.048-3.072-5.12-6.144-1.024-1.024v-2.048l-1.024-3.072-2.048-3.072v-2.048l1.024-2.048 1.024-1.024 1.024 2.048 1.024 3.072v2.048l3.072 3.072 1.024 2.048 1.024 1.024v3.072l1.024 2.048 7.168 7.168h1.024l1.024 1.024h1.024v-1.024l1.024-1.024 1.024-2.048v-5.12l2.048-3.072 1.024-5.12 1.024-2.048 1.024-1.024-1.024-1.024zM789.504 431.104l-1.024 1.024v1.024l-1.024 1.024h-1.024l-1.024-1.024v-1.024l-1.024 1.024-5.12 6.144-2.048 4.096v4.096l1.024 1.024v1.024h2.048l6.144-1.024h2.048l1.024 1.024 2.048-2.048 1.024-3.072 1.024-1.024h-7.168l-1.024-1.024h3.072l2.048-2.048 2.048-1.024 1.024-1.024h1.024v-4.096l-3.072-4.096-2.048 1.024zM595.968 348.16v0-109.568l-1.024-1.024-1.024-6.144-1.024-3.072v-2.048l2.048-3.072v-1.024l1.024-1.024-1.024-1.024v-7.168l3.072-3.072-3.072-3.072-2.048-1.024h-5.12l-5.12-1.024-2.048-1.024h-3.072l-2.048-2.048v-2.048l-1.024-1.024-2.048-1.024-3.072-1.024-2.048-1.024-6.144-1.024h-2.048v1.024l-2.048 1.024h-1.024l-5.12 1.024-2.048 1.024-2.048 2.048-2.048 1.024-1.024 1.024-2.048 4.096v4.096l2.048 4.096-1.024 4.096-3.072 4.096-4.096 2.048-4.096 1.024-4.096-2.048-2.048-2.048-3.072-2.048-1.024-1.024-4.096-1.024-5.12-2.048-4.096-1.024h-7.168l-6.144-3.072-5.12-10.24-2.048-1.024h-3.072l-4.096-2.048-4.096-1.024-4.096-2.048h-4.096l-5.12 1.024h-2.048l-2.048-1.024h-1.024l-3.072-2.048h-1.024l-3.072-1.024h-1.024v8.192l-7.168 5.12h-1.024l-2.048 2.048v1.024l-1.024 1.024h-1.024l-2.048 2.048v1.024l1.024 4.096v1.024l-1.024 3.072-4.096 4.096-3.072 1.024-1.024 1.024v2.048l1.024 1.024 1.024 2.048 1.024 1.024 1.024 2.048v2.048l1.024 2.048v17.408l-1.024 3.072v5.12l1.024 2.048v2.048l-1.024 2.048-1.024 1.024h-1.024l-1.024 1.024v1.024l-1.024 1.024 1.024 1.024 4.096 6.144 3.072 9.216 1.024 2.048 2.048 2.048h1.024l1.024-1.024h1.024l7.168 2.048 1.024 1.024 2.048 1.024 1.024 3.072 2.048 5.12 14.336 3.072 4.096 1.024 6.144 6.144h2.048l6.144-4.096 11.264-5.12 86.016 45.056v-5.12zM184.32 470.016v-1.024l1.024-1.024h1.024v-1.024h1.024l1.024-1.024 1.024-3.072 2.048-2.048h5.12v-1.024h6.144l5.12 5.12 1.024 2.048 1.024 1.024v1.024l-1.024 1.024 1.024 1.024h1.024v4.096l-1.024 3.072h1.024l2.048-1.024h1.024l1.024-1.024 1.024 1.024h1.024l1.024-1.024h1.024l1.024 1.024h1.024l1.024 1.024 2.048 6.144v2.048l-1.024 1.024v1.024h1.024l2.048 2.048h2.048l2.048-2.048 1.024-2.048 1.024-1.024 1.024 2.048 1.024-1.024h2.048l1.024-1.024 1.024-3.072v-2.048h-1.024v-1.024h-1.024l-1.024-1.024 2.048-2.048 2.048 1.024h2.048l1.024 1.024v-2.048l-1.024-1.024-2.048-1.024v-2.048l2.048-2.048-1.024-1.024h-1.024v-2.048h-1.024l-1.024-1.024v-6.144l2.048-2.048-4.096-4.096v-4.096l-1.024-1.024-1.024 1.024h-1.024v-2.048l2.048-1.024v-2.048h-1.024l-2.048-1.024-1.024-1.024v-1.024l-2.048-5.12-1.024-2.048-2.048-1.024h-1.024v2.048h-1.024l-2.048 2.048h-3.072l-3.072-1.024h-3.072v1.024l-1.024 2.048h-2.048v-2.048h-1.024l-1.024-1.024h-1.024v1.024h-4.096v-3.072l-2.048-1.024h-2.048l-4.096 1.024h-4.096l-3.072-2.048-1.024 1.024h-1.024v-2.048h-7.168v3.072l-1.024 1.024h-1.024v1.024l1.024 1.024 1.024 2.048v1.024l-1.024 1.024h-1.024l-3.072 1.024h-2.048l-3.072 2.048h-1.024l-1.024 1.024v1.024l-1.024 2.048-1.024 1.024v1.024h1.024l1.024-1.024 1.024 1.024 1.024 2.048 1.024-1.024v3.072l1.024 1.024 1.024 2.048 2.048 1.024h2.048v2.048h1.024l1.024 1.024 1.024-1.024v4.096l2.048 1.024 1.024 1.024 1.024 2.048v2.048l2.048-1.024zM243.712 517.12v-2.048l1.024-4.096 1.024-2.048-1.024-2.048v-1.024l-1.024-1.024-2.048-1.024h-1.024v-1.024l-1.024-1.024v-1.024h-1.024l-3.072-1.024h-1.024l-1.024-1.024h-1.024l2.048-3.072 1.024-3.072v-3.072l-2.048-2.048-1.024-2.048-1.024 1.024-1.024 2.048-2.048 2.048h-2.048l-2.048-2.048h-1.024v-1.024l1.024-1.024v-2.048l-2.048-6.144-1.024-1.024h-1.024l-1.024-1.024h-1.024l-1.024 1.024h-1.024l-1.024-1.024-1.024 1.024v2.048h-1.024v1.024h-1.024l-1.024 1.024-1.024 3.072v1.024l-1.024 1.024-4.096 3.072-4.096 4.096 1.024 2.048h2.048l2.048 2.048 2.048 1.024 1.024 2.048 4.096 2.048 3.072 2.048 10.24 8.192 2.048 2.048 9.216 5.12 6.144 2.048v-3.072zM149.504 433.152h6.144l4.096-2.048 4.096-1.024h4.096l9.216 1.024h7.168v2.048h1.024l1.024-1.024 3.072 2.048h4.096l4.096-1.024h2.048l2.048 1.024v-6.144l-1.024-4.096-1.024-1.024h-3.072l-1.024-1.024v-7.168l-1.024-1.024-1.024-2.048v-3.072l-1.024-2.048h-1.024l-7.168-7.168-1.024-2.048-2.048-2.048-1.024-2.048-2.048-1.024h-2.048l-1.024-1.024h-1.024l-1.024-2.048-1.024-1.024-4.096-2.048h-5.12l-8.192 2.048h-2.048l-1.024-1.024h-2.048l-2.048 4.096-2.048 8.192-6.144 6.144-3.072 2.048v1.024h2.048l2.048 2.048 2.048 3.072 1.024 2.048h2.048l-1.024 1.024v1.024l1.024 1.024 1.024 2.048h11.264v-1.024l1.024-1.024h1.024l1.024-1.024h2.048l1.024 1.024 5.12 2.048h5.12l2.048 1.024-1.024 1.024-2.048 1.024h-5.12l-5.12-2.048-1.024-1.024-2.048 2.048h-4.096l-1.024 1.024v1.024h-9.216l-1.024 1.024-1.024 3.072 1.024 2.048h1.024l1.024-1.024 1.024 2.048-1.024-1.024-2.048 1.024v2.048h2.048zM146.432 424.96h8.192v-1.024l1.024-1.024h4.096l2.048-2.048 1.024 1.024 5.12 2.048h5.12l2.048-1.024 1.024-1.024-2.048-1.024h-5.12l-5.12-2.048-1.024-1.024h-2.048l-1.024 1.024h-1.024l-1.024 1.024v1.024h-11.264l1.024 2.048 3.072-1.024h3.072l-3.072 1.024v1.024h-3.072l-1.024-1.024h-1.024v-1.024h-1.024l-1.024 1.024 1.024 3.072 1.024-1.024zM433.152 545.792h15.36v-2.048h11.264l6.144 1.024 3.072 1.024h15.36l2.048 1.024 7.168 1.024h1.024l3.072 2.048h2.048v-4.096l1.024-1.024-1.024-3.072v-2.048l-2.048-4.096-5.12-4.096-3.072-3.072-1.024-3.072h1.024v-1.024l-1.024-2.048-4.096-4.096-1.024-7.168v-6.144l-1.024-1.024v-2.048h2.048v-1.024h1.024v-2.048l5.12-7.168 2.048-3.072v-1.024l1.024-2.048-2.048-6.144-8.192-8.192-3.072-2.048-2.048-2.048-1.024-2.048v-2.048l1.024-1.024 2.048-1.024h13.312l1.024-1.024-2.048-1.024-2.048-2.048-1.024-3.072-1.024-2.048v-12.288l-1.024-2.048-1.024-4.096-1.024-1.024v-1.024l-1.024-1.024h-1.024v-2.048l-1.024-1.024h-1.024l-1.024-1.024h-3.072l1.024 5.12 1.024 2.048 1.024 1.024 2.048 1.024h1.024v7.168l-1.024 1.024v1.024l-1.024 1.024h-2.048l-2.048 1.024-2.048 2.048-1.024 2.048-1.024 1.024-4.096 8.192v4.096l-1.024 1.024-2.048 1.024-1.024 2.048v1.024l-1.024 2.048v1.024l-1.024 2.048h-1.024l-3.072 3.072v1.024l-3.072 7.168v1.024l-2.048 3.072v2.048l-1.024 1.024v1.024h-1.024l-1.024 1.024v1.024l-1.024 1.024v1.024h-1.024l-2.048 1.024-1.024-1.024-1.024-2.048-3.072-3.072h-2.048v2.048h-3.072v-1.024h-1.024l-10.24 8.192-3.072 6.144-1.024 4.096-3.072 5.12v2.048l1.024 1.024v-2.048l1.024 1.024h2.048v3.072l1.024 1.024v1.024l2.048 2.048h3.072v-1.024h2.048v1.024l1.024 1.024h-2.048v1.024l1.024 1.024h1.024v3.072l1.024 2.048 1.024 1.024v2.048l-2.048 6.144 1.024 1.024zM291.84 513.024v1.024h-1.024v-1.024h1.024zM294.912 513.024l1.024-1.024v-1.024l-1.024-2.048v-1.024h-1.024l-1.024-1.024-2.048-6.144v-6.144l1.024-1.024 1.024-3.072v-1.024l1.024-3.072 1.024-2.048v-1.024l2.048-2.048v-1.024h1.024v-5.12l-1.024-1.024-1.024-3.072v-5.12h-1.024l-1.024-1.024-1.024-2.048-4.096-2.048h-2.048l-3.072 1.024h-2.048l-1.024 1.024h-1.024l-1.024 1.024h-2.048l-1.024-1.024h-1.024l-2.048-2.048h-1.024v-1.024l-1.024-2.048-1.024-1.024h-3.072l-1.024-1.024h-2.048l-3.072 2.048h-2.048v-5.12h-2.048v1.024h-3.072v3.072h-1.024v-1.024l-3.072 3.072-1.024-1.024-2.048-1.024-1.024-1.024h-2.048l-2.048 2.048-2.048 1.024-1.024 1.024v6.144l1.024 1.024h1.024v2.048h1.024l1.024 1.024-2.048 2.048v2.048l2.048 1.024 1.024 1.024v2.048h-1.024l-4.096-2.048-2.048 2.048 1.024 1.024h1.024v1.024l1.024 1.024v1.024l-1.024 3.072-1.024 1.024h-2.048l-1.024 1.024 2.048 2.048v3.072l-1.024 3.072-2.048 3.072h1.024l1.024 1.024h1.024l3.072 1.024h1.024v1.024l1.024 1.024v1.024h1.024l2.048 1.024 1.024 1.024v5.12l-1.024 4.096v7.168l6.144-3.072 13.312-5.12h4.096l3.072-1.024h-3.072l1.024-1.024 2.048 1.024h4.096l7.168-1.024h-6.144l2.048-1.024h2.048l7.168 2.048h3.072v-1.024l1.024-1.024h1.024l-1.024 1.024 1.024 1.024h3.072zM355.328 487.424v-4.096l-1.024-2.048 1.024-8.192v-2.048l2.048-1.024h1.024v-1.024h1.024v-1.024l1.024-2.048 1.024-3.072v-1.024h1.024l1.024-1.024h1.024v-5.12h1.024l1.024-1.024v-4.096l-2.048-3.072-1.024-3.072 1.024-3.072-1.024-1.024-3.072-2.048-2.048-3.072-1.024-1.024h-2.048l-3.072 1.024-1.024 1.024v3.072l-1.024 2.048-1.024 1.024-4.096 2.048h-5.12v1.024l-2.048 2.048h-1.024v1.024h-1.024l-1.024 1.024v1.024l-1.024 1.024v4.096l1.024 1.024 3.072 2.048 2.048 2.048v6.144l1.024 1.024 1.024 3.072 1.024 1.024v20.48l-1.024 1.024v1.024l1.024 2.048v1.024l1.024 1.024v1.024l1.024 1.024h-1.024l-1.024 1.024 6.144-1.024 5.12-1.024 1.024-9.216zM334.848 499.712l-1.024-1.024h-1.024v-2.048l-1.024-1.024v-7.168h-1.024v-2.048l1.024-1.024v-6.144h1.024v-2.048l-3.072-2.048v-1.024l1.024-2.048v-6.144h-3.072l1.024-1.024v-3.072l1.024-1.024v-2.048l-1.024-1.024v-1.024l-4.096-4.096v-1.024l1.024-1.024v-2.048l-1.024-1.024h-2.048l-1.024 1.024-2.048 1.024h-3.072l-3.072-1.024-11.264 1.024-6.144-1.024-2.048 2.048v2.048l1.024 3.072 1.024 2.048v13.312l1.024 3.072 1.024 1.024v5.12h-1.024v1.024l-2.048 2.048v1.024l-1.024 2.048-1.024 3.072v1.024l-1.024 3.072-1.024 1.024v6.144l2.048 6.144 1.024 1.024h1.024v1.024l1.024 2.048v1.024l-1.024 1.024h-3.072v1.024l6.144 1.024 1.024 1.024 3.072 1.024h3.072l4.096-3.072h1.024l5.12-1.024 3.072-2.048 6.144-3.072 3.072-1.024h6.144l4.096-4.096v-1.024zM344.064 500.736h1.024l-1.024-1.024v-1.024l-1.024-1.024v-1.024l-1.024-2.048v-1.024l1.024-1.024v-20.48l-1.024-1.024-1.024-3.072-1.024-1.024v-6.144l-2.048-2.048-3.072-2.048-1.024-1.024v-4.096l1.024-1.024v-1.024h-4.096l-6.144-2.048 1.024 1.024v2.048l-1.024 1.024v1.024l5.12 5.12v3.072l-1.024 1.024v4.096h2.048v6.144l-1.024 2.048v1.024l3.072 2.048v2.048h-1.024v6.144l-1.024 1.024v2.048h1.024v7.168l1.024 1.024v2.048h1.024l1.024 1.024 3.072 2.048v1.024h1.024l2.048-1.024h2.048l1.024-1.024zM407.552 181.248c0-1.024 1.024-2.048 1.024-2.048l1.024-2.048 2.048-1.024 2.048-2.048 2.048-4.096v-4.096l-1.024-5.12v-3.072l1.024-2.048v-4.096h-1.024v-2.048l2.048-1.024 1.024-1.024v-2.048l-5.12 1.024h-4.096l-3.072-2.048-2.048-1.024v2.048h-3.072l-5.12-2.048-1.024 1.024h-1.024l-2.048 2.048h-1.024l-4.096 2.048h-2.048l-1.024 1.024-1.024-1.024h-2.048l-2.048-2.048h-1.024l-3.072-1.024-3.072 1.024-8.192 1.024h-5.12l-3.072 2.048h-1.024l-3.072 1.024h-9.216l-3.072 1.024h-2.048l-5.12 2.048-2.048 2.048h-1.024l-3.072 3.072-5.12 1.024-2.048 1.024-3.072 1.024-4.096 4.096-6.144 2.048h-3.072l4.096 4.096h1.024v1.024l-1.024 1.024 1.024 1.024v1.024h1.024l-1.024 1.024v1.024l1.024 2.048v10.24l1.024 1.024v2.048h1.024v2.048l1.024 1.024v1.024l3.072 2.048v1.024l-1.024 1.024v3.072h-18.432v1.024l-2.048 2.048-4.096 2.048h-4.096l1.024 3.072-1.024 2.048 1.024 1.024h1.024l1.024 1.024-1.024 1.024h-3.072l-11.264 6.144-3.072 4.096-2.048 1.024-11.264 2.048-1.024 2.048v1.024h-1.024l-5.12-1.024-3.072 3.072h-2.048l-11.264 8.192v17.408l41.984 27.648 63.488 44.032 1.024 1.024v3.072l1.024 1.024v1.024h1.024l2.048 1.024h1.024v2.048l2.048 1.024h1.024l2.048 1.024h1.024l2.048 2.048h1.024l2.048 1.024h2.048l2.048 1.024 2.048 2.048v4.096l-1.024 1.024v2.048l2.048 1.024h3.072l6.144-2.048 14.336-2.048 4.096-1.024 3.072-3.072 11.264-10.24 7.168-6.144 44.032-27.648-2.048-5.12-1.024-3.072-2.048-1.024-1.024-1.024-7.168-2.048h-1.024l-1.024 1.024h-1.024l-2.048-2.048-1.024-2.048-2.048-7.168-1.024-2.048-4.096-6.144-1.024-1.024 1.024-1.024v-1.024l1.024-1.024h1.024l1.024-1.024 1.024-2.048v-2.048l-1.024-2.048v-5.12l1.024-3.072v-17.408l-2.048-4.096v-2.048l-1.024-1.024-1.024-2.048-1.024-1.024v-2.048l1.024-1.024-4.096-19.456-1.024-2.048-2.048-2.048-4.096-2.048-1.024-2.048-1.024-1.024v-1.024l-1.024-2.048v-1.024h-1.024l-2.048-1.024-2.048-2.048-1.024-3.072-1.024-2.048v-4.096c0 0 0 0 1.024 0zM403.456 340.992l-11.264 10.24-3.072 3.072-4.096 1.024-13.312 2.048-1.024 24.576v3.072l-1.024 3.072-2.048 7.168v1.024l-2.048 2.048h-1.024l-1.024 1.024v1.024h-4.096l-18.432 1.024h-1.024l-3.072 3.072h-1.024l-2.048 1.024-2.048-1.024h-3.072l-1.024 1.024v6.144h1.024v2.048h1.024v2.048l1.024 1.024v1.024l1.024 1.024 4.096 2.048 1.024 1.024 2.048 1.024h-3.072v2.048l1.024 2.048 4.096 3.072 1.024 1.024h2.048l2.048-1.024h2.048l1.024 1.024v2.048l-1.024 1.024v1.024l1.024 1.024 1.024 2.048 1.024 1.024v-3.072l1.024-1.024 3.072-1.024h2.048l1.024 1.024 2.048 3.072 3.072 2.048 1.024 1.024 1.024-2.048v-8.192l4.096-4.096 1.024-4.096v-1.024l1.024-1.024 4.096-2.048h5.12l3.072-1.024h3.072l6.144 2.048 2.048 1.024 5.12 5.12 2.048 1.024 3.072-1.024 3.072-2.048h3.072l3.072 1.024 2.048 1.024 3.072 2.048 2.048 1.024h7.168l3.072-3.072 2.048-1.024 3.072-1.024 4.096-1.024h7.168l9.216 3.072 3.072-1.024 5.12-4.096 3.072-1.024 4.096-1.024-2.048-5.12v-2.048l8.192-12.288 11.264-13.312 2.048-3.072 1.024-2.048 2.048-29.696v-2.048l1.024-1.024 1.024-2.048v-3.072l-4.096-4.096 1.024-1.024v-1.024l-1.024-1.024-3.072-4.096v-1.024l-1.024-2.048-2.048-15.36-6.144 4.096h-2.048l-6.144-6.144-4.096-1.024-14.336-3.072-44.032 27.648zM490.496 330.752v1.024l3.072 4.096 1.024 1.024v1.024l-1.024 1.024 4.096 4.096v3.072l-1.024 2.048-1.024 1.024v2.048l-2.048 29.696-1.024 2.048-2.048 3.072-11.264 13.312-8.192 12.288v2.048l2.048 5.12 4.096 7.168h3.072l1.024 1.024h1.024l1.024 1.024v2.048h1.024l1.024 1.024v1.024l1.024 1.024 1.024 4.096 1.024 2.048v12.288l1.024 2.048 1.024 3.072 2.048 2.048 2.048 1.024-1.024 1.024h-13.312l-2.048 1.024-1.024 1.024v2.048l1.024 2.048 2.048 2.048 3.072 2.048 8.192 8.192 2.048 6.144-1.024 2.048h5.12l4.096-2.048h1.024l2.048-2.048 1.024 3.072h2.048l8.192-4.096h9.216l1.024-1.024h1.024l4.096-5.12v-2.048l-2.048-2.048 2.048-1.024h7.168l5.12-1.024 2.048-1.024 3.072-1.024 1.024-2.048 5.12-5.12 3.072-2.048 2.048-2.048v-3.072h1.024v-1.024l5.12-2.048 2.048-1.024h2.048l2.048 1.024 1.024-2.048v-3.072l-1.024-1.024-2.048-1.024v-1.024l-1.024-1.024v-4.096h-1.024l-1.024-4.096 1.024-1.024-2.048-2.048-3.072 1.024-2.048-2.048 2.048-3.072 3.072-3.072v-1.024l-2.048-3.072v-1.024h1.024v-1.024l4.096-2.048v-1.024l-1.024-1.024-1.024-3.072 2.048-1.024h1.024v-1.024h1.024v-3.072l3.072-3.072-1.024-1.024v-2.048h1.024v-1.024h4.096l1.024-1.024h2.048l3.072 1.024v-44.032l-86.016-45.056-11.264 5.12 2.048 15.36 1.024 2.048zM568.32 449.536l-2.048 1.024-5.12 2.048v1.024h-1.024v3.072l-2.048 2.048-3.072 2.048-5.12 5.12-1.024 2.048-3.072 1.024-2.048 1.024-5.12 1.024h-7.168l-2.048 1.024 2.048 2.048v2.048l-4.096 5.12h-1.024l-1.024 1.024h-9.216l-8.192 4.096h-2.048l-1.024-3.072-2.048 2.048h-1.024l-4.096 2.048h-5.12v1.024l-2.048 3.072-5.12 7.168v2.048h-1.024v1.024h-2.048v2.048l1.024 1.024v6.144l1.024 7.168 4.096 4.096 1.024 2.048v1.024h-1.024l1.024 3.072 3.072 3.072 5.12 4.096 2.048 4.096v2.048l1.024 3.072 2.048-5.12 1.024-1.024v-4.096l1.024-3.072 2.048-1.024 7.168-1.024h2.048l5.12 1.024h5.12v1.024-2.048l1.024-6.144v-1.024l2.048-2.048 2.048-3.072 3.072-2.048 2.048-1.024 4.096 1.024 3.072 1.024 4.096 4.096h2.048l9.216 2.048h2.048l2.048 1.024 3.072 1.024h2.048l1.024-1.024v-1.024l1.024-1.024 2.048-3.072h7.168l3.072-1.024 5.12-2.048h9.216l1.024-1.024h1.024l2.048-2.048 2.048-1.024 3.072 1.024 7.168 2.048h2.048l2.048-1.024h3.072l1.024 1.024v-1.024l-1.024-1.024v-3.072l-1.024-1.024v-1.024h-1.024v-1.024h-1.024l-2.048-1.024v-1.024h-3.072v-1.024l-1.024-1.024v-1.024l-1.024-1.024v-3.072l-2.048-1.024v-1.024h-1.024v-1.024l-1.024-1.024h-1.024l-1.024-1.024-4.096-2.048-2.048-2.048 1.024-1.024v-1.024l-5.12-5.12h-1.024l-4.096-1.024h-1.024v-1.024l-1.024-1.024 1.024-2.048h-1.024l-1.024-1.024h-5.12v-2.048l-1.024-1.024v-1.024l1.024-2.048v-1.024l1.024-2.048v-3.072h-1.024v-2.048h-1.024v-1.024l-1.024-2.048-6.144-6.144-2.048-1.024zM61.44 404.48h1.024v1.024l-1.024 1.024h-1.024v-2.048h1.024zM62.464 386.048h-1.024l1.024 2.048v-1.024h3.072l-1.024-1.024h-2.048zM70.656 402.432l-2.048-1.024-1.024 2.048 1.024 2.048h2.048l1.024-1.024-1.024-1.024v-1.024zM73.728 401.408v1.024l1.024 1.024v-1.024l-1.024-1.024zM77.824 391.168v0 1.024h-1.024v1.024h2.048l1.024-1.024v-1.024h-2.048zM77.824 387.072v-3.072h-1.024v2.048l1.024 1.024zM55.296 380.928l-2.048-1.024-2.048 2.048v1.024h3.072v-1.024l1.024-1.024zM54.272 384l1.024 1.024v-2.048l-1.024 1.024zM641.024 897.024l-5.12-4.096-2.048-1.024-1.024 1.024-6.144 3.072-3.072 3.072-2.048 3.072-1.024 1.024h-1.024l-1.024 1.024v1.024l1.024 3.072 2.048 3.072 4.096 4.096 2.048 1.024 2.048-1.024 1.024-3.072 2.048-1.024 1.024-1.024 3.072-1.024 2.048-1.024 1.024-1.024 3.072-4.096v-5.12zM681.984 672.768v-2.048l1.024 1.024 3.072 1.024 1.024 1.024h6.144v-1.024h2.048l1.024 2.048 3.072 3.072v5.12l1.024 2.048v5.12l3.072 3.072v2.048h-3.072v1.024l-3.072 5.12v1.024l2.048 12.288 1.024 1.024 3.072 1.024 2.048 2.048 3.072 4.096 3.072 3.072 1.024 3.072 1.024 2.048v1.024l-1.024 3.072v7.168l-1.024 2.048-1.024 1.024h-1.024l-2.048 1.024v1.024l-1.024 1.024v2.048l1.024 4.096v2.048h-3.072l1.024-2.048-5.12-5.12-1.024-2.048-3.072-3.072v-2.048l1.024-2.048 1.024-3.072 1.024-2.048v-6.144l-1.024-2.048h-3.072l-4.096 1.024h-2.048l-1.024-1.024-2.048-3.072-1.024-2.048h-3.072l-1.024-2.048-1.024-1.024v-1.024h-1.024l2.048-2.048 1.024-2.048v-5.12l1.024-1.024v-1.024h1.024l2.048-1.024 2.048-2.048h-2.048v-6.144l-1.024-3.072v-1.024l1.024-2.048v-2.048l-1.024-1.024 1.024-1.024 2.048-1.024 1.024-1.024v-4.096l-1.024-1.024-2.048-1.024v-3.072l-1.024-2.048h-2.048v-1.024h-1.024zM700.416 700.416v0 0zM699.392 700.416v0h1.024l-1.024-1.024v1.024zM147.456 391.168l-1.024 4.096v-6.144l1.024-3.072 1.024-2.048 2.048-6.144 1.024-2.048v-9.216l-1.024-6.144-1.024-1.024v-1.024l-2.048-1.024v-2.048l2.048-2.048h-1.024l-1.024 1.024 2.048-4.096v-6.144l-1.024-2.048-2.048-2.048v1.024l-2.048-2.048-1.024-2.048-1.024-1.024-1.024 3.072v-6.144h43.008v-13.312l-1.024-1.024v-4.096l1.024-1.024 4.096-3.072h1.024v-1.024h3.072l1.024-1.024h1.024l1.024-1.024v-29.696h35.84v-15.36l41.984 27.648h-19.456l10.24 96.256 1.024 1.024v1.024l2.048 2.048v2.048l-1.024 5.12-1.024 2.048h-39.936l-1.024-2.048h-1.024v2.048h-1.024l-1.024 1.024h-5.12l-4.096-1.024h-1.024l-4.096 4.096-5.12-5.12-3.072 1.024-1.024 2.048-1.024 4.096-1.024 2.048-3.072-1.024h-1.024l-7.168-7.168-1.024-2.048-2.048-2.048-1.024-2.048-2.048-1.024h-2.048l-1.024-1.024h-1.024l-1.024-2.048-1.024-1.024-4.096-2.048h-5.12l-8.192 2.048h-2.048l-1.024-1.024h-2.048l-2.048 4.096zM147.456 352.256v0 0h1.024v-2.048h-1.024v2.048zM742.4 370.688h1.024l4.096 8.192 1.024 5.12 1.024 6.144 2.048 4.096 3.072 7.168 1.024 2.048v-2.048l1.024-1.024v-1.024l2.048 2.048 1.024 2.048 2.048 2.048 3.072 1.024 5.12 2.048 2.048 1.024 1.024 2.048 2.048 3.072 2.048 2.048 4.096 2.048 1.024 1.024v1.024l1.024 2.048 1.024 1.024v1.024h1.024l4.096 4.096h1.024v-1.024l1.024 1.024v1.024l-2.048 1.024-1.024 1.024v1.024l-1.024 1.024h-1.024l-1.024-1.024v-1.024l-1.024 1.024-17.408-18.432-4.096-2.048-3.072-2.048h-9.216l-1.024-1.024h-3.072l-2.048 1.024h-3.072l-2.048-1.024-3.072-2.048-1.024-1.024-2.048 5.12v1.024l-1.024 1.024h-1.024l-3.072-3.072-1.024 1.024v1.024h-6.144v-1.024l-1.024-3.072v-6.144h1.024v-2.048l1.024-3.072v-1.024h1.024v-2.048l1.024-1.024v-2.048l1.024-2.048v-4.096l1.024-1.024v-2.048h4.096v-1.024h1.024v-2.048h1.024v-1.024h1.024l1.024-1.024h2.048l2.048-1.024h1.024v-1.024h1.024v-1.024h1.024v-1.024l1.024-1.024v-1.024zM757.76 397.312v0h1.024l2.048 1.024h1.024l-1.024-1.024h-1.024v-1.024l-1.024-1.024h-1.024v1.024h1.024v1.024h-1.024zM758.784 393.216v0-1.024l-1.024 1.024h1.024zM745.472 616.448l4.096 3.072-1.024 5.12-3.072 8.192v3.072l1.024 2.048v1.024l2.048 1.024 2.048 2.048v1.024h2.048l1.024 2.048-1.024 1.024-1.024 2.048-1.024 1.024v4.096h1.024v5.12l-1.024 2.048 1.024 2.048 2.048 6.144 1.024 2.048 1.024 4.096v3.072h1.024l1.024 1.024 4.096 2.048 1.024 1.024v1.024l-3.072 2.048-4.096 3.072-4.096 1.024-5.12 2.048-2.048 1.024h-2.048v1.024l-4.096-1.024-1.024-1.024-1.024 1.024h-1.024v1.024l-3.072 3.072h-3.072l-3.072-1.024h-2.048l-3.072 1.024h-3.072l-2.048-2.048h-4.096l-1.024 1.024h-7.168v-2.048l-3.072-3.072v-5.12l-1.024-2.048v-5.12l-3.072-3.072-1.024-2.048h-2.048l-1.024 1.024h-5.12l-1.024-1.024-3.072-1.024-1.024-1.024h-2.048l-4.096-2.048-3.072-1.024-1.024-1.024-3.072-1.024-1.024-1.024h-1.024v-1.024l-1.024-1.024h-2.048l-2.048-1.024h-1.024l-1.024-1.024-1.024-2.048-2.048-6.144-3.072-5.12-2.048-3.072-4.096-3.072-2.048-3.072v-10.24l-2.048-4.096v-5.12l1.024-1.024 3.072-1.024 2.048-1.024 1.024-1.024 7.168-9.216 1.024-2.048h1.024l-1.024-1.024v-1.024h-2.048l-2.048-2.048v-1.024l1.024-2.048 1.024-1.024h2.048v-1.024l1.024-1.024v-1.024l-1.024-3.072v-4.096l-1.024-1.024-2.048-1.024v-2.048h2.048l3.072-1.024h31.744l2.048 1.024h2.048l3.072 3.072 7.168 3.072v1.024l4.096 2.048 3.072 1.024 2.048 1.024 9.216 5.12 2.048 2.048 2.048 1.024 3.072 1.024 1.024 1.024v6.144l2.048 1.024 3.072 3.072 7.168 4.096zM750.592 630.784v1.024l-1.024 2.048v2.048l3.072 3.072 1.024-1.024-2.048-5.12-1.024-2.048zM754.688 655.36l2.048-2.048-3.072 2.048h1.024zM754.688 626.688l1.024 1.024h1.024v-5.12h-2.048v4.096zM793.6 697.344v0-4.096h1.024v1.024l1.024 3.072v1.024h-1.024l-1.024-1.024zM806.912 703.488v0 0-3.072l-1.024 1.024h-2.048l1.024 1.024h1.024l1.024 1.024zM798.72 703.488h1.024l-1.024-1.024h-1.024v1.024h1.024zM775.168 586.752v1.024l-1.024 1.024h-1.024l-1.024 1.024h-1.024l-1.024 1.024-1.024-1.024v1.024h-1.024v3.072l-2.048 2.048h-2.048l-1.024 1.024h-1.024l-1.024 1.024v2.048l-1.024 2.048v1.024l-5.12 10.24-1.024 3.072-2.048 2.048h-1.024l-1.024 1.024-4.096-3.072-7.168-5.12-3.072-2.048-2.048-1.024v-6.144l-1.024-1.024-3.072-1.024-2.048-1.024-2.048-2.048-25.6-13.312-3.072-2.048-4.096-2.048v-7.168l1.024-4.096 1.024-3.072 3.072-6.144 3.072-3.072h1.024l1.024-1.024v-2.048l1.024-1.024v-1.024l1.024-1.024-1.024-1.024-1.024-6.144v-2.048l-1.024-1.024-2.048-4.096-1.024-1.024v-4.096l-1.024-2.048h-2.048v-1.024l-2.048-4.096 3.072-3.072 11.264-10.24v1.024h4.096l1.024 1.024v5.12l1.024 2.048 1.024 1.024h2.048l6.144 1.024 4.096 2.048 9.216 5.12 2.048 1.024h2.048l4.096 1.024 5.12 1.024h4.096l1.024-1.024v-1.024l3.072-3.072 7.168-3.072h2.048l1.024 1.024h1.024l1.024 1.024 2.048 1.024h6.144v1.024l-5.12 7.168-4.096 3.072v40.96l1.024 1.024 1.024 2.048 3.072 3.072v1.024h1.024v1.024zM769.024 592.896l1.024-1.024v-1.024h-1.024v2.048zM949.248 789.504l-2.048 2.048-1.024 3.072 1.024 1.024h2.048l1.024-2.048v-2.048zM871.424 736.256v4.096l-2.048 3.072h-1.024l-1.024-1.024-2.048-4.096h-2.048v5.12l1.024 3.072v4.096l-1.024 2.048v2.048l-2.048 2.048v2.048l-1.024 1.024 1.024 4.096-1.024 4.096-23.552 75.776-1.024 3.072-2.048 2.048-4.096 2.048h-4.096l-8.192 4.096h-3.072l-3.072-2.048-5.12-1.024-5.12-5.12v-3.072l-2.048-2.048v-2.048l-1.024-1.024v-4.096l1.024-3.072v-2.048l-1.024-1.024-1.024-2.048-2.048-3.072v-1.024l-1.024-2.048v-8.192l2.048-5.12v-1.024l1.024-1.024 2.048-1.024 6.144-12.288 1.024-3.072v-6.144l-1.024-3.072-1.024-5.12-2.048-5.12-1.024-7.168 1.024-1.024v-2.048l3.072-5.12 1.024-1.024v-4.096l1.024-1.024v-1.024h4.096l1.024-1.024 2.048-1.024h5.12v-1.024l1.024-1.024h1.024l2.048-1.024h2.048l1.024 1.024v1.024h2.048l-1.024-3.072 2.048-3.072 3.072-1.024 2.048 2.048 1.024-1.024v-3.072l1.024-2.048 2.048-2.048 1.024 1.024-1.024 1.024v1.024h1.024l1.024-1.024 1.024-2.048 1.024-1.024h2.048l-2.048-1.024v-2.048l2.048-4.096h-1.024v-3.072l1.024-1.024h1.024l1.024 1.024h1.024v-1.024l1.024-1.024 4.096-2.048 2.048-4.096v-2.048l-1.024-3.072 4.096-4.096h1.024l2.048 2.048 1.024 3.072 2.048 4.096 1.024 1.024 3.072 8.192v8.192l1.024 2.048 2.048 6.144zM865.28 754.688v1.024l-1.024 1.024 1.024-2.048zM848.896 713.728l-1.024-1.024v1.024h-1.024v1.024l1.024 1.024h1.024v-2.048zM926.72 799.744h-2.048l-1.024 2.048 1.024 2.048 2.048 2.048h2.048l1.024-3.072-1.024-2.048zM201.728 492.544l-1.024 1.024-1.024-1.024-2.048-1.024-7.168-3.072v-4.096l-1.024 1.024h-1.024l-1.024-1.024h-1.024v-1.024l-1.024-2.048v-1.024h-2.048l-1.024-1.024v-2.048h2.048v-1.024h1.024v-1.024h-3.072v-2.048h1.024l1.024-1.024h-2.048v-1.024h-1.024l2.048-1.024h1.024v-1.024l1.024-1.024h1.024v-1.024h1.024l1.024-1.024 1.024-3.072 2.048-2.048h5.12v-1.024h6.144l5.12 5.12 1.024 2.048 1.024 1.024v1.024l-1.024 1.024h1.024v1.024h1.024v2.048l1.024 1.024-1.024 1.024-1.024 3.072h1.024l2.048-1.024h1.024v2.048l-1.024 1.024h-1.024l-1.024 1.024-1.024 3.072v1.024l-1.024 1.024-4.096 3.072-3.072 3.072zM188.416 486.4h-3.072l2.048 1.024h1.024l1.024 1.024 1.024-1.024-1.024-1.024h-1.024zM175.104 243.712l1.024 3.072-2.048 3.072-3.072 2.048h-2.048l2.048-1.024 2.048-6.144 2.048-1.024zM177.152 242.688l3.072-3.072v-1.024h-1.024l-2.048 1.024-1.024 1.024-1.024 2.048h2.048zM133.12 242.688h-2.048v2.048l1.024 1.024v1.024h1.024v-1.024l1.024-1.024-1.024-1.024v-1.024zM130.048 256h-1.024l1.024 1.024h1.024l1.024-1.024h-2.048zM154.624 251.904v2.048l1.024 2.048h1.024l2.048-1.024v-3.072l-2.048-1.024-2.048 1.024zM138.24 250.88v0 2.048h2.048v-1.024l-1.024-1.024h-1.024zM145.408 252.928l2.048-1.024v-1.024l1.024-1.024v-1.024l2.048-2.048v-1.024l-1.024 1.024-3.072 1.024h-1.024l-2.048 1.024h-1.024l2.048 3.072 1.024 1.024zM163.84 448.512l-1.024 1.024-1.024-1.024 1.024-1.024h-1.024l-1.024 1.024v-1.024l-1.024-1.024h-1.024l1.024-2.048h-2.048l1.024-1.024h1.024l1.024-1.024h-3.072v-2.048l1.024-1.024h3.072l1.024-1.024h-4.096l-1.024 1.024h-1.024l-1.024 1.024h-3.072l1.024-1.024h-3.072l-2.048-2.048 1.024-1.024v-1.024h-3.072l-2.048-1.024h2.048l3.072-1.024 6.144-1.024h2.048l2.048-1.024 4.096-1.024h4.096l9.216 1.024v3.072l-1.024 1.024h-1.024v1.024l1.024 1.024 1.024 2.048v1.024l-1.024 1.024h-1.024l-3.072 1.024h-2.048l-3.072 2.048h-1.024l-1.024 1.024v1.024l-1.024 2.048zM152.576 447.488v0 1.024h1.024v-1.024h-1.024zM155.648 446.464l-1.024 1.024h1.024v-1.024zM156.672 442.368v1.024h1.024v-1.024h-1.024zM153.6 443.392l-1.024-1.024v2.048h1.024v-1.024zM152.576 439.296h-2.048v1.024h2.048v-1.024zM150.528 447.488h-1.024l1.024 1.024h1.024v-1.024h-1.024zM420.864 512l-3.072 5.12h-1.024l-2.048-1.024v1.024l1.024 1.024-1.024 1.024-5.12 1.024h-2.048l-1.024-2.048-1.024 1.024h-2.048l-1.024-1.024v3.072h-2.048l-1.024-1.024v-1.024 2.048l-1.024 1.024h-1.024v-1.024l-1.024-1.024v1.024l-1.024 1.024h-2.048v-1.024l-1.024 1.024h-1.024l-1.024-1.024-2.048-1.024-3.072-3.072-1.024-2.048v-2.048h-1.024l2.048-2.048v-1.024h-3.072v-1.024h1.024l1.024-1.024h-1.024v-1.024l-1.024 1.024-6.144-6.144-3.072-2.048h-10.24l3.072-2.048h-2.048l-2.048 2.048h-7.168l1.024-9.216v-7.168l-1.024-2.048 1.024-8.192v-2.048l2.048-1.024h1.024v-1.024h1.024v-1.024l1.024-2.048 1.024-3.072v-1.024h1.024l1.024-1.024h1.024v-5.12h1.024l1.024-1.024v-4.096l-2.048-3.072-1.024-3.072 1.024-3.072 1.024-2.048v-8.192l4.096-4.096 1.024-4.096v-1.024l1.024-1.024 4.096-2.048h5.12l3.072-1.024h3.072l6.144 2.048 2.048 1.024 5.12 5.12 2.048 1.024 3.072-1.024 3.072-2.048h3.072l3.072 1.024 2.048 1.024 3.072 2.048 2.048 1.024h7.168l3.072-3.072 2.048-1.024 3.072-1.024 4.096-1.024h7.168l9.216 3.072 3.072-1.024 5.12-4.096 3.072-1.024 4.096-1.024 4.096 7.168 1.024 5.12 1.024 2.048 1.024 1.024h2.048l1.024 1.024v7.168l-1.024 1.024v1.024l-1.024 1.024h-2.048l-2.048 1.024-2.048 2.048-1.024 2.048-1.024 1.024-4.096 8.192v4.096l-1.024 1.024-2.048 1.024-1.024 2.048v1.024l-1.024 2.048v1.024l-1.024 2.048h-1.024l-3.072 3.072v1.024l-3.072 7.168v1.024l-2.048 3.072v2.048l-1.024 1.024v1.024h-1.024l-1.024 1.024v1.024l-1.024 1.024v1.024h-1.024l-2.048 1.024-1.024-1.024-1.024-2.048-3.072-3.072h-2.048v2.048h-3.072v-1.024l-1.024-1.024-5.12 5.12-5.12 4.096-3.072 6.144-1.024 4.096zM403.456 520.192v0l-1.024 1.024h2.048v-1.024h-1.024zM314.368 200.704l-1.024-1.024-3.072-2.048v-1.024l-1.024-1.024v-2.048h-1.024v-1.024l-1.024-2.048v-10.24l-1.024-2.048v-1.024l1.024-1.024h-1.024v-1.024l-1.024-1.024 1.024-1.024v-1.024h-1.024l-4.096-4.096h-5.12l-2.048-1.024-1.024-2.048-1.024 1.024-2.048 1.024h-7.168l-3.072 1.024h-1.024l-3.072-1.024-4.096-3.072-3.072-3.072v-2.048h-3.072l-2.048 1.024h-1.024l-1.024 1.024-1.024 2.048-1.024 4.096-3.072 7.168-4.096 6.144-2.048 2.048-3.072 2.048-9.216 5.12-3.072 1.024-8.192 8.192-1.024 2.048-1.024 3.072-1.024 2.048-3.072 4.096-1.024 3.072v8.192l1.024 2.048 1.024 1.024v4.096l-1.024 1.024-5.12 7.168-2.048 3.072-12.288 9.216-3.072 2.048-8.192 2.048h-2.048l-1.024 1.024h-1.024v1.024l-2.048 2.048h48.128v-12.288l11.264-8.192h2.048l3.072-3.072 5.12 1.024h1.024v-1.024l1.024-2.048 11.264-2.048 2.048-1.024 3.072-4.096 11.264-6.144h3.072l1.024-1.024-1.024-1.024h-1.024l-1.024-1.024 1.024-2.048-1.024-3.072h4.096l4.096-2.048 2.048-2.048v-1.024h18.432v-3.072l1.024-1.024h1.024zM231.424 272.384v-15.36h-48.128l-3.072 7.168-1.024 3.072-2.048 3.072-2.048 1.024-3.072 1.024-3.072 3.072v1.024l-4.096 8.192v6.144l-2.048 4.096-5.12 5.12-3.072 2.048-1.024 1.024-1.024 2.048 2.048-2.048v2.048l-2.048 2.048-2.048 4.096-1.024 4.096-1.024 3.072-1.024 2.048h-1.024l-3.072 3.072v1.024l-1.024 1.024-1.024 8.192-1.024 3.072 1.024 2.048v-6.144h43.008v-13.312l-1.024-1.024v-4.096l1.024-1.024 4.096-3.072 1.024-1.024h3.072l1.024-1.024h1.024l1.024-1.024v-29.696h35.84v-5.12zM833.536 482.304v0l-9.216-3.072-8.192-3.072-2.048-1.024-3.072-1.024-8.192-3.072h-1.024l-2.048-1.024-3.072-3.072h-1.024l-1.024-1.024v-1.024l-1.024-1.024-1.024-2.048v-1.024h-1.024l-2.048-2.048v-1.024h-1.024v-2.048l-1.024-1.024v-3.072l2.048-2.048-1.024-1.024h-2.048l-6.144 1.024h-2.048v-1.024l-1.024-1.024v-4.096l2.048-4.096 5.12-6.144-17.408-18.432-4.096-2.048-3.072-2.048h-9.216l-1.024-1.024h-3.072l-2.048 1.024h-3.072l-2.048-1.024-3.072-2.048-1.024-1.024-2.048 5.12v1.024l-1.024 1.024h-1.024v-1.024l-2.048-1.024-1.024-1.024-1.024 1.024v1.024h-6.144l-1.024 2.048v4.096l-1.024 1.024v1.024l-1.024 1.024v1.024l-1.024 1.024v6.144h-4.096l-3.072 3.072-1.024 3.072-2.048 2.048-1.024 2.048v1.024h-1.024v2.048l-1.024 2.048v5.12l-1.024 1.024h-2.048l-1.024-1.024-2.048 2.048-1.024 2.048v5.12l-1.024 1.024v2.048h-1.024v13.312h-1.024v1.024h-8.192v1.024l-2.048 3.072v3.072h2.048l1.024 1.024h3.072l1.024 1.024h1.024l2.048 2.048v1.024l1.024 1.024 1.024 2.048h1.024l1.024 1.024h1.024v1.024h1.024v1.024h1.024l1.024 1.024v1.024l1.024 4.096h1.024v3.072l1.024 1.024v1.024l2.048 2.048h1.024v1.024l1.024 1.024h3.072l1.024 1.024v5.12l1.024 2.048 1.024 1.024h2.048l6.144 1.024h2.048l2.048 2.048 9.216 5.12 2.048 1.024h2.048l4.096 1.024 5.12 1.024h4.096l1.024-1.024v-1.024l3.072-3.072 7.168-3.072h2.048l1.024 1.024h1.024l1.024 1.024 2.048 1.024h6.144l1.024-1.024v-1.024h2.048v-1.024h5.12l1.024-1.024h2.048v-1.024l1.024-1.024v-1.024h1.024l1.024-1.024 4.096-2.048h3.072l1.024-1.024h3.072l3.072 1.024h5.12v-1.024h1.024l2.048-3.072 8.192-8.192 4.096-5.12 2.048-1.024 3.072-3.072 1.024-2.048 4.096-3.072 7.168-7.168zM742.4 369.664l-1.024-1.024-2.048-1.024h-1.024l-4.096-4.096-2.048-1.024-2.048-4.096-1.024-3.072-1.024-9.216v-6.144l-1.024-3.072v-2.048l1.024 1.024h1.024l-1.024-1.024v-1.024l-2.048-2.048-1.024-2.048v-3.072l-1.024-2.048h-58.368l1.024-1.024-1.024-1.024h-1.024v1.024l-1.024 1.024h-67.584v23.552h-11.264v49.152l-3.072-1.024h-2.048l-1.024 1.024h-4.096v1.024h-1.024v2.048l1.024 1.024-3.072 3.072v3.072h-1.024v1.024h-1.024l-2.048 1.024 1.024 3.072 1.024 1.024v1.024l-4.096 2.048v1.024h-1.024v1.024l2.048 3.072v1.024l-3.072 3.072-2.048 3.072 2.048 2.048 3.072-1.024 2.048 2.048-1.024 1.024 1.024 4.096h1.024v4.096l1.024 1.024v1.024l2.048 1.024 1.024 1.024v3.072l-1.024 2.048 6.144 6.144 1.024 2.048v1.024h1.024v2.048h1.024v2.048h2.048l4.096-1.024 2.048-1.024h3.072l3.072-3.072v-1.024l2.048-2.048h4.096l1.024-1.024h2.048v1.024l1.024 2.048 6.144 6.144 2.048 1.024 4.096-1.024h9.216l1.024 1.024v1.024l1.024 1.024h8.192v-1.024l3.072-3.072h2.048l1.024-1.024h1.024l1.024-1.024v-2.048h1.024l2.048-2.048h2.048l2.048 1.024 4.096 4.096h3.072l4.096-1.024 3.072-3.072 3.072-4.096 2.048-3.072 2.048-1.024 1.024-1.024v-2.048l-1.024-5.12v-2.048l-2.048-2.048h7.168v-2.048h5.12l-1.024 6.144v7.168l1.024 2.048-1.024 1.024h1.024l1.024 1.024h1.024l2.048 1.024 2.048 2.048 1.024 2.048 1.024 3.072-1.024 3.072v2.048h2.048v-3.072h1.024v-2.048l1.024-1.024v-6.144l3.072-3.072 1.024 1.024h2.048l1.024-1.024v-5.12l1.024-2.048v-2.048h1.024v-1.024l1.024-2.048 2.048-2.048 1.024-3.072 1.024-1.024v-1.024h1.024l1.024-1.024h4.096v-6.144l1.024-1.024v-1.024l1.024-1.024v-1.024l1.024-1.024v-4.096l1.024-2.048v-1.024l-1.024-3.072v-6.144h1.024v-2.048l1.024-3.072v-1.024h1.024v-2.048l1.024-1.024 1.024-2.048v-6.144l1.024-1.024v-2.048h4.096v-1.024h1.024v-2.048h1.024v-1.024h1.024l1.024-1.024h2.048l2.048-1.024h1.024v-1.024h1.024v-1.024h1.024v-1.024l1.024-1.024v-1.024h1.024zM706.56 508.928v0l-2.048-2.048v-1.024l-1.024-1.024v-3.072h-1.024l-1.024-4.096v-1.024l-1.024-1.024h-1.024v-1.024h-1.024v-1.024h-1.024l-1.024-1.024h-1.024l-1.024-2.048-1.024-1.024v-1.024l-2.048-2.048h-1.024l-1.024-1.024-4.096-1.024h-2.048v-3.072l2.048-3.072v-1.024h8.192v-1.024h1.024v-10.24h-2.048v-2.048l1.024-3.072-1.024-3.072-1.024-2.048-2.048-2.048-2.048-1.024h-1.024l-1.024-1.024h-1.024l1.024-1.024-1.024-2.048v-7.168l1.024-6.144h-5.12v2.048h-7.168l2.048 2.048v2.048l1.024 5.12v2.048l-1.024 1.024-2.048 1.024-2.048 3.072-3.072 4.096-3.072 3.072-4.096 1.024h-3.072l-4.096-4.096-2.048-1.024h-2.048l-2.048 2.048h-1.024v2.048l-1.024 1.024h-1.024l-1.024 1.024h-2.048l-3.072 3.072v1.024h-8.192l-1.024-1.024v-1.024l-1.024-1.024h-9.216l-4.096 1.024-2.048-1.024-6.144-6.144-1.024-2.048v-1.024h-2.048l-1.024 1.024h-4.096l-2.048 2.048v1.024l-3.072 3.072h-3.072l-2.048 1.024-4.096 1.024h-2.048v1.024l-1.024 2.048v1.024l-1.024 2.048v1.024l1.024 1.024v2.048h5.12l1.024 1.024h1.024l-1.024 2.048 1.024 1.024v1.024h1.024l4.096 1.024h1.024l5.12 5.12v1.024l-1.024 1.024 1.024 1.024h1.024v1.024l4.096 2.048 1.024 1.024h1.024l1.024 1.024v1.024h1.024v1.024l2.048 1.024v3.072l1.024 1.024v1.024l1.024 1.024v1.024h3.072v1.024l2.048 1.024h1.024v1.024h1.024v1.024l1.024 1.024v3.072l1.024 1.024v1.024h1.024v1.024h1.024l2.048 2.048v1.024l1.024 1.024h1.024l3.072 3.072h2.048l3.072-2.048h3.072l1.024 1.024h2.048l2.048-2.048h2.048l2.048 2.048v1.024l2.048 1.024 4.096 4.096h1.024l1.024 1.024v1.024h2.048v1.024l1.024 1.024v-1.024l1.024-1.024 2.048-1.024h3.072v1.024h1.024l1.024-1.024h3.072v1.024l1.024 1.024h2.048v-1.024l2.048-1.024h4.096l1.024-1.024h3.072v1.024h4.096l2.048-3.072 3.072-2.048 14.336-14.336h-1.024zM881.664 455.68l-2.048-2.048v1.024h-1.024v1.024h-1.024l1.024-2.048v-7.168l1.024-6.144-4.096-1.024h-1.024l-5.12 3.072h-2.048l-4.096 2.048-4.096 1.024-2.048 1.024h-2.048l-3.072-1.024h-1.024l-2.048 1.024-3.072 1.024h-9.216l-6.144 4.096h-10.24l-3.072 1.024-6.144 3.072-6.144-1.024-4.096-2.048-7.168-9.216-1.024 1.024-1.024 3.072-4.096 4.096v3.072l1.024 1.024v2.048h1.024v1.024l2.048 2.048h1.024v1.024l1.024 2.048 1.024 1.024v1.024l1.024 1.024h2.048v1.024l2.048 1.024 2.048 2.048h1.024l8.192 3.072 15.36 5.12 7.168 3.072h11.264l-7.168 7.168-4.096 3.072-1.024 2.048-3.072 3.072-2.048 1.024-4.096 5.12-10.24 11.264h-1.024v1.024h-5.12l-3.072-1.024h-3.072l-1.024 1.024h-3.072l-4.096 2.048-1.024 1.024h-1.024v1.024l-1.024 1.024v1.024h-2.048l-1.024 1.024h-5.12v1.024h-2.048v1.024l-1.024 1.024-2.048 3.072-3.072 5.12-1.024 1.024-3.072 2.048v40.96l1.024 1.024 1.024 2.048 4.096 4.096v2.048l1.024-2.048 3.072-5.12 1.024-1.024 18.432-20.48 11.264-8.192 10.24-6.144 4.096-3.072 6.144-6.144 12.288-13.312 10.24-14.336 2.048-4.096 3.072-8.192 4.096-7.168 3.072-6.144 3.072-3.072 7.168-14.336 1.024-7.168 2.048-2.048h3.072zM398.336 565.248v2.048l-1.024 1.024h-1.024l-1.024-2.048 1.024-1.024h2.048zM404.48 551.936h1.024v-1.024l-1.024 1.024zM263.168 744.448h1.024v-1.024h-1.024zM169.984 654.336v1.024h1.024l-1.024-1.024zM430.080 557.056l-1.024 1.024v-1.024h-1.024l-1.024-1.024v-1.024l1.024-1.024 3.072-6.144v-4.096l2.048 2.048h15.36v12.288h-17.408v-1.024h-1.024zM421.888 530.432v-2.048h-2.048l-1.024 1.024v1.024l-1.024 1.024h-1.024v1.024l2.048 2.048 2.048-2.048 1.024-2.048zM926.72 620.544v-1.024l-1.024-1.024h-1.024l2.048 2.048zM417.792 147.456v-2.048l4.096-1.024 3.072-2.048 4.096-2.048 3.072 1.024-1.024 1.024 1.024 1.024v-2.048l3.072 1.024v1.024l2.048 4.096h1.024l1.024-1.024 3.072-1.024 1.024-1.024h2.048v2.048l-1.024 2.048-5.12 5.12v4.096l1.024 1.024 3.072 2.048 1.024 2.048 1.024 1.024v3.072l-1.024 1.024-3.072 6.144-5.12 3.072-2.048 3.072 1.024 3.072 3.072 2.048h3.072v2.048l1.024 1.024 2.048-2.048 1.024 1.024 1.024 2.048 1.024 1.024-1.024 1.024h3.072v9.216l-7.168 5.12h-1.024l-2.048 2.048v1.024l-1.024 1.024h-1.024l-2.048 2.048v1.024l1.024 4.096v1.024l-1.024 3.072-4.096 4.096-3.072 1.024-4.096-19.456-1.024-2.048-2.048-2.048-4.096-2.048-1.024-2.048-1.024-1.024v-1.024l-1.024-2.048v-1.024h-1.024l-2.048-1.024-2.048-2.048-1.024-3.072-1.024-2.048v-4.096l2.048-2.048 1.024-2.048 2.048-1.024 2.048-2.048 2.048-4.096v-4.096l-1.024-5.12v-3.072l1.024-2.048v-4.096h-1.024v-2.048l2.048-1.024 1.024-1.024zM442.368 183.296l-1.024 1.024v1.024h3.072v-1.024l-1.024-1.024h-1.024zM447.488 173.056v0-1.024h-1.024v1.024h1.024zM814.080 710.656v-1.024l1.024-1.024-2.048-2.048v4.096zM688.128 528.384v0 0h-4.096v-1.024h-3.072l-1.024 1.024h-4.096l-2.048 1.024v1.024h-2.048l-1.024-1.024v-1.024h-3.072l-1.024 1.024h-1.024v-1.024h-3.072l-2.048 1.024-1.024 1.024v2.048l-1.024 4.096 1.024 1.024v1.024l-2.048 2.048 1.024 1.024v1.024l3.072 1.024h1.024v1.024l1.024 1.024v1.024l-2.048 3.072-11.264 10.24h-1.024v4.096l-1.024 1.024-1.024 3.072v1.024l-2.048 14.336h3.072l1.024 1.024h1.024l4.096-4.096h3.072l3.072-1.024h31.744v-7.168l1.024-4.096 1.024-3.072 3.072-6.144 3.072-3.072h1.024l1.024-1.024v-2.048l1.024-1.024v-1.024l1.024-1.024-1.024-2.048-1.024-5.12v-2.048l-1.024-1.024-2.048-4.096-1.024-1.024v-4.096l-1.024-2.048h-2.048v-1.024l-2.048-4.096-3.072 2.048-2.048 3.072zM653.312 581.632l-3.072 3.072h-1.024l-1.024-1.024h-3.072l-4.096 4.096v4.096l-3.072 3.072v2.048l1.024 1.024 1.024-1.024h1.024l2.048 2.048h5.12l1.024-1.024v-4.096h1.024l1.024 1.024h1.024l1.024-1.024h1.024l2.048 1.024h2.048v-1.024l1.024-1.024v-1.024l-1.024-3.072v-4.096l-1.024-1.024-2.048-1.024v-2.048h-1.024zM141.312 198.656l-2.048-2.048h2.048l3.072 1.024h-1.024l-2.048 1.024zM719.872 174.080l-1.024 2.048h1.024l1.024 1.024v3.072l-3.072 3.072 1.024 1.024h-3.072l-1.024 1.024v2.048l-1.024 2.048v7.168h-1.024v1.024h1.024l1.024 1.024h1.024v1.024l1.024 1.024 3.072 1.024h4.096l2.048-1.024 19.456-11.264 15.36-9.216 6.144-2.048 2.048-1.024 2.048-4.096v-6.144l2.048-4.096v-3.072l-1.024-4.096v-2.048l1.024-2.048 2.048-1.024 1.024-1.024 4.096-2.048 1.024-1.024 2.048-1.024v-4.096h-1.024l-4.096 2.048h-8.192l-4.096 1.024-9.216 3.072-4.096 1.024h-9.216l-2.048-1.024-1.024-1.024h-2.048l-6.144 2.048-2.048 1.024h-3.072l-3.072-2.048h-1.024l-2.048 1.024v2.048l1.024 1.024v3.072h-3.072v3.072h-1.024l-1.024 1.024v1.024h-1.024l-1.024-1.024h-1.024l-1.024 2.048v1.024l1.024 2.048v2.048l1.024 6.144v2.048h4.096zM706.56 193.536v0h2.048l1.024-1.024v-1.024h1.024l2.048-2.048h1.024l1.024-2.048v-2.048l1.024-1.024h3.072l-1.024-1.024 3.072-3.072v-3.072l-1.024-1.024h-1.024l1.024-2.048h-5.12v1.024l-3.072 3.072v1.024l-5.12 11.264-1.024 3.072zM877.568 293.888l1.024 1.024 4.096-2.048 1.024-2.048v-5.12l-1.024-1.024v-7.168l-2.048-1.024-1.024-1.024v1.024h-1.024l-2.048 2.048-2.048 6.144v3.072l1.024 2.048v4.096zM713.728 238.592h2.048l2.048-2.048 2.048-1.024 4.096-4.096 2.048-1.024h2.048l2.048-1.024 1.024-1.024 1.024-2.048 2.048-2.048 2.048-1.024-11.264-11.264 18.432-5.12 6.144-2.048v-1.024l1.024-1.024-1.024-1.024h-2.048v-1.024h1.024l-3.072-11.264-19.456 11.264-2.048 1.024h-4.096l-3.072-1.024-1.024-1.024v-1.024h-1.024l-1.024-1.024h-3.072v6.144l-1.024 1.024v3.072h1.024v1.024h-1.024v2.048l-1.024 1.024v6.144h-1.024v3.072h-1.024l-1.024 3.072v4.096l-1.024 1.024v2.048l-1.024 3.072v2.048l8.192 2.048zM848.896 228.352v-1.024l-1.024-1.024-1.024-2.048h-1.024v-1.024l-1.024-2.048v-3.072l-2.048-1.024h-1.024v-3.072l1.024-4.096v-2.048l-3.072-3.072-1.024-3.072-1.024-1.024h-3.072l-1.024-1.024-5.12-4.096h-2.048l-1.024-1.024h-1.024v-4.096l-1.024-1.024v-1.024h-1.024v-1.024h-1.024l-1.024-1.024-2.048-3.072-1.024-1.024 1.024-2.048v-2.048l-1.024-1.024v-1.024l1.024-1.024h1.024l1.024-2.048v-1.024l4.096-4.096v-3.072l-1.024-1.024v-1.024l1.024-2.048h2.048v-1.024h-4.096l-1.024-1.024h-1.024l-1.024-1.024h-2.048l-1.024-1.024-1.024-3.072-2.048-3.072-3.072-7.168-2.048-1.024-2.048 2.048-2.048 1.024v-4.096h-7.168l-2.048-1.024h-6.144l-3.072 3.072h-2.048v2.048l-2.048 1.024-1.024 1.024-4.096 2.048-1.024 1.024-2.048 1.024-1.024 2.048v2.048l1.024 4.096v3.072l-2.048 4.096v6.144l-2.048 4.096-2.048 1.024-6.144 2.048-15.36 9.216 3.072 11.264h-1.024v1.024h2.048l1.024 1.024v1.024h-1.024v1.024l8.192 1.024 4.096 1.024 4.096 2.048 15.36 8.192 26.624 20.48 1.024 1.024 2.048 1.024h7.168l5.12 1.024h3.072l3.072-1.024 3.072-3.072 1.024-2.048 1.024-3.072 3.072-3.072h5.12l2.048 1.024 1.024-1.024 2.048 1.024h2.048zM823.296 117.76l1.024 3.072h-2.048l-3.072-1.024-4.096-2.048-2.048-3.072-3.072-3.072v-1.024l2.048-1.024h1.024l1.024 1.024v2.048h6.144l1.024 1.024v2.048h1.024l1.024 1.024v1.024zM812.032 93.184h1.024v-1.024h-1.024v1.024zM827.392 80.896l1.024 1.024h1.024v1.024l1.024-1.024 1.024 1.024h1.024v1.024h1.024v1.024h1.024v1.024h1.024v1.024h1.024v2.048h1.024l1.024 1.024h3.072l1.024 1.024 2.048-2.048v-2.048h2.048l1.024-1.024h1.024v-1.024l2.048-2.048v-1.024l3.072 3.072 4.096 7.168 2.048 4.096 1.024 1.024h1.024l2.048 1.024 1.024 1.024h2.048l3.072 3.072h-5.12l-2.048 1.024-2.048 2.048-1.024 3.072-1.024 6.144-1.024 3.072-1.024 2.048v-2.048h-1.024l-1.024 1.024v1.024l-1.024 2.048v5.12h-3.072v-1.024l-2.048-1.024-3.072-2.048-1.024-1.024v-1.024h1.024l1.024-1.024h1.024v-1.024l-2.048-2.048 1.024-2.048h1.024l-1.024-2.048-2.048-1.024-1.024-1.024-1.024 1.024-4.096 2.048-9.216 6.144-1.024 1.024v-4.096h1.024l-2.048-2.048v-1.024l1.024-1.024-2.048-1.024h-2.048v-1.024l-3.072-2.048-2.048-2.048h3.072v-3.072l-2.048-1.024-3.072-3.072v-2.048l1.024-1.024v-1.024l-2.048-2.048-3.072-1.024h1.024v-1.024h-1.024v-1.024l-1.024-1.024h2.048v-1.024h5.12l1.024 1.024v1.024h1.024l1.024 1.024h3.072l1.024 1.024h3.072l1.024-2.048-4.096-4.096-1.024-2.048h1.024v-1.024l1.024-1.024zM818.176 98.304v0 0zM778.24 87.040v0h7.168l1.024-1.024h2.048l2.048 1.024 2.048 3.072 2.048 1.024h1.024v1.024l7.168-1.024h6.144l2.048-1.024 1.024-1.024h2.048v-1.024h5.12l1.024 1.024v1.024h1.024l1.024 1.024h3.072l1.024 1.024h3.072l1.024-2.048-4.096-4.096-1.024-2.048h1.024l1.024-1.024v-2.048h-1.024l-1.024-1.024h-2.048l-1.024-1.024h-1.024l-2.048-2.048 1.024-2.048v-2.048h-4.096l-2.048-2.048h-1.024l-2.048-1.024-1.024 2.048v-1.024h-1.024v-1.024h-3.072l-1.024 1.024-2.048 1.024h-2.048v1.024l-1.024-1.024h-1.024v-1.024l1.024-1.024h-1.024l-1.024-1.024h-1.024l-1.024-1.024h-1.024l-3.072-1.024-2.048-2.048h-3.072l-1.024-1.024h-10.24v-1.024l-2.048-1.024h-3.072l-1.024-1.024h-1.024l-3.072-1.024h-1.024l-3.072-1.024h-2.048v1.024l-1.024 1.024 6.144 4.096 4.096 1.024 2.048 2.048v1.024h1.024l2.048 1.024 2.048 2.048v2.048l2.048 7.168v2.048l-3.072 3.072 3.072 1.024zM828.416 117.76v-1.024h1.024l-2.048-2.048v-1.024l1.024-1.024-2.048-1.024h-2.048v-1.024l-3.072-2.048-2.048-2.048h3.072v-3.072l-2.048-1.024-3.072-3.072v-2.048l1.024-1.024v-1.024l-2.048-2.048-3.072-1.024h1.024v-1.024h-1.024v-1.024l-1.024-1.024-1.024 1.024-2.048 1.024h-6.144l-7.168 1.024v1.024h1.024v1.024h1.024l1.024 2.048v1.024l-1.024 1.024v5.12l1.024 1.024h-1.024l2.048 1.024h3.072l2.048 1.024h1.024l2.048 1.024 1.024 2.048 1.024 1.024 2.048-1.024h1.024l1.024 1.024v2.048h6.144l1.024 1.024v2.048h1.024l1.024 1.024v1.024l1.024 3.072h4.096v-3.072zM813.056 93.184h-1.024v-1.024h1.024v1.024zM818.176 98.304v0 0 0zM872.448 274.432l-1.024 1.024v3.072l1.024 1.024 1.024-1.024v-2.048l-1.024-1.024zM842.752 228.352l2.048 1.024v1.024l1.024 2.048v1.024l1.024 1.024h-3.072l-2.048 2.048h2.048l1.024 1.024h1.024l4.096 9.216h-8.192l-1.024-1.024v-1.024l-3.072-3.072-2.048-1.024-6.144-1.024 3.072-3.072 1.024-2.048 1.024-3.072 3.072-3.072h5.12zM846.848 230.4l-1.024 1.024v2.048h3.072v-2.048l-2.048-2.048v1.024zM843.776 246.784h6.144l4.096 8.192v2.048l1.024 1.024 3.072 1.024 1.024 2.048 3.072 3.072 6.144 5.12h-2.048l1.024 1.024 1.024 2.048v4.096h-1.024v1.024l2.048 4.096 2.048 3.072 1.024 2.048 1.024 3.072 2.048 2.048 1.024 2.048h1.024l1.024 1.024 2.048-1.024 1.024 1.024-1.024 2.048 3.072 1.024v2.048l2.048 3.072 6.144 8.192 2.048 2.048 3.072 1.024 19.456 3.072h4.096l2.048-1.024 3.072 5.12 1.024 2.048v4.096l-5.12 18.432-1.024 2.048-2.048 1.024-30.72 10.24-27.648 4.096-6.144 2.048-6.144 3.072-5.12 5.12-3.072 5.12-1.024 1.024-1.024 2.048-1.024 1.024h-1.024l-2.048-1.024-1.024-1.024v-1.024l-2.048-1.024h-13.312l-2.048-1.024h-1.024l-2.048-1.024-11.264 2.048-2.048-1.024h-1.024l-1.024-1.024h-3.072v1.024l-1.024 1.024v7.168l-2.048 1.024-2.048 2.048v-2.048l-1.024-2.048-3.072-4.096v-1.024l-1.024-2.048v-1.024l-2.048-2.048-2.048-1.024-3.072-4.096-3.072-3.072-5.12-13.312-6.144-6.144-6.144-4.096-1.024-1.024-4.096-6.144-1.024-1.024v-1.024l-1.024-1.024v-1.024h1.024v-1.024l-1.024-1.024-1.024-2.048v-3.072l1.024-3.072v-4.096l-1.024-1.024-2.048-4.096-3.072-5.12-2.048-4.096-2.048-2.048-6.144-3.072-2.048-2.048-2.048-4.096v-1.024l1.024-1.024-1.024-2.048v-2.048l-1.024-1.024-1.024-2.048-2.048-2.048h-1.024v-1.024l-1.024-2.048-14.336-22.528-1.024-2.048-4.096-2.048-2.048 1.024v-1.024l2.048-6.144 1.024-8.192 8.192 2.048h4.096l2.048-2.048 2.048-1.024 4.096-4.096 2.048-1.024h2.048l3.072-1.024v-1.024l1.024-2.048v-1.024h1.024l1.024-1.024 2.048-1.024-11.264-11.264 18.432-5.12 6.144-2.048 8.192 1.024 4.096 1.024 4.096 2.048 15.36 8.192 26.624 20.48 1.024 1.024 2.048 1.024h7.168l6.144 1.024h2.048l3.072-1.024 6.144 1.024 2.048 1.024 3.072 3.072v1.024h1.024l2.048 1.024zM778.24 384h-1.024l2.048 2.048h1.024l1.024 1.024v-2.048l-1.024-1.024v1.024h-1.024v-2.048l-1.024-1.024v2.048zM720.896 279.552v1.024h1.024l-1.024-1.024zM720.896 282.624l2.048 1.024 1.024 1.024h1.024l-3.072-3.072h-1.024v1.024zM885.76 303.104l6.144 8.192 2.048 2.048 2.048 1.024 20.48 3.072h4.096l2.048-1.024v-2.048l1.024-2.048v-2.048l1.024-2.048 1.024-3.072 1.024-2.048-1.024-1.024 1.024-1.024h4.096v-1.024l-1.024-1.024v-1.024h-1.024v-4.096l1.024-3.072v-1.024h1.024l1.024 1.024h-1.024l1.024 1.024h1.024l2.048-2.048h1.024v-6.144l-1.024-2.048h-2.048v-4.096l-1.024-1.024v2.048l-14.336 14.336-2.048 3.072-2.048 2.048-2.048 1.024-4.096 1.024-9.216-1.024-8.192 2.048-2.048 1.024-2.048-2.048v-2.048h-1.024l-1.024-1.024v3.072l2.048 3.072zM933.888 285.696v0l1.024 1.024h-1.024v-1.024zM913.408 294.912h1.024v1.024h-1.024v-1.024zM902.144 296.96h2.048l-1.024 1.024h-1.024v-1.024zM894.976 296.96v0 0 0zM907.264 297.984l2.048 2.048h-2.048l-1.024-1.024h1.024v-1.024zM932.864 277.504l-1.024-1.024 3.072-3.072h1.024v4.096l-1.024 4.096h-2.048v-4.096zM933.888 285.696v0 1.024h1.024l-1.024-1.024zM934.912 289.792h1.024l4.096 8.192 4.096 3.072 5.12 3.072 7.168 1.024 4.096 1.024 2.048 3.072 3.072 4.096 2.048 3.072 2.048 1.024 1.024 1.024 2.048 1.024v3.072l-1.024 2.048-8.192 10.24-1.024 1.024-3.072 6.144-2.048 1.024h-2.048v-2.048l-3.072 2.048-1.024 4.096-1.024 5.12v7.168h-1.024l-5.12 1.024-4.096 2.048-4.096 8.192-2.048 1.024h-6.144l-2.048 1.024-1.024 1.024-1.024 2.048v3.072l-1.024 2.048-2.048 1.024h-8.192l-2.048 1.024-8.192 2.048-2.048 1.024-12.288-26.624 30.72-10.24 2.048-1.024 1.024-2.048 5.12-18.432v-4.096l-1.024-2.048-3.072-5.12v-2.048l1.024-2.048v-2.048l1.024-2.048 1.024-3.072 1.024-2.048-1.024-1.024 1.024-1.024h4.096v-1.024l-1.024-1.024v-1.024h-1.024v-4.096l1.024-3.072v-1.024h1.024l1.024 1.024h-1.024l1.024 1.024h1.024l2.048-2.048zM961.536 340.992l-1.024 2.048v2.048h1.024l1.024-2.048v-3.072l-1.024 1.024zM786.432 400.384v0 0 1.024h-1.024l1.024-1.024zM787.456 418.816v1.024l1.024-1.024h-1.024zM788.48 414.72l-1.024 1.024v1.024h1.024v-2.048zM887.808 359.424l12.288 26.624-3.072 1.024-6.144 4.096-1.024 3.072v3.072l-1.024 1.024-7.168 3.072-20.48 7.168-3.072 1.024-4.096 4.096-4.096 2.048h-6.144l-1.024 1.024-4.096 3.072-2.048 1.024-3.072 1.024h-3.072l-7.168 1.024h-2.048l-1.024 1.024h-1.024l-3.072 3.072h-2.048v1.024h-1.024v1.024h-1.024l-2.048 1.024-2.048-1.024-1.024 1.024-2.048 1.024h-5.12l-1.024-1.024h-3.072v-2.048l-2.048-2.048v-8.192l-2.048-2.048v-2.048l-2.048-7.168v-2.048l-2.048-2.048v-1.024h1.024v-3.072l-1.024-2.048 1.024-5.12v-2.048l4.096-4.096v-7.168h1.024v-1.024h3.072l1.024 1.024h1.024l2.048 1.024 11.264-2.048 2.048 1.024h1.024l2.048 1.024h2.048l5.12 1.024 5.12-1.024h1.024l3.072 3.072 2.048 1.024h1.024l1.024-1.024 1.024-2.048 1.024-1.024 3.072-5.12 5.12-5.12 6.144-3.072 6.144-2.048 27.648-4.096zM907.264 431.104h-4.096l-1.024 1.024 3.072 2.048h6.144l1.024-1.024h2.048l1.024-1.024-2.048-1.024h-6.144zM713.728 194.56v0-5.12h-1.024l-1.024 1.024h-1.024v1.024h-1.024v1.024l-1.024 1.024h-3.072l-1.024 2.048-4.096 11.264-1.024 3.072-4.096 4.096 1.024 1.024 2.048 6.144v1.024l1.024 1.024v1.024l1.024 3.072 2.048 7.168 1.024 1.024v-1.024l1.024-3.072v-2.048l1.024-1.024v-4.096l1.024-3.072h1.024v-3.072h1.024v-6.144l1.024-1.024v-2.048h1.024v-1.024h-1.024v-3.072l1.024-1.024v-6.144h2.048v-1.024h1.024v-2.048zM715.776 159.744h1.024v-1.024l1.024-1.024h1.024v-3.072h3.072v-3.072l-1.024-1.024v-2.048l2.048-1.024h1.024l3.072 2.048h3.072l2.048-1.024 6.144-2.048h2.048l1.024 1.024 2.048 1.024h9.216l4.096-1.024 9.216-3.072 4.096-1.024 2.048 1.024 2.048-1.024h4.096l4.096-2.048h1.024v2.048h2.048l3.072-3.072h6.144l2.048 1.024h7.168v4.096l2.048-1.024 2.048-2.048 2.048 1.024v-2.048l-1.024-1.024v-1.024l-1.024-1.024v-2.048l-2.048-2.048h-1.024l-1.024-1.024v-1.024l2.048-2.048v-2.048l-1.024-1.024v-4.096l-1.024-1.024-1.024-2.048 1.024-1.024v-1.024h-1.024v-3.072h2.048l1.024-1.024v-2.048l2.048-2.048 1.024 1.024h1.024l-1.024-1.024-1.024-2.048-2.048-1.024h-1.024l-2.048-1.024h-3.072l-2.048-1.024h1.024l-1.024-1.024v-5.12l1.024-1.024v-1.024l-1.024-2.048h-1.024v-1.024h-1.024v-2.048h-1.024l-2.048-1.024-2.048-3.072-2.048-1.024h-2.048l-1.024 1.024h-8.192l-3.072-1.024-1.024 2.048-1.024 1.024-9.216 4.096-2.048 1.024h-3.072l-6.144-2.048h-3.072l-5.12 2.048h-4.096l-10.24-3.072h-1.024l-4.096-2.048h-3.072l-1.024 1.024-1.024-1.024h-1.024v-1.024l-1.024-1.024v-1.024l-1.024-1.024v-1.024h-2.048l-3.072 1.024h-1.024l-1.024-1.024-2.048-1.024-1.024-2.048v-1.024l-1.024-1.024-1.024 1.024h-3.072l-2.048 1.024-9.216-1.024h-4.096l-4.096 1.024-3.072 2.048-9.216 4.096-4.096 4.096-2.048 1.024h-4.096l-3.072-1.024h-7.168l-4.096-1.024h-2.048l-2.048 1.024v3.072l4.096 2.048h4.096l-2.048 1.024-6.144 1.024-3.072 1.024 1.024 1.024h1.024l1.024 1.024h-12.288v-1.024l-1.024-1.024-1.024 1.024 1.024 1.024-1.024 1.024h-3.072l-2.048-2.048h-1.024l-2.048 1.024h-2.048l-2.048 1.024-4.096 4.096-1.024 2.048v5.12h1.024l5.12-1.024h2.048v1.024l-2.048 2.048v1.024h1.024v1.024l1.024 1.024-1.024 1.024h1.024l1.024 1.024v1.024h-1.024l-1.024 1.024v1.024l1.024 2.048 1.024 1.024h-3.072v1.024l-1.024-1.024v-2.048l-1.024-1.024-1.024 1.024v3.072h-1.024v1.024l1.024 1.024h4.096l1.024 1.024 3.072 2.048h1.024v2.048l-1.024 1.024h-1.024v1.024l2.048 3.072h1.024l1.024 1.024h1.024l-1.024 2.048h-2.048v2.048l2.048-1.024h8.192l-1.024 2.048h-1.024l-1.024 1.024h-4.096l-1.024 1.024h3.072l4.096-1.024-1.024 1.024v1.024h1.024l2.048-2.048h2.048l2.048 1.024h3.072l1.024 1.024v1.024l1.024 1.024 1.024 2.048 1.024 1.024h2.048l1.024 1.024 2.048-1.024 3.072-1.024h3.072l1.024-1.024v-2.048l1.024-1.024v-2.048l1.024-1.024h3.072l4.096 1.024 3.072 1.024 2.048 1.024 3.072 2.048 4.096 4.096 3.072 1.024 5.12-1.024 4.096-1.024 2.048-1.024 3.072-1.024 4.096-4.096 2.048-1.024h3.072l2.048 2.048h4.096l2.048-2.048h2.048l1.024-1.024h1.024l1.024 1.024v1.024l-1.024 2.048-2.048 2.048v1.024l1.024 3.072-1.024 2.048h1.024z"></path>
</svg>
