<!-- Generated by IcoMoon.io -->
<svg version="1.1" xmlns="http://www.w3.org/2000/svg" width="1024" height="1024" viewBox="0 0 1024 1024">
<g id="icomoon-ignore">
</g>
<path d="M934.912 717.824h-20.48l-187.392-313.344c-11.264-17.408-33.792-24.576-52.224-15.36l-23.552 12.288-108.544-108.544c-8.192-8.192-19.456-12.288-30.72-11.264-11.264 0-21.504 5.12-28.672 14.336l-151.552 185.344c-16.384-7.168-35.84-2.048-47.104 12.288l-174.080 224.256h-21.504c-6.144 0-12.288 5.12-12.288 12.288s6.144 12.288 12.288 12.288h845.824c6.144 0 12.288-5.12 12.288-12.288s-6.144-12.288-12.288-12.288zM502.784 312.32c3.072-4.096 6.144-5.12 10.24-6.144 4.096 0 8.192 2.048 11.264 5.12l109.568 108.544-6.144 21.504c-2.048 6.144 2.048 13.312 9.216 15.36 1.024 0 2.048 1.024 3.072 1.024 6.144 0 11.264-4.096 12.288-9.216l7.168-22.528 26.624-14.336c6.144-3.072 15.36 0 18.432 6.144l180.224 300.032h-81.92l-182.272-159.744 16.384-56.32c2.048-7.168-2.048-14.336-9.216-16.384-6.144-1.024-13.312 2.048-15.36 9.216l-13.312 45.056-88.064-76.8c-15.36-12.288-36.864-13.312-52.224 0l-58.368 48.128-44.032-19.456 146.432-179.2zM506.88 717.824l-88.064-188.416 56.32-47.104c5.12-5.12 13.312-4.096 18.432 0l270.336 235.52h-257.024zM305.152 508.928c4.096-5.12 10.24-7.168 16.384-4.096l71.68 30.72 84.992 182.272h-230.4l57.344-104.448c3.072-6.144 1.024-13.312-5.12-17.408-6.144-3.072-13.312-1.024-17.408 5.12l-64.512 116.736h-74.752l161.792-208.896z"></path>
</svg>
