<!-- Generated by IcoMoon.io -->
<svg version="1.1" xmlns="http://www.w3.org/2000/svg" width="1024" height="1024" viewBox="0 0 1024 1024">
<g id="icomoon-ignore">
</g>
<path d="M440.32 628.736c-13.312-24.576-40.96-66.56-41.984-68.608l-4.096-6.144-4.096 7.168c-1.024 0-28.672 45.056-40.96 67.584-12.288 17.408-14.336 39.936-5.12 59.392s28.672 32.768 49.152 34.816h1.024c21.504-2.048 39.936-15.36 49.152-34.816 9.216-18.432 8.192-41.984-3.072-59.392zM402.432 689.152c-1.024 6.144-7.168 10.24-13.312 10.24h-3.072c-15.36-4.096-26.624-17.408-28.672-32.768 0-4.096 1.024-7.168 3.072-10.24 3.072-3.072 6.144-5.12 10.24-5.12h1.024c7.168 0 12.288 5.12 13.312 12.288 0 4.096 3.072 8.192 8.192 9.216 3.072 1.024 6.144 3.072 8.192 6.144s2.048 7.168 1.024 10.24zM606.208 623.616l57.344 3.072-100.352 146.432 30.72-106.496h-57.344l98.304-149.504-28.672 106.496zM779.264 278.528v0c0-10.24-8.192-18.432-18.432-18.432h-38.912v-64.512c-2.048-36.864-33.792-68.608-71.68-68.608-1.024 0-2.048 0-2.048 1.024h-303.104l-3.072-1.024c-38.912 0-69.632 30.72-71.68 69.632v684.032h-25.6c-10.24 0-18.432 8.192-18.432 18.432s8.192 17.408 18.432 17.408h502.784c9.216 0 17.408-7.168 17.408-17.408s-8.192-18.432-17.408-18.432h-25.6v-430.080c4.096 6.144 7.168 17.408 7.168 30.72v266.24c0 35.84 19.456 63.488 44.032 63.488 25.6 0 45.056-27.648 45.056-63.488v-402.432c0-37.888-3.072-61.44-38.912-66.56zM721.92 333.824v-37.888h21.504v37.888h-21.504zM721.92 407.552v-37.888h38.912c10.24 0 18.432-8.192 18.432-18.432v-36.864c3.072 2.048 3.072 9.216 3.072 30.72v402.432c0 15.36-6.144 25.6-9.216 27.648-2.048-2.048-8.192-12.288-8.192-27.648v-266.24c0-37.888-18.432-67.584-43.008-73.728zM342.016 163.84h306.176l2.048-1.024c18.432 0 34.816 15.36 35.84 33.792v685.056h-379.904v-684.032c1.024-19.456 16.384-33.792 35.84-33.792zM516.096 515.072v232.448c0 9.216-8.192 17.408-18.432 17.408s-17.408-8.192-17.408-17.408v-232.448c0-9.216 8.192-17.408 17.408-17.408s18.432 8.192 18.432 17.408zM381.952 422.912c1.024 0 2.048 0 2.048 0h228.352c2.048 0 3.072 0 4.096 0 29.696 0 53.248-21.504 56.32-49.152 0-1.024 0-2.048 0-2.048v-137.216c0-15.36-7.168-29.696-18.432-39.936-10.24-9.216-23.552-14.336-37.888-14.336-1.024 0-3.072 0-3.072 0h-228.352c-15.36-1.024-29.696 5.12-40.96 14.336-11.264 10.24-17.408 24.576-18.432 40.96v136.192c0 0 0 1.024 0 2.048 3.072 27.648 27.648 49.152 56.32 49.152zM616.448 387.072c0 0-1.024 0-2.048 0h-232.448c-10.24 0-19.456-7.168-20.48-16.384v-135.168c0-5.12 3.072-10.24 7.168-14.336 3.072-3.072 8.192-5.12 13.312-5.12h233.472c5.12 0 11.264 2.048 15.36 5.12 4.096 4.096 6.144 9.216 6.144 14.336v134.144c-1.024 10.24-10.24 17.408-20.48 17.408z"></path>
</svg>
