<!-- Generated by IcoMoon.io -->
<svg version="1.1" xmlns="http://www.w3.org/2000/svg" width="1024" height="1024" viewBox="0 0 1024 1024">
<g id="icomoon-ignore">
</g>
<path d="M972.8 944.128h-921.6l275.456-594.944 39.936 118.784 146.432-388.096 92.16 274.432 47.104-101.376 320.512 691.2zM91.136 918.528h841.728l-280.576-605.184-50.176 109.568-91.136-267.264-145.408 387.072-41.984-124.928-232.448 500.736zM656.384 771.072l-36.864-21.504 31.744-18.432c5.12-2.048 6.144-9.216 3.072-14.336-2.048-5.12-9.216-6.144-13.312-3.072l-41.984 24.576-66.56-38.912 66.56-37.888 41.984 24.576c1.024 1.024 3.072 1.024 4.096 1.024 4.096 0 7.168-2.048 9.216-5.12 3.072-5.12 2.048-11.264-3.072-13.312l-31.744-19.456 36.864-21.504c5.12-2.048 7.168-8.192 4.096-13.312s-9.216-7.168-14.336-4.096l-36.864 21.504-1.024-36.864c0-6.144-4.096-10.24-10.24-10.24-5.12 0-10.24 4.096-10.24 10.24l1.024 49.152-66.56 37.888v-77.824l41.984-23.552c5.12-2.048 7.168-9.216 4.096-14.336s-9.216-6.144-14.336-3.072l-31.744 17.408v-41.984c0-6.144-4.096-10.24-10.24-10.24-5.12 0-10.24 4.096-10.24 10.24v43.008l-32.768-18.432c-5.12-3.072-10.24-1.024-13.312 3.072-3.072 5.12-1.024 12.288 4.096 14.336l41.984 24.576v76.8l-67.584-38.912 1.024-48.128c0-6.144-4.096-10.24-10.24-10.24v0c-6.144 0-10.24 4.096-10.24 10.24l-1.024 35.84-35.84-20.48c-5.12-3.072-11.264-1.024-14.336 3.072-3.072 5.12-1.024 11.264 4.096 14.336l36.864 21.504-32.768 19.456c-5.12 2.048-6.144 9.216-3.072 13.312 2.048 3.072 5.12 5.12 8.192 5.12 2.048 0 4.096 0 6.144-1.024l41.984-25.6 66.56 38.912-66.56 38.912-41.984-24.576c-5.12-3.072-12.288-2.048-14.336 3.072-3.072 5.12-1.024 11.264 3.072 14.336l32.768 19.456-36.864 20.48c-5.12 3.072-7.168 9.216-4.096 14.336 2.048 4.096 5.12 5.12 9.216 5.12 1.024 0 2.048 0 5.12-1.024l35.84-20.48 1.024 35.84c0 5.12 4.096 10.24 10.24 10.24v0c6.144 0 10.24-5.12 10.24-11.264l-1.024-47.104 67.584-38.912v75.776l-41.984 24.576c-5.12 3.072-7.168 9.216-4.096 14.336 2.048 3.072 4.096 5.12 8.192 5.12 2.048 0 4.096-1.024 5.12-1.024l32.768-18.432v43.008c0 5.12 5.12 10.24 10.24 10.24 6.144 0 10.24-5.12 10.24-10.24v-43.008l31.744 18.432c2.048 0 3.072 1.024 5.12 1.024 4.096 0 7.168-2.048 9.216-5.12 3.072-5.12 1.024-11.264-4.096-14.336l-41.984-23.552v-76.8l66.56 37.888-1.024 48.128c0 6.144 5.12 11.264 10.24 11.264 6.144 0 10.24-5.12 10.24-10.24l1.024-37.888 36.864 22.528c2.048 0 3.072 1.024 5.12 1.024 4.096 0 7.168-2.048 9.216-5.12 3.072-5.12 1.024-11.264-4.096-14.336v0z"></path>
</svg>
