<!-- Generated by IcoMoon.io -->
<svg version="1.1" xmlns="http://www.w3.org/2000/svg" width="1024" height="1024" viewBox="0 0 1024 1024">
<g id="icomoon-ignore">
</g>
<path d="M846.848 473.088v0c-6.144-66.56-51.2-131.072-70.656-159.744l-4.096-6.144c-18.432-27.648-18.432-56.32-18.432-59.392v-26.624h-43.008v27.648c0 35.84 39.936 73.728 39.936 74.752h1.024c87.040 104.448 79.872 189.44 64.512 267.264-10.24 53.248-50.176 93.184-76.8 119.808-4.096 5.12-9.216 9.216-12.288 13.312-10.24 10.24-23.552 16.384-37.888 16.384h-354.304c-14.336 0-27.648-6.144-37.888-16.384-3.072-4.096-7.168-8.192-12.288-13.312-26.624-26.624-66.56-66.56-76.8-119.808-15.36-77.824-22.528-162.816 64.512-266.24l1.024-1.024c4.096-4.096 39.936-39.936 39.936-74.752v-27.648l-43.008 1.024v25.6c0 1.024 1.024 31.744-18.432 59.392l-4.096 6.144c-19.456 28.672-64.512 93.184-70.656 159.744s-4.096 154.624 65.536 242.688c0 0 5.12 5.12 10.24 10.24 9.216 10.24 15.36 23.552 17.408 36.864l5.12 39.936h38.912v-34.816h70.656v34.816h37.888v-34.816l69.632 1.024v33.792h38.912v-33.792l69.632-1.024v34.816h38.912v-33.792l69.632-1.024v34.816h38.912l5.12-39.936c2.048-13.312 8.192-26.624 18.432-36.864 5.12-5.12 9.216-10.24 9.216-10.24 69.632-88.064 71.68-176.128 65.536-242.688zM499.712 582.656c3.072 3.072 7.168 4.096 13.312 4.096 8.192 0 17.408 0 17.408-24.576 0-23.552 0-46.080 0-69.632v-64.512c0-25.6 0-50.176 0-75.776 0-11.264-2.048-19.456-7.168-23.552-2.048-3.072-6.144-4.096-11.264-4.096 0 0 0 0 0 0-15.36 0-18.432 14.336-18.432 26.624 0 75.776 0 144.384 0 210.944 0 9.216 2.048 16.384 6.144 20.48zM531.456 646.144c0 10.24-8.192 19.456-19.456 19.456s-19.456-9.216-19.456-19.456c0-11.264 8.192-19.456 19.456-19.456s19.456 8.192 19.456 19.456z"></path>
</svg>
