<!-- Generated by IcoMoon.io -->
<svg version="1.1" xmlns="http://www.w3.org/2000/svg" width="1024" height="1024" viewBox="0 0 1024 1024">
<g id="icomoon-ignore">
</g>
<path d="M747.52 230.4l-118.784-71.68c-4.096-4.096-13.312-4.096-19.456 0-5.12 3.072-8.192 10.24-6.144 16.384 8.192 37.888 0 78.848-23.552 119.808l-69.632 119.808-70.656-120.832c-20.48-37.888-27.648-79.872-18.432-119.808 2.048-6.144-1.024-13.312-6.144-16.384-5.12-4.096-14.336-4.096-18.432 0l-118.784 70.656c-6.144 3.072-9.216 8.192-9.216 17.408 3.072 10.24 8.192 13.312 12.288 14.336 36.864 10.24 66.56 35.84 89.088 75.776l93.184 160.768-114.688 198.656c-28.672 48.128-48.128 100.352-60.416 153.6-2.048 7.168 2.048 15.36 8.192 18.432 4.096 2.048 6.144 2.048 8.192 2.048 5.12 0 8.192-2.048 13.312-5.12 39.936-37.888 74.752-81.92 101.376-129.024l91.136-157.696 91.136 157.696c27.648 47.104 61.44 91.136 102.4 129.024 3.072 3.072 8.192 5.12 11.264 5.12s6.144 0 9.216-2.048c6.144-4.096 9.216-11.264 7.168-18.432-11.264-53.248-31.744-105.472-59.392-153.6l-114.688-198.656 93.184-160.768c20.48-35.84 55.296-64.512 93.184-75.776 7.168-2.048 12.288-7.168 12.288-14.336 0-6.144-3.072-12.288-8.192-15.36zM537.6 530.432l104.448 181.248c14.336 24.576 25.6 50.176 36.864 78.848-17.408-20.48-33.792-44.032-49.152-71.68l-100.352-174.080 8.192-14.336zM482.304 462.848l-82.944-144.384c-20.48-34.816-46.080-60.416-76.8-77.824l61.44-35.84c-2.048 35.84 8.192 72.704 28.672 106.496l78.848 136.192-9.216 15.36zM390.144 718.848c-13.312 24.576-29.696 48.128-49.152 71.68 10.24-29.696 22.528-56.32 36.864-78.848l231.424-400.384c20.48-35.84 30.72-73.728 30.72-108.544l61.44 37.888c-32.768 17.408-60.416 44.032-79.872 77.824l-231.424 400.384z"></path>
</svg>
