<!-- Generated by IcoMoon.io -->
<svg version="1.1" xmlns="http://www.w3.org/2000/svg" width="1024" height="1024" viewBox="0 0 1024 1024">
<g id="icomoon-ignore">
</g>
<path d="M400.384 339.968v2.048l-1.024 1.024v1.024l-2.048 2.048v2.048l-1.024 8.192v1.024l1.024 1.024v2.048h1.024l-1.024 1.024v1.024l-3.072 5.12-1.024 1.024v3.072l1.024 1.024v1.024l-1.024 2.048v1.024l-1.024 1.024v3.072l1.024 1.024 1.024 2.048v1.024h2.048l1.024 1.024h1.024v1.024l-1.024 1.024h-1.024v3.072h-1.024l-1.024 1.024-2.048 3.072-1.024 1.024h-1.024v3.072l1.024 1.024v2.048l1.024 1.024v1.024l3.072 3.072 1.024 3.072 1.024 5.12 1.024 3.072 4.096 4.096v2.048l-1.024 1.024v1.024l-1.024 1.024h1.024v4.096h-2.048l1.024 1.024v1.024l-1.024 2.048 1.024 1.024 2.048 1.024v2.048h-1.024v1.024l3.072 3.072 1.024 3.072 1.024 4.096 1.024 3.072 1.024 2.048v3.072l1.024 4.096v1.024l1.024 1.024 2.048 1.024 3.072-1.024h2.048l3.072-4.096 2.048-2.048 1.024-2.048h1.024l2.048-1.024 1.024-1.024v-2.048h2.048l3.072 2.048 1.024 1.024h9.216l3.072 2.048 2.048 4.096 2.048 3.072 2.048-5.12 1.024-3.072 1.024-1.024h1.024l1.024-1.024h10.24l3.072 3.072 1.024-5.12 1.024-4.096 2.048-9.216v-3.072l4.096-6.144 1.024-4.096h1.024l1.024-1.024 19.456-3.072 5.12-1.024 3.072 1.024h3.072l2.048 1.024 5.12 3.072 1.024 2.048 1.024 1.024v3.072l3.072-2.048v-1.024h-1.024v-1.024h-1.024v-4.096l3.072-5.12 1.024-1.024-1.024-1.024 1.024-5.12 1.024-2.048 1.024-1.024-1.024-2.048-1.024-1.024v-2.048l-1.024-2.048v-2.048h-1.024v1.024h-1.024l-2.048-2.048h-1.024l-1.024-2.048-1.024-1.024-1.024-2.048v-2.048l2.048-4.096v-2.048l-4.096 1.024h-4.096l-9.216-1.024h-3.072l-1.024-1.024v-5.12l-1.024-2.048v-2.048l-2.048-2.048-1.024-2.048h3.072v-4.096l-1.024-6.144-1.024-1.024v-4.096l-6.144-3.072h-8.192l-2.048-1.024h-1.024l-1.024-2.048v-1.024h-1.024l-3.072-1.024-2.048-1.024h-2.048l-3.072-3.072v-1.024h-1.024l-1.024 1.024-1.024-1.024-4.096-2.048-4.096 1.024-4.096-2.048-3.072-2.048-1.024-2.048h-1.024l-3.072-3.072-2.048-5.12-1.024-1.024v-1.024l1.024-2.048v-1.024l-1.024-1.024v-2.048l-1.024-1.024 1.024-1.024v-1.024l1.024-1.024v-4.096l-2.048-2.048h-3.072l-5.12 1.024h-2.048l-12.288 6.144-3.072 3.072h-1.024l-1.024 1.024h-2.048l-1.024 1.024-2.048 1.024-1.024 2.048h-4.096l-2.048-1.024h-7.168l9.216 15.36zM520.192 429.056l-1.024-2.048-5.12-3.072-2.048-1.024h-3.072l-3.072-1.024-5.12 1.024-19.456 3.072-1.024 1.024h-1.024l-1.024 4.096-4.096 6.144v3.072l-2.048 9.216-1.024 4.096-1.024 5.12 5.12 5.12 2.048 3.072 1.024 2.048 2.048 1.024 8.192 7.168 2.048 2.048h2.048l5.12 1.024 5.12 2.048 7.168 5.12 5.12 3.072 6.144 2.048 2.048 1.024 2.048 2.048 2.048 1.024 1.024 2.048-1.024 1.024-3.072 6.144-3.072 3.072v1.024l-1.024 4.096v1.024l-2.048 2.048-1.024 2.048-1.024 1.024v1.024l1.024 1.024h6.144l7.168 2.048 9.216 1.024h2.048v-1.024l1.024-1.024h1.024l1.024-1.024 1.024 1.024h4.096v-1.024l3.072-3.072 3.072-2.048 3.072-3.072 2.048-4.096v-5.12l1.024-4.096v-3.072l1.024-1.024v-1.024l1.024-1.024 1.024-12.288 1.024-1.024-3.072-3.072h-3.072l-2.048 2.048h-4.096l-1.024-1.024-1.024-2.048-1.024-3.072-1.024-8.192-1.024-4.096-3.072-3.072h-3.072l-1.024-1.024v-1.024h-2.048v1.024h-1.024l-2.048 1.024h-2.048l-5.12-1.024h-1.024l-1.024-1.024h-1.024l-1.024 1.024-1.024-1.024h-1.024l1.024-5.12v-11.264l-3.072-5.12v-5.12zM563.2 144.384l1.024 5.12 4.096 6.144v2.048l-2.048 4.096v2.048l-1.024 3.072-1.024 2.048-2.048 1.024 2.048 2.048h4.096l2.048-1.024 1.024-1.024h1.024l1.024 1.024h5.12v1.024h3.072l2.048-2.048 2.048-3.072 3.072-7.168 3.072-5.12 2.048-3.072 2.048-1.024v-1.024l-1.024-2.048v-2.048l-1.024-1.024h-1.024v1.024l-1.024 2.048v-2.048l-1.024-3.072-1.024-1.024-2.048 1.024v-3.072l-3.072-2.048-4.096-2.048-3.072-2.048h-3.072l-1.024-1.024-2.048-1.024h-2.048l-1.024 1.024v2.048l-1.024 1.024-3.072 4.096zM501.76 101.376l-1.024 2.048-1.024 1.024-4.096 2.048-3.072 3.072v4.096l1.024 1.024h2.048l1.024 1.024-2.048 2.048-2.048 1.024-5.12 1.024-1.024 1.024v6.144h-1.024l-1.024 1.024v1.024l1.024 2.048 6.144 6.144h4.096l1.024-1.024h1.024l2.048 2.048v3.072l-1.024 2.048v2.048h4.096v1.024l1.024 1.024v3.072l1.024 1.024v2.048h-1.024l-2.048 2.048v2.048l-1.024 5.12-1.024 2.048 1.024 1.024v2.048l1.024 2.048v1.024h1.024v4.096l1.024 2.048 2.048 1.024 3.072 3.072 2.048 1.024h4.096l2.048-1.024 1.024-1.024v-1.024h5.12v-1.024h1.024l2.048-1.024h1.024l3.072-3.072h2.048l1.024 1.024h7.168l-1.024-1.024h-1.024l-1.024-1.024-5.12-9.216v-1.024l-1.024-4.096-1.024-1.024-1.024 1.024h-1.024l-1.024-1.024-4.096-6.144v-4.096l1.024-3.072v-2.048l1.024-2.048 3.072-1.024h2.048l2.048-2.048h-1.024v-3.072l1.024-1.024v-5.12l-1.024-2.048v-1.024h-2.048l-1.024-1.024h-1.024l-3.072-4.096-1.024-1.024-2.048-1.024h-2.048l-1.024 1.024-1.024 2.048-1.024 1.024 1.024-7.168v-3.072l-7.168-7.168-3.072-2.048-4.096-2.048h-1.024l-2.048-2.048 1.024 2.048zM531.456 135.168v0 2.048h1.024l-2.048 2.048h-2.048l-3.072 1.024-1.024 2.048v2.048l-1.024 3.072v4.096l4.096 6.144 1.024 1.024h1.024l1.024-1.024 1.024 1.024 1.024 4.096v1.024l5.12 9.216 1.024 1.024h1.024l1.024 1.024 4.096 1.024 2.048-2.048v-2.048h-1.024l-1.024-1.024 1.024-1.024v-2.048h1.024l2.048 1.024h3.072l4.096-1.024 2.048-1.024v1.024l1.024 1.024 3.072 1.024 2.048-1.024 1.024-2.048 1.024-3.072v-2.048l2.048-4.096v-2.048l-4.096-6.144-1.024-5.12 1.024-5.12 3.072-4.096 1.024-1.024v-3.072l-1.024-1.024-2.048-1.024h-2.048l-6.144-1.024-9.216 1.024h-1.024v2.048l-1.024-1.024-3.072-1.024-6.144-1.024h-2.048l-1.024 1.024v1.024l-1.024 2.048v1.024l-1.024 1.024zM573.44 600.064v-2.048l1.024-2.048 4.096-4.096v-2.048l-1.024-1.024h-1.024l-1.024-1.024h-1.024l-1.024-1.024v-1.024l-2.048-4.096h-2.048l-3.072-2.048-5.12-5.12-4.096-1.024-6.144-6.144-1.024 1.024-3.072 1.024h-1.024v-3.072l-2.048-2.048-2.048-3.072-3.072-2.048-2.048-1.024h-2.048l-3.072 2.048h-2.048l-2.048-1.024v1.024l-2.048 2.048-1.024 2.048 1.024 1.024v2.048l-1.024 1.024-1.024 4.096-1.024 2.048 1.024 1.024v2.048l-2.048 2.048v6.144l-1.024 1.024 1.024 2.048 1.024 3.072-1.024 2.048-1.024 1.024v1.024h-1.024v1.024l-1.024 2.048v6.144l1.024 2.048 5.12 5.12h5.12l6.144 3.072 6.144 2.048 2.048 1.024h2.048l2.048-1.024h4.096l2.048 1.024h5.12l10.24-5.12 3.072-3.072 2.048-5.12 2.048-2.048-2.048-1.024zM386.048 408.576l2.048-2.048-1.024-1.024v-2.048l1.024-1.024 2.048-1.024 1.024-1.024-1.024-1.024v-3.072h1.024l1.024-1.024 2.048-3.072 1.024-1.024h1.024v-3.072h1.024l1.024-1.024v-1.024h-1.024l-1.024-1.024h-2.048v-1.024l-1.024-2.048-1.024-1.024v-3.072l1.024-1.024v-1.024l1.024-2.048v-1.024l-1.024-1.024v-3.072l1.024-1.024 3.072-5.12v-1.024l1.024-1.024h-1.024v-2.048l-1.024-1.024v-1.024l1.024-8.192v-2.048l2.048-2.048v-1.024l1.024-1.024v-2.048l-1.024-1.024-9.216-15.36h-1.024l-2.048-1.024h-1.024l-1.024 1.024-2.048 1.024h-2.048l-1.024-1.024h-2.048v-14.336l1.024-2.048v-2.048l-1.024 1.024-5.12 4.096-2.048 1.024-3.072 1.024h-7.168v-2.048l-1.024-3.072h-1.024l-2.048-1.024-3.072-1.024h-5.12l2.048-1.024 1.024-2.048v-1.024l-1.024-2.048-2.048-2.048v-1.024l-4.096-4.096-2.048-4.096h1.024v-1.024h-1.024v-1.024l-2.048-1.024v-2.048l2.048-2.048v-4.096h1.024v-1.024l2.048-1.024 3.072-2.048h1.024v-4.096l-1.024-1.024 1.024-1.024v-2.048l2.048-2.048v-2.048l1.024-3.072v-1.024h1.024l1.024-1.024h1.024l1.024-1.024 5.12-3.072 3.072-2.048 3.072-1.024h5.12l1.024-1.024 2.048-1.024 1.024-1.024h4.096l1.024 1.024h1.024l1.024 1.024h1.024l1.024-1.024-2.048-3.072-2.048-2.048h-1.024l-1.024 1.024h-1.024l-2.048-1.024 6.144-9.216 1.024-2.048v-2.048l-2.048-1.024-3.072-2.048-2.048-1.024-1.024-1.024h-3.072l-1.024 1.024h-3.072l-1.024-1.024h-3.072l-2.048 1.024-1.024 1.024h-9.216l-2.048-1.024-1.024-1.024v-4.096l-1.024-1.024h-2.048l-1.024-1.024v-2.048l-1.024-1.024-1.024-2.048-6.144-3.072-1.024-1.024v-1.024l-1.024-1.024v-1.024l-2.048-2.048-5.12-3.072-1.024-1.024-2.048 1.024h-4.096l5.12 5.12v3.072l-1.024 1.024h-1.024l-1.024 4.096-1.024 2.048-1.024 1.024-5.12 6.144-9.216 6.144-9.216 3.072-2.048 1.024-1.024 1.024-2.048 3.072v1.024h-3.072v4.096l-3.072 8.192-2.048 2.048v2.048l-2.048 1.024h-2.048l-2.048-1.024-1.024-2.048-1.024-1.024v-1.024h-1.024l-1.024-1.024-3.072-1.024h-2.048l-2.048 1.024h-1.024l1.024-3.072h-1.024v-1.024l1.024-1.024h2.048v-4.096l-1.024-2.048v-1.024l-3.072 2.048-6.144 6.144-2.048 3.072v3.072l1.024 3.072v3.072l1.024 1.024 1.024 2.048 1.024 1.024v1.024l1.024 1.024v1.024l-1.024 1.024h-1.024v-1.024l-2.048 2.048 1.024 1.024 1.024 2.048 9.216 4.096 3.072 3.072 2.048 3.072 1.024 1.024 2.048 5.12 1.024 2.048 4.096 4.096 2.048 3.072 9.216 20.48 5.12 10.24v2.048l2.048 2.048 2.048 1.024v1.024l1.024 2.048 1.024 3.072 1.024 2.048 2.048 3.072 6.144 10.24 1.024 4.096-2.048 2.048 1.024 1.024v2.048l1.024 1.024 3.072 5.12 5.12 4.096 4.096 5.12 2.048 1.024 38.912 21.504 2.048 2.048v1.024l1.024 1.024v1.024l8.192 6.144 2.048 1.024 4.096-1.024zM283.648 601.088l-1.024 1.024h2.048v-1.024zM145.408 202.752v1.024l1.024 3.072-3.072 1.024h-4.096l1.024-3.072h2.048l1.024-1.024v-1.024l-2.048-2.048-2.048-3.072-1.024-1.024 1.024-1.024h1.024l2.048 2.048v2.048h1.024l1.024 1.024v1.024l1.024 1.024zM151.552 202.752l-1.024 1.024v1.024l2.048 1.024 1.024-1.024v-2.048h-2.048zM162.816 205.824l-2.048 1.024 1.024 1.024 1.024-1.024h1.024l1.024-1.024-1.024-1.024-1.024 1.024zM150.528 210.944v1.024h1.024v-1.024h-1.024zM149.504 200.704v-1.024l-1.024-1.024h-1.024l-1.024 1.024v1.024h3.072zM137.216 200.704l2.048 2.048 1.024-1.024v-1.024h-1.024l-1.024-1.024h-1.024v1.024zM411.648 930.816h2.048v1.024l-3.072-1.024h1.024zM399.36 881.664h-2.048l-1.024 1.024-2.048-1.024-2.048-2.048h-1.024l-1.024 1.024-2.048 3.072-2.048 1.024h-1.024l-1.024-1.024h-3.072l3.072 3.072-1.024 1.024h-2.048v1.024l-1.024 1.024v1.024l1.024 1.024 1.024 2.048h3.072l2.048-1.024h4.096l1.024 1.024v1.024l-1.024 2.048-4.096 1.024-2.048 1.024-1.024 1.024v3.072l2.048 2.048 2.048 1.024 5.12 1.024 2.048 2.048h1.024l-3.072 3.072v-2.048l-1.024-1.024h-1.024l-2.048-1.024h-2.048v1.024h-3.072l-1.024-1.024v-1.024l-3.072-1.024-1.024-1.024-1.024-2.048h3.072v-1.024l-2.048-4.096h-1.024v3.072h-2.048v5.12l1.024 1.024h1.024l2.048 1.024 1.024 1.024 1.024 2.048h-4.096v-1.024h-1.024v-2.048h-2.048v1.024l-2.048 1.024-1.024-1.024h-2.048l-2.048 1.024v1.024l-1.024-1.024h-2.048l-1.024 1.024v1.024l1.024 1.024h1.024l2.048-1.024h1.024l10.24 3.072h1.024l1.024-1.024h1.024l1.024 1.024h3.072l1.024-1.024h2.048l2.048 1.024v1.024h9.216l1.024-33.792-2.048-1.024zM347.136 756.736l-1.024-3.072 1.024-2.048h1.024v-2.048h3.072l2.048 2.048v2.048l-3.072 2.048-3.072 1.024zM361.472 905.216l-1.024-1.024 2.048-3.072 4.096 1.024 4.096 2.048 3.072 1.024v2.048l-1.024 1.024h-2.048l-2.048-1.024h-3.072l-2.048 1.024-1.024-2.048v-1.024h-1.024zM333.824 884.736l1.024 1.024v1.024h3.072l3.072 1.024 3.072 2.048 3.072 1.024 2.048 2.048h-3.072l-2.048-1.024-1.024-1.024-2.048-1.024-4.096-1.024-2.048-1.024-3.072-3.072v-1.024h1.024l1.024 1.024zM345.088 894.976l5.12 1.024v-2.048l2.048 2.048v1.024h5.12v1.024l3.072 2.048-4.096 4.096-3.072 1.024-2.048-1.024h1.024l1.024-1.024v-2.048h-3.072v2.048h-2.048v-3.072l-1.024-1.024h-2.048l-1.024-1.024v-1.024h-1.024l-2.048-1.024 2.048-1.024h2.048zM378.88 920.576v0 0-1.024h-3.072l-1.024-1.024-3.072-1.024-1.024-1.024-1.024 1.024-1.024-1.024 2.048-1.024 4.096 2.048h6.144l1.024 1.024v2.048h-3.072zM401.408 919.552v1.024l1.024 1.024h2.048v1.024l3.072 3.072v2.048l-2.048-1.024-3.072-1.024h-2.048l-2.048-1.024v-3.072h-2.048l-1.024-1.024h-1.024l-1.024 1.024v1.024l1.024 2.048 1.024 1.024h-2.048l-1.024-1.024-3.072-2.048v-1.024h-2.048l-1.024-1.024v-2.048l1.024-2.048 4.096 1.024 5.12 1.024h1.024l3.072-1.024h2.048l1.024 1.024v1.024h-2.048zM401.408 876.544l2.048 1.024-7.168-2.048h-4.096l-1.024 2.048-2.048 1.024-1.024 1.024-10.24 4.096h-1.024v1.024l-2.048 8.192-1.024 2.048v5.12l-2.048 1.024h-4.096l-4.096-1.024-5.12-5.12v-2.048l1.024-1.024h4.096l1.024 1.024v0l2.048-2.048 2.048-1.024h1.024l1.024-1.024 1.024-2.048v-1.024l-1.024-1.024h-2.048l-6.144 3.072-2.048 2.048-2.048 1.024-2.048 2.048v2.048h-1.024l-2.048-1.024h-1.024l-1.024-1.024v-2.048l1.024-1.024v-3.072l1.024-2.048 1.024-1.024h1.024v1.024h3.072l2.048-2.048h1.024l1.024-1.024 2.048 1.024h2.048l1.024-1.024-2.048-1.024h-2.048l-2.048-1.024-3.072 1.024-1.024 1.024-1.024-1.024h-2.048l-1.024 1.024v2.048l-1.024 1.024h-1.024v3.072h-1.024l-2.048 1.024-1.024-1.024-2.048-1.024-1.024-2.048h2.048l4.096-4.096v-1.024h-1.024v1.024l-1.024 1.024h-4.096v1.024h-4.096v-1.024l-1.024-1.024v-3.072h-1.024l-1.024-1.024v-3.072h1.024l3.072 2.048 2.048-1.024v-2.048l2.048 2.048h3.072l1.024-1.024 3.072-2.048 1.024-1.024 1.024 1.024v1.024l1.024 1.024v2.048l-1.024 2.048h1.024l1.024-1.024v-2.048l-1.024-2.048v-2.048h1.024v-3.072l-1.024-2.048-3.072-1.024-2.048-2.048-1.024 1.024 6.144 3.072v1.024l-8.192 5.12h-2.048l-2.048-3.072-4.096-2.048h-1.024v-2.048l1.024-1.024 1.024 1.024 1.024-3.072v-2.048l-1.024-1.024-2.048-1.024h-2.048l-4.096-2.048-4.096-4.096-1.024-3.072h5.12v-3.072h-1.024v-1.024l1.024-1.024h1.024l3.072 3.072 1.024 3.072 2.048 2.048 3.072 2.048v-3.072l1.024-1.024v-1.024h1.024v-2.048h-1.024l1.024-1.024-2.048 1.024-1.024 3.072-1.024 2.048-1.024-2.048-1.024-1.024v-3.072h1.024l-2.048-1.024-4.096-4.096 1.024-2.048 1.024-1.024h5.12v-1.024h-1.024l-3.072-3.072v-2.048l1.024-1.024h4.096v-1.024h-1.024v-1.024l-1.024-1.024v-4.096l1.024-1.024v-1.024l-1.024 1.024-1.024 2.048-1.024 5.12-1.024-2.048-1.024-3.072 1.024-8.192v-2.048l1.024-1.024h1.024l1.024-1.024h-3.072l-2.048-1.024-1.024-1.024v-5.12h6.144l2.048 1.024h1.024l2.048 1.024 1.024 1.024h2.048l-2.048-2.048-1.024-2.048-1.024-4.096-2.048 2.048-1.024 2.048h-3.072l-2.048-1.024v-1.024h-1.024v-1.024l-1.024-1.024v-1.024h3.072l1.024 1.024h1.024v-2.048h-2.048l-1.024-2.048v-1.024l2.048-1.024 1.024-2.048v-3.072l-1.024-1.024v-1.024l-1.024-1.024h-1.024l-1.024 1.024v1.024h-2.048l-2.048-1.024-1.024-1.024-1.024-2.048 1.024-2.048-6.144 3.072-1.024 1.024h1.024l1.024 1.024v2.048h-1.024l-2.048-2.048v-1.024l1.024-3.072 2.048-2.048 3.072-2.048 2.048-2.048-1.024-2.048 1.024-2.048h5.12l1.024-1.024h3.072v-1.024l1.024-1.024v-1.024h-1.024v-1.024l1.024-1.024v-1.024h2.048v3.072l-2.048 7.168-1.024 1.024-3.072 1.024 3.072 1.024 2.048-3.072 1.024-3.072 2.048-1.024v3.072l-2.048 6.144-1.024 2.048h2.048l1.024-2.048 1.024-7.168v-2.048l-1.024-1.024-1.024-2.048 2.048-2.048 2.048-1.024h4.096l2.048 1.024-1.024-1.024-2.048-1.024-1.024-1.024h-2.048v-3.072l1.024-1.024v-1.024h3.072l2.048-1.024 2.048-2.048v-4.096l-6.144-4.096v-3.072l3.072-3.072v-2.048l-1.024-3.072 1.024-2.048 1.024-1.024v-2.048h2.048v-1.024l-1.024-1.024v-6.144h2.048l-1.024-1.024v-1.024l-1.024-1.024 1.024-1.024h1.024l2.048 2.048-1.024-5.12h-2.048l-1.024-1.024 1.024-1.024 1.024-2.048h2.048l1.024-1.024v-1.024l-2.048 2.048-1.024-1.024h-2.048v-1.024h-3.072l-1.024 1.024-1.024 2.048h-5.12v-2.048l1.024-1.024h-2.048l-1.024-2.048v-2.048l-1.024-2.048v-3.072l2.048-4.096 1.024-6.144v-1.024l1.024-2.048 2.048-3.072 2.048-4.096v-3.072l-1.024-3.072-1.024-4.096-1.024-2.048v-9.216l-1.024-1.024v-6.144l1.024-1.024h1.024l2.048-1.024 1.024-1.024v-4.096h1.024v-1.024l1.024-1.024 1.024-2.048 1.024-4.096v-2.048l2.048-2.048v-3.072l1.024-1.024v-1.024l3.072-3.072 1.024-2.048 1.024-3.072 1.024-8.192 3.072-6.144v-1.024l1.024-2.048-1.024-4.096 1.024-1.024 1.024-3.072 1.024-2.048v-2.048l-1.024-6.144v-4.096l-2.048-10.24v-4.096l2.048-3.072v-1.024h1.024l1.024-1.024v-2.048l1.024-1.024v-2.048l-2.048-6.144v-5.12l1.024-2.048 1.024-1.024 1.024-2.048 1.024-6.144 2.048-5.12v-1.024l1.024-4.096 1.024-8.192 1.024-3.072v-8.192l2.048-3.072v-5.12l-1.024-4.096v-8.192l1.024-1.024v-1.024l1.024-1.024v-3.072l-2.048-1.024v-4.096l2.048-2.048 1.024-2.048v-2.048l2.048-16.384-1.024-8.192 1.024-8.192-1.024-3.072-1.024-8.192v-6.144l-1.024-2.048 4.096-1.024 2.048-1.024 1.024-2.048-1.024-3.072 1.024-1.024 2.048-1.024 1.024-1.024v2.048l1.024 1.024v1.024l3.072 3.072 1.024 3.072 1.024 5.12 1.024 3.072 4.096 4.096v2.048l-1.024 1.024v1.024l-1.024 1.024h1.024v4.096h-2.048l1.024 1.024v1.024l-1.024 2.048 1.024 1.024 2.048 1.024v2.048h-1.024v1.024l3.072 3.072 1.024 3.072 1.024 4.096 1.024 3.072 1.024 2.048v3.072l1.024 4.096v1.024l1.024 1.024 2.048 1.024 3.072-1.024h2.048l2.048 2.048-1.024 1.024-2.048 8.192v2.048l-2.048 2.048-3.072 2.048-6.144 2.048-3.072 3.072v4.096l1.024 1.024v1.024h-1.024v1.024l-1.024 2.048v1.024l1.024 5.12 1.024 2.048v1.024l-1.024 2.048v1.024l-1.024 1.024v1.024l1.024 1.024 1.024 2.048 1.024 1.024v3.072h-1.024l-1.024 1.024h-2.048l-2.048 2.048-1.024 2.048-2.048 6.144-4.096 4.096-1.024 2.048-1.024 3.072-1.024 5.12-3.072 3.072v2.048l1.024 3.072v5.12h1.024v1.024l-1.024 2.048h-2.048l-1.024 1.024-1.024 3.072v4.096l-1.024 1.024h-1.024v1.024h-1.024v5.12l1.024 1.024 1.024 2.048 1.024 1.024v2.048h-1.024l1.024 2.048 2.048 6.144v1.024h1.024v2.048l-1.024 1.024v1.024l1.024 1.024h2.048v13.312h-2.048l-2.048 3.072v2.048l-1.024 3.072-1.024 2.048v1.024l-1.024 1.024h-1.024l1.024 1.024v2.048l1.024 2.048v5.12l-1.024 1.024v1.024h-1.024l-2.048 2.048v1.024h-1.024l-2.048 1.024v1.024l-1.024 1.024v14.336l1.024 8.192v1.024l2.048 2.048v1.024l-1.024 1.024-4.096 2.048-1.024 1.024v1.024l-1.024 1.024v4.096l-1.024 2.048v1.024h-1.024l-1.024 1.024 1.024 3.072v1.024l-1.024 1.024v1.024l-1.024 1.024v1.024l1.024 1.024v1.024l-2.048 4.096v12.288l1.024 2.048 1.024 3.072v1.024l-1.024 2.048h-2.048v1.024h-1.024v5.12h-1.024v4.096l1.024 2.048v2.048h1.024l2.048 1.024h1.024v1.024l-1.024 1.024h-1.024v1.024l1.024 1.024v2.048h1.024v1.024l-1.024 1.024 1.024 1.024v3.072l-1.024 1.024v3.072l1.024 1.024h2.048l3.072 1.024 1.024 1.024v3.072l-2.048 1.024h-8.192v1.024l1.024 1.024h2.048l1.024 1.024h2.048l1.024 2.048 1.024 1.024v2.048l-1.024 2.048-1.024 1.024h-1.024l-1.024 1.024v3.072l1.024 1.024v2.048l-1.024 1.024v1.024h-1.024v2.048l1.024 2.048v3.072l-1.024 2.048-1.024 1.024v6.144l-4.096 4.096-3.072 6.144 1.024 2.048 1.024 1.024 1.024 2.048-1.024 3.072h-1.024l-1.024 1.024-1.024 2.048v4.096l-2.048 2.048-2.048 1.024-2.048 2.048v2.048h-1.024l-1.024 1.024h-1.024l-1.024 1.024v11.264l1.024 1.024 3.072 9.216v1.024h2.048l4.096-2.048h2.048l2.048 2.048v5.12l-1.024 1.024v2.048h1.024v2.048l-1.024 2.048v3.072l1.024 1.024 2.048 1.024v1.024l1.024 2.048 1.024 1.024h21.504l1.024 1.024 5.12 1.024 7.168 1.024 3.072 2.048zM327.68 756.736l-1.024-1.024v1.024h1.024zM342.016 752.64v1.024l1.024 3.072 1.024-1.024v-2.048l-1.024-1.024v-1.024l-1.024 1.024zM333.824 751.616v0 1.024l-1.024 1.024 1.024 1.024 3.072 5.12v1.024l1.024 1.024h1.024v2.048h3.072v-7.168l-1.024-1.024-1.024-2.048v-2.048l2.048-2.048h1.024v-2.048h-1.024l-1.024-1.024h-2.048l-1.024 2.048v2.048h-3.072l-1.024 1.024zM335.872 732.16l-1.024 1.024 1.024 1.024h2.048l2.048 1.024 1.024-1.024h1.024v-2.048l1.024-1.024 2.048-1.024 1.024-2.048-1.024-1.024-2.048-1.024v-3.072l1.024-1.024h2.048l-1.024-1.024v-2.048l1.024-1.024v-2.048l-1.024-2.048h-1.024l-1.024-1.024h-2.048l-1.024-1.024h-1.024v2.048l-1.024 6.144v5.12l-1.024 1.024-1.024 6.144zM331.776 769.024v0 1.024h4.096l1.024-2.048-1.024-2.048v-4.096l-2.048 2.048-2.048 4.096v1.024zM339.968 741.376h-2.048v1.024h4.096l-1.024-1.024h-1.024zM329.728 738.304h2.048l-1.024-1.024-1.024 1.024zM332.8 870.4l-1.024-1.024h-1.024v-2.048l-1.024-2.048v1.024h-1.024v1.024h-1.024v5.12l3.072 3.072h1.024l2.048-4.096-1.024-1.024zM328.704 841.728l1.024-1.024-1.024-1.024v-1.024l-3.072-1.024h-1.024l-2.048 6.144h3.072v-1.024h2.048l1.024-1.024zM331.776 858.112l-1.024 1.024-3.072 1.024-1.024-1.024-1.024 3.072-1.024 2.048v1.024l3.072-3.072h3.072l1.024-1.024h1.024v-2.048l-1.024-1.024zM324.608 845.824h-1.024l-1.024 3.072v1.024l1.024 1.024 1.024-1.024v-2.048h1.024l1.024-1.024v-1.024h-2.048zM333.824 818.176l-2.048-2.048h-2.048l-1.024 1.024v3.072l-1.024 1.024h-1.024l-1.024 1.024v1.024h1.024v2.048h-3.072l-1.024 1.024 1.024 1.024v1.024l1.024 1.024v1.024l-1.024 1.024h-2.048v2.048h2.048l2.048 1.024h1.024l1.024-1.024 1.024-2.048v-1.024l3.072-3.072-1.024 2.048-1.024 1.024v4.096l1.024 1.024v2.048h1.024l2.048-2.048v-4.096l1.024-9.216-1.024-4.096zM335.872 869.376v1.024h2.048l-1.024-1.024-1.024-2.048h-2.048l1.024 1.024v1.024h1.024zM320.512 813.056v3.072l1.024 1.024 4.096-2.048 1.024-1.024v-2.048l-2.048-4.096v-1.024l-1.024-1.024h-1.024l-1.024 1.024v1.024l1.024 1.024v1.024l-1.024 1.024-1.024 2.048zM322.56 824.32l2.048-2.048 2.048-3.072v-2.048h-1.024l-1.024 1.024h-2.048l-2.048 2.048 1.024 1.024h1.024v1.024l-2.048 2.048h2.048zM327.68 799.744l-2.048 1.024h-1.024l1.024 1.024h1.024l2.048-1.024v-1.024h-1.024zM329.728 802.816v-1.024l-2.048 2.048-2.048 1.024v3.072l2.048 5.12 2.048 1.024 1.024 1.024 2.048-1.024-1.024-5.12-2.048-5.12v-1.024zM415.744 929.792h1.024v-1.024l-1.024-1.024h-1.024l-1.024 1.024 1.024 1.024h1.024zM423.936 921.6v0l1.024 1.024 1.024-1.024-1.024-1.024-1.024 1.024zM416.768 918.528l-2.048-1.024h-7.168l-3.072 1.024h1.024l1.024 2.048 2.048 2.048h1.024l4.096-1.024h2.048v1.024h1.024l2.048-2.048-2.048-2.048zM502.784 873.472l1.024 1.024v1.024h-1.024v-2.048zM509.952 874.496h1.024l-2.048-3.072h2.048l1.024 1.024 3.072 1.024 1.024-1.024v-1.024h-1.024v-1.024l2.048-1.024 6.144-2.048 2.048-1.024v-1.024l-2.048-1.024h1.024v-1.024h1.024l-4.096-2.048-1.024 1.024v2.048h-1.024l-1.024-1.024h-1.024v-1.024h1.024v-2.048l-5.12-1.024h-1.024l1.024 1.024v1.024h-1.024v1.024l-1.024 2.048h-1.024v1.024h1.024v1.024h-1.024l-2.048 1.024-2.048 2.048-1.024 2.048v3.072l2.048 2.048 1.024-1.024v-1.024h2.048zM517.12 872.448l1.024 1.024v-1.024l-1.024-1.024v1.024zM499.712 860.16l-3.072-1.024 1.024 1.024 1.024 2.048 1.024-2.048zM506.88 864.256l1.024-1.024v-2.048h-1.024l-3.072 1.024h-8.192l-1.024-1.024h-1.024l4.096 4.096-1.024 1.024h-3.072l1.024 1.024h2.048v1.024l-1.024 1.024-2.048 1.024-1.024 1.024h-2.048l-1.024 1.024 1.024 1.024 2.048 1.024h2.048l2.048-1.024v-2.048h3.072l2.048-2.048 2.048-1.024 3.072-4.096zM489.472 869.376l1.024-1.024h-3.072v2.048h1.024l1.024-1.024zM521.216 585.728l-1.024 1.024v2.048l1.024 2.048v2.048l-1.024 2.048h-2.048v1.024l-1.024 5.12v2.048l1.024 4.096v2.048l-1.024 1.024v1.024l2.048 3.072 3.072 3.072 7.168 3.072 3.072 3.072v2.048l-2.048 4.096v3.072l1.024 2.048v1.024h1.024l1.024 1.024h1.024l2.048 1.024h1.024l1.024 1.024v4.096l-1.024 1.024-1.024 4.096-6.144 6.144-3.072 6.144-2.048 2.048-4.096 2.048-10.24 4.096-8.192 2.048-13.312 2.048h-9.216l-4.096-2.048h-3.072v4.096l1.024 1.024 2.048 1.024v1.024h-1.024l1.024 2.048v3.072l-2.048 3.072-1.024 2.048v6.144l1.024 3.072-2.048 2.048-3.072 2.048-4.096 1.024-3.072 1.024-4.096-1.024h-3.072l-7.168-3.072-3.072-1.024 1.024-1.024h-3.072l-1.024 2.048v5.12l1.024 4.096v7.168l2.048 2.048h1.024l1.024 1.024h2.048l-1.024 1.024 1.024 1.024h4.096l1.024-1.024v-1.024h-2.048l2.048-2.048h2.048l2.048 1.024 1.024 2.048v6.144l-1.024 1.024h-2.048l-2.048 1.024-2.048-2.048-1.024-2.048-2.048-2.048-2.048 1.024h-1.024l-2.048 2.048v1.024l1.024 1.024 6.144 2.048-6.144 3.072-4.096 4.096v1.024l-1.024 1.024v4.096l1.024 2.048-1.024 3.072v3.072l-1.024 1.024-2.048 1.024-1.024 1.024v2.048l1.024 1.024v1.024l-1.024 1.024h-7.168l-2.048 2.048h-1.024l-3.072 1.024-4.096 4.096-4.096 7.168-1.024 2.048v3.072l1.024 2.048 2.048 3.072 6.144 6.144 3.072 1.024h6.144l3.072 2.048v3.072l-1.024 3.072-2.048 2.048-2.048 1.024 1.024 1.024 2.048-1.024 1.024 1.024v1.024l-1.024 2.048-2.048 1.024-12.288 10.24-3.072 2.048-2.048 4.096v4.096l-1.024 3.072-1.024 4.096-1.024 2.048-2.048 2.048h-4.096l-1.024-2.048-2.048-3.072v2.048l-2.048 1.024-1.024 1.024h5.12l1.024 2.048-2.048 2.048-2.048 1.024-3.072 3.072v2.048l-1.024 3.072-2.048 4.096h1.024l2.048 4.096v4.096l-1.024 1.024h-4.096l4.096 1.024 2.048 1.024 1.024 2.048 3.072 4.096 2.048 3.072v2.048l-2.048-2.048-3.072-1.024-7.168-1.024-5.12-1.024-1.024-1.024h-21.504l-1.024-1.024-1.024-2.048v-1.024l-2.048-2.048h-1.024v-3.072l1.024-2.048v-2.048h-1.024v-2.048l1.024-1.024v-5.12l-2.048-2.048h-2.048l-4.096 2.048h-2.048v-1.024l-3.072-9.216-1.024-1.024v-11.264l1.024-1.024h1.024l1.024-1.024h1.024v-2.048l2.048-2.048 2.048-1.024 2.048-2.048v-4.096l1.024-2.048 2.048-2.048 1.024-2.048-1.024-2.048-1.024-1.024-1.024-2.048 1.024-2.048 1.024-3.072 5.12-5.12v-3.072l-1.024-1.024 1.024-2.048 1.024-1.024 1.024-2.048v-3.072l-1.024-2.048v-2.048h1.024v-1.024l1.024-1.024v-2.048l-1.024-1.024v-3.072l1.024-1.024h1.024l1.024-1.024 1.024-2.048v-2.048l-1.024-1.024-1.024-2.048h-1.024l-1.024-1.024h-3.072l-1.024-1.024v-1.024h8.192l2.048-1.024v-3.072l-1.024-1.024-3.072-1.024h-2.048l-1.024-1.024v-3.072l1.024-1.024v-3.072l-1.024-1.024 1.024-1.024v-1.024h-1.024v-2.048l-1.024-1.024v-1.024h1.024v-1.024h1.024v-1.024h-1.024l-2.048-1.024-1.024-1.024v-1.024l-1.024-2.048v-4.096h1.024v-5.12h1.024v-1.024h2.048l1.024-2.048v-1.024l-1.024-3.072-1.024-2.048v-12.288l2.048-4.096v-1.024l-1.024-1.024v-1.024l1.024-1.024v-1.024l1.024-1.024v-1.024l-1.024-3.072 1.024-1.024h1.024v-1.024l1.024-2.048v-4.096l1.024-1.024v-1.024l1.024-1.024 4.096-2.048 1.024-1.024v-1.024l-2.048-2.048v-1.024l-1.024-8.192v-14.336l1.024-1.024v-1.024l2.048-1.024h1.024v-1.024l2.048-2.048h1.024v-1.024l1.024-1.024v-5.12l-1.024-2.048v-2.048l-1.024-1.024h1.024l1.024-1.024v-1.024l1.024-3.072 1.024-2.048v-2.048l2.048-3.072h2.048v-13.312h-2.048l-1.024-1.024v-1.024l1.024-1.024v-2.048h-1.024v-1.024l-2.048-6.144-1.024-2.048h1.024v-2.048l-1.024-1.024-1.024-2.048-1.024-1.024v-5.12h1.024v-1.024h1.024l1.024-1.024v-4.096l1.024-3.072 1.024-1.024h1.024l2.048-2.048v-1.024h-1.024v-5.12l-1.024-3.072v-2.048l3.072-3.072 1.024-5.12 1.024-3.072 1.024-2.048 4.096-4.096 2.048-6.144 1.024-2.048 2.048-2.048h2.048l1.024-1.024h1.024v-3.072l-1.024-1.024-1.024-2.048-1.024-1.024v-1.024l1.024-1.024v-1.024l1.024-2.048v-1.024l-1.024-2.048-1.024-5.12v-1.024l1.024-2.048v-1.024h1.024v-1.024l-1.024-1.024v-4.096l3.072-3.072 6.144-2.048 3.072-2.048 2.048-2.048v-2.048l2.048-8.192 1.024-1.024-2.048-2.048 3.072-4.096 2.048-2.048 1.024-2.048h1.024l2.048-1.024 1.024-1.024v-2.048h2.048l3.072 2.048 1.024 1.024h9.216l3.072 2.048 2.048 4.096 2.048 3.072 2.048-5.12 1.024-3.072 2.048-2.048h12.288v1.024l7.168 7.168 2.048 3.072 3.072 3.072 8.192 7.168 4.096 2.048 5.12 1.024 5.12 2.048 7.168 5.12 5.12 3.072 6.144 2.048 4.096 2.048 2.048 2.048 1.024 2.048-1.024 1.024-3.072 6.144-3.072 3.072v1.024l-1.024 4.096v1.024l-2.048 2.048-1.024 2.048-1.024 1.024v1.024l1.024 1.024h6.144l7.168 2.048 9.216 1.024h2.048v-1.024l1.024-1.024h1.024l1.024-1.024 1.024 1.024h4.096v-1.024l3.072-3.072 3.072-2.048 3.072-3.072 2.048-4.096v-5.12l1.024-4.096h1.024l4.096-1.024 3.072 3.072 1.024 3.072 1.024 2.048v2.048l-1.024 6.144v3.072l-2.048 2.048-2.048 1.024-1.024 1.024-2.048 1.024h-2.048l-2.048 1.024-4.096 4.096-6.144 4.096-1.024 1.024 1.024 1.024-1.024 1.024h-2.048l-1.024 1.024-7.168 10.24-11.264 11.264v1.024l-2.048 2.048-1.024 2.048 1.024 1.024v2.048l-1.024 1.024-1.024 4.096-1.024 2.048 1.024 1.024v2.048l-2.048 2.048v6.144zM439.296 913.408h-5.12l-2.048-1.024h-2.048l-6.144-3.072-8.192-6.144-7.168-5.12v-1.024l-1.024-2.048v-1.024l-1.024-1.024h-1.024l-1.024-1.024h-2.048v-2.048l1.024-1.024h2.048l-1.024-2.048-1.024-1.024-1.024-2.048-1.024-1.024-1.024 33.792 5.12-1.024h4.096l9.216 2.048 5.12 1.024h2.048l9.216-1.024h2.048l1.024-1.024h1.024l1.024-1.024v-2.048h-1.024zM453.632 915.456h2.048l1.024-1.024h-8.192l-3.072 1.024 1.024 1.024h1.024l2.048-1.024h4.096zM477.184 675.84h1.024v-1.024h-1.024v-1.024l-1.024 1.024 1.024 1.024zM740.352 352.256h1.024v1.024l-1.024-1.024zM744.448 346.112v1.024h-1.024v1.024h1.024l1.024-1.024-1.024-1.024zM630.784 508.928h-1.024v1.024l1.024 1.024 1.024-1.024v-2.048l-1.024 1.024zM679.936 470.016h-1.024l1.024-1.024h2.048v1.024h-2.048zM631.808 526.336v-1.024l1.024-2.048v3.072l-1.024 2.048-1.024 1.024 1.024-2.048v-1.024zM668.672 479.232h-1.024v-1.024l1.024-1.024 1.024 1.024-1.024 1.024zM788.48 278.528v4.096l-1.024 9.216-1.024 3.072-1.024 4.096-3.072 5.12-3.072 3.072-3.072 1.024v2.048l-4.096 6.144-2.048 1.024-1.024 1.024-3.072 2.048-3.072 3.072v1.024h-1.024v1.024l-1.024 1.024v1.024l-1.024 1.024v-2.048l-1.024 1.024v2.048l-1.024 2.048v1.024l-2.048 4.096-5.12 7.168-1.024 2.048-2.048 1.024-1.024-1.024-1.024-2.048-1.024-1.024v1.024h-1.024v1.024h-1.024l1.024 1.024-1.024 3.072-2.048 3.072-1.024 2.048h1.024v6.144l1.024-1.024v2.048l-1.024 4.096v2.048l1.024 13.312v5.12l-2.048 8.192-1.024 2.048v7.168l-3.072 3.072-2.048 4.096-1.024 4.096 1.024 8.192-1.024 2.048-1.024 1.024-2.048 3.072-1.024 1.024-2.048 6.144-2.048 3.072-3.072 2.048-2.048 3.072-1.024 4.096v7.168l-1.024 1.024-2.048 1.024h-2.048l-2.048 1.024-1.024 1.024-2.048 1.024v2.048l-1.024 2.048v2.048h-4.096l-4.096 1.024h-2.048l-1.024-1.024h-1.024v-2.048l-1.024-1.024-1.024 1.024v2.048l-1.024 1.024-2.048 1.024h-5.12l2.048-1.024h1.024l-1.024-1.024h-2.048l-6.144 1.024-2.048 1.024v1.024l1.024 1.024-1.024 1.024h-2.048l-1.024 1.024-2.048 1.024-3.072 2.048-1.024 1.024v1.024h-1.024l-1.024-1.024h-2.048l-1.024 1.024h-2.048l-7.168 4.096-9.216 8.192-3.072 2.048-2.048 1.024h1.024l-1.024 2.048-2.048 2.048h-1.024l1.024-1.024h-3.072v1.024l-1.024 1.024h-2.048l1.024 1.024h1.024l1.024 1.024v1.024l-2.048 2.048h-1.024l1.024 1.024v3.072l-1.024 1.024v4.096l1.024 7.168v11.264l-1.024 2.048v2.048l-1.024 2.048-2.048 2.048-5.12 4.096-2.048 2.048-3.072 4.096-10.24 20.48-4.096 4.096-6.144 4.096-5.12 4.096v-2.048l1.024-1.024h2.048l2.048-1.024 2.048-2.048v-1.024l2.048-1.024 1.024-1.024v-3.072h2.048l1.024-2.048 2.048-2.048v-4.096h2.048v-2.048h-2.048l-2.048 1.024h-1.024l-2.048-2.048-1.024-2.048v1.024l1.024 2.048v2.048l-1.024 1.024v2.048h-1.024v2.048l-1.024 2.048v1.024l-1.024 1.024-3.072 1.024-2.048 2.048-2.048 3.072v6.144l-2.048 3.072v1.024l-3.072 6.144-1.024 3.072-3.072 2.048-4.096 4.096-2.048-1.024-1.024-2.048v-2.048l1.024-2.048 4.096-4.096v-2.048l-1.024-1.024h-1.024l-1.024-1.024h-1.024l-1.024-1.024v-1.024l-2.048-4.096h-2.048l-3.072-2.048-5.12-5.12-4.096-1.024-6.144-6.144-1.024 1.024-3.072 1.024h-1.024v-3.072l-2.048-2.048-2.048-3.072-3.072-2.048-2.048-1.024h-2.048l-3.072 2.048h-2.048l-2.048-1.024 11.264-11.264 7.168-10.24 1.024-1.024h2.048l1.024-1.024-1.024-1.024 1.024-1.024 6.144-4.096 4.096-4.096 2.048-1.024h2.048l2.048-1.024 1.024-1.024 2.048-1.024 2.048-2.048v-3.072l1.024-6.144v-2.048l-1.024-2.048-1.024-3.072-3.072-3.072-4.096 1.024h-1.024v-3.072l1.024-1.024v-1.024l1.024-1.024 1.024-12.288 1.024-1.024-2.048-2.048-2.048-1.024h-2.048l-2.048 2.048h-4.096l-1.024-1.024-1.024-2.048-1.024-3.072-1.024-8.192-1.024-4.096-3.072-3.072h-2.048l-1.024-1.024h-1.024v-1.024h-2.048v1.024h-1.024l-2.048 1.024h-2.048l-5.12-1.024h-1.024l-1.024-1.024h-1.024l-1.024 1.024-1.024-1.024h-1.024l1.024-5.12v-11.264l-3.072-5.12v-2.048l3.072-2.048v-1.024h-1.024v-1.024h-1.024v-4.096l3.072-5.12 1.024-1.024-1.024-1.024 1.024-5.12 1.024-2.048 1.024-1.024-1.024-2.048-1.024-1.024v-2.048l-1.024-2.048v-2.048h-1.024v1.024h-1.024l-2.048-2.048h-1.024l-1.024-2.048-1.024-1.024-1.024-2.048v-2.048l2.048-4.096v-2.048l-4.096 1.024h-4.096l-9.216-1.024h-3.072l-1.024-1.024v-5.12l-1.024-2.048v-2.048l-2.048-2.048-1.024-2.048h3.072v-4.096l-1.024-6.144-1.024-1.024v-4.096l-6.144-3.072h-8.192l-2.048-1.024h-1.024l-1.024-2.048v-1.024h-1.024l-3.072-1.024-2.048-1.024h-2.048l-3.072-3.072v-1.024h-1.024l-1.024 1.024-1.024-1.024-4.096-2.048-4.096 1.024-4.096-2.048-3.072-2.048-1.024-2.048h-1.024l-3.072-3.072-2.048-5.12-1.024-1.024v-1.024l1.024-2.048v-1.024l-1.024-1.024v-2.048l-1.024-1.024 1.024-1.024v-1.024l1.024-1.024v-4.096l-2.048-2.048h-3.072l-5.12 1.024h-2.048l-12.288 6.144-4.096 4.096h-3.072l-1.024 1.024-2.048 1.024-1.024 2.048h-4.096l-2.048-1.024h-8.192l-2.048-1.024h-1.024l-1.024 1.024-2.048 1.024h-2.048l-1.024-1.024h-2.048v-14.336l1.024-2.048v-2.048l-1.024 1.024-5.12 4.096-2.048 1.024-3.072 1.024h-7.168v-2.048l-1.024-3.072h-1.024l-2.048-1.024-3.072-1.024h-5.12l2.048-1.024 1.024-2.048v-1.024l-1.024-2.048-2.048-2.048v-1.024l-4.096-4.096-2.048-4.096h1.024v-1.024h-1.024v-1.024l-2.048-1.024v-3.072h1.024l1.024-1.024v-4.096h1.024v-1.024l2.048-1.024 3.072-2.048h1.024v-4.096l-1.024-1.024 1.024-1.024v-2.048l1.024-1.024 1.024-2.048v-1.024l1.024-3.072v-1.024h1.024l1.024-1.024h1.024l1.024-1.024 5.12-3.072 3.072-2.048 3.072-1.024h5.12l2.048-1.024 2.048-2.048h4.096l2.048 2.048h2.048l1.024-1.024 2.048-7.168 4.096-25.6v-4.096l-1.024-1.024-1.024-2.048v-2.048l-2.048-2.048-2.048-1.024-1.024-1.024v-9.216l2.048-1.024 3.072-1.024h1.024l1.024 1.024h3.072v-1.024l-1.024-2.048-2.048-2.048h-5.12v-7.168h19.456l-1.024-1.024v-2.048h1.024l1.024 1.024v1.024h1.024l1.024 1.024 1.024-2.048 2.048-1.024 1.024-1.024h2.048l1.024 1.024 1.024 2.048 1.024 1.024v6.144h2.048l3.072 3.072 4.096 2.048h2.048l1.024-1.024 2.048-1.024 1.024-1.024 2.048 1.024v2.048l1.024 1.024 4.096-5.12h1.024l1.024-1.024 6.144-3.072h1.024l2.048-2.048 1.024-2.048v-1.024l1.024-1.024 3.072-1.024 2.048-1.024 1.024-1.024v-2.048h-6.144l-1.024-1.024v-2.048l-2.048-6.144v-4.096l-1.024-1.024-4.096-3.072-1.024-2.048v-2.048l2.048 2.048h4.096l1.024 1.024h1.024v1.024h2.048l4.096 1.024v-1.024h2.048l3.072 3.072h1.024l2.048 1.024v-1.024l2.048-4.096 1.024-1.024h5.12l3.072-1.024h1.024l2.048-1.024h1.024l1.024-2.048h1.024l2.048-1.024h1.024l1.024-1.024 2.048-1.024 1.024-1.024v-3.072l-1.024-1.024h4.096l1.024-1.024h1.024l2.048 2.048v3.072l-1.024 2.048v2.048h4.096v1.024l1.024 1.024v3.072l1.024 1.024v2.048l-2.048 1.024-1.024 1.024v1.024l-1.024 6.144-1.024 2.048 1.024 1.024v2.048l1.024 2.048 1.024 1.024v4.096l1.024 2.048 2.048 1.024 3.072 3.072 2.048 1.024h4.096l2.048-1.024 1.024-1.024v-1.024h5.12v-1.024h1.024l2.048-1.024h1.024l3.072-3.072h2.048l2.048 1.024h6.144l4.096 1.024 2.048-2.048v-2.048h-1.024l-1.024-1.024 1.024-1.024 1.024-2.048 2.048 1.024h3.072l4.096-1.024 2.048-1.024v1.024l1.024 1.024 3.072 1.024 2.048 2.048h4.096l2.048-1.024 1.024-1.024h1.024l1.024 1.024h5.12v1.024h3.072l2.048-2.048 2.048-3.072 3.072-7.168 3.072-5.12 2.048-3.072 2.048-1.024v-1.024l1.024-1.024v-1.024h1.024l2.048 2.048 2.048 4.096 1.024 6.144 3.072 10.24 1.024 1.024-1.024 1.024 1.024 1.024h1.024v2.048h1.024l1.024 1.024h2.048l2.048 1.024 2.048 4.096-1.024 2.048v1.024l-4.096 4.096-4.096 5.12-2.048 1.024-3.072 2.048v1.024h-2.048v2.048l-4.096 5.12-1.024 1.024-1.024 3.072v1.024l-1.024 1.024v1.024h-1.024v1.024h-4.096l-4.096 2.048h9.216l9.216-6.144h1.024l1.024-1.024 1.024 1.024h-1.024v1.024l2.048 6.144 2.048 3.072 2.048 1.024 2.048-1.024 1.024-1.024h7.168l2.048-1.024-2.048 8.192-2.048 2.048 2.048-1.024 1.024-3.072 2.048-4.096 1.024-1.024h2.048v-1.024l3.072-3.072h1.024l2.048 1.024v-1.024h1.024l-2.048-2.048 1.024-2.048 2.048-3.072 2.048-1.024v-1.024h1.024v1.024h1.024l1.024-1.024h3.072l1.024 1.024v-1.024h3.072v1.024h3.072l2.048 1.024 1.024 1.024 2.048 1.024h3.072v1.024h2.048l5.12 2.048 2.048 2.048 1.024 3.072v-1.024l2.048-2.048h2.048l1.024 2.048 1.024 1.024h1.024l1.024 2.048v3.072l-2.048 1.024 1.024 1.024 1.024-1.024v-1.024h2.048v2.048l-1.024 1.024-2.048 4.096v2.048l-1.024 2.048h1.024l3.072-3.072v-3.072l2.048-2.048h1.024v3.072l1.024-1.024 2.048-1.024 4.096-1.024h1.024l1.024-1.024h2.048l8.192 4.096h3.072l8.192 2.048h2.048l9.216-1.024h4.096l10.24 5.12 8.192 5.12 2.048 1.024 3.072 4.096 5.12 5.12 2.048 1.024h1.024l1.024 1.024v1.024h2.048v1.024l4.096 1.024h8.192l5.12 1.024 4.096 6.144 4.096 16.384zM610.304 175.104l1.024-1.024v-1.024l-1.024-1.024h-1.024v3.072h1.024zM632.832 202.752v-2.048l-2.048-1.024-4.096-1.024-8.192 1.024-5.12-1.024h-3.072l-2.048 1.024-2.048 2.048v3.072l-1.024 2.048v1.024h1.024v1.024h2.048v1.024h-2.048v3.072l1.024 1.024v2.048l2.048 1.024h3.072l2.048-1.024 2.048 1.024h2.048l1.024-1.024 1.024-2.048 1.024 1.024h2.048l1.024-2.048v1.024h2.048l1.024-1.024v-2.048l3.072-3.072v-3.072l2.048-2.048zM607.232 197.632h-4.096v3.072l2.048-1.024 1.024-1.024h1.024zM672.768 211.968h-1.024v1.024h1.024v-1.024zM676.864 229.376v2.048l1.024-1.024v-2.048h-1.024v1.024zM608.256 193.536v3.072h1.024l1.024-1.024v-1.024l1.024-1.024-1.024-3.072v1.024l-2.048 2.048zM613.376 193.536l-2.048 1.024-1.024 2.048h3.072l1.024 1.024 1.024-1.024h1.024l2.048-2.048-2.048-1.024h-3.072zM619.52 196.608h-2.048l-1.024 1.024 2.048 1.024h1.024l2.048-1.024v-1.024l-1.024-1.024-1.024 1.024zM598.016 203.776l-1.024 1.024-1.024 2.048-1.024 1.024v2.048l-1.024 1.024-1.024 3.072 3.072-2.048 4.096-4.096 1.024-3.072-1.024-2.048-2.048 1.024zM613.376 191.488l1.024-1.024-1.024-1.024-2.048 2.048v1.024h1.024l1.024-1.024zM776.192 914.432h1.024l-1.024 1.024-2.048 1.024-4.096-4.096v-1.024h-1.024l-1.024-1.024h-2.048l-2.048-2.048-2.048-1.024-4.096-1.024-2.048-1.024 1.024-1.024h-3.072l-2.048-1.024h5.12l3.072 1.024h2.048l4.096 1.024h2.048v2.048h1.024l2.048 1.024v-1.024h1.024v1.024l1.024 1.024 1.024 2.048 1.024 1.024 1.024-1.024v3.072zM886.784 970.752h-1.024l-1.024 1.024 1.024 1.024h1.024v-2.048zM490.496 92.16h-1.024v-1.024h1.024v1.024zM488.448 93.184v0l-1.024 1.024v1.024l2.048-1.024 1.024-1.024h-2.048zM364.544 61.44l-2.048 1.024-1.024 1.024-1.024 3.072-1.024 1.024v1.024l-2.048 1.024h-1.024l-3.072 4.096-3.072 10.24-3.072 6.144v1.024l1.024-1.024h2.048l2.048 1.024v1.024l1.024 1.024v1.024l2.048 4.096 3.072 3.072v4.096l-2.048 4.096 3.072 3.072h1.024l1.024 1.024v1.024l2.048 2.048h1.024l3.072-1.024 1.024 1.024h5.12l2.048-1.024h3.072l1.024 1.024h4.096l1.024 1.024 5.12 7.168 1.024 1.024 2.048 1.024 1.024-1.024h10.24l5.12-1.024h4.096l1.024 2.048-4.096 8.192v10.24l1.024 5.12v1.024l1.024 1.024 3.072 4.096v1.024l-1.024 2.048-4.096 3.072-1.024 2.048h3.072l2.048 2.048 2.048 1.024v3.072h1.024l3.072 9.216v3.072l3.072 3.072 4.096 2.048h2.048l1.024-1.024 2.048-1.024 1.024-1.024 2.048 1.024v2.048l1.024 1.024 4.096-5.12h1.024l1.024-1.024 6.144-3.072h1.024l2.048-2.048 1.024-2.048v-1.024l1.024-1.024 3.072-1.024h2.048l1.024-2.048v-2.048h-6.144l-1.024-1.024v-2.048l-2.048-6.144-1.024-4.096-4.096-4.096-1.024-2.048v-2.048l2.048 2.048h4.096l1.024 1.024h1.024v1.024h2.048l4.096 1.024 1.024-1.024h1.024l4.096 4.096h2.048v-1.024l1.024-2.048v-2.048l2.048-1.024h5.12l3.072-1.024h1.024l2.048-1.024 2.048-2.048h1.024l2.048-1.024h1.024l1.024-1.024 2.048-1.024 1.024-1.024v-3.072l-7.168-7.168-1.024-2.048v-1.024l1.024-1.024h1.024v-2.048h1.024l-1.024-3.072v-1.024l1.024-1.024 5.12-1.024 2.048-1.024 2.048-2.048-1.024-1.024h-2.048l-1.024-1.024v-4.096l3.072-3.072 4.096-2.048 1.024-1.024 1.024-2.048-1.024-1.024-1.024-2.048h-10.24l-2.048 1.024h-4.096l-2.048-1.024h4.096l1.024-1.024 1.024-2.048 1.024-3.072v-1.024l1.024-1.024h1.024v-2.048h-1.024l-2.048-2.048h-3.072v-1.024l-2.048-1.024v-1.024l-1.024 1.024h-1.024v2.048l-2.048-3.072-1.024-1.024h-2.048v1.024h-1.024l-1.024 1.024-1.024-1.024-2.048-4.096v2.048h-1.024v-3.072l-2.048-2.048h1.024l4.096-1.024h4.096l2.048-2.048-3.072 1.024-7.168-1.024-13.312 2.048h-3.072l4.096 1.024h1.024l-1.024 1.024h-5.12l-5.12 3.072-2.048 1.024h-3.072l-2.048-1.024h-2.048l-4.096-2.048h-1.024l-1.024-2.048v-1.024h-9.216l-9.216 1.024-3.072 1.024-2.048-1.024-1.024-2.048-1.024-1.024v-3.072l-1.024-1.024-1.024-2.048-3.072-1.024-2.048-1.024h-6.144l-2.048-1.024-1.024-2.048-1.024-4.096-1.024-1.024-2.048 1.024h-1.024v1.024l-1.024 1.024 1.024 1.024v2.048h4.096l1.024 1.024v1.024h-2.048l-1.024-1.024-2.048 2.048-2.048 1.024-8.192 2.048-3.072 1.024-1.024 1.024-1.024 3.072v1.024l1.024 1.024v2.048h1.024l2.048 4.096 1.024 1.024 1.024 2.048-1.024 3.072v2.048l-2.048 2.048h-2.048l-1.024 1.024-1.024-1.024h-1.024v-1.024l-1.024-1.024v-1.024l-1.024-1.024-1.024-3.072-1.024-2.048 1.024-1.024 2.048-3.072 1.024-2.048 1.024-1.024v-2.048l-1.024-2.048v-2.048h1.024l-3.072-3.072-1.024-2.048 2.048-2.048 4.096-1.024 2.048-1.024h-2.048l-4.096 1.024zM450.56 70.656h-1.024l1.024-1.024h4.096l1.024-1.024 1.024 1.024-2.048 2.048h-1.024l-1.024-1.024h-2.048zM438.272 70.656v0 0h2.048l-1.024 1.024-1.024-1.024zM289.792 184.32l-6.144-4.096v-1.024l-1.024-1.024v-1.024l1.024-1.024h3.072l1.024-2.048-1.024-2.048v-2.048l2.048-1.024 1.024-1.024h4.096l1.024-2.048 2.048-2.048h1.024v-1.024h-1.024v-1.024h2.048v-1.024l1.024-2.048 4.096-7.168-1.024 1.024h-1.024v-2.048l-1.024 1.024-1.024-1.024v-2.048h-1.024l2.048-3.072 1.024-1.024v-2.048l-1.024-5.12-2.048-4.096 1.024-1.024h1.024l1.024-1.024v-1.024l-2.048-4.096v-1.024l1.024-1.024v-2.048l-2.048-2.048-3.072-4.096-1.024-2.048 2.048-4.096v-1.024h1.024v1.024h1.024l2.048-1.024 1.024-3.072v-2.048l-1.024-1.024-1.024-2.048v-2.048l1.024-1.024 1.024 1.024 4.096 5.12h1.024v1.024h-1.024v1.024h2.048v-3.072l-1.024-1.024-1.024-3.072v-1.024l6.144-3.072 2.048-2.048 1.024-2.048 2.048-2.048h3.072l1.024-1.024-1.024-1.024v-3.072l1.024-4.096-1.024 1.024h-1.024l4.096-6.144 4.096-3.072 2.048-2.048h1.024l3.072 1.024h2.048l-2.048 2.048v1.024h2.048l1.024-2.048v-3.072l1.024-1.024 2.048-1.024 4.096 1.024h2.048l8.192-4.096 3.072-2.048 1.024-1.024 2.048-1.024 1.024-2.048 1.024-1.024h1.024l2.048-1.024 1.024-1.024h2.048l2.048 1.024 1.024 2.048v2.048l-1.024 2.048h-2.048l-4.096 1.024-2.048 1.024-1.024 1.024-1.024 3.072-1.024 1.024v1.024l-2.048 1.024h-1.024l-3.072 4.096-3.072 10.24-3.072 6.144v1.024l1.024-1.024h2.048l2.048 1.024v1.024l1.024 1.024v1.024l2.048 4.096 3.072 3.072v4.096l-2.048 4.096 3.072 3.072h1.024l1.024 1.024v1.024l2.048 2.048h1.024l3.072-1.024 1.024 1.024h5.12l2.048-1.024h3.072l1.024 1.024h4.096l1.024 1.024 5.12 7.168 1.024 1.024 2.048 1.024 1.024-1.024h10.24l5.12-1.024h4.096l1.024 2.048-4.096 8.192v10.24l1.024 5.12v1.024l1.024 1.024 3.072 4.096v1.024l-1.024 2.048-4.096 3.072-1.024 2.048h3.072l2.048 2.048 2.048 1.024v3.072h1.024l3.072 9.216v3.072h-2.048v-6.144l-1.024-1.024-1.024-2.048-1.024-1.024h-2.048l-1.024 1.024-2.048 1.024-1.024 2.048-1.024-1.024h-1.024v-1.024l-1.024-1.024h-1.024v2.048l1.024 1.024h-19.456v7.168h5.12l2.048 2.048 1.024 2.048v1.024h-3.072l-1.024-1.024h-1.024l-3.072 1.024-2.048 1.024v4.096l-1.024 2.048 1.024 2.048v1.024l1.024 1.024 2.048 1.024 2.048 2.048v2.048l1.024 2.048 1.024 1.024v4.096l-4.096 25.6-2.048 7.168-2.048-3.072-2.048-2.048h-1.024l-1.024 1.024h-1.024l-2.048-1.024 6.144-8.192 1.024-3.072v-2.048l-6.144-3.072-1.024-1.024-2.048-1.024h-2.048l-1.024 1.024h-4.096v-1.024h-3.072l-2.048 1.024-1.024 1.024h-9.216l-2.048-1.024-1.024-1.024v-4.096h-1.024l-2.048-1.024-1.024-1.024v-2.048l-1.024-1.024-1.024-2.048-6.144-3.072-1.024-1.024v-1.024l-1.024-1.024v-1.024l-2.048-2.048-5.12-3.072-1.024-1.024-2.048 1.024-3.072-2.048-4.096-2.048-3.072-3.072-2.048 1.024v1.024h-1.024l-1.024 1.024-2.048-1.024-4.096-1.024h-3.072l-1.024-1.024v-2.048h-1.024l-3.072-2.048-6.144-3.072zM291.84 166.912v0 0 0zM283.648 181.248v1.024h-1.024v-1.024h1.024zM325.632 203.776l-5.12-5.12h3.072l1.024-1.024-3.072-1.024-4.096-2.048-3.072-3.072-2.048 1.024v1.024h-4.096l-4.096-1.024h-3.072l-1.024-1.024v-2.048h-1.024l-3.072-2.048-6.144-3.072-6.144-4.096v1.024l1.024 1.024-2.048 1.024-4.096 1.024-5.12 2.048-3.072 2.048-1.024 1.024 1.024 3.072v3.072l-1.024 1.024v1.024l-2.048 1.024-2.048 4.096 2.048 1.024h-1.024l-1.024 1.024v1.024l-2.048 2.048h-2.048l-1.024 2.048 1.024 2.048v5.12l1.024 1.024v2.048l-1.024 1.024h-1.024v2.048h1.024l4.096 3.072 2.048 1.024h1.024l2.048-3.072v2.048h1.024v-1.024l1.024-1.024v-4.096l1.024 5.12v1.024l-1.024 3.072-2.048 4.096-1.024 1.024-2.048 1.024v1.024l1.024 2.048v4.096h-2.048l-1.024 1.024v1.024h1.024l-1.024 3.072h1.024l2.048-1.024h2.048l3.072 1.024 1.024 1.024h1.024v1.024l1.024 1.024 1.024 2.048 2.048 1.024h2.048l2.048-1.024v-2.048l2.048-2.048 3.072-8.192v-4.096h3.072v-1.024l2.048-3.072 1.024-1.024 2.048-1.024 9.216-3.072 9.216-6.144 5.12-6.144 1.024-1.024 1.024-2.048 1.024-4.096h1.024l1.024-1.024v-3.072zM270.336 229.376l1.024-1.024-1.024-1.024-2.048 2.048-1.024 2.048h1.024l2.048-2.048zM397.312 55.296l2.048 1.024v1.024h-1.024l-2.048-1.024-1.024-1.024v-1.024h1.024zM405.504 56.32v0-1.024h-1.024v1.024zM386.048 52.224v0l1.024 1.024h-1.024l-1.024-1.024v-1.024h1.024z"></path>
</svg>
