<!-- Generated by IcoMoon.io -->
<svg version="1.1" xmlns="http://www.w3.org/2000/svg" width="1280" height="1024" viewBox="0 0 1280 1024">
<g id="icomoon-ignore">
</g>
<path d="M1215.488 575.488c-2.048-32.768-22.528-61.44-58.368-81.92-128-74.752-314.368-113.664-425.984-136.192-31.744-6.144-57.344-11.264-70.656-15.36-2.048-1.024-4.096-2.048-5.12-2.048 25.6-14.336 161.792-31.744 272.384-36.864 5.12-1.024 9.216-5.12 9.216-10.24s-4.096-9.216-9.216-9.216c-138.24-7.168-324.608-8.192-430.080 32.768-17.408 8.192-26.624 17.408-26.624 29.696 0 31.744 62.464 60.416 165.888 103.424 48.128 20.48 136.192 58.368 137.216 72.704-24.576 55.296-310.272 117.76-540.672 167.936-52.224 11.264-103.424 22.528-151.552 33.792v-149.504c1.024 2.048 3.072 4.096 7.168 5.12 32.768 11.264 63.488 3.072 97.28-6.144 32.768-8.192 66.56-17.408 101.376-5.12 2.048 1.024 3.072 0 4.096 0s1.024-2.048 1.024-2.048l-2.048-146.432c0-5.12-2.048-8.192-8.192-10.24-32.768-11.264-64.512-3.072-97.28 6.144-32.768 8.192-66.56 17.408-101.376 5.12-1.024 0-1.024 0-1.024 0v-3.072c0-5.12-4.096-8.192-9.216-9.216 0 0 0 0 0 0-2.048 1.024-5.12 1.024-6.144 3.072-2.048 2.048-3.072 4.096-3.072 6.144v317.44c0 4.096 2.048 7.168 6.144 8.192 1.024 0 2.048 0 2.048 0 1.024 0 1.024 0 1.024 0 1.024 1.024 2.048 1.024 4.096 1.024 0 0 0 0 0 0l574.464-1.024c1.024 0 1.024 0 2.048 0h452.608c2.048 0 5.12-1.024 6.144-2.048 70.656-58.368 106.496-115.712 102.4-165.888zM279.552 557.056l-3.072-1.024c-12.288-3.072-22.528-3.072-35.84-2.048l-1.024-47.104c13.312 0 25.6 0 36.864 3.072h3.072v47.104zM275.456 425.984h3.072v46.080l-3.072-1.024c-12.288-2.048-23.552-3.072-36.864-2.048l-1.024-46.080c13.312-1.024 25.6 0 37.888 3.072zM229.376 463.872l1.024 51.2c-12.288 2.048-24.576 5.12-35.84 8.192l-1.024-51.2c11.264-3.072 23.552-6.144 35.84-8.192zM186.368 565.248c-10.24 3.072-21.504 6.144-33.792 8.192l-1.024-46.080c11.264-2.048 22.528-5.12 33.792-8.192l1.024 46.080zM182.272 435.2l2.048 46.080c-11.264 3.072-22.528 6.144-34.816 8.192l-1.024-46.080c12.288-2.048 23.552-5.12 33.792-8.192zM100.352 483.328c12.288 2.048 24.576 3.072 38.912 2.048l1.024 50.176c-14.336 2.048-27.648 1.024-40.96-2.048h-2.048l-1.024-51.2 4.096 1.024zM1103.872 723.968h-266.24l98.304-60.416h-102.4l-143.36 60.416h-37.888c0 0-1.024 0-1.024 1.024h-486.4c24.576-5.12 48.128-10.24 72.704-16.384 320.512-69.632 532.48-119.808 555.008-180.224 0-1.024 0-2.048 1.024-2.048 3.072-28.672-51.2-53.248-149.504-94.208-60.416-25.6-153.6-65.536-153.6-86.016 0-3.072 6.144-8.192 14.336-11.264 39.936-15.36 91.136-24.576 148.48-29.696-18.432 2.048-35.84 5.12-50.176 8.192-16.384 4.096-39.936 8.192-52.224 19.456-6.144 6.144-8.192 11.264-2.048 18.432 5.12 5.12 10.24 10.24 16.384 14.336 12.288 9.216 29.696 17.408 52.224 25.6 25.6 9.216 55.296 18.432 88.064 28.672l37.888-7.168c-45.056-12.288-89.088-24.576-119.808-35.84-22.528-8.192-39.936-16.384-49.152-23.552-5.12-3.072-10.24-7.168-11.264-9.216-5.12-5.12 7.168-10.24 11.264-12.288 8.192-4.096 17.408-6.144 29.696-9.216 24.576-5.12 55.296-13.312 92.16-17.408 13.312-2.048 28.672-4.096 46.080-5.12 2.048 0 4.096 0 6.144-1.024-60.416 9.216-112.64 21.504-115.712 38.912-2.048 13.312 15.36 20.48 21.504 22.528 15.36 4.096 40.96 9.216 72.704 16.384 110.592 22.528 294.912 59.392 420.864 133.12 29.696 18.432 46.080 40.96 48.128 67.584 4.096 41.984-28.672 93.184-92.16 146.432zM970.752 485.376l-41.984 8.192c6.144 2.048 12.288 5.12 18.432 7.168 15.36 7.168 55.296 26.624 53.248 46.080l36.864 1.024c-2.048-37.888-49.152-55.296-66.56-62.464zM794.624 427.008c-11.264-3.072-22.528-6.144-33.792-9.216l-38.912 7.168c21.504 6.144 43.008 12.288 64.512 18.432 3.072 1.024 5.12 2.048 8.192 3.072l39.936-7.168c-13.312-4.096-26.624-8.192-39.936-12.288zM947.2 476.16c-27.648-10.24-58.368-20.48-90.112-30.72l-39.936 8.192c31.744 9.216 60.416 19.456 87.040 29.696l43.008-7.168zM887.808 635.904h84.992c29.696-22.528 52.224-47.104 61.44-70.656h-43.008c-17.408 21.504-56.32 46.080-103.424 70.656z"></path>
</svg>
