<!-- Generated by IcoMoon.io -->
<svg version="1.1" xmlns="http://www.w3.org/2000/svg" width="1024" height="1024" viewBox="0 0 1024 1024">
<g id="icomoon-ignore">
</g>
<path d="M769.024 244.736c-36.864-6.144-75.776-2.048-112.64 2.048l-20.48 2.048c-40.96 4.096-82.944 8.192-123.904-2.048-43.008-10.24-75.776-34.816-101.376-78.848l-248.832 673.792 31.744 11.264 102.4-276.48 6.144 7.168c19.456 20.48 41.984 33.792 68.608 39.936 38.912 9.216 80.896 5.12 120.832 1.024l19.456-2.048c38.912-4.096 77.824-8.192 116.736-1.024 48.128 8.192 84.992 34.816 112.64 80.896l138.24-372.736c-26.624-49.152-61.44-76.8-109.568-84.992zM667.648 327.68c9.216-25.6 14.336-38.912 16.384-46.080 25.6-1.024 46.080-1.024 66.56 2.048-4.096 11.264-13.312 35.84-25.6 68.608-19.456-3.072-40.96-3.072-65.536-2.048 3.072-8.192 5.12-15.36 8.192-22.528zM492.544 336.896c9.216-28.672 14.336-41.984 15.36-49.152 20.48 3.072 41.984 4.096 68.608 2.048-4.096 12.288-13.312 36.864-24.576 68.608-25.6 2.048-47.104 1.024-66.56-1.024 2.048-7.168 4.096-14.336 7.168-20.48zM400.384 316.416l7.168 5.12c19.456 16.384 38.912 26.624 61.44 32.768-9.216 24.576-19.456 55.296-30.72 87.040-24.576-6.144-46.080-17.408-66.56-34.816l-3.072-3.072 31.744-87.040zM387.072 584.704c-24.576-5.12-47.104-16.384-68.608-34.816l-3.072-3.072 29.696-80.896 7.168 5.12c19.456 17.408 39.936 27.648 63.488 33.792-10.24 27.648-19.456 55.296-28.672 79.872zM428.032 519.168c8.192-23.552 17.408-49.152 26.624-74.752 13.312 1.024 28.672 2.048 44.032 2.048 7.168 0 14.336 0 21.504 0-8.192 24.576-18.432 50.176-26.624 74.752-25.6 1.024-46.080 0-65.536-2.048zM553.984 582.656c-10.24 0-20.48 1.024-30.72 2.048-12.288 2.048-24.576 3.072-36.864 4.096 4.096-13.312 13.312-37.888 24.576-68.608 12.288-1.024 24.576-2.048 37.888-4.096 10.24-1.024 20.48-2.048 31.744-2.048-9.216 23.552-18.432 47.104-26.624 68.608zM574.464 429.056c-10.24 1.024-20.48 2.048-31.744 3.072 10.24-26.624 19.456-52.224 27.648-74.752 10.24-1.024 21.504-2.048 31.744-3.072 13.312-1.024 26.624-2.048 38.912-3.072-8.192 21.504-17.408 47.104-27.648 74.752-13.312 1.024-25.6 2.048-38.912 3.072zM599.040 512c8.192-22.528 18.432-49.152 27.648-74.752 25.6-1.024 46.080-1.024 65.536 2.048-9.216 24.576-18.432 49.152-27.648 74.752-19.456-3.072-40.96-3.072-65.536-2.048zM724.992 623.616l-6.144-6.144c-20.48-16.384-40.96-26.624-63.488-32.768 5.12-13.312 16.384-43.008 29.696-79.872 24.576 6.144 46.080 17.408 66.56 34.816l3.072 3.072-29.696 80.896zM778.24 480.256l-7.168-6.144c-19.456-16.384-38.912-26.624-61.44-32.768 0-1.024 1.024-2.048 1.024-4.096 11.264-28.672 21.504-57.344 30.72-81.92 23.552 6.144 45.056 17.408 65.536 34.816l3.072 3.072-31.744 87.040z"></path>
</svg>
