<!-- Generated by IcoMoon.io -->
<svg version="1.1" xmlns="http://www.w3.org/2000/svg" width="1024" height="1024" viewBox="0 0 1024 1024">
<g id="icomoon-ignore">
</g>
<path d="M921.6 568.32c0 109.568-43.008 211.968-119.808 289.792-3.072 2.048-5.12 4.096-8.192 5.12-9.216 4.096-20.48 2.048-27.648-5.12l-61.44-62.464c-10.24-9.216-10.24-25.6 0-34.816 9.216-9.216 25.6-9.216 34.816 0l44.032 44.032c52.224-59.392 81.92-133.12 88.064-211.968h-62.464c-14.336 0-25.6-11.264-25.6-24.576s11.264-24.576 25.6-24.576h62.464c-6.144-77.824-36.864-152.576-88.064-211.968l-44.032 44.032c-9.216 9.216-25.6 9.216-34.816 0-10.24-9.216-10.24-25.6 0-34.816l44.032-44.032c-59.392-51.2-134.144-82.944-211.968-88.064v62.464c0 13.312-11.264 24.576-24.576 24.576-14.336 0-25.6-11.264-25.6-24.576v-61.44c-77.824 5.12-152.576 35.84-210.944 87.040l44.032 44.032c4.096 4.096 7.168 11.264 7.168 17.408s-3.072 13.312-7.168 17.408c-9.216 9.216-25.6 9.216-34.816 0l-44.032-44.032c-52.224 59.392-82.944 134.144-88.064 211.968h62.464c13.312 0 24.576 11.264 24.576 24.576s-11.264 24.576-24.576 24.576h-62.464c5.12 78.848 35.84 152.576 87.040 211.968l45.056-44.032c9.216-9.216 25.6-9.216 34.816 0 4.096 4.096 7.168 10.24 7.168 17.408 0 6.144-2.048 13.312-7.168 17.408l-61.44 61.44c0 0-1.024 1.024-1.024 1.024-5.12 5.12-11.264 7.168-17.408 7.168s-12.288-2.048-17.408-6.144l-2.048-2.048c-25.6-19.456-47.104-44.032-61.44-71.68-93.184-174.080-69.632-372.736 61.44-504.832 0 0 1.024-1.024 2.048-2.048 0-1.024 1.024-2.048 2.048-2.048 76.8-75.776 179.2-117.76 287.744-117.76 107.52 0 209.92 41.984 287.744 117.76 0 0 1.024 1.024 2.048 2.048s1.024 1.024 2.048 2.048c75.776 77.824 117.76 179.2 117.76 287.744zM593.92 561.152c0 1.024 0 1.024 0 2.048 1.024 4.096 1.024 8.192 0 11.264-5.12 33.792-26.624 59.392-56.32 69.632-8.192 2.048-16.384 3.072-24.576 3.072-20.48 0-40.96-8.192-55.296-23.552-13.312-12.288-21.504-29.696-24.576-50.176-1.024-4.096-1.024-8.192 0-11.264 5.12-33.792 26.624-59.392 56.32-69.632 28.672-8.192 59.392-1.024 79.872 20.48 2.048 1.024 3.072 2.048 4.096 3.072l139.264-58.368c12.288-5.12 26.624 1.024 32.768 13.312 2.048 6.144 2.048 13.312 0 19.456-3.072 6.144-7.168 10.24-13.312 13.312l-138.24 57.344zM541.696 558.080l-1.024-1.024c-2.048-4.096-4.096-7.168-6.144-9.216-8.192-8.192-19.456-11.264-29.696-7.168-11.264 3.072-19.456 13.312-22.528 27.648 2.048 8.192 5.12 15.36 10.24 20.48 8.192 8.192 19.456 11.264 29.696 7.168 11.264-3.072 19.456-13.312 22.528-27.648-1.024-3.072-2.048-7.168-3.072-10.24z"></path>
</svg>
