<!-- Generated by IcoMoon.io -->
<svg version="1.1" xmlns="http://www.w3.org/2000/svg" width="1024" height="1024" viewBox="0 0 1024 1024">
<g id="icomoon-ignore">
</g>
<path d="M363.52 660.48c37.888 36.864 91.136 61.44 148.48 61.44s110.592-22.528 148.48-61.44c37.888-37.888 61.44-91.136 61.44-148.48s-22.528-110.592-61.44-148.48c-37.888-37.888-91.136-61.44-148.48-61.44s-110.592 22.528-148.48 61.44c-36.864 37.888-61.44 91.136-61.44 148.48s24.576 110.592 61.44 148.48zM403.456 403.456c27.648-27.648 66.56-44.032 108.544-44.032s80.896 16.384 108.544 44.032c27.648 27.648 44.032 66.56 44.032 108.544s-16.384 80.896-44.032 108.544c-27.648 27.648-66.56 44.032-108.544 44.032s-80.896-16.384-108.544-44.032c-27.648-27.648-44.032-66.56-44.032-108.544s16.384-80.896 44.032-108.544zM816.128 483.328h84.992c16.384 0 29.696 13.312 29.696 28.672s-13.312 28.672-29.696 28.672h-84.992c-15.36 0-28.672-13.312-28.672-28.672s13.312-28.672 28.672-28.672zM512 787.456c15.36 0 28.672 13.312 28.672 28.672v84.992c0 16.384-13.312 29.696-28.672 29.696s-28.672-13.312-28.672-29.696v-84.992c0-15.36 13.312-28.672 28.672-28.672zM746.496 706.56l61.44 61.44c10.24 10.24 10.24 28.672 0 38.912-11.264 11.264-29.696 11.264-39.936 0l-61.44-60.416c-11.264-11.264-11.264-28.672 0-39.936s29.696-11.264 39.936 0zM483.328 207.872v-84.992c0-16.384 13.312-29.696 28.672-29.696s28.672 13.312 28.672 29.696v84.992c0 15.36-13.312 28.672-28.672 28.672s-28.672-13.312-28.672-28.672zM707.584 317.44c-10.24-11.264-10.24-28.672 0-39.936l61.44-61.44c11.264-10.24 28.672-10.24 39.936 0 10.24 11.264 10.24 29.696 0 39.936l-61.44 61.44c-11.264 11.264-29.696 11.264-39.936 0zM94.208 512c0-15.36 13.312-28.672 28.672-28.672h84.992c15.36 0 28.672 13.312 28.672 28.672s-13.312 28.672-28.672 28.672h-84.992c-17.408 0-28.672-13.312-28.672-28.672zM316.416 706.56c11.264 11.264 11.264 28.672 0 39.936l-61.44 60.416c-10.24 11.264-28.672 11.264-39.936 0-10.24-10.24-10.24-28.672 0-38.912l61.44-61.44c11.264-11.264 29.696-11.264 39.936 0zM215.040 256c-10.24-10.24-10.24-28.672 0-39.936 11.264-10.24 29.696-10.24 39.936 0l61.44 61.44c11.264 11.264 11.264 28.672 0 39.936s-28.672 11.264-39.936 0l-61.44-61.44z"></path>
</svg>
