<!-- Generated by IcoMoon.io -->
<svg version="1.1" xmlns="http://www.w3.org/2000/svg" width="1462" height="1024" viewBox="0 0 1462 1024">
<g id="icomoon-ignore">
</g>
<path d="M1124.352 532.48c-55.296 0-100.352 45.056-100.352 100.352s45.056 100.352 100.352 100.352 99.328-45.056 99.328-100.352c0-55.296-44.032-100.352-99.328-100.352zM1124.352 718.848c-48.128 0-86.016-38.912-86.016-86.016s37.888-84.992 86.016-84.992 84.992 37.888 84.992 84.992c0 47.104-37.888 86.016-84.992 86.016zM297.984 532.48c-55.296 0-100.352 45.056-100.352 100.352s45.056 100.352 100.352 100.352 100.352-45.056 100.352-100.352c0-55.296-45.056-100.352-100.352-100.352zM297.984 718.848c-47.104 0-84.992-38.912-84.992-86.016s37.888-84.992 84.992-84.992 86.016 37.888 86.016 84.992c0 47.104-38.912 86.016-86.016 86.016zM661.504 305.152c-48.128 13.312-123.904 61.44-128 63.488l-3.072 2.048v51.2l239.616-11.264 27.648-120.832-9.216 1.024c-4.096 0-79.872 1.024-126.976 14.336zM757.76 397.312l-212.992 9.216v-27.648c15.36-9.216 79.872-49.152 119.808-59.392 36.864-10.24 92.16-13.312 114.688-14.336l-21.504 92.16zM1152 338.944l-38.912-28.672c-9.216-7.168-20.48-12.288-32.768-13.312l-66.56-3.072 31.744 103.424 97.28-19.456c8.192-2.048 15.36-8.192 17.408-16.384 2.048-9.216-1.024-17.408-8.192-22.528zM1145.856 357.376c0 2.048-1.024 5.12-5.12 6.144l-84.992 17.408-21.504-71.68 45.056 2.048c9.216 1.024 18.432 4.096 25.6 10.24l38.912 28.672c3.072 3.072 3.072 6.144 2.048 7.168zM1381.376 537.6l-17.408-13.312-3.072-71.68v-2.048c-1.024-2.048-13.312-43.008-48.128-66.56-26.624-19.456-67.584-48.128-82.944-58.368l31.744-46.080-12.288-1.024c-3.072 0-285.696-25.6-445.44-18.432-161.792 7.168-234.496 59.392-236.544 61.44l-113.664 67.584c-19.456 1.024-178.176 11.264-258.048 41.984-2.048 1.024-59.392 11.264-99.328 55.296l-23.552 25.6v86.016l2.048 2.048c0 0 21.504 26.624 22.528 56.32l1.024 5.12 73.728 11.264-3.072-10.24c0 0 0-1.024 0-1.024 13.312 59.392 66.56 103.424 129.024 103.424 72.704 0 132.096-59.392 132.096-132.096 0-22.528-5.12-44.032-15.36-62.464 10.24 19.456 16.384 40.96 16.384 63.488 0 10.24-1.024 20.48-4.096 29.696l-2.048 9.216h572.416l-2.048-9.216c0-1.024 0-2.048-1.024-3.072 13.312 60.416 66.56 104.448 130.048 104.448 72.704 0 132.096-59.392 132.096-132.096 0-17.408-4.096-34.816-10.24-50.176 6.144 15.36 10.24 32.768 10.24 51.2 0 5.12 0 10.24-1.024 16.384l-1.024 9.216 120.832-26.624 14.336-54.272-8.192-40.96zM297.984 750.592c-64.512 0-117.76-52.224-117.76-117.76 0-64.512 53.248-117.76 117.76-117.76 65.536 0 117.76 53.248 117.76 117.76 0 65.536-52.224 117.76-117.76 117.76zM992.256 633.856c0 2.048 0 4.096 0 7.168 0-2.048 0-5.12 0-7.168 0 0 0 0 0 0zM992.256 647.168c1.024 3.072 1.024 6.144 2.048 8.192-1.024-2.048-1.024-5.12-2.048-8.192zM1124.352 750.592c-65.536 0-117.76-52.224-117.76-117.76s52.224-117.76 117.76-117.76c64.512 0 116.736 53.248 116.736 117.76s-52.224 117.76-116.736 117.76zM1363.968 620.544l-93.184 20.48c0-2.048 0-4.096 0-7.168 0-80.896-65.536-146.432-146.432-146.432s-147.456 65.536-147.456 146.432c0 8.192 1.024 16.384 3.072 24.576h-536.576c1.024-8.192 2.048-16.384 2.048-24.576 0-80.896-65.536-146.432-146.432-146.432s-147.456 65.536-147.456 146.432c0 7.168 1.024 14.336 2.048 21.504l-41.984-6.144c-3.072-26.624-18.432-49.152-23.552-56.32v-75.776l19.456-20.48c36.864-40.96 90.112-51.2 92.16-51.2 82.944-31.744 254.976-41.984 257.024-41.984h1.024l117.76-69.632c1.024-1.024 72.704-52.224 229.376-59.392 139.264-6.144 374.784 12.288 431.104 17.408l-26.624 37.888 6.144 4.096c0 0 56.32 38.912 89.088 61.44 19.456 13.312 30.72 32.768 36.864 46.080h-19.456c-18.432 0-32.768 14.336-32.768 31.744 0 18.432 14.336 32.768 32.768 32.768h26.624l1.024 25.6 19.456 14.336 6.144 31.744-11.264 43.008zM1343.488 491.52h-21.504c-10.24 0-18.432-8.192-18.432-18.432 0-9.216 8.192-17.408 18.432-17.408h18.432l3.072 35.84zM204.8 461.824h-2.048c-24.576-3.072-46.080 12.288-60.416 22.528l-4.096 2.048c-11.264 10.24-20.48 19.456-25.6 28.672-7.168 14.336-3.072 22.528 0 26.624 2.048 3.072 6.144 6.144 14.336 6.144 3.072 0 8.192-1.024 14.336-3.072 11.264-4.096 23.552-11.264 35.84-21.504v0c11.264-9.216 21.504-20.48 26.624-30.72 9.216-15.36 7.168-23.552 3.072-28.672l-2.048-2.048zM167.936 512v0c-22.528 18.432-41.984 22.528-44.032 20.48-1.024-1.024-1.024-5.12 2.048-10.24 4.096-7.168 11.264-16.384 21.504-24.576l3.072-2.048c11.264-8.192 28.672-19.456 46.080-20.48-1.024 6.144-10.24 21.504-28.672 36.864zM824.32 289.792l-20.48 121.856 224.256-12.288-31.744-105.472-172.032-4.096zM821.248 396.288l15.36-91.136 149.504 3.072 22.528 77.824-187.392 10.24z"></path>
</svg>
