<!-- Generated by IcoMoon.io -->
<svg version="1.1" xmlns="http://www.w3.org/2000/svg" width="1024" height="1024" viewBox="0 0 1024 1024">
<g id="icomoon-ignore">
</g>
<path d="M384 344.064h-116.736c-10.24 0-17.408 7.168-17.408 16.384v344.064h151.552v-344.064c0-9.216-8.192-16.384-17.408-16.384zM380.928 685.056h-110.592v-321.536h110.592v321.536zM928.768 244.736h-732.16c-24.576 0-44.032 19.456-44.032 44.032v374.784h-91.136c-6.144 0-10.24 5.12-10.24 10.24 0 6.144 4.096 10.24 10.24 10.24h55.296v84.992c0 5.12 4.096 10.24 10.24 10.24h9.216c13.312 0 23.552-11.264 23.552-23.552 0-10.24-5.12-18.432-13.312-21.504v-50.176h87.040c6.144 0 10.24-4.096 10.24-10.24v-331.776c0-3.072 3.072-6.144 7.168-6.144h149.504c4.096 0 7.168 3.072 7.168 6.144v351.232c0 5.12 4.096 10.24 10.24 10.24h25.6c0 0 1.024 0 2.048 0h240.64c0 0 1.024 0 2.048 0h5.12c2.048 0 5.12-1.024 7.168-3.072s3.072-5.12 3.072-8.192l-1.024-1.024c0-1.024 0-3.072 0-4.096 0-47.104 38.912-86.016 86.016-86.016s86.016 38.912 86.016 86.016c0 1.024-1.024 3.072-1.024 4.096v1.024c0 3.072 1.024 6.144 3.072 8.192s4.096 3.072 7.168 3.072h45.056c24.576 0 44.032-19.456 44.032-44.032v-370.688c0-24.576-19.456-44.032-44.032-44.032zM137.216 758.784v-7.168c1.024 0 3.072 2.048 3.072 4.096s-2.048 3.072-3.072 3.072zM952.32 659.456c0 13.312-10.24 23.552-23.552 23.552h-34.816c-2.048-56.32-48.128-102.4-105.472-102.4s-104.448 46.080-105.472 102.4h-235.52c-1.024 0-2.048 0-2.048 0h-18.432v-340.992c0-14.336-11.264-26.624-26.624-26.624h-149.504c-15.36 0-26.624 12.288-26.624 26.624v321.536h-51.2v-374.784c0-13.312 10.24-23.552 23.552-23.552h732.16c13.312 0 23.552 10.24 23.552 23.552v370.688zM888.832 305.152h-231.424c-13.312 0-23.552 11.264-23.552 24.576v105.472c0 12.288 10.24 23.552 23.552 23.552h231.424c13.312 0 23.552-11.264 23.552-23.552v-105.472c0-13.312-10.24-24.576-23.552-24.576zM892.928 435.2c0 2.048-2.048 3.072-4.096 3.072h-231.424c-2.048 0-4.096-1.024-4.096-3.072v-105.472c0-2.048 2.048-4.096 4.096-4.096h231.424c2.048 0 4.096 2.048 4.096 4.096v105.472zM788.48 612.352c-40.96 0-74.752 33.792-74.752 74.752s33.792 73.728 74.752 73.728c40.96 0 73.728-32.768 73.728-73.728s-32.768-74.752-73.728-74.752zM788.48 742.4c-30.72 0-55.296-25.6-55.296-55.296 0-30.72 24.576-55.296 55.296-55.296s55.296 24.576 55.296 55.296c0 29.696-24.576 55.296-55.296 55.296z"></path>
</svg>
