<svg x="0px" y="0px" width="1024px" height="1024px" viewBox="0 0 1024 1024" fill="currentColor">
<path d="M512.011,244.903c-147.513,0-267.097,119.584-267.097,267.097c0,147.498,119.584,267.098,267.097,267.098
	c147.506,0,267.104-119.6,267.104-267.098C779.115,364.487,659.518,244.903,512.011,244.903z M512.011,741.947
	c-126.997,0-229.947-102.951-229.947-229.947c0-126.997,102.95-229.961,229.947-229.961c127.004,0,229.954,102.965,229.954,229.961
	C741.965,638.996,639.016,741.947,512.011,741.947z M512.011,91.007C279.506,91.007,91.018,279.494,91.018,512
	s188.487,420.993,420.993,420.993c232.513,0,420.971-188.487,420.971-420.993S744.525,91.007,512.011,91.007z M873.36,641.57
	l-26.12-10.869c-9.472-3.941-20.325,0.559-24.267,10.031c-3.941,9.471,0.559,20.354,10.03,24.296l26.12,10.854
	c-16.296,34.474-37.563,66.168-62.889,94.067l-19.972-19.973c-7.266-7.236-19.002-7.236-26.267,0
	c-7.266,7.266-7.266,19.031,0,26.268l19.972,19.973c-27.914,25.354-59.593,46.592-94.067,62.887l-10.766-26.09
	c-3.912-9.472-14.766-14.002-24.237-10.09c-9.501,3.942-14.001,14.796-10.089,24.268l10.795,26.149
	c-34.944,12.545-72.213,20.179-111.01,22.031v-28.237c0-10.266-8.324-18.59-18.583-18.59c-10.266,0-18.575,8.324-18.575,18.59
	v28.237c-38.797-1.853-76.065-9.486-111.01-22.017l10.854-26.135c3.941-9.471-0.544-20.325-10.016-24.267
	c-9.472-3.942-20.34,0.559-24.282,10.03l-10.861,26.148c-34.481-16.324-66.167-37.562-94.074-62.916l19.972-19.973
	c7.25-7.236,7.25-19.002,0-26.268c-7.25-7.236-19.016-7.236-26.267,0l-19.972,19.973c-25.34-27.885-46.585-59.564-62.888-94.037
	l26.091-10.796c9.486-3.912,13.986-14.766,10.074-24.237c-3.912-9.501-14.766-14.001-24.252-10.089l-26.157,10.795
	c-12.531-34.944-20.164-72.212-22.009-111.01h28.223c10.266,0,18.575-8.324,18.575-18.59c0-10.251-8.31-18.561-18.575-18.561
	h-28.223c1.846-38.798,9.479-76.065,22.009-111.01l26.112,10.854c9.472,3.942,20.355-0.544,24.282-10.015
	c3.941-9.472-0.544-20.34-10.016-24.282l-26.149-10.869c16.311-34.474,37.555-66.153,62.903-94.067l19.972,19.973
	c7.251,7.25,19.017,7.25,26.267,0c7.25-7.266,7.25-19.017,0-26.267l-19.972-19.972c27.907-25.341,59.586-46.593,94.06-62.888
	l10.758,26.091c3.912,9.471,14.781,13.986,24.267,10.074c9.471-3.912,13.986-14.766,10.074-24.252l-10.795-26.149
	c34.944-12.531,72.227-20.164,111.024-22.017v28.223c0,10.266,8.31,18.575,18.575,18.575c10.258,0,18.583-8.31,18.583-18.575
	v-28.223c38.797,1.853,76.065,9.486,111.01,22.017l-10.795,26.149c-3.912,9.486,0.588,20.34,10.089,24.252
	c9.472,3.912,20.325-0.603,24.237-10.074l10.766-26.091c34.475,16.311,66.153,37.547,94.067,62.888l-19.972,19.972
	c-7.266,7.25-7.266,19.001,0,26.267c7.265,7.25,19.001,7.25,26.267,0l19.972-19.973c25.326,27.9,46.563,59.579,62.889,94.053
	l-26.091,10.766c-9.472,3.927-14.001,14.781-10.089,24.267c3.912,9.472,14.795,13.987,24.267,10.075L873.36,382.4
	c12.531,34.944,20.148,72.227,22.002,111.024h-28.209c-10.266,0-18.59,8.31-18.59,18.561c0,10.266,8.324,18.59,18.59,18.59h28.209
	C893.508,569.357,885.891,606.626,873.36,641.57z"/>
</svg>
