<!-- Generated by IcoMoon.io -->
<svg version="1.1" xmlns="http://www.w3.org/2000/svg" width="1024" height="1024" viewBox="0 0 1024 1024">
<g id="icomoon-ignore">
</g>
<path d="M512 76.8c-240.64 0-435.2 194.56-435.2 435.2s194.56 435.2 435.2 435.2c240.64 0 435.2-194.56 435.2-435.2s-194.56-435.2-435.2-435.2zM902.144 623.616l-26.624-9.216-9.216 27.648 27.648 9.216c-11.264 30.72-26.624 60.416-45.056 87.040l-23.552-16.384-16.384 23.552 22.528 16.384c-20.48 25.6-43.008 49.152-69.632 69.632l-16.384-22.528-23.552 16.384 17.408 23.552c-27.648 18.432-57.344 33.792-88.064 45.056l-9.216-27.648-27.648 9.216 9.216 26.624c-31.744 9.216-64.512 14.336-97.28 15.36v-28.672h-28.672v28.672c-32.768-1.024-65.536-6.144-97.28-15.36l9.216-26.624-27.648-9.216-9.216 27.648c-30.72-11.264-60.416-26.624-87.040-45.056l16.384-23.552-23.552-16.384-16.384 22.528c-26.624-20.48-49.152-44.032-69.632-69.632l22.528-16.384-16.384-23.552-23.552 16.384c-18.432-26.624-33.792-56.32-45.056-87.040l27.648-9.216-9.216-27.648-26.624 9.216c-9.216-31.744-14.336-64.512-15.36-97.28h28.672v-28.672h-28.672c1.024-32.768 6.144-65.536 15.36-97.28l26.624 9.216 9.216-27.648-27.648-9.216c12.288-30.72 26.624-60.416 45.056-88.064l23.552 17.408 17.408-23.552-23.552-16.384c20.48-26.624 43.008-49.152 69.632-69.632l16.384 22.528 23.552-16.384-16.384-23.552c26.624-18.432 56.32-33.792 87.040-45.056l9.216 27.648 27.648-9.216-9.216-26.624c31.744-9.216 64.512-14.336 97.28-15.36v28.672h28.672v-28.672c32.768 1.024 65.536 6.144 97.28 15.36l-9.216 26.624 27.648 9.216 9.216-27.648c30.72 11.264 60.416 26.624 87.040 45.056l-16.384 23.552 23.552 16.384 16.384-22.528c26.624 20.48 49.152 44.032 69.632 69.632l-22.528 16.384 16.384 23.552 23.552-16.384c18.432 26.624 33.792 56.32 45.056 87.040l-27.648 9.216 9.216 27.648 26.624-9.216c9.216 31.744 14.336 64.512 15.36 97.28h-28.672v28.672h28.672c-1.024 32.768-6.144 65.536-15.36 97.28zM512 192.512c-176.128 0-319.488 143.36-319.488 319.488s143.36 319.488 319.488 319.488c176.128 0 319.488-143.36 319.488-319.488s-143.36-319.488-319.488-319.488zM512 801.792c-159.744 0-289.792-130.048-289.792-289.792 0-160.768 130.048-289.792 289.792-289.792 160.768 0 289.792 129.024 289.792 289.792 0 159.744-130.048 289.792-289.792 289.792zM512 265.216c-136.192 0-246.784 110.592-246.784 246.784s110.592 246.784 246.784 246.784 246.784-110.592 246.784-246.784c0-136.192-110.592-246.784-246.784-246.784zM698.368 400.384c17.408 27.648 27.648 59.392 30.72 92.16l-91.136-7.168c-8.192-1.024-14.336-8.192-13.312-15.36 0-4.096 2.048-8.192 5.12-10.24l68.608-59.392zM560.128 300.032l-34.816 83.968c-3.072 7.168-11.264 11.264-18.432 8.192-4.096-2.048-7.168-4.096-8.192-8.192l-34.816-83.968c31.744-7.168 64.512-7.168 96.256 0zM325.632 400.384l68.608 59.392c6.144 5.12 7.168 14.336 2.048 20.48-3.072 3.072-6.144 5.12-10.24 5.12l-91.136 7.168c3.072-32.768 13.312-64.512 30.72-92.16zM447.488 623.616l-20.48 88.064c-30.72-12.288-57.344-31.744-78.848-56.32v0l77.824-48.128c7.168-4.096 15.36-2.048 20.48 5.12 1.024 3.072 2.048 7.168 1.024 11.264zM598.016 711.68h-1.024l-20.48-88.064c-2.048-8.192 3.072-16.384 10.24-17.408 4.096-1.024 8.192-1.024 11.264 1.024l77.824 48.128c-21.504 24.576-48.128 44.032-77.824 56.32zM613.376 582.656c-20.48-12.288-47.104-6.144-60.416 14.336-5.12 10.24-7.168 21.504-5.12 32.768l22.528 92.16c-37.888 10.24-78.848 10.24-115.712 0h-1.024l22.528-92.16c5.12-23.552-9.216-47.104-32.768-52.224-11.264-3.072-22.528-1.024-32.768 5.12l-79.872 49.152c-21.504-32.768-33.792-70.656-35.84-110.592l94.208-7.168c23.552-2.048 40.96-22.528 38.912-47.104-1.024-11.264-6.144-21.504-14.336-29.696l-71.68-60.416c24.576-30.72 57.344-54.272 93.184-68.608l36.864 87.040c9.216 22.528 34.816 32.768 56.32 23.552 11.264-4.096 19.456-13.312 23.552-23.552l36.864-87.040c35.84 14.336 68.608 37.888 93.184 68.608l-71.68 60.416c-17.408 16.384-19.456 44.032-4.096 61.44 7.168 9.216 17.408 14.336 29.696 15.36l93.184 7.168c-1.024 39.936-14.336 77.824-35.84 110.592l-79.872-49.152zM512 453.632c-31.744 0-58.368 26.624-58.368 58.368s26.624 58.368 58.368 58.368c31.744 0 58.368-26.624 58.368-58.368s-26.624-58.368-58.368-58.368zM512 540.672c-16.384 0-28.672-12.288-28.672-28.672s12.288-28.672 28.672-28.672 28.672 12.288 28.672 28.672c0 16.384-12.288 28.672-28.672 28.672z"></path>
</svg>
