<!-- Generated by IcoMoon.io -->
<svg version="1.1" xmlns="http://www.w3.org/2000/svg" width="1024" height="1024" viewBox="0 0 1024 1024">
<g id="icomoon-ignore">
</g>
<path d="M577.536 961.536l-9.216 11.264-30.72-17.408 1.024-8.192-9.216-11.264-15.36 1.024-20.48-17.408-9.216-2.048-9.216 5.12-49.152-22.528-3.072-10.24v-11.264l-23.552-22.528-16.384-21.504-5.12-14.336-10.24-4.096 4.096 14.336 7.168 5.12 1.024 9.216 11.264 12.288 5.12 7.168 3.072 12.288-6.144 1.024-2.048-9.216-7.168-5.12-1.024-7.168-14.336-8.192 4.096-8.192-9.216-8.192-9.216-26.624-10.24-6.144-27.648-37.888-4.096-22.528 2.048-43.008-21.504-23.552v-6.144l20.48 14.336 12.288 19.456v-11.264l-10.24-13.312-22.528-14.336-15.36-22.528-1.024-7.168-12.288-1.024-24.576-36.864-24.576-16.384-17.408-5.12-20.48-10.24-13.312-3.072-12.288 8.192-2.048 10.24-14.336 2.048 2.048 4.096 8.192 5.12-6.144 8.192-11.264 9.216-4.096 5.12-18.432 11.264-20.48 12.288h-7.168l-1.024-4.096 7.168-3.072 15.36-11.264 19.456-15.36 1.024-10.24-11.264-2.048-12.288 2.048-4.096-16.384-10.24 4.096-4.096-6.144-3.072-6.144 3.072-3.072-7.168-8.192 5.12-12.288 23.552-11.264v-17.408l-9.216 5.12h-21.504l-6.144-13.312-6.144-3.072 3.072-6.144 24.576-8.192 1.024 7.168 10.24 1.024 7.168-5.12-15.36-8.192-5.12-10.24-14.336-9.216 3.072-10.24 15.36-4.096 1.024-10.24 7.168-9.216 5.12 1.024 10.24-12.288 4.096 3.072 11.264-10.24 13.312 5.12v6.144l4.096-4.096 8.192 2.048 1.024 6.144 19.456-1.024 7.168 6.144 9.216-1.024 3.072 4.096 12.288-3.072 13.312 9.216 12.288 1.024 10.24 12.288 7.168-2.048v-6.144l12.288-4.096 4.096 3.072v-5.12l20.48-10.24 7.168 8.192 1.024-13.312 8.192 5.12 2.048 13.312 3.072 3.072 5.12-13.312h5.12v9.216l-1.024 4.096h7.168v-7.168h11.264l6.144 7.168 9.216 1.024 8.192 7.168 7.168-2.048 11.264 7.168v5.12l-9.216 5.12 6.144 4.096 18.432-1.024 7.168-5.12 8.192 7.168 7.168 16.384 5.12 5.12-2.048-15.36-7.168-9.216 13.312-9.216h5.12l4.096 4.096h5.12l9.216 7.168 8.192-4.096 18.432 5.12 1.024-6.144-9.216-1.024v-6.144l8.192-1.024 8.192 3.072-1.024 16.384 4.096 4.096 2.048-17.408 3.072-1.024 4.096-6.144v-6.144l-3.072 1.024-1.024-5.12 4.096-5.12-4.096-3.072-8.192-2.048-4.096-8.192 3.072-6.144-2.048-7.168 5.12-11.264 2.048-11.264-3.072-8.192-1.024-21.504 7.168-1.024-3.072-4.096 5.12-4.096h10.24l2.048 4.096 12.288-2.048v7.168l-5.12 7.168-2.048 8.192-5.12 5.12-8.192-1.024 1.024 9.216-4.096 5.12-1.024 5.12 8.192 5.12 3.072 14.336 6.144 7.168-6.144 10.24 4.096 4.096 3.072-4.096 7.168 5.12-3.072 5.12 1.024 12.288 3.072-3.072-1.024-9.216 5.12-4.096 7.168 8.192 1.024 10.24-4.096 3.072 4.096 7.168 4.096 4.096 3.072-6.144-3.072-9.216 3.072-2.048 4.096 5.12v-12.288l5.12-4.096-3.072-2.048v-11.264l15.36 2.048 1.024-5.12h-18.432l-7.168 2.048-1.024-3.072 7.168-1.024-2.048-3.072-10.24 1.024-7.168-8.192-1.024-6.144 6.144 2.048 6.144-1.024-1.024-3.072-6.144-2.048h-7.168l-2.048-5.12v-17.408l5.12-4.096v-8.192l7.168-11.264 7.168-4.096 10.24 1.024 2.048 4.096-7.168 6.144-4.096 9.216 1.024 14.336 2.048 9.216 7.168 6.144 4.096-3.072v-3.072l-8.192-5.12-1.024-4.096 4.096-3.072h4.096l-5.12-4.096-3.072-6.144 1.024-2.048 4.096-9.216 11.264-8.192h7.168l6.144 11.264-1.024 6.144 4.096 2.048-3.072 6.144-2.048 1.024 1.024 10.24 4.096 2.048 1.024-11.264 3.072-3.072 6.144 7.168 2.048 8.192 2.048-8.192-4.096-6.144 5.12-4.096 10.24 2.048 4.096 4.096v3.072l-7.168 3.072-1.024 6.144 6.144 1.024 2.048-6.144 5.12-2.048 2.048 4.096-4.096 10.24 4.096 2.048 1.024-6.144 3.072-1.024v6.144l-2.048 4.096h2.048l3.072-5.12v-6.144l6.144 4.096v8.192l-5.12 8.192 7.168 5.12v-9.216l4.096-3.072 7.168 1.024 6.144 6.144-1.024 5.12-6.144 1.024-2.048 6.144 5.12-1.024 3.072-4.096 4.096-1.024 4.096 3.072v7.168h-6.144v2.048l-11.264 2.048 5.12 4.096 5.12-4.096 5.12-2.048 4.096 5.12-6.144 3.072v5.12l10.24 13.312 6.144-2.048 5.12 4.096v7.168l5.12 5.12 7.168-3.072 5.12 7.168-2.048 5.12h-5.12l-2.048 11.264-5.12 1.024v5.12l-7.168-1.024-3.072-11.264-9.216-9.216-2.048 4.096 1.024 4.096h-4.096l-3.072-4.096-2.048 2.048 4.096 6.144 4.096 2.048 1.024 5.12 2.048 3.072 6.144 1.024 5.12 12.288 1.024 17.408-5.12-1.024-7.168-5.12-8.192-7.168-3.072 2.048 2.048 4.096 12.288 8.192 2.048 6.144 7.168 4.096-3.072 4.096-9.216-4.096-2.048-2.048-16.384-9.216h-5.12l-8.192-9.216v-6.144l-8.192-7.168 1.024-7.168-10.24 6.144-4.096-2.048-5.12 5.12-6.144-1.024-3.072-7.168 2.048-6.144 10.24-3.072 5.12 2.048 8.192-4.096-4.096-8.192 8.192-7.168 2.048-8.192h4.096l5.12 2.048-1.024 9.216 5.12 3.072h5.12l2.048-2.048-9.216-13.312-10.24-3.072-4.096-17.408-7.168 2.048-7.168-5.12h-5.12l-1.024-3.072 5.12-3.072h3.072l-11.264-9.216-2.048-9.216-7.168 6.144-9.216-2.048-8.192 3.072-1.024 5.12 5.12 3.072v13.312l-7.168 5.12 6.144 8.192 2.048 10.24-10.24 8.192-7.168 5.12-6.144-2.048-2.048-4.096-8.192 1.024 4.096 4.096-2.048 8.192-7.168 3.072-8.192-8.192h-7.168l9.216 11.264 4.096-2.048 6.144 2.048-5.12 14.336-10.24 1.024-7.168 10.24v5.12l-8.192 2.048-14.336 22.528 1.024 25.6h8.192l5.12 13.312-1.024 5.12 8.192-4.096 10.24 3.072 12.288 11.264 9.216 2.048 4.096 5.12h15.36l2.048 23.552 9.216 14.336 6.144 3.072 5.12-9.216-7.168-24.576 16.384-13.312 3.072-13.312-9.216-12.288-4.096-2.048v-5.12l6.144-5.12-1.024-22.528-4.096-11.264 5.12-6.144 8.192 1.024 5.12 6.144 5.12-2.048 3.072-4.096 13.312 13.312v6.144l11.264 2.048 3.072 19.456 11.264 10.24 9.216-9.216-1.024-9.216 7.168-4.096 21.504 37.888-2.048 8.192 8.192 10.24 13.312 4.096 1.024 4.096-12.288 3.072-9.216 1.024 3.072 8.192 8.192-4.096 6.144-5.12 7.168 2.048 6.144 4.096 2.048 12.288-10.24 6.144h-8.192l-6.144 9.216h-37.888l-17.408 14.336-13.312 17.408-1.024 4.096 3.072-1.024 14.336-16.384 15.36-9.216 8.192 1.024 2.048 5.12-4.096 5.12-11.264-1.024 1.024 4.096h9.216l3.072 7.168-2.048 5.12c0 0-3.072 8.192-4.096 8.192 0 0-6.144 2.048-6.144 2.048l-2.048 6.144-9.216 2.048-10.24 9.216v13.312l-19.456 6.144-3.072 7.168-9.216 16.384 4.096 11.264-35.84 27.648v11.264l6.144 20.48v9.216l-6.144 2.048-10.24-15.36 1.024-10.24-6.144-6.144-7.168 3.072-4.096-6.144-21.504-1.024 1.024 10.24-10.24-1.024-13.312-4.096-23.552 15.36 2.048 11.264-4.096 23.552 9.216 19.456 10.24 5.12 18.432-2.048 4.096-9.216v-8.192l22.528-2.048v8.192l-4.096 2.048-1.024 7.168-5.12 17.408h24.576l7.168 6.144-3.072 24.576 15.36 11.264 10.24 1.024zM314.368 366.592l-4.096 11.264v8.192l-5.12 2.048v10.24l9.216 4.096 5.12 12.288h6.144l2.048-6.144 7.168-1.024 2.048-10.24 6.144-4.096v-8.192l23.552-16.384-11.264-13.312-13.312-1.024-1.024 5.12-7.168-11.264-24.576 4.096zM349.184 409.6l-3.072-12.288 7.168-4.096-3.072-6.144 20.48-13.312 4.096 8.192 5.12-2.048 10.24 6.144 1.024 3.072 5.12-1.024-2.048-8.192 5.12-1.024 6.144 10.24 1.024 16.384h5.12l-1.024-17.408-2.048-15.36h7.168v-8.192l7.168-1.024 7.168 5.12-5.12 15.36 5.12 21.504v12.288l6.144 6.144 15.36 7.168v10.24l-8.192-1.024-1.024 3.072 4.096 7.168-5.12 5.12-15.36-2.048-1.024-6.144-6.144-2.048-3.072-6.144-3.072 4.096-3.072 8.192-15.36 6.144-16.384-3.072 1.024-7.168-15.36-2.048-8.192-8.192v-5.12l12.288-3.072 16.384 3.072 2.048-6.144-9.216-3.072-8.192 1.024h-16.384l-2.048-7.168 4.096-3.072 7.168-3.072v-5.12zM465.92 436.224l-3.072 4.096 1.024 5.12h-7.168l1.024 7.168 20.48 4.096v-7.168l-3.072-4.096-4.096-9.216zM441.344 377.856l-1.024 6.144 3.072 7.168 8.192 4.096 8.192 17.408 6.144-1.024 2.048-5.12 6.144-4.096v-21.504l-8.192-2.048 1.024-5.12 4.096-2.048 1.024-10.24-8.192-4.096-10.24 3.072-7.168 8.192 6.144 5.12 1.024 10.24-6.144 1.024v-7.168zM371.712 346.112l7.168 6.144 9.216-5.12 9.216-7.168 15.36-1.024 9.216-7.168 2.048-16.384-6.144-5.12-3.072 6.144-6.144-6.144-1.024-10.24-6.144-8.192-4.096 4.096-1.024 7.168 5.12 7.168-4.096 4.096 7.168 8.192-12.288 2.048-4.096-10.24-7.168-6.144h-4.096l-2.048-5.12-8.192-1.024-6.144 7.168-5.12 11.264v7.168l7.168 6.144h11.264l13.312-3.072 1.024 4.096-11.264 5.12zM325.632 314.368l2.048-9.216 5.12-4.096 12.288-21.504h6.144l5.12 2.048v-5.12l4.096-1.024 6.144 4.096-2.048 4.096-1.024 14.336-7.168 3.072v6.144h-6.144l-1.024-13.312-4.096 2.048 1.024 13.312-5.12 6.144-6.144 1.024zM349.184 312.32l-8.192 9.216 5.12 5.12 5.12-10.24zM370.688 291.84l-2.048 4.096 7.168 2.048 3.072-5.12zM398.336 259.072h-10.24l-8.192 5.12-2.048 8.192 5.12 8.192 14.336-4.096-2.048-8.192-4.096 1.024v-4.096l7.168-1.024zM373.76 259.072l2.048 3.072-3.072 8.192-7.168-4.096 2.048-6.144zM380.928 245.76l-2.048 6.144 8.192 2.048 14.336-3.072-1.024-9.216-7.168-4.096-3.072 6.144zM421.888 267.264l-2.048 2.048 1.024 12.288 9.216 6.144 4.096-2.048zM431.104 233.472l4.096 7.168-2.048 5.12-4.096-2.048-3.072 6.144 5.12 7.168 10.24-5.12 8.192 5.12 1.024 6.144 6.144 5.12 6.144-5.12-6.144-11.264 3.072-12.288-15.36-11.264-3.072 2.048-5.12-9.216-12.288 5.12-2.048 7.168zM467.968 239.616l-3.072 12.288 6.144 4.096-2.048 4.096 3.072 7.168 11.264-4.096 7.168-7.168-9.216-9.216zM432.128 297.984l-4.096 2.048 4.096 8.192-2.048 4.096 10.24 14.336 15.36-7.168 1.024 3.072-4.096 4.096v8.192l4.096 2.048 12.288-1.024 1.024-18.432-5.12-18.432-8.192-3.072-10.24 2.048-3.072 6.144 3.072 7.168-6.144 1.024-3.072-9.216zM433.152 325.632l3.072 6.144-3.072 2.048h-4.096l-1.024-7.168zM474.112 295.936l7.168 8.192 7.168 2.048 6.144-2.048 4.096 6.144-2.048 6.144 5.12 3.072-4.096 10.24 6.144 16.384h13.312l3.072-5.12 3.072 1.024-1.024 4.096 25.6 3.072 6.144-4.096 7.168 3.072 11.264-2.048 2.048-7.168-4.096-3.072 2.048-3.072 3.072 1.024v-7.168l-5.12-5.12-5.12 1.024-1.024-4.096-15.36-1.024-3.072 6.144h-6.144l-2.048 3.072-8.192-4.096-9.216 3.072-3.072-4.096 1.024-5.12-6.144-3.072 2.048-4.096 4.096 1.024 1.024-5.12-6.144-3.072 1.024-4.096 6.144 1.024 5.12 5.12 5.12 1.024 4.096-4.096 5.12 6.144 7.168-1.024 2.048-5.12 5.12 1.024 2.048 2.048 8.192-1.024 4.096 1.024-2.048 5.12 5.12 2.048 6.144-5.12 7.168-6.144-1.024-10.24-7.168-2.048-3.072-6.144-8.192-1.024-6.144 2.048 1.024-7.168h-3.072l-5.12 5.12h-9.216l-5.12-8.192v-6.144l-8.192-4.096-7.168 5.12 3.072 10.24 7.168 3.072-3.072 4.096-5.12-2.048-8.192 8.192-6.144 1.024-3.072 6.144h-4.096l-3.072 3.072-5.12-5.12 1.024-5.12-7.168-1.024-7.168-4.096-7.168 2.048zM485.376 320.512l-7.168 5.12 2.048 5.12-4.096 3.072 2.048 6.144 8.192 5.12 8.192-1.024v-13.312zM570.368 362.496l4.096 13.312 9.216 2.048 12.288 2.048-5.12-14.336-7.168-4.096zM494.592 267.264h-8.192l-10.24 5.12 4.096 7.168 9.216-2.048 5.12 1.024zM449.536 268.288l-3.072-4.096-5.12 2.048 1.024 6.144zM505.856 271.36l-1.024 9.216 7.168 4.096 3.072-8.192zM499.712 219.136l1.024 7.168-6.144 1.024-6.144 6.144 6.144 10.24 5.12-1.024 2.048 4.096-5.12 2.048 2.048 5.12 11.264 4.096 3.072-4.096 2.048 2.048v4.096l7.168-3.072 4.096-7.168 3.072-15.36 8.192-5.12 5.12-8.192-6.144-8.192h-6.144l-1.024-25.6-6.144-2.048v4.096l2.048 6.144-4.096 3.072-4.096-7.168 2.048-7.168-4.096-2.048h-3.072l-6.144-17.408-5.12-9.216-7.168-6.144-5.12 3.072-2.048 4.096 6.144 2.048-1.024 5.12h-5.12l-3.072 3.072v8.192l3.072 1.024 5.12-1.024v6.144h-7.168l-5.12-3.072-4.096 1.024 3.072 7.168-4.096 4.096 1.024 4.096 4.096 1.024 7.168-3.072 2.048 3.072-3.072 4.096h-9.216l-2.048 4.096 2.048 7.168 3.072 1.024 5.12-1.024-1.024 5.12-4.096 1.024 2.048 6.144 8.192 3.072 7.168-4.096zM455.68 195.584h6.144l2.048 5.12v11.264h-5.12l-2.048-5.12-4.096-2.048zM535.552 186.368v17.408l7.168 6.144 4.096 11.264 3.072 11.264 10.24 1.024 7.168-1.024 1.024 7.168-8.192 2.048-11.264-4.096-13.312 1.024-6.144 12.288 3.072 6.144 6.144 2.048 4.096-5.12 2.048 2.048-3.072 5.12 1.024 7.168 3.072 6.144 4.096-2.048 6.144-5.12v-8.192l5.12 1.024-1.024 10.24 7.168 3.072 4.096-2.048 3.072 3.072 4.096 5.12 7.168-2.048 2.048-9.216-3.072-6.144h7.168l5.12-6.144 4.096-3.072v-4.096l-2.048-3.072 5.12-1.024-2.048-8.192-8.192-4.096-5.12 4.096-2.048 4.096-4.096-3.072 2.048-6.144 1.024-6.144 6.144-2.048 3.072 5.12 7.168 4.096 4.096-3.072v-5.12l-6.144-1.024-1.024-2.048 12.288-4.096v-6.144l-7.168-2.048-4.096-3.072 4.096-3.072 8.192 1.024 6.144 5.12v5.12l10.24-6.144-2.048-6.144 3.072-4.096-8.192-5.12 2.048-4.096 6.144 3.072 6.144-4.096 2.048-7.168 9.216-11.264 7.168-9.216 9.216-7.168v-7.168h-6.144l-5.12 4.096-12.288 11.264-7.168 1.024-2.048-3.072 10.24-7.168 5.12-5.12-1.024-4.096 9.216-2.048 2.048-4.096 10.24-1.024 13.312-15.36 2.048-10.24-5.12-7.168-3.072 1.024-4.096-6.144v-7.168l-8.192-4.096h-4.096l-4.096 6.144-12.288 8.192-2.048-4.096 10.24-7.168 3.072-7.168-12.288-2.048-7.168 3.072 1.024-7.168h-8.192l-1.024 3.072 4.096 5.12-4.096 2.048-5.12-3.072 1.024-6.144-7.168 1.024-3.072 6.144 4.096 5.12 6.144 3.072-4.096 7.168-7.168-6.144-4.096-14.336-14.336 1.024v3.072l5.12 4.096 5.12 7.168-4.096 9.216-3.072-6.144-3.072-7.168-7.168-5.12-11.264-1.024-3.072 7.168 10.24 3.072-2.048 4.096-11.264-4.096-5.12 5.12-3.072 7.168 15.36 11.264 6.144 14.336h-7.168l-5.12-13.312-20.48-14.336-8.192 1.024 4.096 8.192h-7.168l-1.024 6.144 8.192 3.072-1.024 4.096-14.336-5.12-8.192 6.144h-9.216l-8.192 10.24 2.048 5.12 6.144-1.024 2.048-5.12 5.12 2.048-8.192 9.216 3.072 3.072 10.24-5.12 6.144 2.048-9.216 7.168-5.12 7.168 1.024 3.072 7.168-3.072h8.192l12.288-8.192 2.048 3.072-10.24 10.24-9.216-1.024-6.144 4.096 4.096 6.144h7.168l5.12-5.12h2.048l-1.024 7.168 6.144 3.072 8.192-3.072 3.072-6.144h5.12l-4.096 7.168 2.048 2.048 11.264-5.12 7.168-10.24-1.024-7.168 9.216-7.168 4.096 3.072-3.072 7.168 2.048 5.12 6.144 1.024-7.168 7.168-2.048 6.144-9.216 2.048-17.408 4.096 4.096 12.288 7.168 1.024 1.024 10.24-4.096 4.096-6.144-9.216-6.144-14.336zM615.424 246.784v10.24l6.144 10.24 7.168-2.048v4.096l4.096 5.12h8.192l7.168-5.12 5.12 5.12v5.12l-16.384 3.072h-9.216l-2.048 11.264 11.264 3.072-2.048 6.144 8.192 8.192h7.168l3.072-5.12 5.12 6.144 8.192-2.048 2.048-6.144 30.72 16.384-2.048 10.24 16.384 20.48 3.072 28.672 4.096 12.288-7.168 13.312 6.144 7.168 6.144-4.096 4.096-9.216 8.192 9.216-4.096 6.144 10.24 11.264-2.048 4.096-10.24-6.144-8.192-2.048-4.096 4.096 8.192 4.096 6.144 6.144 13.312-2.048-6.144 13.312 1.024 11.264-10.24 2.048-7.168 14.336 3.072 13.312 8.192 22.528 2.048 15.36 9.216 17.408 17.408 20.48 8.192-2.048 5.12 9.216 10.24 3.072 6.144-28.672 8.192-14.336-4.096-19.456 14.336-9.216 14.336-4.096 13.312-12.288 9.216-23.552 12.288 2.048 24.576-8.192 21.504-22.528-14.336-7.168-18.432 9.216-2.048-9.216 16.384-9.216-2.048-7.168h11.264l5.12 13.312 9.216 1.024 2.048-21.504-25.6-16.384 5.12-24.576 13.312 6.144 12.288-4.096-5.12-15.36 8.192-24.576-2.048-14.336-14.336-11.264 5.12-10.24 11.264 2.048 7.168-11.264-20.48-12.288 11.264-34.816 2.048-22.528 10.24-3.072 5.12-10.24-9.216-2.048-8.192 8.192-3.072-12.288 4.096-2.048 16.384 3.072 6.144-7.168-2.048-3.072-7.168-2.048-2.048 3.072-3.072-1.024h-8.192l-4.096 2.048-1.024-2.048 4.096-4.096 5.12-1.024 3.072 2.048 4.096-2.048v-4.096l5.12 1.024 2.048 2.048 4.096-1.024v-4.096h6.144l1.024-5.12-2.048-5.12 5.12-2.048 2.048 1.024 10.24-14.336-5.12-8.192-9.216-6.144h-10.24l-7.168 3.072v10.24l-3.072 4.096-4.096-4.096-4.096 1.024v5.12h-3.072v-7.168l-5.12 2.048-1.024 8.192-10.24 14.336-3.072 11.264-6.144 4.096-2.048-4.096 1.024-4.096 7.168-11.264 7.168-12.288 2.048-11.264-1.024-16.384-10.24 2.048-1.024 9.216-16.384 16.384h-4.096l-1.024-4.096 13.312-10.24v-9.216l-19.456-1.024-19.456 8.192-2.048 6.144h-5.12l1.024-8.192 17.408-10.24-2.048-3.072-5.12-2.048 2.048-3.072h5.12l5.12 6.144 6.144-3.072 19.456 1.024 6.144-4.096h7.168l4.096-6.144 5.12-4.096-3.072-9.216-9.216-3.072-1.024-4.096-6.144-2.048-3.072 4.096-5.12 2.048-1.024-4.096 4.096-1.024 3.072-5.12-1.024-6.144-3.072-1.024-3.072 2.048-6.144 3.072h-7.168l-2.048-4.096-9.216 1.024-7.168 7.168h-7.168l-6.144 4.096-5.12-4.096 10.24-4.096-3.072-5.12 3.072-1.024 4.096 3.072h4.096l8.192-5.12 10.24-1.024 3.072 4.096 7.168-1.024 5.12-5.12-2.048-7.168-4.096-7.168-16.384-1.024-28.672-1.024-15.36 4.096-10.24 7.168v7.168l4.096 3.072 6.144-1.024 1.024 3.072-6.144 1.024-6.144 4.096 1.024 5.12 3.072 6.144-3.072 1.024-4.096-8.192-5.12 1.024-5.12-7.168-10.24-10.24-5.12 3.072 4.096 3.072-3.072 2.048-4.096-4.096-5.12 3.072 2.048 6.144 6.144 5.12 11.264 2.048 12.288 8.192 1.024 14.336-3.072 1.024-3.072-10.24-4.096-4.096-1.024 7.168-4.096-3.072 1.024-7.168-14.336-3.072-4.096 4.096 8.192 12.288 9.216 8.192-2.048 3.072-8.192-7.168-3.072 4.096 1.024 8.192-4.096 4.096 5.12 6.144-6.144 2.048-4.096-12.288-15.36-12.288-3.072-8.192-9.216 1.024v11.264l8.192 13.312-3.072 2.048h-5.12v2.048l6.144 4.096-1.024 6.144h-4.096l-3.072-9.216-8.192-9.216h-4.096v19.456l-5.12-1.024 1.024-16.384-4.096-15.36-21.504 9.216-4.096 7.168 6.144 11.264 4.096 2.048 4.096 8.192-1.024 4.096-8.192-10.24-5.12-1.024-2.048-10.24-6.144-2.048-6.144 6.144 3.072 12.288v11.264l-3.072 2.048-5.12-4.096h-5.12l-1.024 4.096-5.12 2.048-17.408 23.552v8.192l2.048 3.072 8.192 1.024 8.192-4.096 2.048 3.072-7.168 4.096 1.024 13.312-8.192 12.288-11.264 2.048-5.12 7.168zM716.8 662.528l-8.192 4.096-3.072 9.216-5.12 3.072-4.096 11.264v7.168h17.408l-1.024 5.12h4.096l9.216-8.192 1.024-12.288-6.144-5.12-6.144 3.072-3.072-6.144 2.048-5.12 4.096-2.048zM720.896 705.536l7.168-7.168 5.12 2.048v9.216l-6.144 2.048zM666.624 705.536l-3.072 13.312-8.192 5.12-2.048 6.144 6.144 4.096 7.168-4.096 4.096-8.192 12.288-2.048 8.192-9.216-5.12-8.192-5.12 5.12-2.048 3.072h-3.072l1.024-8.192zM666.624 676.864l-1.024 2.048 6.144 6.144 8.192 3.072 4.096-4.096-6.144-6.144zM548.864 508.928l-3.072-10.24h-6.144l-2.048 6.144 1.024 6.144-3.072 4.096v8.192l-3.072 1.024-2.048 4.096v4.096l9.216-3.072 1.024 7.168 5.12-1.024 5.12-5.12 1.024-8.192 5.12 3.072v4.096l6.144 1.024 3.072 2.048 5.12-4.096-5.12-8.192-5.12-3.072-4.096-7.168zM562.176 538.624l-5.12-2.048-5.12 2.048-2.048 7.168 6.144 2.048 1.024-4.096 5.12 1.024zM575.488 542.72l-4.096 1.024v5.12l-3.072 3.072 5.12 4.096 4.096-5.12zM600.064 464.896l-5.12-4.096-6.144 3.072-3.072 8.192 4.096 6.144 7.168 1.024 4.096-7.168zM581.632 443.392h-4.096l-2.048 6.144 1.024 6.144h5.12l2.048-9.216zM559.104 872.448l-12.288 6.144-2.048 4.096 11.264 3.072 2.048-6.144h4.096l3.072 3.072 13.312 2.048 6.144 5.12 2.048 6.144 17.408 1.024 2.048-5.12-18.432-9.216-10.24-6.144zM633.856 894.976h-17.408l-4.096 4.096-3.072 5.12 11.264 2.048 11.264-3.072 8.192 2.048v-5.12zM646.144 903.168l2.048 4.096h8.192l8.192-4.096-2.048-3.072zM672.768 906.24l5.12 3.072v5.12l-6.144-1.024zM683.008 917.504l-3.072 3.072v4.096l4.096 2.048 1.024-7.168zM686.080 931.84l-4.096 3.072 2.048 2.048 5.12-1.024-1.024-4.096zM588.8 861.184c-1.024 0-6.144 0-6.144 0v5.12l3.072 4.096 4.096-1.024-2.048-4.096 1.024-4.096zM579.584 847.872l9.216 1.024 2.048 6.144-4.096 1.024-3.072-5.12-3.072 1.024zM602.112 868.352l-3.072 4.096 3.072 5.12h6.144l2.048-3.072-5.12-1.024-1.024-5.12zM620.544 879.616l-2.048 2.048 1.024 2.048h4.096l-1.024-4.096zM612.352 882.688l-3.072 4.096v2.048l2.048 1.024 3.072-3.072zM582.656 903.168l8.192-1.024 6.144 4.096-2.048 4.096-6.144-3.072h-6.144z"></path>
</svg>
