<!-- Generated by IcoMoon.io -->
<svg version="1.1" xmlns="http://www.w3.org/2000/svg" width="1024" height="1024" viewBox="0 0 1024 1024">
<g id="icomoon-ignore">
</g>
<path d="M342.016 407.552h-146.432v16.384h146.432zM195.584 305.152h146.432v15.36h-146.432v-15.36zM701.44 400.384v62.464h62.464v-62.464h-62.464zM748.544 416.768v30.72h-30.72v-30.72h30.72zM342.016 458.752h-146.432v16.384h147.456zM195.584 561.152h146.432v16.384h-146.432v-16.384zM701.44 489.472v62.464h62.464v-62.464h-62.464zM748.544 504.832v30.72h-30.72v-30.72h30.72zM342.016 510.976h-146.432v15.36h147.456zM701.44 577.536v62.464h62.464v-62.464h-62.464zM748.544 593.92v30.72h-30.72v-30.72h30.72zM195.584 356.352h146.432v15.36h-146.432v-15.36zM447.488 573.44h16.384v70.656h-16.384v-70.656zM494.592 786.432h16.384v70.656h-16.384v-70.656zM447.488 786.432h15.36v70.656h-15.36v-70.656zM447.488 679.936h15.36v70.656h-15.36v-70.656zM928.768 873.472h-56.32v-514.048h-202.752v281.6h-15.36v-500.736h-166.912v393.216h-117.76v-281.6h-203.776v621.568h-56.32v16.384h819.2v-16.384zM354.304 268.288v605.184h-172.032v-605.184h172.032zM735.232 712.704v-30.72h12.288v30.72h-12.288zM735.232 816.128h28.672v-62.464h-28.672v-25.6h28.672v-62.464h-28.672v-24.576h-50.176v-265.216h172.032v497.664h-121.856v-57.344zM735.232 800.768v-30.72h12.288v30.72h-12.288zM693.248 801.792v71.68h-49.152v-71.68h49.152zM503.808 533.504v-376.832h134.144v486.4h-80.896v-109.568h-53.248zM628.736 786.432v87.040h-71.68v-216.064h162.816v216.064h-10.24v-87.040h-80.896zM369.664 873.472v-323.584h172.032v323.584h-172.032zM495.616 573.44h15.36v70.656h-15.36v-70.656zM495.616 679.936h15.36v70.656h-15.36v-70.656zM400.384 786.432h15.36v70.656h-15.36v-70.656zM780.288 640h62.464v-62.464h-62.464v62.464zM827.392 593.92v30.72h-30.72v-30.72h30.72zM780.288 551.936h62.464v-62.464h-62.464v62.464zM827.392 504.832v30.72h-30.72v-30.72h30.72zM780.288 728.064h62.464v-62.464h-62.464v62.464zM827.392 681.984v30.72h-30.72v-30.72h30.72zM400.384 679.936h15.36v70.656h-15.36v-70.656zM400.384 573.44h15.36v70.656h-15.36v-70.656zM780.288 462.848h62.464v-62.464h-62.464v62.464zM827.392 416.768v30.72h-30.72v-30.72h30.72zM780.288 816.128h62.464v-62.464h-62.464v62.464zM827.392 770.048v30.72h-30.72v-30.72h30.72z"></path>
</svg>
