<!-- Generated by IcoMoon.io -->
<svg version="1.1" xmlns="http://www.w3.org/2000/svg" width="1669" height="1024" viewBox="0 0 1669 1024">
<g id="icomoon-ignore">
</g>
<path d="M1306.624 841.728c-63.488 0-115.712-50.176-115.712-111.616 0-60.416 52.224-110.592 115.712-110.592s115.712 50.176 115.712 110.592c0 61.44-52.224 111.616-115.712 111.616zM1306.624 642.048c-51.2 0-93.184 39.936-93.184 88.064 0 49.152 41.984 89.088 93.184 89.088s93.184-39.936 93.184-89.088c0-48.128-41.984-88.064-93.184-88.064zM1306.624 816.128c-49.152 0-89.088-38.912-89.088-86.016s39.936-84.992 89.088-84.992c49.152 0 89.088 37.888 89.088 84.992s-39.936 86.016-89.088 86.016zM1306.624 667.648c-36.864 0-66.56 27.648-66.56 62.464s29.696 63.488 66.56 63.488 66.56-28.672 66.56-63.488-29.696-62.464-66.56-62.464zM359.424 841.728c-63.488 0-114.688-50.176-114.688-111.616 0-60.416 51.2-110.592 114.688-110.592s115.712 50.176 115.712 110.592c0 61.44-51.2 111.616-115.712 111.616zM359.424 642.048c-51.2 0-93.184 39.936-93.184 88.064 0 49.152 41.984 89.088 93.184 89.088s93.184-39.936 93.184-89.088c0-48.128-40.96-88.064-93.184-88.064zM359.424 816.128c-48.128 0-88.064-38.912-88.064-86.016s39.936-84.992 88.064-84.992 89.088 37.888 89.088 84.992c0 47.104-39.936 86.016-89.088 86.016zM359.424 667.648c-35.84 0-66.56 27.648-66.56 62.464s30.72 63.488 66.56 63.488c36.864 0 66.56-28.672 66.56-63.488s-29.696-62.464-66.56-62.464zM1420.288 776.192h-17.408l7.168-15.36c5.12-12.288 7.168-25.6 7.168-38.912 0-58.368-50.176-106.496-112.64-106.496s-111.616 48.128-111.616 106.496c0 13.312 2.048 26.624 7.168 38.912l6.144 15.36h-748.544l6.144-15.36c5.12-12.288 8.192-25.6 8.192-38.912 0-58.368-51.2-106.496-112.64-106.496-62.464 0-112.64 48.128-112.64 106.496 0 13.312 2.048 26.624 7.168 38.912l7.168 15.36-180.224-1.024c-9.216-3.072-25.6-15.36-25.6-37.888v-36.864c1.024-12.288 8.192-29.696 26.624-34.816v-116.736c0-4.096 5.12-74.752 53.248-118.784 10.24-10.24 269.312-247.808 461.824-247.808h871.424c4.096 1.024 68.608 6.144 97.28 87.040 2.048 3.072 64.512 117.76 28.672 371.712 6.144 9.216 19.456 30.72 19.456 49.152v51.2l-2.048 3.072c-2.048 3.072-7.168 8.192-57.344 14.336l-134.144 17.408zM550.912 753.664h623.616c-3.072-10.24-4.096-20.48-4.096-31.744 0-70.656 60.416-129.024 134.144-129.024 74.752 0 135.168 58.368 135.168 129.024 0 10.24-1.024 20.48-4.096 30.72l115.712-16.384c22.528-2.048 34.816-5.12 39.936-6.144v-39.936c0-13.312-13.312-33.792-17.408-39.936l-1.024-1.024h-5.12c-18.432 0-33.792-14.336-33.792-32.768v-86.016c0-18.432 15.36-32.768 33.792-32.768h15.36c1.024-149.504-36.864-219.136-36.864-219.136-4.096-11.264-9.216-20.48-13.312-27.648h-980.992l-1.024 502.784zM489.472 753.664h28.672l1.024-502.784h-87.040c-144.384 69.632-280.576 193.536-281.6 195.584-20.48 19.456-32.768 44.032-38.912 65.536h28.672c18.432 0 32.768 14.336 32.768 32.768v59.392c0 18.432-14.336 32.768-32.768 32.768h-35.84v49.152h-11.264c-14.336 0-15.36 12.288-15.36 14.336v36.864c0 10.24 7.168 15.36 10.24 16.384h140.288c-2.048-10.24-4.096-20.48-4.096-31.744 0-70.656 60.416-129.024 135.168-129.024s134.144 58.368 134.144 129.024c0 11.264-1.024 21.504-4.096 31.744zM1567.744 520.192c-6.144 0-11.264 4.096-11.264 10.24v86.016c0 5.12 4.096 9.216 9.216 10.24 4.096-35.84 6.144-71.68 6.144-106.496h-4.096zM116.736 614.4h23.552c6.144 0 11.264-4.096 11.264-10.24v-59.392c0-6.144-5.12-10.24-11.264-10.24h-21.504c-1.024 9.216-2.048 15.36-2.048 15.36v64.512zM483.328 228.352h1031.168c-22.528-21.504-45.056-23.552-46.080-23.552h-871.424c-35.84 0-73.728 9.216-113.664 23.552zM471.040 527.36h-45.056c-11.264 0-20.48-9.216-20.48-20.48s9.216-19.456 20.48-19.456h45.056c11.264 0 20.48 9.216 20.48 19.456s-9.216 20.48-20.48 20.48zM446.464 479.232h-268.288l4.096-14.336c7.168-23.552 37.888-45.056 40.96-47.104l113.664-88.064c26.624-20.48 50.176-19.456 51.2-19.456h103.424v117.76c0 2.048 1.024 21.504-12.288 36.864-8.192 9.216-19.456 13.312-32.768 14.336v0zM212.992 456.704h232.448c7.168 0 13.312-2.048 16.384-7.168 8.192-7.168 7.168-20.48 7.168-20.48v-97.28h-80.896c-1.024 0-17.408 1.024-37.888 15.36l-113.664 89.088c-7.168 4.096-16.384 12.288-23.552 20.48z"></path>
</svg>
