<!-- Generated by IcoMoon.io -->
<svg version="1.1" xmlns="http://www.w3.org/2000/svg" width="1024" height="1024" viewBox="0 0 1024 1024">
<g id="icomoon-ignore">
</g>
<path d="M820.224 589.824c-37.888 0-67.584 28.672-67.584 64.512s29.696 65.536 67.584 65.536c37.888 0 68.608-29.696 68.608-65.536s-30.72-64.512-68.608-64.512zM820.224 703.488c-27.648 0-50.176-22.528-50.176-49.152s22.528-48.128 50.176-48.128c27.648 0 51.2 21.504 51.2 48.128s-23.552 49.152-51.2 49.152zM201.728 589.824c-37.888 0-68.608 28.672-68.608 64.512s30.72 65.536 68.608 65.536c37.888 0 68.608-29.696 68.608-65.536s-30.72-64.512-68.608-64.512zM201.728 703.488c-27.648 0-51.2-22.528-51.2-49.152s23.552-48.128 51.2-48.128c27.648 0 51.2 21.504 51.2 48.128s-23.552 49.152-51.2 49.152zM1000.448 598.016c24.576-167.936-17.408-242.688-17.408-242.688-18.432-48.128-56.32-51.2-56.32-51.2h-570.368c-123.904 0-296.96 159.744-296.96 159.744-28.672 26.624-31.744 72.704-31.744 72.704v81.92c-16.384 0-17.408 16.384-17.408 16.384v24.576c0 13.312 12.288 18.432 12.288 18.432h103.424c-3.072-9.216-5.12-18.432-5.12-28.672 0-41.984 35.84-76.8 80.896-76.8 44.032 0 79.872 34.816 79.872 76.8 0 10.24-2.048 19.456-5.12 28.672h35.84v-344.064h7.168v344.064h424.96c-4.096-9.216-6.144-18.432-6.144-28.672 0-41.984 35.84-76.8 80.896-76.8s80.896 34.816 80.896 76.8c0 10.24-2.048 19.456-6.144 28.672h4.096l82.944-12.288c30.72-3.072 32.768-6.144 32.768-6.144v-30.72c0-13.312-13.312-30.72-13.312-30.72zM72.704 572.416c0 7.168-6.144 14.336-14.336 14.336h-22.528v-50.176c0 0 0-7.168 3.072-17.408h19.456c8.192 0 14.336 6.144 14.336 14.336v38.912zM274.432 515.072h-29.696c-3.072 0-6.144-3.072-6.144-6.144s3.072-6.144 6.144-6.144h29.696c3.072 0 6.144 3.072 6.144 6.144s-3.072 6.144-6.144 6.144zM258.048 483.328h-164.864c4.096-13.312 23.552-26.624 23.552-26.624l74.752-58.368c15.36-11.264 28.672-11.264 28.672-11.264h60.416v69.632c0 0 1.024 25.6-22.528 26.624zM248.832 333.824h720.896zM996.352 593.92h-5.12c-8.192 0-15.36-6.144-15.36-13.312v-56.32c0-8.192 7.168-14.336 15.36-14.336h9.216c1.024 25.6-1.024 53.248-4.096 83.968z"></path>
</svg>
