<!-- Generated by IcoMoon.io -->
<svg version="1.1" xmlns="http://www.w3.org/2000/svg" width="1462" height="1024" viewBox="0 0 1462 1024">
<g id="icomoon-ignore">
</g>
<path d="M1108.992 618.496c-38.912 0-70.656 30.72-69.632 67.584 0 36.864 30.72 66.56 69.632 66.56 0 0 0 0 0 0 38.912 0 69.632-29.696 69.632-66.56s-31.744-67.584-69.632-67.584zM1108.992 737.28c0 0 0 0 0 0-29.696 0-54.272-22.528-54.272-51.2s23.552-51.2 54.272-52.224c0 0 0 0 0 0 29.696 0 54.272 23.552 54.272 52.224 0 27.648-24.576 51.2-54.272 51.2zM1108.992 598.016c-24.576 0-47.104 9.216-64.512 25.6-17.408 17.408-26.624 38.912-26.624 62.464s9.216 45.056 26.624 61.44c17.408 16.384 39.936 25.6 64.512 25.6 0 0 0 0 0 0 24.576 0 47.104-9.216 64.512-25.6s26.624-38.912 26.624-61.44c0-23.552-10.24-46.080-27.648-62.464-16.384-16.384-39.936-25.6-63.488-25.6zM1162.24 736.256c-14.336 14.336-32.768 21.504-53.248 21.504 0 0 0 0 0 0-20.48 0-38.912-7.168-53.248-21.504-14.336-13.312-22.528-30.72-22.528-50.176s7.168-36.864 21.504-51.2c14.336-13.312 33.792-20.48 54.272-20.48 0 0 0 0 0 0 19.456 0 38.912 7.168 53.248 20.48s22.528 31.744 22.528 51.2c0 18.432-8.192 36.864-22.528 50.176zM352.256 600.064c-1.024 0-1.024 0-1.024 0-23.552 0-47.104 9.216-63.488 25.6-17.408 16.384-27.648 38.912-27.648 62.464 0 22.528 10.24 45.056 27.648 61.44s39.936 25.6 63.488 25.6c1.024 0 1.024 0 1.024 0 50.176 0 91.136-39.936 91.136-88.064-1.024-48.128-40.96-87.040-91.136-87.040zM352.256 759.808c-20.48 0-39.936-8.192-54.272-21.504s-21.504-31.744-21.504-50.176c0-19.456 7.168-37.888 21.504-51.2s33.792-21.504 53.248-21.504c0 0 0 0 1.024 0 40.96 0 74.752 32.768 74.752 71.68 1.024 39.936-33.792 72.704-74.752 72.704zM400.384 640c-12.288-12.288-30.72-19.456-49.152-19.456s-35.84 7.168-49.152 19.456c-13.312 13.312-20.48 29.696-20.48 48.128 0 17.408 8.192 34.816 21.504 47.104 12.288 12.288 29.696 19.456 48.128 19.456 1.024 0 1.024 0 1.024 0 37.888 0 69.632-30.72 69.632-67.584 0-17.408-7.168-34.816-21.504-47.104zM352.256 739.328c0 0 0 0-1.024 0-14.336 0-27.648-6.144-37.888-15.36-10.24-10.24-16.384-22.528-16.384-35.84 0-14.336 6.144-26.624 16.384-36.864s23.552-15.36 37.888-15.36c0 0 0 0 1.024 0 14.336 0 27.648 5.12 37.888 15.36 10.24 9.216 16.384 22.528 16.384 35.84 0 28.672-24.576 52.224-54.272 52.224zM1352.704 653.312c0-15.36-10.24-32.768-15.36-38.912 28.672-203.776-21.504-294.912-23.552-296.96-23.552-64.512-73.728-68.608-76.8-68.608l-696.32 2.048c-153.6 0-359.424 189.44-368.64 197.632-36.864 34.816-41.984 91.136-41.984 94.208v94.208c-14.336 4.096-20.48 17.408-20.48 27.648v28.672c0 22.528 19.456 29.696 20.48 29.696 0 0 1.024 1.024 2.048 1.024 0 0 0 0 0 0l122.88-1.024c2.048 0 5.12-1.024 6.144-2.048s2.048-5.12 2.048-7.168c-3.072-11.264-5.12-20.48-5.12-31.744 0-22.528 10.24-45.056 27.648-61.44s40.96-25.6 65.536-25.6c52.224-1.024 95.232 38.912 95.232 86.016 0 11.264-2.048 19.456-5.12 30.72 0 3.072 0 5.12 1.024 7.168 2.048 2.048 4.096 3.072 6.144 3.072l38.912 1.024c2.048 0 3.072 0 4.096-1.024 1.024 0 3.072 1.024 4.096 1.024l513.024-1.024c3.072 0 5.12-1.024 6.144-3.072 2.048-2.048 2.048-4.096 2.048-7.168-3.072-8.192-4.096-19.456-4.096-32.768 0-22.528 10.24-44.032 28.672-60.416 17.408-16.384 40.96-25.6 65.536-25.6 52.224 0 97.28 38.912 97.28 86.016 0 10.24 0 20.48-3.072 31.744-1.024 2.048 0 4.096 1.024 6.144 2.048 2.048 3.072 3.072 6.144 3.072l98.304-13.312c39.936-4.096 43.008-8.192 45.056-10.24 1.024-2.048 1.024-3.072 1.024-5.12v-37.888zM458.752 706.56c2.048-8.192 3.072-16.384 3.072-25.6 0-55.296-51.2-102.4-110.592-102.4 0 0 0 0 0 0-28.672 0-55.296 11.264-75.776 30.72-21.504 19.456-32.768 46.080-32.768 72.704 0 9.216 1.024 17.408 3.072 25.6h-111.616c-3.072-1.024-9.216-5.12-9.216-14.336v-28.672c0-3.072 2.048-13.312 13.312-13.312 2.048 0 4.096 0 5.12-2.048 2.048-1.024 3.072-3.072 3.072-5.12v-32.768c0 1.024 1.024 1.024 2.048 1.024h27.648c6.144 0 13.312-3.072 17.408-7.168 5.12-5.12 8.192-11.264 8.192-18.432v-47.104c0-14.336-12.288-25.6-25.6-25.6 0 0 0 0-1.024 0h-23.552c0 0 0 0 0 0 5.12-16.384 14.336-37.888 31.744-54.272 1.024-1.024 109.568-101.376 225.28-156.672 0 0 0 0 0 0h70.656v404.48l-20.48-1.024zM155.648 543.744c0 0 1.024-6.144 2.048-14.336h18.432c0 0 0 0 0 0 5.12 0 10.24 5.12 10.24 10.24v47.104c0 3.072-1.024 5.12-3.072 7.168s-5.12 3.072-7.168 3.072h-19.456l-1.024-53.248zM495.616 286.72c0 0 0 0 0 0l-52.224 1.024c33.792-13.312 66.56-21.504 97.28-21.504l696.32-2.048c0 0 20.48 2.048 39.936 21.504l-781.312 1.024zM1304.576 691.2l-86.016 12.288c1.024-8.192 1.024-17.408 1.024-24.576 0-55.296-52.224-101.376-112.64-101.376-28.672 0-55.296 10.24-76.8 29.696-20.48 18.432-32.768 44.032-32.768 71.68 0 10.24 1.024 19.456 2.048 27.648l-495.616 1.024-1.024-404.48 786.432-2.048c4.096 6.144 7.168 13.312 11.264 22.528 0 1.024 30.72 56.32 29.696 177.152 0 0-1.024 0-1.024 0h-12.288c-14.336 0-25.6 11.264-25.6 24.576v69.632c0 13.312 11.264 24.576 25.6 24.576 0 0 0 0 0 0h5.12c0 0 1.024 1.024 1.024 1.024 4.096 5.12 14.336 22.528 14.336 32.768v32.768c-4.096 1.024-13.312 3.072-32.768 5.12zM1320.96 516.096c0 28.672-1.024 57.344-4.096 88.064-6.144 0-10.24-5.12-10.24-9.216v-69.632c0-5.12 4.096-9.216 10.24-9.216h4.096zM420.864 485.376c10.24 0 18.432-4.096 24.576-11.264 11.264-11.264 10.24-28.672 10.24-28.672l-1.024-84.992c0-2.048 0-4.096-2.048-6.144-1.024-1.024-3.072-2.048-5.12-2.048h-73.728c-1.024 0-19.456 0-39.936 15.36l-91.136 71.68c-3.072 1.024-26.624 18.432-31.744 36.864-1.024 2.048 0 5.12 1.024 6.144 1.024 2.048 4.096 3.072 6.144 3.072 0 0 0 0 0 0h201.728c0 0 1.024 0 1.024 0zM231.424 470.016c6.144-8.192 15.36-15.36 20.48-18.432l91.136-70.656c16.384-12.288 30.72-13.312 30.72-13.312s0 0 0 0h65.536v78.848c1.024 3.072 1.024 22.528-19.456 23.552h-188.416zM440.32 494.592c0 0 0 0 0 0h-35.84c-9.216 0-15.36 6.144-15.36 14.336s6.144 15.36 15.36 15.36c0 0 0 0 0 0l35.84-1.024c8.192 0 15.36-6.144 15.36-14.336 0-4.096-2.048-7.168-5.12-10.24-2.048-3.072-6.144-4.096-10.24-4.096z"></path>
</svg>
