<!-- Generated by IcoMoon.io -->
<svg version="1.1" xmlns="http://www.w3.org/2000/svg" width="1024" height="1024" viewBox="0 0 1024 1024">
<g id="icomoon-ignore">
</g>
<path d="M556.032 851.968c-9.216 0-19.456-3.072-26.624-9.216l-230.4-172.032h-151.552c-24.576 0-45.056-20.48-45.056-45.056v-227.328c0-24.576 20.48-45.056 45.056-45.056h151.552l230.4-173.056c19.456-14.336 48.128-10.24 63.488 9.216 5.12 8.192 9.216 17.408 9.216 27.648v589.824c-1.024 24.576-20.48 45.056-46.080 45.056v0zM147.456 398.336v227.328h158.72c5.12 0 10.24 1.024 14.336 4.096l235.52 177.152v-589.824l-235.52 177.152c-4.096 3.072-9.216 4.096-14.336 4.096h-158.72zM746.496 678.912c-13.312 0-23.552-10.24-23.552-22.528 0-6.144 3.072-12.288 7.168-16.384 70.656-70.656 70.656-185.344 0-256v0c-9.216-9.216-9.216-23.552-1.024-32.768 9.216-9.216 23.552-9.216 32.768 0 0 0 0 0 0 0 89.088 89.088 89.088 232.448 0 321.536-4.096 4.096-10.24 6.144-15.36 6.144v0zM797.696 733.184c-22.528-18.432 3.072-43.008 3.072-43.008 98.304-98.304 98.304-258.048 0-356.352 0 0-34.816-28.672-7.168-50.176 19.456-15.36 35.84 1.024 35.84 1.024 122.88 122.88 122.88 322.56 0 445.44-16.384 15.36-31.744 3.072-31.744 3.072zM681.984 614.4c-12.288 0-22.528-9.216-22.528-22.528 0-6.144 2.048-11.264 6.144-15.36 35.84-35.84 35.84-93.184 0-129.024-8.192-9.216-8.192-23.552 1.024-31.744 8.192-8.192 22.528-8.192 31.744 0 52.224 53.248 52.224 139.264 0 192.512-5.12 4.096-10.24 6.144-16.384 6.144v0z"></path>
</svg>
