<!-- Generated by IcoMoon.io -->
<svg version="1.1" xmlns="http://www.w3.org/2000/svg" width="1024" height="1024" viewBox="0 0 1024 1024">
<g id="icomoon-ignore">
</g>
<path d="M457.728 822.272c-9.216 0-17.408-3.072-24.576-8.192l-209.92-156.672h-138.24c-23.552 0-41.984-19.456-41.984-41.984v-206.848c0-23.552 18.432-41.984 41.984-41.984h138.24l209.92-156.672c17.408-14.336 44.032-10.24 57.344 8.192 5.12 7.168 8.192 15.36 8.192 24.576v538.624c0 22.528-18.432 40.96-40.96 40.96v0zM84.992 408.576v206.848h144.384c5.12 0 9.216 1.024 12.288 4.096l216.064 161.792v-538.624l-216.064 161.792c-3.072 2.048-7.168 4.096-12.288 4.096h-144.384zM748.544 740.352c-125.952 0-229.376-102.4-229.376-228.352s103.424-229.376 229.376-229.376c125.952 0 228.352 103.424 228.352 229.376s-102.4 228.352-228.352 228.352zM748.544 312.32c-109.568 0-199.68 90.112-199.68 199.68s90.112 199.68 199.68 199.68c109.568 0 199.68-90.112 199.68-199.68s-90.112-199.68-199.68-199.68zM748.544 744.448c-128 0-232.448-104.448-232.448-232.448s104.448-232.448 232.448-232.448c128 0 232.448 104.448 232.448 232.448s-104.448 232.448-232.448 232.448zM748.544 286.72c-123.904 0-225.28 101.376-225.28 225.28s101.376 225.28 225.28 225.28c123.904 0 225.28-101.376 225.28-225.28s-101.376-225.28-225.28-225.28zM748.544 714.752c-111.616 0-202.752-91.136-202.752-202.752s91.136-202.752 202.752-202.752c111.616 0 202.752 91.136 202.752 202.752s-91.136 202.752-202.752 202.752zM748.544 316.416c-108.544 0-195.584 88.064-195.584 195.584s87.040 195.584 195.584 195.584c107.52 0 195.584-88.064 195.584-195.584s-88.064-195.584-195.584-195.584zM706.56 577.536c-4.096 7.168-9.216 11.264-16.384 15.36-7.168 3.072-14.336 5.12-21.504 5.12-8.192 0-15.36-2.048-22.528-5.12-6.144-2.048-12.288-6.144-16.384-11.264-5.12-5.12-8.192-11.264-11.264-18.432-2.048-6.144-3.072-14.336-3.072-21.504 0-8.192 1.024-15.36 3.072-21.504 3.072-7.168 6.144-13.312 11.264-18.432s10.24-8.192 16.384-11.264c7.168-3.072 14.336-4.096 22.528-4.096s15.36 2.048 22.528 5.12c6.144 4.096 11.264 8.192 14.336 13.312h1.024v-78.848h20.48v168.96h-20.48v-17.408zM636.928 541.696c0 5.12 1.024 9.216 2.048 14.336 2.048 4.096 4.096 8.192 7.168 12.288 3.072 3.072 6.144 6.144 10.24 8.192 5.12 2.048 10.24 3.072 15.36 3.072s10.24-1.024 15.36-3.072c4.096-2.048 7.168-4.096 11.264-8.192 3.072-3.072 5.12-7.168 7.168-12.288 1.024-4.096 2.048-9.216 2.048-14.336s-1.024-9.216-2.048-14.336c-2.048-4.096-4.096-8.192-7.168-12.288-4.096-3.072-7.168-6.144-11.264-8.192-5.12-2.048-10.24-3.072-15.36-3.072s-10.24 1.024-15.36 3.072c-4.096 2.048-7.168 5.12-10.24 8.192-3.072 4.096-5.12 8.192-7.168 12.288-1.024 5.12-2.048 9.216-2.048 14.336zM769.024 437.248h54.272c6.144 0 12.288 0 18.432 2.048 6.144 1.024 11.264 3.072 15.36 6.144 5.12 3.072 9.216 7.168 12.288 12.288 2.048 5.12 4.096 11.264 4.096 19.456s-3.072 15.36-8.192 21.504c-5.12 6.144-11.264 10.24-19.456 12.288v1.024c5.12 0 9.216 1.024 13.312 3.072 5.12 2.048 8.192 5.12 11.264 8.192s6.144 7.168 7.168 11.264c2.048 5.12 3.072 10.24 3.072 15.36 0 7.168-2.048 14.336-5.12 19.456-3.072 6.144-7.168 10.24-12.288 14.336s-11.264 6.144-18.432 8.192c-7.168 2.048-15.36 3.072-23.552 3.072h-52.224v-157.696zM791.552 503.808h28.672c4.096 0 8.192-1.024 12.288-2.048 3.072-1.024 7.168-2.048 9.216-4.096 3.072-2.048 5.12-4.096 7.168-7.168 1.024-3.072 2.048-7.168 2.048-11.264 0-9.216-3.072-14.336-9.216-18.432s-14.336-5.12-25.6-5.12h-24.576v48.128zM791.552 575.488h27.648c4.096 0 9.216 0 13.312-1.024 5.12-1.024 9.216-2.048 13.312-4.096s7.168-5.12 9.216-8.192c2.048-4.096 3.072-8.192 3.072-13.312 0-9.216-3.072-16.384-9.216-20.48s-15.36-6.144-27.648-6.144h-29.696v53.248z"></path>
</svg>
