<!-- Generated by IcoMoon.io -->
<svg version="1.1" xmlns="http://www.w3.org/2000/svg" width="1024" height="1024" viewBox="0 0 1024 1024">
<g id="icomoon-ignore">
</g>
<path d="M586.752 223.232c-6.144 0-11.264 2.048-15.36 6.144l-195.584 123.904h-225.28c-13.312 0-24.576 10.24-24.576 23.552v273.408c0 12.288 11.264 23.552 24.576 23.552h225.28l198.656 122.88c4.096 3.072 8.192 4.096 12.288 4.096s8.192-1.024 11.264-3.072c8.192-4.096 12.288-12.288 12.288-20.48v-525.312c1.024-3.072 1.024-7.168 0-11.264-3.072-10.24-12.288-17.408-23.552-17.408zM563.2 290.816v443.392l-167.936-104.448c-4.096-2.048-8.192-4.096-13.312-4.096h-207.872v-225.28h207.872c5.12 0 9.216-1.024 13.312-3.072l167.936-106.496zM846.848 291.84c-4.096-8.192-12.288-13.312-21.504-13.312-4.096 0-7.168 1.024-11.264 3.072-5.12 3.072-9.216 7.168-11.264 13.312s-2.048 12.288 1.024 18.432c57.344 115.712 61.44 250.88 12.288 369.664-5.12 12.288 1.024 26.624 13.312 30.72 2.048 2.048 5.12 2.048 8.192 2.048 10.24 0 18.432-5.12 22.528-14.336 54.272-132.096 50.176-281.6-13.312-409.6zM750.592 317.44c-3.072 0-7.168 1.024-10.24 3.072-6.144 2.048-10.24 7.168-12.288 13.312s-1.024 12.288 2.048 18.432c45.056 93.184 49.152 201.728 9.216 296.96-5.12 12.288 1.024 26.624 13.312 31.744 3.072 1.024 6.144 1.024 9.216 1.024 9.216 0 17.408-5.12 21.504-14.336 45.056-108.544 40.96-231.424-11.264-336.896-4.096-8.192-12.288-13.312-21.504-13.312zM673.792 351.232c-4.096 0-7.168 1.024-11.264 2.048-5.12 3.072-9.216 8.192-11.264 14.336s-2.048 12.288 1.024 17.408c35.84 73.728 38.912 159.744 8.192 236.544-5.12 11.264 1.024 25.6 13.312 30.72 2.048 1.024 5.12 2.048 8.192 2.048 10.24 0 18.432-6.144 22.528-15.36 35.84-88.064 32.768-188.416-10.24-274.432-4.096-8.192-11.264-13.312-20.48-13.312z"></path>
</svg>
