<!-- Generated by IcoMoon.io -->
<svg version="1.1" xmlns="http://www.w3.org/2000/svg" width="1024" height="1024" viewBox="0 0 1024 1024">
<g id="icomoon-ignore">
</g>
<path d="M898.048 748.544c6.144 0 10.24-2.048 13.312-7.168 2.048-3.072 2.048-7.168 1.024-11.264-1.024-3.072-3.072-7.168-7.168-9.216v0l-121.856-70.656 107.52-63.488c3.072-2.048 5.12-6.144 5.12-7.168 2.048-5.12 1.024-9.216-1.024-13.312s-6.144-5.12-8.192-6.144c-4.096-1.024-8.192 0-12.288 2.048l-121.856 71.68-209.92-122.88 209.92-120.832 122.88 71.68c2.048 1.024 4.096 2.048 6.144 2.048 5.12 0 9.216-3.072 13.312-7.168 2.048-4.096 2.048-9.216 1.024-12.288s-2.048-6.144-5.12-7.168l-1.024-1.024-106.496-63.488 121.856-70.656c7.168-4.096 9.216-13.312 5.12-20.48-1.024-3.072-4.096-6.144-8.192-7.168s-8.192 0-12.288 2.048l-122.88 70.656-2.048-125.952c0-8.192-6.144-15.36-14.336-15.36-4.096 0-7.168 2.048-10.24 5.12-3.072 2.048-4.096 6.144-4.096 10.24l1.024 143.36-209.92 121.856v-245.76l121.856-69.632c4.096-2.048 6.144-5.12 7.168-9.216s1.024-8.192-1.024-11.264c-4.096-7.168-12.288-9.216-20.48-5.12l-107.52 61.44v-140.288c0-8.192-6.144-15.36-15.36-15.36-8.192 0-14.336 6.144-14.336 15.36v141.312l-110.592-62.464c-8.192-4.096-15.36-2.048-20.48 5.12-1.024 4.096-2.048 8.192-1.024 11.264 1.024 4.096 4.096 7.168 7.168 9.216l124.928 70.656v243.712l-214.016-123.904 2.048-141.312c0-4.096-2.048-7.168-4.096-9.216-2.048-3.072-6.144-5.12-10.24-5.12-9.216 0-16.384 7.168-16.384 15.36l-1.024 122.88-120.832-68.608c-3.072-2.048-7.168-3.072-11.264-2.048s-6.144 4.096-8.192 7.168c-4.096 8.192-2.048 16.384 5.12 20.48l120.832 70.656-108.544 65.536c-4.096 1.024-6.144 5.12-6.144 7.168-1.024 4.096-1.024 8.192 2.048 12.288 3.072 5.12 6.144 7.168 12.288 7.168 3.072 0 5.12-1.024 8.192-2.048l121.856-72.704 214.016 121.856-214.016 123.904-121.856-72.704c-4.096-3.072-9.216-3.072-13.312-2.048-2.048 1.024-5.12 2.048-7.168 6.144-4.096 7.168-2.048 16.384 5.12 20.48l107.52 64.512-120.832 70.656c-4.096 2.048-6.144 5.12-7.168 9.216s0 8.192 2.048 11.264c3.072 6.144 7.168 8.192 12.288 8.192 0 0 2.048-1.024 8.192-3.072l119.808-68.608 1.024 122.88c0 9.216 8.192 15.36 15.36 15.36 5.12 0 8.192-3.072 10.24-4.096 3.072-3.072 5.12-7.168 4.096-12.288l-1.024-140.288 214.016-121.856v241.664l-124.928 70.656c-4.096 2.048-6.144 5.12-7.168 9.216s-1.024 7.168 1.024 11.264c4.096 6.144 8.192 8.192 13.312 8.192 3.072 0 5.12-1.024 7.168-2.048l110.592-62.464v143.36c0 8.192 6.144 14.336 14.336 14.336 9.216 0 15.36-6.144 15.36-14.336v-141.312l107.52 60.416c2.048 1.024 4.096 2.048 7.168 2.048 6.144 0 10.24-3.072 13.312-8.192 2.048-3.072 2.048-7.168 1.024-11.264s-3.072-7.168-7.168-9.216l-121.856-68.608v-245.76l209.92 121.856-1.024 142.336c0 4.096 1.024 8.192 4.096 11.264s6.144 5.12 10.24 5.12c8.192 0 14.336-7.168 14.336-15.36l2.048-126.976 122.88 72.704c1.024 0 3.072 1.024 8.192 1.024z"></path>
</svg>
