<!-- Generated by IcoMoon.io -->
<svg version="1.1" xmlns="http://www.w3.org/2000/svg" width="1024" height="1024" viewBox="0 0 1024 1024">
<g id="icomoon-ignore">
</g>
<path d="M861.184 684.032l-90.112-51.2 75.776-45.056c12.288-6.144 16.384-22.528 9.216-34.816s-22.528-14.336-33.792-7.168l-100.352 58.368-159.744-93.184 159.744-92.16 100.352 59.392c3.072 2.048 7.168 3.072 11.264 3.072 9.216 0 16.384-4.096 22.528-11.264 6.144-12.288 3.072-28.672-9.216-33.792l-75.776-45.056 90.112-51.2c11.264-7.168 15.36-22.528 8.192-34.816-6.144-11.264-21.504-15.36-33.792-9.216l-90.112 52.224-1.024-89.088c0-14.336-10.24-25.6-24.576-25.6-13.312 0-24.576 12.288-24.576 25.6l1.024 117.76-158.72 92.16v-186.368l99.328-57.344c12.288-6.144 17.408-21.504 10.24-33.792s-21.504-16.384-33.792-9.216l-75.776 43.008v-101.376c0-14.336-11.264-25.6-25.6-25.6-13.312 0-24.576 11.264-24.576 25.6v102.4l-78.848-44.032c-12.288-6.144-26.624-3.072-32.768 9.216-7.168 12.288-3.072 27.648 9.216 33.792l102.4 58.368v184.32l-161.792-93.184 1.024-115.712c1.024-13.312-11.264-25.6-24.576-25.6h-1.024c-13.312 0-24.576 11.264-24.576 25.6l-1.024 87.040-87.040-50.176c-12.288-7.168-27.648-3.072-33.792 8.192-7.168 12.288-3.072 27.648 8.192 34.816l89.088 51.2-77.824 46.080c-11.264 5.12-15.36 21.504-8.192 33.792 5.12 8.192 11.264 11.264 21.504 11.264 4.096 0 9.216-1.024 12.288-3.072l101.376-59.392 161.792 92.16-161.792 94.208-101.376-59.392c-11.264-7.168-27.648-4.096-33.792 7.168-6.144 12.288-3.072 27.648 8.192 34.816l77.824 45.056-89.088 52.224c-11.264 7.168-15.36 21.504-8.192 33.792 5.12 8.192 11.264 12.288 20.48 12.288 3.072 0 7.168-1.024 13.312-3.072l87.040-50.176 1.024 87.040c0 13.312 11.264 24.576 24.576 24.576h1.024c13.312 0 24.576-11.264 24.576-25.6l-1.024-115.712 161.792-93.184v184.32l-102.4 57.344c-12.288 7.168-16.384 22.528-9.216 34.816 5.12 8.192 11.264 12.288 20.48 12.288 5.12 0 9.216-1.024 12.288-3.072l78.848-45.056v105.472c0 13.312 11.264 24.576 24.576 24.576 14.336 0 25.6-11.264 25.6-24.576v-103.424l75.776 43.008c4.096 2.048 8.192 3.072 12.288 3.072 9.216 0 16.384-4.096 21.504-12.288 7.168-12.288 2.048-27.648-10.24-34.816l-99.328-55.296v-187.392l158.72 92.16-1.024 117.76c0 14.336 11.264 25.6 24.576 25.6 14.336 0 24.576-11.264 24.576-24.576l1.024-90.112 90.112 52.224c3.072 2.048 8.192 3.072 13.312 3.072 9.216 0 16.384-4.096 20.48-12.288 8.192-11.264 3.072-27.648-8.192-33.792v0zM861.184 684.032"></path>
</svg>
