<!-- Generated by IcoMoon.io -->
<svg version="1.1" xmlns="http://www.w3.org/2000/svg" width="1024" height="1024" viewBox="0 0 1024 1024">
<g id="icomoon-ignore">
</g>
<path d="M946.176 531.456v-30.72h-76.8l51.2-45.056-20.48-22.528-76.8 67.584h-58.368l72.704-64.512-20.48-23.552-98.304 89.088h-37.888c-3.072-3.072-7.168-6.144-12.288-11.264-6.144-6.144-13.312-14.336-18.432-22.528l69.632-29.696c8.192 6.144 21.504 6.144 29.696-2.048 9.216-9.216 9.216-23.552 0-32.768s-23.552-9.216-32.768 0c-4.096 4.096-6.144 8.192-6.144 13.312l-69.632 29.696c-3.072-13.312-2.048-27.648 5.12-43.008l23.552-23.552 122.88-17.408-4.096-29.696-81.92 11.264 40.96-40.96 89.088-13.312-4.096-29.696-49.152 7.168 47.104-47.104-21.504-22.528-51.2 51.2 3.072-61.44-29.696-2.048-6.144 96.256-41.984 41.984 6.144-93.184-30.72-1.024-7.168 125.952-15.36 16.384-6.144 3.072c-2.048 1.024-26.624 16.384-54.272 13.312l22.528-87.040c4.096-1.024 7.168-3.072 10.24-6.144 9.216-9.216 9.216-23.552 0-32.768-8.192-9.216-23.552-9.216-31.744 0-9.216 9.216-9.216 23.552 0 32.768 0 0 0 0 0 0l-22.528 84.992c-4.096-2.048-7.168-5.12-11.264-8.192-6.144-6.144-11.264-13.312-15.36-22.528v-40.96l74.752-98.304-24.576-19.456-50.176 66.56v-58.368l54.272-71.68-24.576-18.432-29.696 39.936v-66.56h-30.72v72.704l-41.984-47.104-22.528 20.48 64.512 72.704v58.368l-62.464-68.608-22.528 20.48 84.992 94.208v45.056c-4.096 9.216-12.288 26.624-23.552 38.912l-22.528-69.632c8.192-9.216 8.192-23.552-1.024-31.744-8.192-9.216-23.552-9.216-31.744 0-9.216 9.216-9.216 23.552 0 32.768 3.072 3.072 7.168 5.12 11.264 6.144l24.576 76.8c-1.024 0-1.024 1.024-2.048 1.024-11.264 4.096-24.576 1.024-38.912-8.192l-16.384-16.384-17.408-121.856-29.696 4.096 11.264 81.92-41.984-41.984-11.264-88.064-30.72 4.096 6.144 48.128-67.584-67.584-21.504 21.504 72.704 72.704-62.464-3.072-2.048 30.72 97.28 5.12 40.96 41.984-93.184-5.12-1.024 30.72 126.976 6.144 16.384 16.384c1.024 6.144 3.072 18.432 3.072 30.72l-55.296-21.504c-1.024-3.072-3.072-7.168-5.12-9.216-9.216-9.216-23.552-9.216-32.768 0-9.216 8.192-9.216 23.552 0 31.744 8.192 9.216 23.552 9.216 31.744 0 0 0 1.024 0 1.024 0l56.32 22.528c-4.096 13.312-13.312 25.6-29.696 31.744h-30.72l-97.28-73.728-18.432 24.576 65.536 49.152h-58.368l-70.656-53.248-18.432 23.552 37.888 29.696h-92.16v30.72h100.352l-48.128 41.984 20.48 23.552 73.728-65.536h58.368l-69.632 62.464 20.48 22.528 95.232-84.992h28.672c1.024 0 1.024 0 2.048 1.024 5.12 3.072 16.384 10.24 25.6 19.456l-52.224 25.6c-9.216-6.144-21.504-5.12-28.672 3.072-9.216 8.192-9.216 23.552 0 31.744 8.192 9.216 23.552 9.216 31.744 0 4.096-4.096 7.168-9.216 7.168-14.336l58.368-28.672c13.312 21.504 2.048 33.792-3.072 39.936l-34.816 34.816-120.832 17.408 4.096 29.696 79.872-11.264-40.96 41.984-87.040 11.264 4.096 30.72 47.104-6.144-55.296 55.296 21.504 21.504 61.44-62.464-3.072 64.512 30.72 2.048 5.12-98.304 41.984-41.984-5.12 94.208 30.72 2.048 7.168-129.024 31.744-31.744c9.216 0 23.552-1.024 36.864 2.048l-25.6 61.44c-4.096 1.024-7.168 3.072-10.24 6.144-9.216 8.192-9.216 23.552 0 31.744 8.192 9.216 23.552 9.216 31.744 0 9.216-8.192 9.216-22.528 1.024-31.744l25.6-61.44c4.096 2.048 8.192 5.12 12.288 8.192 6.144 7.168 9.216 15.36 9.216 26.624v32.768l-71.68 95.232 24.576 18.432 47.104-63.488v58.368l-52.224 68.608 24.576 18.432 27.648-38.912v78.848h30.72v-91.136l44.032 51.2 22.528-20.48-66.56-74.752v-58.368l64.512 71.68 22.528-20.48-87.040-97.28v-24.576c5.12-9.216 16.384-26.624 30.72-37.888l19.456 52.224c-1.024 0-1.024 0-1.024 0-9.216 9.216-9.216 23.552 0 32.768 9.216 8.192 23.552 8.192 32.768 0s9.216-23.552 0-32.768c-3.072-3.072-6.144-5.12-9.216-6.144l-22.528-59.392c1.024 0 2.048 0 3.072 0 9.216-3.072 17.408-2.048 26.624 3.072l32.768 32.768 17.408 123.904 29.696-4.096-11.264-83.968 40.96 40.96 12.288 91.136 30.72-5.12-7.168-50.176 56.32 56.32 21.504-22.528-58.368-58.368 60.416 3.072 2.048-30.72-95.232-5.12-41.984-40.96 92.16 5.12 1.024-30.72-124.928-7.168-34.816-34.816c-1.024-6.144-3.072-21.504 0-36.864l51.2 25.6c1.024 5.12 3.072 10.24 7.168 14.336 9.216 9.216 23.552 9.216 32.768 0 8.192-9.216 8.192-23.552 0-32.768-8.192-7.168-20.48-8.192-29.696-2.048l-52.224-26.624c8.192-12.288 20.48-19.456 37.888-22.528h47.104l94.208 70.656 18.432-24.576-61.44-47.104h57.344l67.584 51.2 18.432-24.576-34.816-26.624h62.464zM461.824 433.152c13.312-5.12 25.6-14.336 34.816-24.576l-1.024 71.68-44.032-45.056c4.096 0 7.168-1.024 10.24-2.048zM406.528 501.76c10.24-15.36 14.336-34.816 15.36-52.224l52.224 52.224h-67.584zM409.6 535.552c-1.024-1.024-2.048-2.048-3.072-3.072h67.584l-40.96 39.936c-3.072-12.288-11.264-24.576-23.552-36.864zM444.416 605.184l51.2-51.2v66.56c-15.36-10.24-33.792-14.336-51.2-15.36zM526.336 480.256l1.024-81.92c18.432 16.384 39.936 21.504 60.416 20.48l-61.44 61.44zM570.368 601.088c-17.408 5.12-31.744 16.384-44.032 29.696v-76.8l47.104 46.080c-1.024 0-2.048 1.024-3.072 1.024zM613.376 538.624c-9.216 14.336-13.312 29.696-15.36 44.032l-49.152-50.176h68.608c-1.024 2.048-3.072 4.096-4.096 6.144zM548.864 501.76l60.416-61.44c2.048 21.504 11.264 41.984 27.648 61.44h-88.064z"></path>
</svg>
