<?xml version="1.0" encoding="utf-8"?>
<!-- Generator: Adobe Illustrator 16.0.0, SVG Export Plug-In . SVG Version: 6.00 Build 0)  -->
<!DOCTYPE svg PUBLIC "-//W3C//DTD SVG 1.1//EN" "http://www.w3.org/Graphics/SVG/1.1/DTD/svg11.dtd">
<svg version="1.1" id="Layer_1" xmlns="http://www.w3.org/2000/svg" xmlns:xlink="http://www.w3.org/1999/xlink" x="0px" y="0px"
	 width="225.001px" height="50.25px" viewBox="0 0 225.001 50.25" enable-background="new 0 0 225.001 50.25" xml:space="preserve">
<g>
	<path fill="#FFFFFF" d="M221.9,8.211c-0.139-0.315-0.326-0.591-0.57-0.828c-0.24-0.238-0.523-0.425-0.844-0.56
		c-0.32-0.132-0.664-0.198-1.021-0.198c-0.359,0-0.699,0.066-1.02,0.198c-0.32,0.135-0.604,0.321-0.844,0.56
		c-0.244,0.237-0.432,0.513-0.57,0.828c-0.137,0.314-0.203,0.648-0.203,1.001c0,0.352,0.066,0.685,0.203,1
		c0.139,0.315,0.326,0.591,0.57,0.828c0.24,0.238,0.523,0.424,0.844,0.56c0.32,0.132,0.66,0.198,1.02,0.198
		c0.357,0,0.701-0.066,1.021-0.198c0.32-0.136,0.604-0.321,0.844-0.56c0.244-0.237,0.432-0.513,0.57-0.828
		c0.135-0.315,0.203-0.648,0.203-1C222.104,8.859,222.035,8.525,221.9,8.211 M221.324,10.004c-0.102,0.25-0.244,0.462-0.428,0.645
		c-0.18,0.182-0.395,0.32-0.643,0.42c-0.242,0.102-0.508,0.149-0.789,0.149c-0.279,0-0.545-0.048-0.789-0.149
		c-0.246-0.1-0.459-0.238-0.643-0.42c-0.18-0.183-0.324-0.395-0.424-0.645c-0.102-0.247-0.152-0.511-0.152-0.792
		s0.051-0.547,0.152-0.793c0.1-0.248,0.244-0.463,0.424-0.644c0.184-0.181,0.396-0.322,0.643-0.422
		c0.244-0.101,0.51-0.151,0.789-0.151c0.281,0,0.547,0.051,0.789,0.151c0.248,0.1,0.463,0.241,0.643,0.422
		c0.184,0.181,0.326,0.396,0.428,0.644c0.102,0.246,0.152,0.512,0.152,0.793S221.426,9.757,221.324,10.004"/>
	<path fill="#FFFFFF" d="M220.063,9.426c0.15-0.057,0.275-0.149,0.373-0.274c0.096-0.128,0.143-0.278,0.143-0.455
		c0-0.237-0.084-0.44-0.258-0.611c-0.172-0.168-0.398-0.253-0.674-0.253h-1.143v2.751h0.627V9.519h0.299l0.51,1.064h0.715
		L220.063,9.426z M219.844,8.949c-0.07,0.07-0.164,0.105-0.277,0.105h-0.436V8.34h0.436c0.113,0,0.207,0.034,0.277,0.104
		c0.074,0.069,0.105,0.154,0.105,0.253S219.918,8.881,219.844,8.949"/>
	<polygon fill="#E92229" points="129.594,34.817 125.674,34.817 126.363,32.242 141.777,32.242 141.09,34.817 137.172,34.817 
		134.887,43.544 127.309,43.544 	"/>
	<polygon fill="#E92229" points="143.664,32.243 151.295,32.243 148.322,43.543 140.693,43.543 	"/>
	<polygon fill="#E92229" points="172.635,32.243 187.76,32.243 187.07,34.818 179.582,34.818 179.256,36.057 186.039,36.057 
		185.369,38.632 178.582,38.632 177.965,40.969 185.459,40.969 184.791,43.543 169.664,43.543 	"/>
	<path fill="#E92229" d="M188.27,43.084c-0.709-0.361-0.969-0.889-0.783-1.587l0.533-2.044h7.799l-0.205,0.794
		c-0.139,0.535,0.109,0.805,0.736,0.805c0.33,0,0.598-0.066,0.781-0.202c0.191-0.135,0.332-0.356,0.41-0.674
		c0.043-0.178,0.068-0.321,0.074-0.438l-0.098-0.301l-0.332-0.221c-0.156-0.063-0.371-0.128-0.645-0.197l-4.969-1.235
		c-1.141-0.29-1.889-0.594-2.234-0.92c-0.33-0.341-0.42-0.797-0.273-1.363l0.311-1.211c0.375-1.411,2.158-2.113,5.344-2.113h7.854
		c3.186,0,4.588,0.702,4.211,2.113l-0.344,1.336h-7.748l0.031-0.137c0.139-0.513-0.125-0.767-0.789-0.767
		c-0.275,0-0.51,0.051-0.705,0.149c-0.195,0.104-0.314,0.239-0.361,0.407l-0.02,0.215l0.145,0.173l0.381,0.176
		c0.168,0.06,0.391,0.127,0.682,0.202l5.756,1.502c0.352,0.103,0.65,0.22,0.893,0.349s0.424,0.288,0.541,0.471
		c0.121,0.187,0.184,0.41,0.193,0.67c0.002,0.259-0.041,0.565-0.133,0.916l-0.326,1.255c-0.23,0.844-0.771,1.456-1.633,1.844
		c-0.857,0.383-2.117,0.577-3.779,0.577h-7.855C190.121,43.627,188.973,43.443,188.27,43.084"/>
	<path fill="#FFFFFF" d="M46.385,11.095c0-4.499-6.928-4.385-6.928-4.385H9.326L2.898,28.69h16.242l2.768-9.462h2.602
		c3.104,0,2.252,2.136,2.252,2.136l-2.139,7.334h16.58l1.133-3.907c1.959-6.317-8.184-7.904-8.184-7.904
		C47.029,16.682,46.385,11.095,46.385,11.095 M29.25,13.138c-0.227,0.716-0.619,1.231-1.174,1.539
		c-0.52,0.29-1.268,0.432-2.27,0.432h-2.568l1.225-4.248h2.277c1.109,0,1.805,0.149,2.188,0.466
		C29.383,11.702,29.488,12.309,29.25,13.138"/>
	<path fill="#FFFFFF" d="M213.643,11.095c0-4.499-6.924-4.385-6.924-4.385h-30.127l-6.43,21.98h16.242l2.77-9.462h2.6
		c3.104,0,2.25,2.136,2.25,2.136l-2.137,7.334h16.584l1.127-3.907c1.957-6.317-8.182-7.904-8.182-7.904
		C214.289,16.682,213.643,11.095,213.643,11.095 M196.51,13.138c-0.227,0.716-0.617,1.231-1.17,1.539
		c-0.523,0.29-1.27,0.432-2.268,0.432h-2.568l1.219-4.248h2.285c1.104,0,1.797,0.149,2.188,0.466
		C196.645,11.702,196.748,12.309,196.51,13.138"/>
	<path fill="#FFFFFF" d="M57.834,6.623L43.557,28.664h15.57l3.238-4.998h8.299v4.991h13.523V6.623H57.834z M70.678,19.578
		l-5.84,0.009l5.84-8.691V19.578z"/>
	<path fill="#FFFFFF" d="M141.377,6.623l-14.275,22.041h15.566l3.236-4.998h8.297v4.991h13.531V6.623H141.377z M154.219,19.578
		l-5.842,0.009l5.842-8.691V19.578z"/>
	<path fill="#FFFFFF" d="M130.736,9.082c-0.18-0.515-0.586-0.93-1.227-1.27c-0.699-0.367-1.707-0.646-2.98-0.827
		c-1.314-0.183-2.967-0.279-4.914-0.279H93.645L87.18,28.739h27.684c2.027,0,3.797-0.101,5.266-0.291
		c1.439-0.192,2.607-0.491,3.473-0.885c1.73-0.776,2.854-2.097,3.436-4.029l3.631-12.498C130.9,10.271,130.92,9.614,130.736,9.082
		 M113.486,13.188l-2.691,9.214c-0.219,0.744-0.602,1.277-1.129,1.578c-0.496,0.28-1.254,0.419-2.314,0.419h-2.57l3.92-13.491h2.283
		c1.102,0,1.799,0.149,2.188,0.465C113.625,11.749,113.727,12.357,113.486,13.188"/>
	<path fill="#E92229" d="M166.588,32.254h-13.262l-2.975,11.29h7.627l1.221-4.664h1.01c0,0,0.951-0.092,0.727,0.809l-1.012,3.855
		h7.75l0.641-2.609c0,0,0.826-2.276-2.238-3.434c0,0,3.309-0.168,3.82-2.533l0.012-0.037
		C170.467,32.665,168.316,32.31,166.588,32.254 M162.285,35.761c-0.09,0.335-0.25,0.573-0.477,0.716
		c-0.229,0.142-0.576,0.209-1.047,0.209h-0.979l0.479-1.865h0.982c0.496,0,0.816,0.064,0.963,0.2
		C162.354,35.158,162.385,35.404,162.285,35.761"/>
</g>
</svg>
