<?xml version="1.0" encoding="utf-8"?>
<!-- Generator: Adobe Illustrator 16.0.0, SVG Export Plug-In . SVG Version: 6.00 Build 0)  -->
<!DOCTYPE svg PUBLIC "-//W3C//DTD SVG 1.1//EN" "http://www.w3.org/Graphics/SVG/1.1/DTD/svg11.dtd">
<svg version="1.1" id="Layer_1" xmlns="http://www.w3.org/2000/svg" xmlns:xlink="http://www.w3.org/1999/xlink" x="0px" y="0px"
	 width="225.001px" height="50.25px" viewBox="0 0 225.001 50.25" enable-background="new 0 0 225.001 50.25" xml:space="preserve">
<g>
	<path fill="#131719" d="M46.385,11.098c0-4.503-6.931-4.389-6.931-4.389H9.328L2.899,28.691h16.242l2.768-9.462h2.601
		c3.104,0,2.253,2.133,2.253,2.133l-2.141,7.333h16.582l1.132-3.902c1.963-6.32-8.184-7.907-8.184-7.907
		C47.032,16.683,46.385,11.098,46.385,11.098 M29.249,13.137c-0.225,0.719-0.616,1.233-1.171,1.542
		c-0.522,0.289-1.27,0.429-2.27,0.429h-2.57l1.225-4.247h2.281c1.105,0,1.801,0.148,2.187,0.468
		C29.384,11.704,29.488,12.31,29.249,13.137"/>
	<path fill="#131719" d="M213.644,11.098c0-4.503-6.925-4.389-6.925-4.389h-30.126l-6.43,21.982h16.24l2.772-9.462h2.598
		c3.104,0,2.249,2.133,2.249,2.133l-2.135,7.333h16.583l1.127-3.902c1.955-6.32-8.181-7.907-8.181-7.907
		C214.29,16.683,213.644,11.098,213.644,11.098 M196.51,13.137c-0.229,0.719-0.615,1.233-1.169,1.542
		c-0.525,0.289-1.27,0.429-2.272,0.429h-2.564l1.222-4.247h2.283c1.103,0,1.796,0.148,2.188,0.468
		C196.644,11.704,196.749,12.31,196.51,13.137"/>
	<path fill="#131719" d="M57.835,6.625L43.561,28.664h15.566l3.239-4.997h8.297v4.989h13.525V6.625H57.835z M70.68,19.579
		l-5.842,0.01l5.842-8.694V19.579z"/>
	<path fill="#131719" d="M141.377,6.625l-14.274,22.039h15.565l3.237-4.997h8.297v4.989h13.529V6.625H141.377z M154.217,19.579
		l-5.841,0.01l5.841-8.694V19.579z"/>
	<path fill="#131719" d="M130.736,9.082c-0.181-0.515-0.585-0.928-1.226-1.267c-0.699-0.369-1.705-0.646-2.979-0.828
		c-1.315-0.182-2.972-0.281-4.915-0.281H93.645L87.18,28.739h27.682c2.029,0,3.8-0.1,5.268-0.292c1.442-0.19,2.609-0.49,3.472-0.882
		c1.731-0.775,2.854-2.099,3.438-4.033l3.633-12.494C130.903,10.271,130.925,9.614,130.736,9.082 M113.489,13.189l-2.696,9.21
		c-0.218,0.746-0.599,1.28-1.127,1.583c-0.494,0.279-1.253,0.416-2.313,0.416h-2.571l3.919-13.49h2.283
		c1.104,0,1.8,0.151,2.188,0.466C113.625,11.75,113.728,12.36,113.489,13.189"/>
	<path fill="#131719" d="M221.898,8.211c-0.138-0.315-0.325-0.591-0.569-0.828c-0.241-0.238-0.523-0.425-0.844-0.56
		c-0.321-0.132-0.664-0.198-1.022-0.198s-0.698,0.066-1.02,0.198c-0.32,0.135-0.603,0.321-0.843,0.56
		c-0.245,0.237-0.433,0.513-0.57,0.828c-0.137,0.314-0.203,0.648-0.203,1.001c0,0.352,0.066,0.684,0.203,1
		c0.138,0.316,0.325,0.591,0.57,0.828c0.24,0.239,0.522,0.424,0.843,0.56c0.321,0.131,0.661,0.198,1.02,0.198
		s0.701-0.067,1.022-0.198c0.32-0.136,0.603-0.321,0.844-0.56c0.244-0.237,0.432-0.512,0.569-0.828c0.136-0.315,0.203-0.648,0.203-1
		C222.102,8.859,222.034,8.525,221.898,8.211 M221.322,10.004c-0.102,0.25-0.243,0.461-0.428,0.644
		c-0.18,0.182-0.394,0.321-0.642,0.42c-0.243,0.102-0.508,0.149-0.79,0.149c-0.279,0-0.544-0.047-0.788-0.149
		c-0.247-0.1-0.459-0.238-0.643-0.42c-0.181-0.183-0.325-0.395-0.424-0.644c-0.103-0.248-0.152-0.511-0.152-0.792
		c0-0.281,0.05-0.547,0.152-0.793c0.099-0.248,0.243-0.463,0.424-0.644c0.184-0.181,0.396-0.322,0.643-0.421
		c0.244-0.101,0.509-0.151,0.788-0.151c0.282,0,0.547,0.05,0.79,0.151c0.248,0.1,0.462,0.241,0.642,0.421
		c0.185,0.181,0.326,0.396,0.428,0.644c0.102,0.246,0.152,0.512,0.152,0.793C221.475,9.493,221.424,9.757,221.322,10.004"/>
	<path fill="#131719" d="M220.061,9.426c0.15-0.056,0.275-0.149,0.374-0.274c0.096-0.128,0.143-0.278,0.143-0.455
		c0-0.237-0.084-0.44-0.258-0.611c-0.172-0.167-0.398-0.253-0.674-0.253h-1.144v2.751h0.627V9.519h0.3l0.509,1.064h0.715
		L220.061,9.426z M219.842,8.95c-0.07,0.07-0.163,0.105-0.277,0.105h-0.436V8.34h0.436c0.114,0,0.207,0.035,0.277,0.104
		c0.075,0.069,0.106,0.154,0.106,0.252C219.948,8.795,219.917,8.881,219.842,8.95"/>
	<path fill="#131719" d="M169.287,32.084h-12.089l-2.704,11.462h6.946l1.114-4.732h0.92c0,0,0.861-0.097,0.657,0.816l-0.924,3.916
		h7.064l0.585-2.648c0,0,0.754-2.314-2.04-3.485c0,0,3.017-0.176,3.486-2.571c0-0.016,0.004-0.031,0.007-0.046
		C172.812,32.495,170.857,32.141,169.287,32.084z M165.181,35.653c-0.083,0.341-0.231,0.581-0.437,0.724
		c-0.207,0.143-0.521,0.215-0.949,0.215H162.9l0.434-1.898h0.897c0.456,0,0.747,0.074,0.877,0.209
		C165.245,35.042,165.268,35.285,165.181,35.653z"/>
	<polygon fill="#131719" points="127.208,34.694 123.592,34.694 124.224,32.087 138.47,32.087 137.835,34.694 134.211,34.694 
		132.099,43.546 125.098,43.546 	"/>
	<polygon fill="#131719" points="142.535,39.211 139.028,32.087 145.902,32.087 147.107,34.84 149.662,32.087 156.521,32.087 
		149.585,39.211 148.551,43.542 141.507,43.542 	"/>
	<polygon fill="#131719" points="174.67,32.087 188.637,32.087 188.009,34.694 181.085,34.694 180.781,35.951 187.053,35.951 
		186.434,38.56 180.161,38.56 179.591,40.932 186.513,40.932 185.896,43.546 171.924,43.546 	"/>
	<path fill="#131719" d="M188.74,43.077c-0.654-0.366-0.893-0.905-0.723-1.609l0.495-2.072h7.206l-0.192,0.804
		c-0.126,0.548,0.1,0.815,0.685,0.815c0.305,0,0.545-0.066,0.72-0.203c0.173-0.138,0.302-0.364,0.372-0.685
		c0.044-0.178,0.07-0.325,0.074-0.442c0.008-0.118-0.026-0.222-0.085-0.306c-0.067-0.087-0.17-0.16-0.313-0.226
		c-0.144-0.065-0.341-0.132-0.596-0.198l-4.588-1.255c-1.057-0.292-1.745-0.604-2.063-0.935c-0.309-0.348-0.389-0.804-0.256-1.379
		l0.288-1.225c0.352-1.431,1.997-2.148,4.938-2.148h7.256c2.941,0,4.241,0.718,3.891,2.148l-0.317,1.352h-7.163l0.033-0.144
		c0.127-0.513-0.116-0.777-0.729-0.777c-0.255,0-0.471,0.056-0.651,0.159c-0.185,0.104-0.291,0.236-0.332,0.41
		c-0.024,0.085-0.03,0.157-0.018,0.215c0.006,0.062,0.054,0.123,0.135,0.173c0.078,0.063,0.196,0.118,0.349,0.182
		c0.153,0.061,0.36,0.131,0.627,0.207l5.317,1.52c0.334,0.104,0.605,0.225,0.824,0.355c0.227,0.131,0.39,0.29,0.5,0.479
		c0.112,0.189,0.172,0.415,0.18,0.676c0.004,0.267-0.035,0.575-0.121,0.931l-0.305,1.271c-0.21,0.855-0.713,1.482-1.505,1.872
		c-0.793,0.391-1.96,0.582-3.495,0.582h-7.254C190.449,43.625,189.394,43.441,188.74,43.077"/>
</g>
</svg>
