<?xml version="1.0" encoding="utf-8"?>
<!-- Generator: Adobe Illustrator 16.0.0, SVG Export Plug-In . SVG Version: 6.00 Build 0)  -->
<!DOCTYPE svg PUBLIC "-//W3C//DTD SVG 1.1//EN" "http://www.w3.org/Graphics/SVG/1.1/DTD/svg11.dtd">
<svg version="1.1" id="Layer_1" xmlns="http://www.w3.org/2000/svg" xmlns:xlink="http://www.w3.org/1999/xlink" x="0px" y="0px"
	 width="225.001px" height="50.25px" viewBox="0 0 225.001 50.25" enable-background="new 0 0 225.001 50.25" xml:space="preserve">
<g>
	<path fill="#131719" d="M221.898,8.211c-0.139-0.315-0.326-0.591-0.57-0.828c-0.24-0.238-0.523-0.425-0.844-0.56
		c-0.32-0.132-0.664-0.198-1.021-0.198c-0.359,0-0.699,0.066-1.02,0.198c-0.32,0.135-0.604,0.321-0.844,0.56
		c-0.244,0.237-0.432,0.513-0.57,0.828c-0.137,0.314-0.203,0.648-0.203,1.001c0,0.352,0.066,0.684,0.203,1
		c0.139,0.316,0.326,0.591,0.57,0.828c0.24,0.239,0.523,0.424,0.844,0.56c0.32,0.131,0.66,0.198,1.02,0.198
		c0.357,0,0.701-0.067,1.021-0.198c0.32-0.136,0.604-0.321,0.844-0.56c0.244-0.237,0.432-0.512,0.57-0.828
		c0.135-0.315,0.203-0.648,0.203-1C222.102,8.859,222.033,8.525,221.898,8.211 M221.322,10.004c-0.102,0.25-0.244,0.461-0.428,0.644
		c-0.18,0.182-0.395,0.321-0.643,0.42c-0.242,0.102-0.508,0.149-0.789,0.149c-0.279,0-0.545-0.047-0.789-0.149
		c-0.246-0.1-0.459-0.238-0.643-0.42c-0.18-0.183-0.324-0.395-0.424-0.644c-0.102-0.248-0.152-0.511-0.152-0.792
		c0-0.281,0.051-0.547,0.152-0.793c0.1-0.248,0.244-0.463,0.424-0.644c0.184-0.181,0.396-0.322,0.643-0.421
		c0.244-0.101,0.51-0.151,0.789-0.151c0.281,0,0.547,0.05,0.789,0.151c0.248,0.1,0.463,0.241,0.643,0.421
		c0.184,0.181,0.326,0.396,0.428,0.644c0.102,0.246,0.152,0.512,0.152,0.793C221.475,9.493,221.424,9.757,221.322,10.004"/>
	<path fill="#131719" d="M220.061,9.426c0.15-0.056,0.275-0.149,0.373-0.274c0.096-0.128,0.143-0.278,0.143-0.455
		c0-0.237-0.084-0.44-0.258-0.611c-0.172-0.167-0.398-0.253-0.674-0.253h-1.143v2.751h0.627V9.519h0.299l0.51,1.064h0.715
		L220.061,9.426z M219.842,8.95c-0.07,0.07-0.164,0.105-0.277,0.105h-0.436V8.34h0.436c0.113,0,0.207,0.035,0.277,0.104
		c0.074,0.069,0.105,0.154,0.105,0.252C219.947,8.795,219.916,8.881,219.842,8.95"/>
	<g>
		<polygon fill="#EA1F27" points="129.592,34.818 125.673,34.818 126.362,32.243 141.775,32.243 141.088,34.818 137.171,34.818 
			134.885,43.544 127.307,43.544 		"/>
		<polygon fill="#EA1F27" points="143.663,32.244 151.293,32.244 148.32,43.543 140.692,43.543 		"/>
		<polygon fill="#EA1F27" points="172.634,32.244 187.759,32.244 187.069,34.819 179.58,34.819 179.254,36.057 186.038,36.057 
			185.367,38.632 178.581,38.632 177.963,40.969 185.457,40.969 184.789,43.543 169.662,43.543 		"/>
		<path fill="#EA1F27" d="M188.268,43.084c-0.708-0.361-0.969-0.889-0.782-1.586l0.532-2.044h7.799l-0.204,0.794
			c-0.14,0.536,0.108,0.805,0.736,0.805c0.33,0,0.597-0.066,0.78-0.202c0.191-0.134,0.332-0.356,0.41-0.674
			c0.044-0.178,0.069-0.321,0.075-0.438l-0.099-0.3l-0.332-0.221c-0.156-0.063-0.37-0.128-0.645-0.198l-4.968-1.235
			c-1.141-0.29-1.89-0.594-2.234-0.92c-0.33-0.34-0.421-0.797-0.273-1.363l0.31-1.211c0.376-1.411,2.158-2.114,5.345-2.114h7.853
			c3.186,0,4.589,0.703,4.212,2.114l-0.345,1.336h-7.748l0.031-0.137c0.14-0.513-0.124-0.767-0.788-0.767
			c-0.276,0-0.51,0.05-0.705,0.149c-0.196,0.104-0.315,0.239-0.362,0.407l-0.019,0.215l0.144,0.173l0.381,0.176
			c0.168,0.06,0.391,0.127,0.682,0.202l5.757,1.502c0.352,0.103,0.65,0.22,0.892,0.348c0.242,0.129,0.424,0.288,0.541,0.471
			c0.122,0.187,0.184,0.411,0.193,0.67c0.002,0.259-0.04,0.565-0.133,0.916l-0.325,1.255c-0.231,0.843-0.772,1.456-1.633,1.844
			c-0.858,0.383-2.118,0.577-3.78,0.577h-7.854C190.119,43.627,188.971,43.444,188.268,43.084"/>
		<path fill="#131719" d="M46.383,11.095c0-4.5-6.928-4.385-6.928-4.385H9.325L2.896,28.691h16.242l2.769-9.462h2.602
			c3.103,0,2.251,2.136,2.251,2.136l-2.139,7.333h16.58l1.134-3.907c1.959-6.317-8.185-7.904-8.185-7.904
			C47.028,16.682,46.383,11.095,46.383,11.095 M29.248,13.138c-0.227,0.716-0.618,1.231-1.174,1.539
			c-0.52,0.29-1.268,0.432-2.27,0.432h-2.568l1.225-4.249h2.278c1.108,0,1.805,0.149,2.188,0.466
			C29.381,11.702,29.486,12.309,29.248,13.138"/>
		<path fill="#131719" d="M213.641,11.095c0-4.5-6.924-4.385-6.924-4.385h-30.126l-6.431,21.981h16.242l2.771-9.462h2.6
			c3.104,0,2.249,2.136,2.249,2.136l-2.137,7.333h16.584l1.128-3.907c1.956-6.317-8.183-7.904-8.183-7.904
			C214.288,16.682,213.641,11.095,213.641,11.095 M196.508,13.138c-0.227,0.716-0.616,1.231-1.169,1.539
			c-0.524,0.29-1.271,0.432-2.269,0.432h-2.568l1.219-4.249h2.286c1.103,0,1.797,0.149,2.188,0.466
			C196.643,11.702,196.746,12.309,196.508,13.138"/>
		<path fill="#131719" d="M57.833,6.623L43.556,28.665h15.569l3.239-4.998h8.298v4.991h13.523V6.623H57.833z M70.676,19.578
			l-5.84,0.009l5.84-8.692V19.578z"/>
		<path fill="#131719" d="M141.376,6.623l-14.275,22.042h15.565l3.237-4.998h8.297v4.991h13.53V6.623H141.376z M154.217,19.578
			l-5.842,0.009l5.842-8.692V19.578z"/>
		<path fill="#131719" d="M130.734,9.082c-0.18-0.515-0.585-0.93-1.227-1.27c-0.699-0.367-1.706-0.645-2.98-0.827
			c-1.313-0.183-2.967-0.28-4.914-0.28H93.643l-6.464,22.033h27.684c2.027,0,3.797-0.1,5.265-0.291
			c1.439-0.192,2.607-0.491,3.474-0.885c1.729-0.776,2.853-2.096,3.436-4.029l3.631-12.499
			C130.898,10.271,130.919,9.614,130.734,9.082 M113.484,13.188l-2.691,9.214c-0.219,0.744-0.601,1.277-1.129,1.578
			c-0.496,0.28-1.254,0.418-2.314,0.418h-2.57l3.921-13.491h2.282c1.103,0,1.799,0.149,2.188,0.465
			C113.623,11.75,113.725,12.357,113.484,13.188"/>
		<path fill="#EA1F27" d="M166.586,32.254h-13.262l-2.974,11.29h7.626l1.222-4.665h1.01c0,0,0.95-0.091,0.726,0.809l-1.012,3.856
			h7.75l0.642-2.609c0,0,0.826-2.276-2.239-3.434c0,0,3.31-0.167,3.82-2.533l0.012-0.037
			C170.465,32.666,168.315,32.31,166.586,32.254 M162.284,35.761c-0.091,0.334-0.251,0.573-0.478,0.715
			c-0.228,0.142-0.576,0.209-1.046,0.209h-0.979l0.479-1.865h0.982c0.496,0,0.815,0.064,0.963,0.2
			C162.352,35.159,162.383,35.405,162.284,35.761"/>
	</g>
</g>
</svg>
