<?xml version="1.0" encoding="utf-8"?>
<!-- Generator: Adobe Illustrator 16.0.0, SVG Export Plug-In . SVG Version: 6.00 Build 0)  -->
<!DOCTYPE svg PUBLIC "-//W3C//DTD SVG 1.1//EN" "http://www.w3.org/Graphics/SVG/1.1/DTD/svg11.dtd">
<svg version="1.1" id="Layer_1" xmlns="http://www.w3.org/2000/svg" xmlns:xlink="http://www.w3.org/1999/xlink" x="0px" y="0px"
	 width="225px" height="50.25px" viewBox="0 0 225 50.25" enable-background="new 0 0 225 50.25" xml:space="preserve">
<g>
	<path fill="#131719" d="M13.981,6.713H43.98c0,0,6.896-0.113,6.896,4.37c0,0,0.638,5.564-12.181,5.77c0,0,10.099,1.575,8.151,7.873
		l-1.128,3.891h-16.51l2.127-7.307c0,0,0.855-2.126-2.241-2.126h-2.589L23.75,28.61H7.574L13.981,6.713z M30.386,15.08
		c0.999,0,1.741-0.139,2.262-0.429c0.551-0.307,0.941-0.818,1.167-1.535c0.238-0.823,0.13-1.43-0.316-1.797
		c-0.387-0.319-1.076-0.47-2.179-0.47h-2.274l-1.219,4.231H30.386"/>
	<path fill="#131719" d="M180.524,6.713h30c0,0,6.896-0.113,6.896,4.37c0,0,0.641,5.564-12.178,5.77c0,0,10.093,1.575,8.151,7.873
		l-1.132,3.891h-16.511l2.131-7.307c0,0,0.853-2.126-2.241-2.126h-2.586l-2.763,9.427h-16.171L180.524,6.713z M196.93,15.08
		c1,0,1.742-0.139,2.261-0.429c0.552-0.307,0.944-0.818,1.169-1.535c0.241-0.823,0.13-1.43-0.32-1.797
		c-0.382-0.319-1.074-0.47-2.174-0.47h-2.274l-1.22,4.231H196.93"/>
	<path fill="#131719" d="M62.278,6.625h26.243v21.946H75.05v-4.966h-8.26l-3.229,4.973H48.063L62.278,6.625z M75.064,19.53v-8.646
		l-5.813,8.659L75.064,19.53z"/>
	<path fill="#131719" d="M145.458,6.625h26.245v21.946h-13.474v-4.966h-8.258l-3.226,4.973h-15.504L145.458,6.625z M158.246,19.53
		v-8.646l-5.815,8.659L158.246,19.53z"/>
	<path fill="#131719" d="M97.93,6.707h27.86c1.935,0,3.577,0.097,4.889,0.284c1.267,0.178,2.267,0.458,2.961,0.822
		c0.646,0.338,1.042,0.752,1.224,1.268c0.188,0.53,0.163,1.184-0.063,1.948l-3.62,12.446c-0.581,1.926-1.698,3.241-3.423,4.016
		c-0.857,0.392-2.019,0.687-3.457,0.879c-1.457,0.188-3.22,0.291-5.237,0.291H91.494L97.93,6.707z M111.582,24.33
		c1.052,0,1.806-0.131,2.301-0.413c0.529-0.302,0.908-0.832,1.124-1.577l2.681-9.175c0.244-0.826,0.132-1.433-0.313-1.805
		c-0.387-0.315-1.082-0.465-2.18-0.465h-2.273L109.02,24.33H111.582"/>
	<path fill="#131719" d="M161.854,32.081h12.088c1.572,0.058,3.524,0.412,3.022,2.714l-0.004,0.043
		c-0.472,2.396-3.487,2.571-3.487,2.571c2.792,1.171,2.041,3.486,2.041,3.486l-0.583,2.647h-7.069l0.929-3.913
		c0.202-0.914-0.66-0.819-0.66-0.819h-0.919l-1.116,4.732h-6.946L161.854,32.081z M167.556,36.589h0.892
		c0.431,0,0.747-0.071,0.951-0.216c0.208-0.141,0.354-0.381,0.438-0.722c0.084-0.367,0.066-0.614-0.075-0.752
		c-0.127-0.134-0.419-0.207-0.875-0.207h-0.897L167.556,36.589z"/>
	<polygon fill="#131719" points="131.869,34.692 128.253,34.692 128.885,32.082 143.126,32.082 142.492,34.692 138.871,34.692 
		136.759,43.542 129.759,43.542 	"/>
	<polygon fill="#131719" points="147.195,39.21 143.68,32.082 150.562,32.082 151.764,34.833 154.32,32.082 161.175,32.082 
		154.242,39.21 153.206,43.542 146.16,43.542 	"/>
	<polygon fill="#131719" points="179.324,32.082 193.29,32.082 192.661,34.692 185.738,34.692 185.436,35.948 191.706,35.948 
		191.085,38.559 184.815,38.559 184.241,40.929 191.167,40.929 190.547,43.54 176.575,43.54 	"/>
	<path fill="#131719" d="M193.392,43.075c-0.656-0.368-0.891-0.906-0.724-1.61l0.496-2.072h7.207l-0.193,0.8
		c-0.127,0.55,0.1,0.817,0.684,0.817c0.305,0,0.545-0.065,0.721-0.202c0.173-0.136,0.297-0.363,0.37-0.684
		c0.044-0.18,0.071-0.327,0.073-0.441l-0.083-0.305l-0.312-0.226c-0.145-0.065-0.34-0.137-0.594-0.199l-4.588-1.255
		c-1.058-0.292-1.747-0.605-2.066-0.933c-0.307-0.344-0.388-0.805-0.255-1.383l0.29-1.225c0.351-1.429,1.993-2.144,4.935-2.144
		h7.254c2.942,0,4.242,0.715,3.891,2.144l-0.317,1.355h-7.159l0.03-0.146c0.129-0.513-0.116-0.776-0.728-0.776
		c-0.256,0-0.472,0.058-0.652,0.159c-0.186,0.104-0.291,0.235-0.334,0.408l-0.016,0.216l0.133,0.175l0.349,0.185
		c0.154,0.057,0.365,0.125,0.627,0.199l5.32,1.525c0.332,0.101,0.604,0.221,0.824,0.355c0.225,0.129,0.391,0.287,0.501,0.476
		c0.11,0.19,0.168,0.415,0.175,0.676c0.004,0.264-0.034,0.576-0.119,0.93l-0.304,1.272c-0.212,0.856-0.711,1.48-1.504,1.869
		c-0.798,0.389-1.963,0.588-3.494,0.588h-7.254C195.103,43.625,194.044,43.44,193.392,43.075"/>
</g>
</svg>
