<?xml version="1.0" encoding="UTF-8"?>
<!-- Generator: Adobe Illustrator 17.0.0, SVG Export Plug-In . SVG Version: 6.00 Build 0)  -->
<!DOCTYPE svg PUBLIC "-//W3C//DTD SVG 1.1//EN" "http://www.w3.org/Graphics/SVG/1.1/DTD/svg11.dtd">
<svg version="1.1" id="Layer_1" xmlns="http://www.w3.org/2000/svg" xmlns:xlink="http://www.w3.org/1999/xlink" x="0px" y="0px" width="500px" height="500px" viewBox="0 0 500 500" enable-background="new 0 0 500 500" xml:space="preserve">
<g>
	<g>
		<path d="M473.959,244.505c-7.563,0-13.614,6.051-13.614,13.614v123.826c0,33.678-27.424,61.01-61.004,61.01H100.659    c-33.678,0-61.004-27.43-61.004-61.01V256.101c0-7.563-6.051-13.614-13.614-13.614c-7.563,0-13.614,6.051-13.614,13.614v125.844    c0,48.706,39.63,88.233,88.233,88.233h298.682c48.706,0,88.233-39.625,88.233-88.233V258.119    C487.574,250.655,481.522,244.505,473.959,244.505L473.959,244.505z M473.959,244.505"/>
	</g>
	<path d="M240.419,362.084c2.624,2.619,6.155,4.032,9.581,4.032c3.427,0,6.958-1.31,9.577-4.032l86.52-86.52   c5.347-5.347,5.347-13.914,0-19.261c-5.343-5.343-13.914-5.343-19.258,0l-63.225,63.328V43.436c0-7.563-6.052-13.614-13.614-13.614   s-13.613,6.052-13.613,13.614v276.195l-63.325-63.328c-5.347-5.343-13.919-5.343-19.261,0c-5.342,5.347-5.342,13.914,0,19.261   L240.419,362.084z M240.419,362.084"/>
</g>
</svg>